<svg width="544" height="250" viewBox="0 0 544 250" fill="none" xmlns="http://www.w3.org/2000/svg">
<path d="M91.6493 217.528L90 214.695V250H496V142.589L492.427 140.786L489.128 148.769L484.73 146.451H476.483L473.735 147.997L467.412 145.164L460.815 147.997L458.066 145.164L456.417 146.451L451.744 138.983L446.796 143.876H438.825L430.578 134.863L424.531 142.589L420.133 137.181L414.36 134.863L408.588 137.181L403.915 142.589L401.441 134.863L396.493 137.181L391.82 131L388.796 138.983L386.047 134.863L382.199 146.451L376.701 150.057L371.204 146.451L365.706 150.057L363.507 147.997L357.735 156.752L355.261 154.95L352.512 164.993L349.763 162.16L348.664 167.311L340.967 158.04L335.744 147.997L334.095 169.371L331.071 167.311L325.573 184.05L322 188.17L320.626 185.08L316.502 197.699L311.555 200.274L308.256 217.528L302.483 212.635V220.361L291.213 200.274L286.54 195.896L282.142 205.424L279.393 200.274L276.095 207.485H270.322L257.128 191.261L250.531 200.274L242.834 195.896L237.062 200.274L229.915 193.321L224.692 195.896L222.493 189.458L218.37 195.896L215.346 193.321L210.673 209.287L207.1 205.424L204.9 217.528L199.678 209.287L196.929 203.107L192.531 217.528L190.057 189.458L182.635 181.732L177.412 178.642L174.114 181.732L171.365 176.839L160.37 195.896L154.872 203.107L148.275 200.274V205.424L143.602 200.274L138.104 212.635H136.18L129.583 217.528L126.559 212.635L118.863 223.966V235.297L113.365 217.528L108.692 207.485L103.469 212.635L97.4218 207.485L91.6493 217.528Z" fill="url(#paint0_linear_4846_3927)" fill-opacity="0.2"/>
<path d="M90 214.695L91.6493 217.528L97.4218 207.485L103.469 212.635L108.692 207.485L113.365 217.528L118.863 235.297V223.966L126.559 212.635L129.583 217.528L136.18 212.635H138.104L143.602 200.274L148.275 205.425V200.274L154.872 203.107L160.37 195.896L171.365 176.839L174.114 181.732L177.412 178.642L182.635 181.732L190.057 189.458L192.531 217.528L196.929 203.107L199.678 209.287L204.9 217.528L207.1 205.425L210.673 209.287L215.346 193.321L218.37 195.896L222.493 189.458L224.692 195.896L229.915 193.321L237.062 200.274L242.834 195.896L250.531 200.274L257.128 191.261L270.322 207.485H276.095L279.393 200.274L282.142 205.425L286.54 195.896L291.213 200.274L302.483 220.361V212.635L308.256 217.528L311.554 200.274L316.502 197.699L320.626 185.08L322 188.17L325.573 184.05L331.071 167.311L334.095 169.371L335.744 147.997L340.967 158.04L348.664 167.311L349.763 162.16L352.512 164.993L355.261 154.95L357.735 156.752L363.507 147.997L365.706 150.057L371.204 146.451L376.701 150.057L382.199 146.451L386.047 134.863L388.796 138.983L391.82 131L396.493 137.181L401.441 134.863L403.915 142.589L408.588 137.181L414.36 134.863L420.133 137.181L424.531 142.589L430.578 134.863L438.825 143.876H446.796L451.744 138.983L456.417 146.451L458.066 145.164L460.815 147.997L467.412 145.164L473.735 147.997L476.483 146.451H484.73L489.128 148.769L492.427 140.786L496 142.589" stroke="#5235E8" stroke-width="2"/>
<path d="M51.9 76C51.212 76 50.628 75.888 50.148 75.664C49.668 75.432 49.3 75.108 49.044 74.692C48.796 74.268 48.672 73.772 48.672 73.204H49.752C49.752 73.476 49.816 73.752 49.944 74.032C50.08 74.312 50.304 74.548 50.616 74.74C50.928 74.924 51.356 75.016 51.9 75.016C52.62 75.016 53.152 74.864 53.496 74.56C53.848 74.256 54.024 73.908 54.024 73.516C54.024 73.132 53.868 72.812 53.556 72.556C53.244 72.3 52.792 72.144 52.2 72.088L51.408 72.016C50.64 71.944 50.028 71.712 49.572 71.32C49.116 70.928 48.888 70.368 48.888 69.64C48.888 69.136 49.008 68.708 49.248 68.356C49.496 67.996 49.84 67.72 50.28 67.528C50.728 67.336 51.252 67.24 51.852 67.24C52.452 67.24 52.968 67.348 53.4 67.564C53.84 67.772 54.18 68.08 54.42 68.488C54.66 68.888 54.78 69.372 54.78 69.94H53.7C53.7 69.652 53.636 69.38 53.508 69.124C53.38 68.86 53.18 68.644 52.908 68.476C52.644 68.308 52.292 68.224 51.852 68.224C51.46 68.224 51.124 68.288 50.844 68.416C50.572 68.536 50.36 68.704 50.208 68.92C50.064 69.136 49.992 69.376 49.992 69.64C49.992 69.984 50.116 70.284 50.364 70.54C50.612 70.788 50.992 70.936 51.504 70.984L52.296 71.056C53.152 71.136 53.836 71.388 54.348 71.812C54.868 72.228 55.128 72.796 55.128 73.516C55.128 74.012 54.996 74.448 54.732 74.824C54.468 75.192 54.096 75.48 53.616 75.688C53.136 75.896 52.564 76 51.9 76ZM51.384 77.548V75.796H52.416V77.548H51.384ZM51.336 67.828V66.076H52.368V67.828H51.336ZM58.3361 76V67.816L58.8641 68.224H56.3921V67.24H59.4881V76H58.3361ZM65.4512 76.216C64.7952 76.216 64.2352 76.104 63.7712 75.88C63.3152 75.648 62.9432 75.336 62.6552 74.944C62.3752 74.552 62.1712 74.1 62.0432 73.588C61.9152 73.068 61.8512 72.52 61.8512 71.944V71.296C61.8512 70.488 61.9752 69.76 62.2232 69.112C62.4792 68.464 62.8712 67.952 63.3992 67.576C63.9352 67.192 64.6192 67 65.4512 67C66.2832 67 66.9632 67.192 67.4912 67.576C68.0192 67.952 68.4072 68.464 68.6552 69.112C68.9112 69.76 69.0392 70.488 69.0392 71.296V71.944C69.0392 72.52 68.9752 73.068 68.8472 73.588C68.7192 74.1 68.5112 74.552 68.2232 74.944C67.9432 75.336 67.5752 75.648 67.1192 75.88C66.6632 76.104 66.1072 76.216 65.4512 76.216ZM65.4512 75.16C66.2832 75.16 66.8912 74.88 67.2752 74.32C67.6672 73.752 67.8632 72.856 67.8632 71.632C67.8632 70.352 67.6632 69.436 67.2632 68.884C66.8712 68.332 66.2672 68.056 65.4512 68.056C64.6272 68.056 64.0152 68.332 63.6152 68.884C63.2232 69.436 63.0272 70.344 63.0272 71.608C63.0272 72.84 63.2232 73.74 63.6152 74.308C64.0072 74.876 64.6192 75.16 65.4512 75.16ZM53.52 92L51.108 89.012H50.052L52.992 85.592H54.204L51.54 88.676L51.624 88.064L54.852 92H53.52ZM49.104 92V83.24H50.256V92H49.104Z" fill="#717184"/>
<path d="M51.9 140C51.212 140 50.628 139.888 50.148 139.664C49.668 139.432 49.3 139.108 49.044 138.692C48.796 138.268 48.672 137.772 48.672 137.204H49.752C49.752 137.476 49.816 137.752 49.944 138.032C50.08 138.312 50.304 138.548 50.616 138.74C50.928 138.924 51.356 139.016 51.9 139.016C52.62 139.016 53.152 138.864 53.496 138.56C53.848 138.256 54.024 137.908 54.024 137.516C54.024 137.132 53.868 136.812 53.556 136.556C53.244 136.3 52.792 136.144 52.2 136.088L51.408 136.016C50.64 135.944 50.028 135.712 49.572 135.32C49.116 134.928 48.888 134.368 48.888 133.64C48.888 133.136 49.008 132.708 49.248 132.356C49.496 131.996 49.84 131.72 50.28 131.528C50.728 131.336 51.252 131.24 51.852 131.24C52.452 131.24 52.968 131.348 53.4 131.564C53.84 131.772 54.18 132.08 54.42 132.488C54.66 132.888 54.78 133.372 54.78 133.94H53.7C53.7 133.652 53.636 133.38 53.508 133.124C53.38 132.86 53.18 132.644 52.908 132.476C52.644 132.308 52.292 132.224 51.852 132.224C51.46 132.224 51.124 132.288 50.844 132.416C50.572 132.536 50.36 132.704 50.208 132.92C50.064 133.136 49.992 133.376 49.992 133.64C49.992 133.984 50.116 134.284 50.364 134.54C50.612 134.788 50.992 134.936 51.504 134.984L52.296 135.056C53.152 135.136 53.836 135.388 54.348 135.812C54.868 136.228 55.128 136.796 55.128 137.516C55.128 138.012 54.996 138.448 54.732 138.824C54.468 139.192 54.096 139.48 53.616 139.688C53.136 139.896 52.564 140 51.9 140ZM51.384 141.548V139.796H52.416V141.548H51.384ZM51.336 131.828V130.076H52.368V131.828H51.336ZM59.7041 140.216C59.0801 140.216 58.5241 140.104 58.0361 139.88C57.5561 139.656 57.1761 139.344 56.8961 138.944C56.6241 138.544 56.4881 138.08 56.4881 137.552C56.4881 137.2 56.5561 136.884 56.6921 136.604C56.8281 136.316 57.0161 136.068 57.2561 135.86C57.4961 135.652 57.7681 135.492 58.0721 135.38V135.26C57.8321 135.156 57.6121 135.016 57.4121 134.84C57.2201 134.664 57.0641 134.456 56.9441 134.216C56.8321 133.976 56.7761 133.704 56.7761 133.4C56.7761 132.896 56.9081 132.468 57.1721 132.116C57.4441 131.764 57.8001 131.496 58.2401 131.312C58.6881 131.12 59.1761 131.024 59.7041 131.024C60.2401 131.024 60.7281 131.12 61.1681 131.312C61.6161 131.496 61.9721 131.764 62.2361 132.116C62.5001 132.468 62.6321 132.896 62.6321 133.4C62.6321 133.704 62.5761 133.976 62.4641 134.216C62.3521 134.456 62.1961 134.664 61.9961 134.84C61.8041 135.016 61.5841 135.156 61.3361 135.26V135.38C61.6481 135.492 61.9241 135.656 62.1641 135.872C62.4041 136.08 62.5921 136.328 62.7281 136.616C62.8641 136.896 62.9321 137.208 62.9321 137.552C62.9321 138.08 62.7921 138.544 62.5121 138.944C62.2401 139.344 61.8601 139.656 61.3721 139.88C60.8921 140.104 60.3361 140.216 59.7041 140.216ZM59.7041 139.232C60.1441 139.232 60.5201 139.164 60.8321 139.028C61.1441 138.884 61.3841 138.684 61.5521 138.428C61.7201 138.164 61.8041 137.856 61.8041 137.504C61.8041 137.152 61.7201 136.848 61.5521 136.592C61.3921 136.336 61.1561 136.14 60.8441 136.004C60.5321 135.86 60.1521 135.788 59.7041 135.788C59.2641 135.788 58.8881 135.86 58.5761 136.004C58.2641 136.14 58.0241 136.336 57.8561 136.592C57.6961 136.848 57.6161 137.152 57.6161 137.504C57.6161 137.856 57.6961 138.164 57.8561 138.428C58.0241 138.684 58.2641 138.884 58.5761 139.028C58.8881 139.164 59.2641 139.232 59.7041 139.232ZM59.7041 134.876C60.2481 134.876 60.6841 134.76 61.0121 134.528C61.3401 134.288 61.5041 133.924 61.5041 133.436C61.5041 132.94 61.3361 132.58 61.0001 132.356C60.6721 132.124 60.2401 132.008 59.7041 132.008C59.1681 132.008 58.7321 132.124 58.3961 132.356C58.0681 132.588 57.9041 132.948 57.9041 133.436C57.9041 133.924 58.0681 134.288 58.3961 134.528C58.7321 134.76 59.1681 134.876 59.7041 134.876ZM69.1087 140L66.6967 137.012H65.6407L68.5807 133.592H69.7928L67.1288 136.676L67.2128 136.064L70.4408 140H69.1087ZM64.6927 140V131.24H65.8447V140H64.6927Z" fill="#717184"/>
<path d="M51.9 188C51.212 188 50.628 187.888 50.148 187.664C49.668 187.432 49.3 187.108 49.044 186.692C48.796 186.268 48.672 185.772 48.672 185.204H49.752C49.752 185.476 49.816 185.752 49.944 186.032C50.08 186.312 50.304 186.548 50.616 186.74C50.928 186.924 51.356 187.016 51.9 187.016C52.62 187.016 53.152 186.864 53.496 186.56C53.848 186.256 54.024 185.908 54.024 185.516C54.024 185.132 53.868 184.812 53.556 184.556C53.244 184.3 52.792 184.144 52.2 184.088L51.408 184.016C50.64 183.944 50.028 183.712 49.572 183.32C49.116 182.928 48.888 182.368 48.888 181.64C48.888 181.136 49.008 180.708 49.248 180.356C49.496 179.996 49.84 179.72 50.28 179.528C50.728 179.336 51.252 179.24 51.852 179.24C52.452 179.24 52.968 179.348 53.4 179.564C53.84 179.772 54.18 180.08 54.42 180.488C54.66 180.888 54.78 181.372 54.78 181.94H53.7C53.7 181.652 53.636 181.38 53.508 181.124C53.38 180.86 53.18 180.644 52.908 180.476C52.644 180.308 52.292 180.224 51.852 180.224C51.46 180.224 51.124 180.288 50.844 180.416C50.572 180.536 50.36 180.704 50.208 180.92C50.064 181.136 49.992 181.376 49.992 181.64C49.992 181.984 50.116 182.284 50.364 182.54C50.612 182.788 50.992 182.936 51.504 182.984L52.296 183.056C53.152 183.136 53.836 183.388 54.348 183.812C54.868 184.228 55.128 184.796 55.128 185.516C55.128 186.012 54.996 186.448 54.732 186.824C54.468 187.192 54.096 187.48 53.616 187.688C53.136 187.896 52.564 188 51.9 188ZM51.384 189.548V187.796H52.416V189.548H51.384ZM51.336 179.828V178.076H52.368V179.828H51.336ZM60.0761 188.24C59.4361 188.24 58.9001 188.128 58.4681 187.904C58.0441 187.68 57.7041 187.376 57.4481 186.992C57.2001 186.6 57.0201 186.152 56.9081 185.648C56.8041 185.144 56.7521 184.616 56.7521 184.064V183.488C56.7521 182.104 57.0961 181.04 57.7841 180.296C58.4721 179.544 59.4681 179.168 60.7721 179.168C61.0841 179.168 61.3481 179.176 61.5641 179.192C61.7801 179.208 62.0161 179.232 62.2721 179.264V180.248C62.0081 180.216 61.7641 180.192 61.5401 180.176C61.3161 180.16 61.0441 180.152 60.7241 180.152C59.9961 180.152 59.4201 180.288 58.9961 180.56C58.5721 180.832 58.2681 181.224 58.0841 181.736C57.9001 182.24 57.8081 182.852 57.8081 183.572V184.112L57.5201 185.18C57.5281 184.548 57.6481 184.024 57.8801 183.608C58.1201 183.192 58.4441 182.88 58.8521 182.672C59.2681 182.464 59.7441 182.36 60.2801 182.36C60.9041 182.36 61.4321 182.488 61.8641 182.744C62.2961 182.992 62.6201 183.336 62.8361 183.776C63.0601 184.216 63.1721 184.716 63.1721 185.276C63.1721 185.844 63.0561 186.352 62.8241 186.8C62.5921 187.248 62.2441 187.6 61.7801 187.856C61.3241 188.112 60.7561 188.24 60.0761 188.24ZM60.0761 187.232C60.5161 187.232 60.8841 187.148 61.1801 186.98C61.4761 186.812 61.6961 186.584 61.8401 186.296C61.9921 186 62.0681 185.66 62.0681 185.276C62.0681 184.892 61.9961 184.552 61.8521 184.256C61.7081 183.96 61.4921 183.732 61.2041 183.572C60.9241 183.404 60.5761 183.32 60.1601 183.32C59.7521 183.32 59.3841 183.396 59.0561 183.548C58.7361 183.7 58.4841 183.924 58.3001 184.22C58.1161 184.508 58.0241 184.864 58.0241 185.288C58.0241 185.64 58.0961 185.964 58.2401 186.26C58.3841 186.556 58.6081 186.792 58.9121 186.968C59.2161 187.144 59.6041 187.232 60.0761 187.232ZM69.3783 188L66.9663 185.012H65.9103L68.8503 181.592H70.0623L67.3983 184.676L67.4823 184.064L70.7103 188H69.3783ZM64.9623 188V179.24H66.1143V188H64.9623Z" fill="#717184"/>
<path d="M51.9 236C51.212 236 50.628 235.888 50.148 235.664C49.668 235.432 49.3 235.108 49.044 234.692C48.796 234.268 48.672 233.772 48.672 233.204H49.752C49.752 233.476 49.816 233.752 49.944 234.032C50.08 234.312 50.304 234.548 50.616 234.74C50.928 234.924 51.356 235.016 51.9 235.016C52.62 235.016 53.152 234.864 53.496 234.56C53.848 234.256 54.024 233.908 54.024 233.516C54.024 233.132 53.868 232.812 53.556 232.556C53.244 232.3 52.792 232.144 52.2 232.088L51.408 232.016C50.64 231.944 50.028 231.712 49.572 231.32C49.116 230.928 48.888 230.368 48.888 229.64C48.888 229.136 49.008 228.708 49.248 228.356C49.496 227.996 49.84 227.72 50.28 227.528C50.728 227.336 51.252 227.24 51.852 227.24C52.452 227.24 52.968 227.348 53.4 227.564C53.84 227.772 54.18 228.08 54.42 228.488C54.66 228.888 54.78 229.372 54.78 229.94H53.7C53.7 229.652 53.636 229.38 53.508 229.124C53.38 228.86 53.18 228.644 52.908 228.476C52.644 228.308 52.292 228.224 51.852 228.224C51.46 228.224 51.124 228.288 50.844 228.416C50.572 228.536 50.36 228.704 50.208 228.92C50.064 229.136 49.992 229.376 49.992 229.64C49.992 229.984 50.116 230.284 50.364 230.54C50.612 230.788 50.992 230.936 51.504 230.984L52.296 231.056C53.152 231.136 53.836 231.388 54.348 231.812C54.868 232.228 55.128 232.796 55.128 233.516C55.128 234.012 54.996 234.448 54.732 234.824C54.468 235.192 54.096 235.48 53.616 235.688C53.136 235.896 52.564 236 51.9 236ZM51.384 237.548V235.796H52.416V237.548H51.384ZM51.336 227.828V226.076H52.368V227.828H51.336ZM56.4641 233.924V232.508L60.1001 227.024L60.9041 227.66L57.5081 232.796L57.6161 233.012H63.2801V233.924H56.4641ZM61.0361 236V229.796H62.1161V236H61.0361ZM69.1673 236L66.7553 233.012H65.6993L68.6393 229.592H69.8513L67.1873 232.676L67.2713 232.064L70.4993 236H69.1673ZM64.7513 236V227.24H65.9033V236H64.7513Z" fill="#717184"/>
<g filter="url(#filter0_d_4846_3927)">
<rect x="130" y="48" width="132" height="80" rx="8" fill="#5235E8"/>
<rect opacity="0.1" x="142" y="84" width="108" height="32" rx="6" fill="white"/>
<circle cx="158" cy="100" r="8" fill="#DAF727"/>
<g clip-path="url(#clip0_4846_3927)">
<path d="M160.112 101.146C160.112 99.9535 159.271 99.6115 158.362 99.419L157.88 99.3214C157.167 99.1813 157.112 98.9745 157.112 98.6978C157.112 98.3387 157.436 98.124 157.978 98.124C158.62 98.124 158.785 98.4465 158.853 98.6888L158.859 98.7089C158.94 98.9202 159.128 99.0461 159.362 99.0461C159.422 99.0461 159.477 99.0369 159.518 99.0287C159.769 98.9787 159.944 98.7787 159.944 98.5418C159.944 98.483 159.933 98.4248 159.912 98.3681C159.783 97.9542 159.421 97.3025 158.419 97.1538V96.4438C158.419 95.8524 157.493 95.8524 157.493 96.4438V97.158C156.416 97.3265 156.02 98.059 156.02 98.6975C156.02 99.8593 156.829 100.183 157.619 100.346L158.14 100.457C158.883 100.608 159.014 100.802 159.014 101.152C159.014 101.581 158.651 101.836 158.044 101.836C157.255 101.836 157.094 101.481 156.987 101.083C156.924 100.862 156.725 100.72 156.479 100.72C156.425 100.72 156.382 100.727 156.33 100.736L156.315 100.739C156.06 100.799 155.89 101 155.89 101.237C155.89 101.282 155.898 101.32 155.904 101.351L155.912 101.387C156.027 101.774 156.279 102.618 157.538 102.806V103.549C157.538 103.845 157.771 104 158.001 104C158.232 104 158.465 103.845 158.465 103.549V102.819C159.465 102.689 160.113 102.05 160.113 101.146" fill="#5235E8"/>
</g>
<path d="M178.55 105C177.747 105 177.066 104.869 176.506 104.608C175.946 104.337 175.517 103.959 175.218 103.474C174.929 102.979 174.784 102.401 174.784 101.738H176.044C176.044 102.055 176.119 102.377 176.268 102.704C176.427 103.031 176.688 103.306 177.052 103.53C177.416 103.745 177.915 103.852 178.55 103.852C179.39 103.852 180.011 103.675 180.412 103.32C180.823 102.965 181.028 102.559 181.028 102.102C181.028 101.654 180.846 101.281 180.482 100.982C180.118 100.683 179.591 100.501 178.9 100.436L177.976 100.352C177.08 100.268 176.366 99.9973 175.834 99.54C175.302 99.0827 175.036 98.4293 175.036 97.58C175.036 96.992 175.176 96.4927 175.456 96.082C175.745 95.662 176.147 95.34 176.66 95.116C177.183 94.892 177.794 94.78 178.494 94.78C179.194 94.78 179.796 94.906 180.3 95.158C180.813 95.4007 181.21 95.76 181.49 96.236C181.77 96.7027 181.91 97.2673 181.91 97.93H180.65C180.65 97.594 180.575 97.2767 180.426 96.978C180.277 96.67 180.043 96.418 179.726 96.222C179.418 96.026 179.007 95.928 178.494 95.928C178.037 95.928 177.645 96.0027 177.318 96.152C177.001 96.292 176.753 96.488 176.576 96.74C176.408 96.992 176.324 97.272 176.324 97.58C176.324 97.9813 176.469 98.3313 176.758 98.63C177.047 98.9193 177.491 99.092 178.088 99.148L179.012 99.232C180.011 99.3253 180.809 99.6193 181.406 100.114C182.013 100.599 182.316 101.262 182.316 102.102C182.316 102.681 182.162 103.189 181.854 103.628C181.546 104.057 181.112 104.393 180.552 104.636C179.992 104.879 179.325 105 178.55 105ZM177.948 106.806V104.762H179.152V106.806H177.948ZM177.892 95.466V93.422H179.096V95.466H177.892ZM187.557 105.252C186.773 105.252 186.11 105.093 185.569 104.776C185.027 104.449 184.617 104.025 184.337 103.502C184.057 102.979 183.917 102.424 183.917 101.836H185.233C185.233 102.265 185.326 102.648 185.513 102.984C185.709 103.32 185.979 103.586 186.325 103.782C186.67 103.978 187.081 104.076 187.557 104.076C188.023 104.076 188.429 103.983 188.775 103.796C189.129 103.6 189.405 103.334 189.601 102.998C189.797 102.653 189.895 102.265 189.895 101.836C189.895 101.407 189.797 101.019 189.601 100.674C189.414 100.329 189.143 100.053 188.789 99.848C188.443 99.6427 188.033 99.54 187.557 99.54C187.211 99.54 186.861 99.6007 186.507 99.722C186.152 99.834 185.867 99.9973 185.653 100.212H184.421L184.939 94.78H190.301V95.928H185.723L186.059 95.466L185.667 99.428L185.303 99.302C185.573 99.0313 185.9 98.8167 186.283 98.658C186.675 98.4993 187.118 98.42 187.613 98.42C188.397 98.42 189.055 98.5833 189.587 98.91C190.119 99.2273 190.52 99.6427 190.791 100.156C191.071 100.66 191.211 101.187 191.211 101.738V101.934C191.211 102.485 191.071 103.017 190.791 103.53C190.511 104.034 190.095 104.449 189.545 104.776C189.003 105.093 188.341 105.252 187.557 105.252ZM193.297 107.198L192.219 106.792L193.521 103.18L194.627 103.6L193.297 107.198ZM175.064 125V123.32C175.064 122.909 175.12 122.559 175.232 122.27C175.353 121.981 175.559 121.719 175.848 121.486C176.137 121.243 176.529 121.01 177.024 120.786L178.942 119.904C179.409 119.689 179.777 119.414 180.048 119.078C180.319 118.733 180.454 118.289 180.454 117.748C180.454 117.095 180.272 116.586 179.908 116.222C179.544 115.858 179.031 115.676 178.368 115.676C177.715 115.676 177.201 115.858 176.828 116.222C176.455 116.586 176.268 117.095 176.268 117.748H174.952C174.952 117.16 175.073 116.619 175.316 116.124C175.568 115.629 175.946 115.237 176.45 114.948C176.954 114.649 177.593 114.5 178.368 114.5C179.143 114.5 179.777 114.649 180.272 114.948C180.776 115.237 181.149 115.62 181.392 116.096C181.644 116.572 181.77 117.09 181.77 117.65V117.846C181.77 118.583 181.555 119.204 181.126 119.708C180.706 120.212 180.137 120.627 179.418 120.954L177.5 121.836C177.071 122.032 176.781 122.228 176.632 122.424C176.483 122.62 176.408 122.881 176.408 123.208V124.496L176.044 123.852H181.896V125H175.064ZM187.54 125.28C186.794 125.28 186.168 125.149 185.664 124.888C185.17 124.627 184.773 124.272 184.474 123.824C184.185 123.367 183.975 122.844 183.844 122.256C183.723 121.668 183.662 121.052 183.662 120.408V119.736C183.662 118.121 184.064 116.88 184.866 116.012C185.669 115.135 186.831 114.696 188.352 114.696C188.716 114.696 189.024 114.705 189.276 114.724C189.528 114.743 189.804 114.771 190.102 114.808V115.956C189.794 115.919 189.51 115.891 189.248 115.872C188.987 115.853 188.67 115.844 188.296 115.844C187.447 115.844 186.775 116.003 186.28 116.32C185.786 116.637 185.431 117.095 185.216 117.692C185.002 118.28 184.894 118.994 184.894 119.834V120.464L184.558 121.71C184.568 120.973 184.708 120.361 184.978 119.876C185.258 119.391 185.636 119.027 186.112 118.784C186.598 118.541 187.153 118.42 187.778 118.42C188.506 118.42 189.122 118.569 189.626 118.868C190.13 119.157 190.508 119.559 190.76 120.072C191.022 120.585 191.152 121.169 191.152 121.822C191.152 122.485 191.017 123.077 190.746 123.6C190.476 124.123 190.07 124.533 189.528 124.832C188.996 125.131 188.334 125.28 187.54 125.28ZM187.54 124.104C188.054 124.104 188.483 124.006 188.828 123.81C189.174 123.614 189.43 123.348 189.598 123.012C189.776 122.667 189.864 122.27 189.864 121.822C189.864 121.374 189.78 120.977 189.612 120.632C189.444 120.287 189.192 120.021 188.856 119.834C188.53 119.638 188.124 119.54 187.638 119.54C187.162 119.54 186.733 119.629 186.35 119.806C185.977 119.983 185.683 120.245 185.468 120.59C185.254 120.926 185.146 121.341 185.146 121.836C185.146 122.247 185.23 122.625 185.398 122.97C185.566 123.315 185.828 123.591 186.182 123.796C186.537 124.001 186.99 124.104 187.54 124.104ZM197.091 125.252C196.325 125.252 195.672 125.121 195.131 124.86C194.599 124.589 194.165 124.225 193.829 123.768C193.502 123.311 193.264 122.783 193.115 122.186C192.965 121.579 192.891 120.94 192.891 120.268V119.512C192.891 118.569 193.035 117.72 193.325 116.964C193.623 116.208 194.081 115.611 194.697 115.172C195.322 114.724 196.12 114.5 197.091 114.5C198.061 114.5 198.855 114.724 199.471 115.172C200.087 115.611 200.539 116.208 200.829 116.964C201.127 117.72 201.277 118.569 201.277 119.512V120.268C201.277 120.94 201.202 121.579 201.053 122.186C200.903 122.783 200.661 123.311 200.325 123.768C199.998 124.225 199.569 124.589 199.037 124.86C198.505 125.121 197.856 125.252 197.091 125.252ZM197.091 124.02C198.061 124.02 198.771 123.693 199.219 123.04C199.676 122.377 199.905 121.332 199.905 119.904C199.905 118.411 199.671 117.342 199.205 116.698C198.747 116.054 198.043 115.732 197.091 115.732C196.129 115.732 195.415 116.054 194.949 116.698C194.491 117.342 194.263 118.401 194.263 119.876C194.263 121.313 194.491 122.363 194.949 123.026C195.406 123.689 196.12 124.02 197.091 124.02Z" fill="white"/>
<path d="M144.208 68.952V67.92H146.164C146.58 67.92 146.924 67.84 147.196 67.68C147.468 67.512 147.672 67.288 147.808 67.008C147.952 66.728 148.024 66.416 148.024 66.072C148.024 65.72 147.952 65.404 147.808 65.124C147.672 64.844 147.468 64.624 147.196 64.464C146.924 64.304 146.58 64.224 146.164 64.224H144.208V63.192H145.948C146.668 63.192 147.268 63.308 147.748 63.54C148.236 63.764 148.604 64.084 148.852 64.5C149.1 64.916 149.224 65.408 149.224 65.976V66.168C149.224 66.728 149.1 67.22 148.852 67.644C148.604 68.06 148.236 68.384 147.748 68.616C147.268 68.84 146.668 68.952 145.948 68.952H144.208ZM143.272 72V63.192H144.448V72H143.272ZM153.675 72.216C153.115 72.216 152.623 72.12 152.199 71.928C151.775 71.736 151.415 71.484 151.119 71.172C150.831 70.852 150.611 70.496 150.459 70.104C150.315 69.712 150.243 69.312 150.243 68.904V68.688C150.243 68.28 150.319 67.88 150.471 67.488C150.623 67.088 150.847 66.732 151.143 66.42C151.439 66.1 151.799 65.848 152.223 65.664C152.647 65.472 153.131 65.376 153.675 65.376C154.219 65.376 154.703 65.472 155.127 65.664C155.551 65.848 155.911 66.1 156.207 66.42C156.503 66.732 156.727 67.088 156.879 67.488C157.031 67.88 157.107 68.28 157.107 68.688V68.904C157.107 69.312 157.031 69.712 156.879 70.104C156.735 70.496 156.515 70.852 156.219 71.172C155.931 71.484 155.575 71.736 155.151 71.928C154.727 72.12 154.235 72.216 153.675 72.216ZM153.675 71.184C154.155 71.184 154.563 71.08 154.899 70.872C155.243 70.656 155.503 70.368 155.679 70.008C155.863 69.648 155.955 69.244 155.955 68.796C155.955 68.34 155.863 67.932 155.679 67.572C155.495 67.212 155.231 66.928 154.887 66.72C154.551 66.512 154.147 66.408 153.675 66.408C153.211 66.408 152.807 66.512 152.463 66.72C152.119 66.928 151.855 67.212 151.671 67.572C151.487 67.932 151.395 68.34 151.395 68.796C151.395 69.244 151.483 69.648 151.659 70.008C151.843 70.368 152.103 70.656 152.439 70.872C152.783 71.08 153.195 71.184 153.675 71.184ZM158.892 72V65.592H159.804V68.232H159.756C159.756 67.296 159.96 66.612 160.368 66.18C160.784 65.74 161.404 65.52 162.228 65.52H162.444V66.552H162.036C161.396 66.552 160.904 66.724 160.56 67.068C160.216 67.404 160.044 67.892 160.044 68.532V72H158.892ZM166.487 72.072C166.007 72.072 165.591 72.004 165.239 71.868C164.895 71.732 164.627 71.5 164.435 71.172C164.251 70.836 164.159 70.384 164.159 69.816V63.648H165.263V69.96C165.263 70.304 165.355 70.572 165.539 70.764C165.731 70.948 165.999 71.04 166.343 71.04H167.471V72.072H166.487ZM163.055 66.456V65.592H167.471V66.456H163.055ZM169.328 72V65.268C169.328 64.556 169.516 64.032 169.892 63.696C170.268 63.36 170.82 63.192 171.548 63.192H172.34V64.152H171.356C171.06 64.152 170.832 64.236 170.672 64.404C170.512 64.564 170.432 64.788 170.432 65.076V72H169.328ZM168.44 66.528V65.664H172.46V66.528H168.44ZM176.672 72.216C176.112 72.216 175.62 72.12 175.196 71.928C174.772 71.736 174.412 71.484 174.116 71.172C173.828 70.852 173.608 70.496 173.456 70.104C173.312 69.712 173.24 69.312 173.24 68.904V68.688C173.24 68.28 173.316 67.88 173.468 67.488C173.62 67.088 173.844 66.732 174.14 66.42C174.436 66.1 174.796 65.848 175.22 65.664C175.644 65.472 176.128 65.376 176.672 65.376C177.216 65.376 177.7 65.472 178.124 65.664C178.548 65.848 178.908 66.1 179.204 66.42C179.5 66.732 179.724 67.088 179.876 67.488C180.028 67.88 180.104 68.28 180.104 68.688V68.904C180.104 69.312 180.028 69.712 179.876 70.104C179.732 70.496 179.512 70.852 179.216 71.172C178.928 71.484 178.572 71.736 178.148 71.928C177.724 72.12 177.232 72.216 176.672 72.216ZM176.672 71.184C177.152 71.184 177.56 71.08 177.896 70.872C178.24 70.656 178.5 70.368 178.676 70.008C178.86 69.648 178.952 69.244 178.952 68.796C178.952 68.34 178.86 67.932 178.676 67.572C178.492 67.212 178.228 66.928 177.884 66.72C177.548 66.512 177.144 66.408 176.672 66.408C176.208 66.408 175.804 66.512 175.46 66.72C175.116 66.928 174.852 67.212 174.668 67.572C174.484 67.932 174.392 68.34 174.392 68.796C174.392 69.244 174.48 69.648 174.656 70.008C174.84 70.368 175.1 70.656 175.436 70.872C175.78 71.08 176.192 71.184 176.672 71.184ZM181.962 72V63.24H183.114V72H181.962ZM181.074 64.152V63.24H183.114V64.152H181.074ZM185.695 72V65.592H186.847V72H185.695ZM184.711 66.504V65.592H186.847V66.504H184.711ZM186.019 64.56C185.763 64.56 185.571 64.492 185.443 64.356C185.323 64.22 185.263 64.048 185.263 63.84C185.263 63.632 185.323 63.46 185.443 63.324C185.571 63.188 185.763 63.12 186.019 63.12C186.275 63.12 186.463 63.188 186.583 63.324C186.711 63.46 186.775 63.632 186.775 63.84C186.775 64.048 186.711 64.22 186.583 64.356C186.463 64.492 186.275 64.56 186.019 64.56ZM192.087 72.216C191.527 72.216 191.035 72.12 190.611 71.928C190.187 71.736 189.827 71.484 189.531 71.172C189.243 70.852 189.023 70.496 188.871 70.104C188.727 69.712 188.655 69.312 188.655 68.904V68.688C188.655 68.28 188.731 67.88 188.883 67.488C189.035 67.088 189.259 66.732 189.555 66.42C189.851 66.1 190.211 65.848 190.635 65.664C191.059 65.472 191.543 65.376 192.087 65.376C192.631 65.376 193.115 65.472 193.539 65.664C193.963 65.848 194.323 66.1 194.619 66.42C194.915 66.732 195.139 67.088 195.291 67.488C195.443 67.88 195.519 68.28 195.519 68.688V68.904C195.519 69.312 195.443 69.712 195.291 70.104C195.147 70.496 194.927 70.852 194.631 71.172C194.343 71.484 193.987 71.736 193.563 71.928C193.139 72.12 192.647 72.216 192.087 72.216ZM192.087 71.184C192.567 71.184 192.975 71.08 193.311 70.872C193.655 70.656 193.915 70.368 194.091 70.008C194.275 69.648 194.367 69.244 194.367 68.796C194.367 68.34 194.275 67.932 194.091 67.572C193.907 67.212 193.643 66.928 193.299 66.72C192.963 66.512 192.559 66.408 192.087 66.408C191.623 66.408 191.219 66.512 190.875 66.72C190.531 66.928 190.267 67.212 190.083 67.572C189.899 67.932 189.807 68.34 189.807 68.796C189.807 69.244 189.895 69.648 190.071 70.008C190.255 70.368 190.515 70.656 190.851 70.872C191.195 71.08 191.607 71.184 192.087 71.184ZM145.3 88L142.264 79.24H143.476L146.2 87.232L145.624 86.944H147.064L146.452 87.232L148.96 79.24H150.136L147.316 88H145.3ZM155.267 88V86.08H155.075V83.86C155.075 83.42 154.959 83.088 154.727 82.864C154.503 82.64 154.171 82.528 153.731 82.528C153.483 82.528 153.227 82.532 152.963 82.54C152.699 82.548 152.447 82.556 152.207 82.564C151.967 82.572 151.759 82.584 151.583 82.6V81.592C151.759 81.576 151.943 81.564 152.135 81.556C152.335 81.54 152.539 81.532 152.747 81.532C152.955 81.524 153.155 81.52 153.347 81.52C154.003 81.52 154.539 81.6 154.955 81.76C155.371 81.912 155.679 82.164 155.879 82.516C156.079 82.868 156.179 83.344 156.179 83.944V88H155.267ZM153.167 88.168C152.687 88.168 152.271 88.088 151.919 87.928C151.575 87.76 151.307 87.52 151.115 87.208C150.931 86.896 150.839 86.52 150.839 86.08C150.839 85.624 150.939 85.244 151.139 84.94C151.347 84.636 151.647 84.408 152.039 84.256C152.431 84.096 152.903 84.016 153.455 84.016H155.195V84.88H153.407C152.943 84.88 152.587 84.992 152.339 85.216C152.091 85.44 151.967 85.728 151.967 86.08C151.967 86.432 152.091 86.716 152.339 86.932C152.587 87.148 152.943 87.256 153.407 87.256C153.679 87.256 153.939 87.208 154.187 87.112C154.435 87.008 154.639 86.84 154.799 86.608C154.967 86.368 155.059 86.04 155.075 85.624L155.387 86.08C155.347 86.536 155.235 86.92 155.051 87.232C154.875 87.536 154.627 87.768 154.307 87.928C153.995 88.088 153.615 88.168 153.167 88.168ZM158.425 88V79.24H159.577V88H158.425ZM157.537 80.152V79.24H159.577V80.152H157.537ZM164.067 88.192C163.307 88.192 162.723 87.944 162.315 87.448C161.907 86.952 161.703 86.236 161.703 85.3V81.58H162.855V85.528C162.855 86.032 162.991 86.428 163.263 86.716C163.535 86.996 163.903 87.136 164.367 87.136C164.847 87.136 165.239 86.984 165.543 86.68C165.847 86.368 165.999 85.944 165.999 85.408V81.58H167.151V88H166.239V85.252H166.383C166.383 85.884 166.299 86.42 166.131 86.86C165.963 87.292 165.711 87.624 165.375 87.856C165.047 88.08 164.627 88.192 164.115 88.192H164.067ZM172.166 88.216C171.606 88.216 171.122 88.12 170.714 87.928C170.306 87.736 169.974 87.484 169.718 87.172C169.462 86.852 169.27 86.496 169.142 86.104C169.022 85.712 168.962 85.312 168.962 84.904V84.688C168.962 84.272 169.022 83.868 169.142 83.476C169.27 83.084 169.462 82.732 169.718 82.42C169.974 82.1 170.298 81.848 170.69 81.664C171.09 81.472 171.558 81.376 172.094 81.376C172.79 81.376 173.362 81.528 173.81 81.832C174.266 82.128 174.602 82.512 174.818 82.984C175.042 83.456 175.154 83.96 175.154 84.496V85.012H169.466V84.148H174.314L174.05 84.616C174.05 84.16 173.978 83.768 173.834 83.44C173.69 83.104 173.474 82.844 173.186 82.66C172.898 82.476 172.534 82.384 172.094 82.384C171.638 82.384 171.258 82.488 170.954 82.696C170.658 82.904 170.434 83.188 170.282 83.548C170.138 83.908 170.066 84.324 170.066 84.796C170.066 85.252 170.138 85.664 170.282 86.032C170.434 86.392 170.666 86.68 170.978 86.896C171.29 87.104 171.686 87.208 172.166 87.208C172.67 87.208 173.078 87.096 173.39 86.872C173.71 86.648 173.902 86.388 173.966 86.092H175.046C174.958 86.532 174.782 86.912 174.518 87.232C174.254 87.552 173.922 87.796 173.522 87.964C173.122 88.132 172.67 88.216 172.166 88.216Z" fill="white"/>
</g>
<defs>
<filter id="filter0_d_4846_3927" x="90" y="28" width="212" height="160" filterUnits="userSpaceOnUse" color-interpolation-filters="sRGB">
<feFlood flood-opacity="0" result="BackgroundImageFix"/>
<feColorMatrix in="SourceAlpha" type="matrix" values="0 0 0 0 0 0 0 0 0 0 0 0 0 0 0 0 0 0 127 0" result="hardAlpha"/>
<feOffset dy="20"/>
<feGaussianBlur stdDeviation="20"/>
<feComposite in2="hardAlpha" operator="out"/>
<feColorMatrix type="matrix" values="0 0 0 0 0.815686 0 0 0 0 0.835294 0 0 0 0 0.866667 0 0 0 0.5 0"/>
<feBlend mode="normal" in2="BackgroundImageFix" result="effect1_dropShadow_4846_3927"/>
<feBlend mode="normal" in="SourceGraphic" in2="effect1_dropShadow_4846_3927" result="shape"/>
</filter>
<linearGradient id="paint0_linear_4846_3927" x1="293" y1="131" x2="293" y2="250" gradientUnits="userSpaceOnUse">
<stop stop-color="#5235E8" stop-opacity="0.7"/>
<stop offset="1" stop-color="#5235E8" stop-opacity="0"/>
</linearGradient>
<clipPath id="clip0_4846_3927">
<rect width="8" height="8" fill="white" transform="translate(154 96)"/>
</clipPath>
</defs>
</svg>
