<svg width="1120" height="164" viewBox="0 0 1120 164" fill="none" xmlns="http://www.w3.org/2000/svg">
<rect width="1120" height="164" rx="82" fill="url(#paint0_linear_407_8220)"/>
<line x1="300" y1="81.5" x2="358" y2="81.5" stroke="#E7E3FC"/>
<line x1="439" y1="81.5" x2="497" y2="81.5" stroke="#E7E3FC"/>
<line x1="578" y1="81.5" x2="636" y2="81.5" stroke="#E7E3FC"/>
<line x1="717" y1="81.5" x2="775" y2="81.5" stroke="#E7E3FC"/>
<line x1="856" y1="81.5" x2="914" y2="81.5" stroke="#E7E3FC"/>
<line x1="161" y1="81.5" x2="219" y2="81.5" stroke="#E7E3FC"/>
<path d="M123.778 114.345C144.504 121.991 161.305 110.281 161.305 88.1894C161.305 66.098 144.504 41.9909 123.778 34.3447C103.052 26.6985 86.25 38.4086 86.25 60.5C86.25 82.5914 103.052 106.698 123.778 114.345Z" fill="#DAF727"/>
<path opacity="0.2" d="M117.528 121.845C138.254 129.491 155.055 117.781 155.055 95.6894C155.055 73.598 138.254 49.4909 117.528 41.8447C96.8017 34.1985 80 45.9086 80 68C80 90.0914 96.8017 114.198 117.528 121.845Z" fill="#E2BD23"/>
<path d="M117.528 121.845C138.254 129.491 155.055 117.781 155.055 95.6894C155.055 73.598 138.254 49.4909 117.528 41.8447C96.8017 34.1985 80 45.9086 80 68C80 90.0914 96.8017 114.198 117.528 121.845Z" fill="#5235E8" stroke="white" stroke-width="2"/>
<mask id="mask0_407_8220" style="mask-type:luminance" maskUnits="userSpaceOnUse" x="80" y="39" width="76" height="86">
<path d="M117.528 121.845C138.254 129.491 155.055 117.781 155.055 95.6894C155.055 73.598 138.254 49.4909 117.528 41.8447C96.8017 34.1985 80 45.9086 80 68C80 90.0914 96.8017 114.198 117.528 121.845Z" fill="white"/>
</mask>
<g mask="url(#mask0_407_8220)">
<path fill-rule="evenodd" clip-rule="evenodd" d="M118.148 66.0298L107.902 62.2496V76.7551L101.65 74.4489V79.284L107.902 81.5903V96.0958L118.148 99.8759C123.557 101.871 124.722 101.697 127.053 101.35C127.234 101.323 127.422 101.295 127.619 101.267C130.361 100.876 132.492 99.6877 134.012 97.7019C135.531 95.716 136.291 93.0308 136.291 89.6461C136.291 86.2615 135.531 83.0156 134.012 79.9084C132.492 76.8012 130.361 74.0408 127.619 71.6271C124.877 69.2134 121.721 67.3476 118.148 66.0298ZM115.516 84.3994V92.4741L117.772 93.3064C121.062 94.5202 123.687 94.5455 125.645 93.3823C127.604 92.2191 128.583 90.0258 128.583 86.8023C128.583 83.5789 127.604 80.6631 125.645 78.0549C123.687 75.4466 121.062 73.5356 117.772 72.3218L115.516 71.4895V79.5642L122.802 82.2519V87.0871L115.516 84.3994Z" fill="white"/>
</g>
<path d="M262.833 34.3447C283.559 41.9909 300.361 66.0979 300.361 88.1894C300.361 110.281 283.559 121.991 262.833 114.345C242.107 106.698 225.306 82.5914 225.306 60.5C225.306 38.4086 242.107 26.6985 262.833 34.3447Z" fill="#DAF727"/>
<path d="M256.583 42.8447C276.791 50.2997 293.173 73.8041 293.173 95.3432C293.173 116.882 276.791 128.3 256.583 120.845C236.375 113.39 219.994 89.8853 219.994 68.3461C219.994 46.807 236.375 35.3896 256.583 42.8447Z" fill="#5235E8" stroke="white" stroke-width="2"/>
<path d="M270.304 103.377C267.055 106.421 262.486 106.856 256.596 104.684C250.707 102.511 246.137 98.704 242.887 93.2626C239.636 87.8187 238.011 81.7328 238.013 75.005C238.014 68.2771 239.638 63.3906 242.885 60.3453C246.134 57.2993 250.703 56.8632 256.594 59.0372C262.485 61.2112 267.054 65.0187 270.301 70.4598C273.55 75.9006 275.175 81.9858 275.176 88.7152C275.177 95.4446 273.552 100.332 270.304 103.377Z" fill="white"/>
<path d="M256.528 95.7877C258.078 96.3597 259.397 96.3957 260.482 95.8957C261.568 95.3957 262.354 94.4644 262.841 93.1019C263.327 91.7384 263.67 90.3861 263.871 89.0451C264.071 87.7041 264.17 86.2405 264.169 84.6545C264.169 82.7025 264.058 80.9146 263.836 79.2907L250.479 89.1994C251.714 92.5579 253.73 94.754 256.528 95.7877Z" fill="#5235E8"/>
<path d="M256.66 67.9326C255.11 67.3606 253.792 67.3246 252.706 67.8245C251.62 68.3245 250.834 69.2557 250.347 70.6182C249.858 71.9807 249.515 73.3329 249.318 74.6749C249.117 76.0159 249.018 77.4794 249.02 79.0654C249.02 80.11 249.051 81.1075 249.114 82.0579L261.854 72.6097C260.617 70.3133 258.885 68.7542 256.66 67.9326Z" fill="#5235E8"/>
<path d="M239.051 89.5319L237.41 87.249L249.85 78.0166L251.491 80.2995L239.051 89.5319ZM262.489 83.756L260.849 81.4731L273.289 72.2407L274.929 74.5236L262.489 83.756Z" fill="#5235E8"/>
<path d="M438.294 97.4511C433.281 117.031 412.916 122.559 392.807 109.797C372.707 97.0388 360.47 70.8193 365.485 51.2423C370.496 31.6596 390.861 26.1305 410.963 38.889C431.071 51.6494 443.306 77.871 438.293 97.4513L438.294 97.451L438.294 97.4511Z" fill="#DAF727"/>
<path d="M432.044 104.954C427.031 124.534 406.666 130.062 386.557 117.3C366.457 104.542 354.22 78.3225 359.235 58.7455C364.246 39.1628 384.611 33.6336 404.713 46.3922C424.821 59.1526 437.056 85.3741 432.043 104.954L432.044 104.954L432.044 104.954Z" fill="#5235E8" stroke="white" stroke-width="2"/>
<path fill-rule="evenodd" clip-rule="evenodd" d="M412.191 82.2521C412.938 77.2046 409.136 72.9405 403.937 69.1136L405.623 62.5252L401.505 59.9122L399.864 66.3273C398.781 65.6401 397.669 64.9588 396.564 64.2823L398.218 57.8253L394.103 55.2133L392.415 61.799C391.519 61.2511 390.639 60.7116 389.785 60.1702L389.79 60.1493L384.111 56.5427L383.016 60.8267C383.016 60.8267 386.071 62.7003 386.007 62.7225C387.674 63.7813 387.976 65.0692 387.926 65.9833L386.005 73.4892C386.119 73.5626 386.268 73.6625 386.433 73.7935L386.313 73.7177L386.313 73.7176C386.211 73.653 386.106 73.5859 385.997 73.5182L383.304 84.0322C383.101 84.497 382.583 85.1166 381.417 84.3788C381.459 84.4577 378.424 82.4784 378.424 82.4784L376.38 86.7485L381.739 90.1495C382.326 90.5229 382.906 90.898 383.48 91.2692L383.48 91.2695C383.881 91.5288 384.279 91.7864 384.675 92.0401L382.971 98.7048L387.084 101.316L388.772 94.7227C389.895 95.4624 390.986 96.1646 392.053 96.8412L390.372 103.403L394.49 106.016L396.194 99.3645C403.216 103.372 408.496 104.748 410.718 98.7984C412.509 94.0085 410.629 90.171 406.935 86.7579C409.626 87.0892 411.652 85.9505 412.193 82.2533L412.191 82.2518L412.191 82.2521ZM402.783 92.8438C401.615 97.4138 394.271 92.6371 390.911 90.4516C390.609 90.255 390.339 90.0794 390.108 89.9334L392.37 81.1052C392.651 81.2835 392.994 81.4922 393.382 81.7286C396.858 83.8421 403.979 88.1725 402.783 92.8438L402.783 92.8438ZM394.08 77.5012C396.881 79.3315 402.992 83.3243 404.056 79.1719L404.056 79.172C405.143 74.9245 399.204 71.3321 396.304 69.5775C395.978 69.3802 395.69 69.206 395.455 69.0569L393.404 77.0637C393.598 77.1866 393.825 77.335 394.08 77.5012Z" fill="white"/>
<path d="M540.945 114.345C561.671 121.991 578.472 110.281 578.472 88.1894C578.472 66.098 561.671 41.9909 540.945 34.3447C520.219 26.6985 503.417 38.4086 503.417 60.5C503.417 82.5914 520.219 106.698 540.945 114.345Z" fill="#DAF727"/>
<path d="M571.284 95.3432C571.284 116.882 554.902 128.3 534.695 120.845C514.487 113.39 498.105 89.8852 498.105 68.3461C498.105 46.807 514.487 35.3896 534.695 42.8447C554.902 50.2997 571.284 73.8041 571.284 95.3432Z" fill="#5235E8" stroke="white" stroke-width="2"/>
<path fill-rule="evenodd" clip-rule="evenodd" d="M529.465 56.1652L539.926 60.0244C540.288 60.1579 540.644 60.392 540.957 60.7025C541.27 61.013 541.528 61.3888 541.706 61.7911L557.904 98.5643C558.074 98.9519 558.164 99.3507 558.164 99.7228C558.164 100.095 558.074 100.428 557.904 100.689L552.72 108.632C552.543 108.904 552.285 109.089 551.973 109.169C551.66 109.25 551.305 109.222 550.942 109.089L518.448 97.1009C518.085 96.967 517.729 96.7325 517.416 96.4215C517.103 96.1106 516.845 95.7344 516.668 95.3316L511.487 83.5652C511.316 83.1777 511.227 82.7788 511.227 82.4068C511.227 82.0347 511.316 81.7019 511.487 81.4402L527.684 56.6184C527.862 56.347 528.12 56.162 528.433 56.0823C528.746 56.0027 529.102 56.0313 529.465 56.1652ZM534.695 70.3473L523.782 87.0386L545.609 95.091L534.695 70.3473Z" fill="white"/>
<circle cx="40" cy="40" r="40" transform="matrix(0.938191 0.346117 0 1 642.473 20.5)" fill="#DAF727"/>
<circle cx="40" cy="40" r="39" transform="matrix(0.938191 0.346117 0 1 636.223 28)" fill="#5235E8" stroke="white" stroke-width="2"/>
<path d="M674.583 52.2369V52.2653C674.61 52.4172 674.61 52.5876 674.61 52.758V73.234C674.583 73.3377 674.503 73.3366 674.423 73.3639C673.864 73.4415 673.331 73.5005 672.771 73.5497C671.998 73.6338 671.199 73.7365 670.426 73.8207L667.629 74.1518C666.856 74.2359 666.084 74.32 665.337 74.414C664.432 74.5342 663.499 74.6161 662.593 74.7363C661.82 74.8205 661.048 74.933 660.248 75.0073C659.609 75.0838 658.97 75.1319 658.357 75.2182C658.303 75.2269 658.25 75.2357 658.197 75.216C658.17 75.2062 658.17 75.2062 658.144 75.1679L658.863 74.1554C660.248 72.2242 661.607 70.3115 662.993 68.3803C664.458 66.3082 665.95 64.2459 667.416 62.1737C668.775 60.2611 670.16 58.3583 671.519 56.4456C672.505 55.0486 673.517 53.6613 674.503 52.2642C674.53 52.2173 674.556 52.1987 674.556 52.1419L674.583 52.1517C674.556 52.1703 674.583 52.2085 674.583 52.2369Z" fill="white"/>
<path d="M690.94 87.2673L690.967 87.3055L687.05 88.3313L674.74 91.5431C674.687 91.5518 674.634 91.5606 674.607 91.5792C674.527 91.5497 674.527 91.4645 674.527 91.4361V91.1805V73.6296C674.527 73.5444 674.527 73.4308 674.554 73.3555C674.581 73.2517 674.661 73.3096 674.74 73.3675C675.087 73.6656 675.46 73.9737 675.806 74.2718C676.845 75.1664 677.885 76.0609 678.924 76.9271C679.83 77.6873 680.709 78.466 681.615 79.2262C682.521 79.9864 683.426 80.775 684.332 81.5352C685.105 82.1895 685.904 82.8819 686.677 83.5362C687.45 84.1904 688.249 84.8829 689.022 85.5372C689.635 86.0472 690.247 86.5857 690.86 87.0958C690.86 87.181 690.887 87.2192 690.94 87.2673Z" fill="white"/>
<path d="M674.581 109.206C674.581 109.234 674.554 109.253 674.554 109.281L674.528 109.271C674.528 109.214 674.474 109.166 674.448 109.1C672.796 106.019 671.144 102.911 669.492 99.8307C667.813 96.6838 666.108 93.4988 664.43 90.352C662.804 87.31 661.152 84.2298 659.527 81.1879C659.101 80.3774 658.674 79.5954 658.248 78.7849C658.222 78.7183 658.195 78.6801 658.142 78.5752C658.222 78.6047 658.275 78.6811 658.301 78.7194C660.62 81.0229 662.911 83.3166 665.229 85.6202C667.893 88.2787 670.531 90.9274 673.196 93.5859L674.554 94.9392C674.608 95.0156 674.608 95.0724 674.608 95.1292V108.818C674.608 108.96 674.608 109.102 674.581 109.206Z" fill="white"/>
<path d="M658.114 75.2142V75.1858C658.967 75.1028 659.793 74.9815 660.645 74.8984C661.738 74.7619 662.83 74.6537 663.923 74.5171C664.749 74.4242 665.601 74.3128 666.427 74.2199C667.653 74.0757 668.852 73.95 670.077 73.8058C670.903 73.7129 671.729 73.62 672.582 73.5086C673.168 73.4408 673.781 73.3829 674.367 73.3152C674.42 73.3064 674.5 73.3075 674.527 73.2606C674.554 73.2704 674.554 73.2988 674.527 73.3174V91.351C674.527 91.4362 674.5 91.5116 674.554 91.588C674.5 91.6536 674.447 91.5487 674.42 91.5105C674.181 91.28 673.941 91.0496 673.701 90.7907C668.559 85.6561 663.39 80.4832 658.247 75.3486C658.221 75.3103 658.168 75.2623 658.114 75.2142Z" fill="white"/>
<path d="M690.887 90.6556L690.913 90.6655C690.913 90.7223 690.86 90.7594 690.833 90.8064C685.931 96.3532 681.028 101.928 676.126 107.475C675.619 108.055 675.087 108.625 674.58 109.205C674.554 109.167 674.554 109.139 674.554 109.11V108.94V95.1663V94.9107C675.673 94.6136 676.765 94.335 677.884 94.0379C682.201 92.9039 686.517 91.7983 690.807 90.6545C690.833 90.6928 690.86 90.6742 690.887 90.6556Z" fill="white"/>
<path d="M674.554 73.3272V73.2704V73.1V52.482C674.554 52.3968 674.528 52.3301 674.581 52.2646C679.99 63.8306 685.398 75.3682 690.781 86.9244C690.834 87.0293 690.914 87.1723 690.94 87.2958C690.567 87.0162 690.221 86.6896 689.875 86.3914C689.448 86.0353 688.995 85.641 688.569 85.285C688.303 85.0447 688.01 84.8229 687.743 84.5827C687.29 84.1884 686.837 83.8225 686.384 83.4282C686.118 83.2163 685.851 82.976 685.585 82.7357L683.826 81.235C683.533 80.9848 683.24 80.7347 682.921 80.4748L681.642 79.4065C681.375 79.1947 681.109 78.9544 680.842 78.7141L679.084 77.2133C678.791 76.9632 678.498 76.7131 678.178 76.4531L676.899 75.3849C676.606 75.1348 676.339 74.8945 676.046 74.6444C675.54 74.202 675.034 73.7597 674.501 73.3359C674.581 73.337 674.554 73.3272 674.554 73.3272Z" fill="white"/>
<circle cx="40" cy="40" r="40" transform="matrix(0.938191 0.346117 0 1 781.528 20.5)" fill="#DAF727"/>
<circle cx="40" cy="40" r="40" transform="matrix(0.938191 0.346117 0 1 775.278 28)" fill="#5235E8" stroke="white" stroke-width="2"/>
<path fill-rule="evenodd" clip-rule="evenodd" d="M803.227 68.098C804.201 58.822 811.958 54.1984 821.09 57.5674C831.021 61.2382 839.07 72.788 839.075 83.3756C839.075 93.1067 832.053 98.7833 823.011 96.4887C822.067 105.776 814.28 110.388 805.148 107.019C795.216 103.349 787.167 91.7987 787.162 81.2111C787.162 71.48 794.182 65.8025 803.227 68.098ZM823.133 92.14C829.188 93.3912 833.939 90.0795 834.861 83.9662L823.133 79.6397V92.14ZM791.377 80.6205L791.381 80.5895L803.104 84.9143V72.414C797.051 71.1653 792.302 74.4788 791.381 80.5895L791.377 80.5878V80.6205ZM818.921 95.1107L818.921 95.1083V95.1108L818.921 95.1107ZM818.921 95.1107C817.913 102.017 812.05 105.244 805.148 102.691C798.246 100.151 792.384 92.5985 791.377 84.949L818.921 95.1107ZM819.075 78.1423V90.8061L807.163 86.4117V73.7479L819.075 78.1423ZM807.316 69.4784L834.861 79.6402V79.6377C833.854 71.9882 827.992 64.4359 821.09 61.8959C814.187 59.3429 808.323 62.5706 807.316 69.4784Z" fill="white"/>
<circle cx="40" cy="40" r="40" transform="matrix(0.938191 0.346117 0 1 920.584 20.5)" fill="#DAF727"/>
<circle cx="40" cy="40" r="39" transform="matrix(0.938191 0.346117 0 1 914.334 28)" fill="#5235E8" stroke="white" stroke-width="2"/>
<path d="M967.339 64.2215L973.667 66.556L960.498 78.4801C955.729 82.7951 947.997 79.9426 943.225 72.1076L930.051 50.4651L936.384 52.8015L946.389 69.2411C947.846 71.628 949.811 73.3894 951.858 74.1444C953.904 74.8995 955.869 74.5877 957.327 73.2763L967.339 64.2215Z" fill="white"/>
<path d="M936.303 99.4382L929.971 97.1021L943.225 85.106C947.994 80.791 955.726 83.6435 960.499 91.4785L973.753 113.254L967.425 110.92L957.335 94.3451C955.877 91.9581 953.912 90.1968 951.866 89.4417C949.819 88.6866 947.854 88.9985 946.397 90.3099L936.303 99.4382Z" fill="white"/>
<defs>
<linearGradient id="paint0_linear_407_8220" x1="6.25848e-06" y1="82" x2="1120" y2="82.0001" gradientUnits="userSpaceOnUse">
<stop stop-color="white"/>
<stop offset="1" stop-color="white" stop-opacity="0"/>
</linearGradient>
</defs>
</svg>
