<svg width="32" height="25" viewBox="0 0 32 25" fill="none" xmlns="http://www.w3.org/2000/svg">
<path d="M16 1C20.3469 1 24.2565 2.00879 27.0609 3.61273C29.8832 5.22689 31.4785 7.37063 31.4785 9.61309C31.4785 11.8555 29.8832 13.9993 27.0609 15.6135C24.2565 17.2174 20.3469 18.2262 16 18.2262C11.6532 18.2262 7.74353 17.2174 4.93914 15.6135C2.11681 13.9993 0.521484 11.8555 0.521484 9.61309C0.521484 7.37063 2.11681 5.22689 4.93914 3.61273C7.74353 2.00879 11.6532 1 16 1Z" fill="url(#paint0_linear_4805_14234)" stroke="url(#paint1_linear_4805_14234)"/>
<path fill-rule="evenodd" clip-rule="evenodd" d="M0.00313573 12.6636H0V15.6541C1.73916e-06 16.8816 0.41385 18.0968 1.21793 19.2308C2.022 20.3646 3.20054 21.3948 4.68629 22.2627C6.17201 23.1305 7.93583 23.8189 9.87705 24.2887C11.8182 24.7584 13.8988 25 16 25C18.1012 25 20.1817 24.7584 22.123 24.2887C24.064 23.8189 25.8279 23.1305 27.3137 22.2627C28.7994 21.3948 29.9779 20.3646 30.7821 19.2308C31.5861 18.0968 32 16.8816 32 15.6541V12.6636H31.9969C31.8264 17.7387 24.7296 21.42 16 21.42C7.27034 21.42 0.173594 17.7387 0.00313573 12.6636Z" fill="#DAF727"/>
<g opacity="0.8" filter="url(#filter0_f_4805_14234)">
<path d="M14.8862 14.145L15.3086 15.0553C15.3552 15.156 15.4793 15.2209 15.5854 15.2007L16.355 15.0535C16.406 15.0438 16.446 15.0153 16.4663 14.9742C16.4865 14.9331 16.4853 14.8829 16.4628 14.8346L16.0404 13.9243L16.4253 13.8507L16.8475 14.761C16.8943 14.8615 17.0183 14.9266 17.1244 14.9064L17.894 14.7592C17.9449 14.7495 17.9851 14.721 18.0053 14.6799C18.0255 14.6388 18.0243 14.5886 18.0018 14.5403L17.5796 13.63L17.6441 13.6176C19.177 13.3244 19.9238 12.3626 19.3199 11.061C18.8123 9.96707 17.7601 9.51729 16.8133 9.60557L16.7835 9.54148C17.4481 9.22249 17.7495 8.58442 17.3385 7.69878C16.8209 6.58297 15.6217 6.07486 14.2712 6.3331L14.2004 6.34663L13.778 5.43623C13.7556 5.38793 13.7138 5.34549 13.6619 5.31825C13.61 5.29099 13.5521 5.28118 13.5011 5.29092L12.7316 5.43808C12.6806 5.44784 12.6405 5.47637 12.6203 5.51743C12.6001 5.55846 12.6013 5.60865 12.6237 5.65694L13.0461 6.56736L12.6052 6.65168L12.1828 5.74126C12.1604 5.69297 12.1186 5.65054 12.0667 5.6233C12.0148 5.59604 11.9569 5.58622 11.9059 5.59597L11.1926 5.73238C11.1415 5.74214 11.1015 5.77069 11.0813 5.81173C11.061 5.85276 11.0623 5.90295 11.0847 5.95126L11.5071 6.86166L9.97329 7.16369C9.92226 7.17344 9.88223 7.20199 9.862 7.24302C9.84176 7.28408 9.84299 7.33427 9.86539 7.38255L10.1996 8.10288C10.2459 8.20265 10.3687 8.26877 10.4749 8.24846L11.0542 8.13372C11.207 8.10553 11.3797 8.13563 11.5346 8.21743C11.6895 8.29924 11.814 8.4261 11.8809 8.57033L13.7411 12.5798C13.8083 12.7248 13.812 12.8753 13.7513 12.9984C13.6906 13.1215 13.5705 13.2071 13.4174 13.2363L12.8455 13.3546C12.7945 13.3643 12.7545 13.3928 12.7343 13.4339C12.714 13.4748 12.7152 13.525 12.7376 13.5733L13.0756 14.3017C13.1222 14.4021 13.2462 14.4673 13.3524 14.447L14.8862 14.145ZM13.1076 7.7347L14.4304 7.48175C15.1276 7.34844 15.7053 7.63286 15.9803 8.22572C16.2747 8.86009 15.9981 9.30232 14.9962 9.49391L14.0112 9.68227L13.1076 7.7347ZM14.4765 10.6852L15.8924 10.4144C16.7674 10.2471 17.4397 10.5785 17.7587 11.266C18.0808 11.9601 17.7669 12.4142 16.5881 12.6396L15.4815 12.8513L14.4769 10.6859L14.4765 10.6852Z" fill="#5235E8" fill-opacity="0.64"/>
</g>
<path d="M11.3822 7.25272L11.3828 7.25262L11.9615 7.13799C12.0915 7.11416 12.2384 7.13982 12.3702 7.20941C12.5021 7.27908 12.6082 7.38716 12.6652 7.51002L14.5254 11.5195C14.5826 11.6429 14.5858 11.7712 14.534 11.8761C14.4823 11.9809 14.38 12.0539 14.2496 12.0788L14.2484 12.0791L13.6778 12.1969C13.6775 12.197 13.6773 12.197 13.6771 12.197C13.6037 12.2113 13.5461 12.2524 13.517 12.3115C13.4878 12.3708 13.4895 12.4433 13.5219 12.5131L13.8598 13.2413C13.9272 13.3867 14.1063 13.4805 14.2597 13.4513L14.2602 13.4511L15.7082 13.166L16.0929 13.9952C16.1602 14.1403 16.3394 14.2343 16.4927 14.2049L17.2623 14.0578C17.3359 14.0438 17.3938 14.0025 17.423 13.9431C17.4522 13.8839 17.4505 13.8114 17.4182 13.7416L17.0333 12.9122L17.247 12.8713L17.6319 13.7007C17.6992 13.846 17.8783 13.9401 18.0317 13.9106L18.8013 13.7635C18.875 13.7493 18.9328 13.7082 18.962 13.6488C18.9912 13.5896 18.9895 13.5171 18.9571 13.4473L18.5723 12.6178C19.3422 12.4669 19.9234 12.1476 20.2356 11.6939C20.5523 11.2342 20.5881 10.6425 20.2751 9.96802C20.0125 9.40181 19.6053 8.99635 19.1359 8.74499C18.7443 8.53539 18.3147 8.43578 17.8975 8.43555C18.1477 8.27533 18.3323 8.06041 18.4241 7.79463C18.5375 7.46581 18.5069 7.06514 18.2938 6.60576C18.0248 6.02593 17.575 5.59829 17.0129 5.35144C16.4573 5.10738 15.8023 5.04454 15.1181 5.17273L14.7332 4.3432C14.7009 4.27346 14.6406 4.21216 14.5656 4.17281C14.4906 4.13344 14.407 4.11925 14.3333 4.13333L13.5638 4.28049C13.4901 4.29458 13.4323 4.33581 13.4031 4.3951C13.3738 4.45439 13.3756 4.52688 13.4079 4.59664L13.7928 5.42612L13.5229 5.47775L13.138 4.64825C13.1057 4.5785 13.0454 4.51721 12.9704 4.47784C12.8954 4.43849 12.8118 4.42429 12.7381 4.43838L12.0248 4.57479C11.9511 4.58889 11.8933 4.63011 11.864 4.6894C11.8348 4.74868 11.8366 4.82119 11.8689 4.89094L12.254 5.72087L10.8055 6.0061L10.843 6.08703L10.805 6.00619L10.8052 6.00614C10.7317 6.02028 10.6739 6.06148 10.6447 6.12071C10.6155 6.18 10.6173 6.25249 10.6496 6.32224L10.9838 7.04256C11.0504 7.18597 11.2277 7.28228 11.3822 7.25272ZM14.9289 8.50833L14.1004 6.72262L15.3377 6.48601C15.6712 6.42226 15.9652 6.46034 16.2032 6.57541C16.4401 6.68988 16.6355 6.88726 16.7646 7.16541C16.9027 7.46313 16.9028 7.70417 16.7627 7.89449C16.6194 8.08891 16.3211 8.24212 15.8284 8.33632L14.9289 8.50833ZM15.4693 9.67309L16.7997 9.41868C17.2235 9.33765 17.5862 9.37967 17.8752 9.51439C18.1623 9.6482 18.3921 9.88038 18.5429 10.2057C18.6947 10.5329 18.6923 10.7904 18.5262 10.9949C18.3556 11.2051 18.0036 11.3705 17.4202 11.482L16.3992 11.6773L15.4693 9.67309Z" fill="white" stroke="#8D79F1" stroke-width="0.25"/>
<defs>
<filter id="filter0_f_4805_14234" x="5.84766" y="1.28725" width="17.6816" height="17.9171" filterUnits="userSpaceOnUse" color-interpolation-filters="sRGB">
<feFlood flood-opacity="0" result="BackgroundImageFix"/>
<feBlend mode="normal" in="SourceGraphic" in2="BackgroundImageFix" result="shape"/>
<feGaussianBlur stdDeviation="2" result="effect1_foregroundBlur_4805_14234"/>
</filter>
<linearGradient id="paint0_linear_4805_14234" x1="32.4657" y1="1.65136" x2="-0.359682" y2="13.2643" gradientUnits="userSpaceOnUse">
<stop stop-color="#5235E8"/>
<stop offset="1" stop-color="#816CEF"/>
</linearGradient>
<linearGradient id="paint1_linear_4805_14234" x1="7.15622" y1="0.461682" x2="27.5472" y2="15.0893" gradientUnits="userSpaceOnUse">
<stop stop-color="#B0A3F5"/>
<stop offset="1" stop-color="#917FF1"/>
</linearGradient>
</defs>
</svg>
