<svg width="544" height="250" viewBox="0 0 544 250" fill="none" xmlns="http://www.w3.org/2000/svg">
<rect x="-16.4" y="122.6" width="98.8" height="38.8" rx="15.4" stroke="url(#paint0_linear_4846_2414)" stroke-width="1.2"/>
<rect x="-24.4" y="26.6" width="194.8" height="62.8" rx="23.4" stroke="url(#paint1_linear_4846_2414)" stroke-width="1.2"/>
<rect x="31.6" y="146.6" width="178.8" height="46.8" rx="23.4" stroke="url(#paint2_linear_4846_2414)" stroke-width="1.2"/>
<rect x="579.4" y="113.4" width="194.8" height="62.8" rx="23.4" transform="rotate(-180 579.4 113.4)" stroke="url(#paint3_linear_4846_2414)" stroke-width="1.2"/>
<rect x="616.4" y="201.4" width="162.8" height="38.8" rx="15.4" transform="rotate(-180 616.4 201.4)" stroke="url(#paint4_linear_4846_2414)" stroke-width="1.2"/>
<rect x="520.4" y="193.4" width="162.8" height="46.8" rx="15.4" transform="rotate(-180 520.4 193.4)" stroke="url(#paint5_linear_4846_2414)" stroke-width="1.2"/>
<g clip-path="url(#clip0_4846_2414)">
<rect x="173.723" y="19.6299" width="264" height="164" transform="rotate(15 173.723 19.6299)" fill="#DEDAFB"/>
<path d="M174.751 97.0149C174.177 97.6437 173.776 98.435 173.519 99.3951C173.258 100.369 173.209 101.254 173.392 102.086C173.575 102.918 173.954 103.613 174.552 104.194C175.147 104.788 175.921 105.199 176.867 105.452C177.598 105.648 178.296 105.69 178.971 105.552C179.629 105.424 180.211 105.145 180.717 104.715C181.206 104.296 181.586 103.745 181.852 103.077L179.823 102.534C179.557 103.042 179.197 103.41 178.735 103.619C178.273 103.829 177.774 103.854 177.219 103.706C176.462 103.503 175.93 103.056 175.649 102.372C175.355 101.684 175.342 100.869 175.588 99.9495C175.834 99.03 176.254 98.3307 176.852 97.8823C177.437 97.4302 178.122 97.3093 178.879 97.5122C179.433 97.6608 179.85 97.9463 180.145 98.3588C180.44 98.7712 180.571 99.2557 180.548 99.8292L182.576 100.373C182.677 99.6748 182.623 99.0083 182.413 98.3867C182.186 97.775 181.821 97.2425 181.319 96.7892C180.8 96.3458 180.177 96.0195 179.447 95.8238C178.501 95.5702 177.621 95.552 176.813 95.7557C176.001 95.973 175.325 96.3861 174.751 97.0149ZM183.53 106.774C184.005 107.22 184.618 107.529 185.348 107.725C186.078 107.92 186.75 107.955 187.384 107.806C188.019 107.657 188.56 107.368 189.002 106.907C189.445 106.445 189.774 105.867 189.966 105.15C190.154 104.447 190.159 103.781 190.006 103.161C189.854 102.54 189.53 102.018 189.055 101.572C188.58 101.126 187.984 100.807 187.254 100.612C186.524 100.416 185.835 100.391 185.201 100.54C184.567 100.689 184.025 100.978 183.583 101.44C183.14 101.901 182.825 102.483 182.636 103.186C182.448 103.889 182.43 104.551 182.583 105.172C182.735 105.792 183.056 106.328 183.53 106.774ZM187.171 105.952C186.759 106.247 186.292 106.311 185.765 106.169C185.238 106.028 184.865 105.74 184.656 105.278C184.443 104.83 184.424 104.303 184.584 103.708C184.743 103.113 185.019 102.679 185.431 102.384C185.84 102.102 186.31 102.025 186.837 102.167C187.365 102.308 187.733 102.61 187.947 103.058C188.156 103.52 188.192 104.037 188.032 104.632C187.873 105.227 187.58 105.67 187.171 105.952ZM194.383 99.8404C194.221 99.5796 193.993 99.4025 193.682 99.3192C193.358 99.2322 193.072 99.2716 192.801 99.4164C192.53 99.5613 192.367 99.7929 192.287 100.09C192.204 100.401 192.23 100.684 192.392 100.945C192.55 101.219 192.782 101.382 193.106 101.469C193.417 101.553 193.699 101.527 193.974 101.368C194.231 101.22 194.408 100.992 194.491 100.681C194.571 100.384 194.532 100.098 194.383 99.8404ZM191.947 101.956L190.084 108.907L191.991 109.418L193.853 102.467L191.947 101.956ZM200.992 105.104C200.598 104.462 200.005 104.028 199.193 103.811C198.679 103.673 198.235 103.655 197.853 103.727C197.458 103.795 197.112 103.949 196.789 104.181L196.845 103.268L195.182 102.823L193.32 109.774L195.226 110.284L196.179 106.728C196.339 106.133 196.601 105.696 196.962 105.43C197.319 105.178 197.745 105.104 198.245 105.238C199.179 105.488 199.489 106.223 199.17 107.413L198.188 111.078L200.095 111.589L201.106 107.816C201.417 106.653 201.368 105.756 200.992 105.104ZM208.73 106.83C208.32 106.415 207.805 106.118 207.183 105.951C206.318 105.72 205.527 105.856 204.83 106.35L205.739 102.956L203.833 102.445L201.296 111.911L202.959 112.357L203.402 111.461C203.545 111.847 203.778 112.17 204.092 112.457C204.393 112.741 204.804 112.938 205.291 113.068C205.899 113.231 206.494 113.231 207.06 113.064C207.627 112.897 208.118 112.579 208.533 112.111C208.948 111.642 209.264 111.06 209.452 110.357C209.644 109.64 209.662 108.978 209.537 108.365C209.411 107.751 209.141 107.244 208.73 106.83ZM206.654 111.172C206.228 111.464 205.775 111.531 205.261 111.393C204.747 111.256 204.375 110.968 204.179 110.509C203.966 110.061 203.948 109.534 204.111 108.926C204.27 108.331 204.546 107.897 204.955 107.615C205.35 107.33 205.82 107.253 206.334 107.391C206.848 107.528 207.202 107.826 207.429 108.278C207.639 108.74 207.674 109.257 207.515 109.852C207.355 110.447 207.063 110.891 206.654 111.172ZM216.85 114.354L216.634 114.296C216.471 114.252 216.37 114.196 216.321 114.111C216.254 114.035 216.26 113.906 216.307 113.73L216.963 111.282C217.18 110.471 217.08 109.763 216.655 109.185C216.23 108.608 215.531 108.188 214.557 107.927C213.611 107.674 212.813 107.677 212.139 107.917C211.466 108.157 210.993 108.625 210.751 109.313L212.59 109.806C212.699 109.56 212.889 109.394 213.162 109.293C213.419 109.202 213.738 109.201 214.089 109.295C214.482 109.4 214.767 109.578 214.96 109.832C215.139 110.083 215.196 110.359 215.112 110.67L215.022 111.009L213.642 110.639C212.601 110.36 211.749 110.349 211.099 110.61C210.45 110.87 210.027 111.366 209.831 112.096C209.657 112.745 209.749 113.321 210.129 113.799C210.508 114.278 211.083 114.62 211.867 114.83C212.381 114.968 212.852 114.993 213.289 114.878C213.709 114.773 214.099 114.559 214.465 114.222C214.235 114.972 214.566 115.467 215.445 115.702L216.419 115.963L216.85 114.354ZM214.681 112.28L214.645 112.415C214.501 112.898 214.251 113.237 213.89 113.445C213.517 113.649 213.088 113.679 212.602 113.549C212.277 113.462 212.052 113.329 211.902 113.129C211.749 112.944 211.722 112.719 211.788 112.476C211.864 112.192 212.03 112.004 212.29 111.9C212.55 111.796 212.882 111.798 213.288 111.906L214.681 112.28ZM224.828 111.491C224.435 110.85 223.841 110.415 223.03 110.198C222.516 110.06 222.072 110.042 221.69 110.114C221.295 110.182 220.949 110.336 220.626 110.568L220.682 109.656L219.019 109.21L217.157 116.161L219.063 116.672L220.016 113.115C220.176 112.52 220.438 112.083 220.799 111.817C221.156 111.565 221.582 111.491 222.082 111.625C223.015 111.875 223.326 112.61 223.007 113.8L222.025 117.465L223.932 117.976L224.942 114.203C225.254 113.04 225.205 112.143 224.828 111.491ZM227.669 108.832L225.133 118.298L227.04 118.809L227.493 117.118L228.835 116.275L229.839 119.559L232.043 120.15L230.567 115.218L233.77 113.162L231.634 112.59L228.109 114.82L229.576 109.343L227.669 108.832Z" fill="#0E0637"/>
<path d="M251.439 118.617L250.001 116.89L250.299 115.777L252.408 115.001L252.687 116.045L250.992 116.299L250.861 116.785L252.203 117.853L251.439 118.617ZM250.897 113.453L250.119 115.568L248.996 115.863L247.271 114.42L248.032 113.667L249.104 114.998L249.598 114.869L249.851 113.185L250.897 113.453ZM246.7 116.552L248.916 116.165L249.74 116.982L249.356 119.202L248.316 118.911L248.94 117.326L248.576 116.968L246.982 117.585L246.7 116.552ZM258.073 120.395L256.635 118.668L256.933 117.555L259.042 116.779L259.322 117.822L257.626 118.076L257.496 118.563L258.837 119.631L258.073 120.395ZM257.531 115.231L256.754 117.345L255.631 117.641L253.906 116.197L254.667 115.445L255.739 116.775L256.233 116.647L256.485 114.963L257.531 115.231ZM253.334 118.33L255.55 117.942L256.375 118.76L255.991 120.98L254.951 120.689L255.574 119.104L255.211 118.746L253.617 119.362L253.334 118.33ZM264.708 122.173L263.27 120.446L263.568 119.333L265.677 118.556L265.956 119.6L264.261 119.854L264.13 120.341L265.472 121.408L264.708 122.173ZM264.166 117.008L263.388 119.123L262.265 119.419L260.54 117.975L261.301 117.222L262.373 118.553L262.867 118.425L263.12 116.741L264.166 117.008ZM259.969 120.108L262.185 119.72L263.009 120.537L262.626 122.758L261.585 122.467L262.209 120.882L261.845 120.524L260.251 121.14L259.969 120.108ZM271.342 123.95L269.904 122.223L270.203 121.111L272.311 120.334L272.591 121.378L270.895 121.632L270.765 122.119L272.106 123.186L271.342 123.95ZM270.801 118.786L270.023 120.901L268.9 121.196L267.175 119.753L267.936 119L269.008 120.331L269.502 120.202L269.754 118.518L270.801 118.786ZM266.603 121.885L268.819 121.498L269.644 122.315L269.26 124.535L268.22 124.244L268.843 122.66L268.48 122.301L266.886 122.918L266.603 121.885ZM274.894 129.561L275.267 128.17C275.358 127.83 275.482 127.553 275.639 127.338C275.804 127.125 276.032 126.954 276.323 126.825C276.616 126.689 276.993 126.583 277.452 126.507L279.236 126.202C279.67 126.128 280.036 125.982 280.335 125.764C280.635 125.538 280.846 125.201 280.966 124.752C281.111 124.212 281.073 123.75 280.852 123.368C280.632 122.986 280.247 122.721 279.698 122.574C279.157 122.429 278.692 122.466 278.302 122.685C277.912 122.903 277.645 123.283 277.5 123.824L276.411 123.532C276.541 123.045 276.762 122.624 277.072 122.268C277.391 121.914 277.79 121.674 278.272 121.546C278.755 121.41 279.318 121.429 279.959 121.601C280.601 121.772 281.093 122.037 281.436 122.394C281.789 122.745 282.014 123.145 282.109 123.593C282.212 124.043 282.201 124.5 282.077 124.963L282.034 125.126C281.87 125.736 281.555 126.202 281.087 126.524C280.628 126.848 280.064 127.066 279.397 127.177L277.613 127.482C277.214 127.549 276.931 127.647 276.764 127.776C276.597 127.905 276.477 128.105 276.405 128.375L276.119 129.442L275.96 128.828L280.806 130.126L280.551 131.077L274.894 129.561ZM285.22 132.576C284.602 132.41 284.113 132.164 283.754 131.835C283.402 131.509 283.152 131.128 283.004 130.69C282.866 130.248 282.808 129.768 282.831 129.252C282.861 128.739 282.947 128.215 283.09 127.682L283.239 127.126C283.597 125.789 284.205 124.85 285.062 124.31C285.921 123.761 286.981 123.656 288.24 123.993C288.542 124.074 288.794 124.15 288.999 124.221C289.203 124.293 289.425 124.377 289.664 124.474L289.41 125.425C289.163 125.326 288.933 125.239 288.721 125.166C288.509 125.092 288.248 125.014 287.939 124.931C287.236 124.743 286.644 124.725 286.164 124.878C285.684 125.031 285.289 125.331 284.979 125.778C284.671 126.217 284.424 126.785 284.237 127.48L284.098 128.002L283.543 128.959C283.714 128.35 283.966 127.875 284.298 127.534C284.637 127.194 285.031 126.976 285.479 126.881C285.934 126.788 286.421 126.81 286.939 126.949C287.541 127.111 288.018 127.371 288.369 127.73C288.722 128.081 288.946 128.498 289.041 128.979C289.144 129.461 289.122 129.973 288.977 130.514C288.83 131.063 288.587 131.524 288.247 131.896C287.907 132.269 287.48 132.519 286.965 132.646C286.458 132.775 285.877 132.752 285.22 132.576ZM285.481 131.602C285.906 131.716 286.283 131.73 286.612 131.645C286.942 131.559 287.213 131.396 287.427 131.155C287.65 130.908 287.812 130.6 287.911 130.229C288.011 129.858 288.029 129.511 287.966 129.187C287.904 128.864 287.754 128.588 287.518 128.359C287.291 128.124 286.976 127.953 286.574 127.845C286.18 127.74 285.805 127.718 285.449 127.78C285.101 127.844 284.799 127.995 284.545 128.233C284.293 128.464 284.112 128.784 284.002 129.194C283.911 129.534 283.896 129.865 283.959 130.188C284.021 130.512 284.177 130.797 284.425 131.046C284.673 131.295 285.025 131.48 285.481 131.602ZM292.565 134.519C291.963 134.358 291.455 134.106 291.041 133.763C290.635 133.423 290.349 133.023 290.182 132.564C290.023 132.107 290.012 131.624 290.148 131.114C290.239 130.774 290.387 130.486 290.591 130.251C290.797 130.008 291.042 129.817 291.328 129.678C291.614 129.539 291.918 129.455 292.241 129.426L292.272 129.31C292.067 129.147 291.89 128.955 291.743 128.733C291.603 128.514 291.506 128.272 291.452 128.01C291.406 127.749 291.423 127.471 291.501 127.178C291.632 126.691 291.87 126.312 292.216 126.04C292.57 125.77 292.983 125.604 293.456 125.54C293.938 125.47 294.434 125.504 294.944 125.641C295.462 125.779 295.909 125.998 296.284 126.298C296.669 126.591 296.944 126.942 297.107 127.351C297.271 127.759 297.288 128.207 297.158 128.693C297.079 128.987 296.954 129.235 296.784 129.438C296.614 129.641 296.409 129.802 296.171 129.92C295.94 130.04 295.691 130.118 295.424 130.155L295.393 130.271C295.666 130.46 295.89 130.689 296.066 130.96C296.244 131.223 296.361 131.511 296.418 131.825C296.477 132.13 296.462 132.449 296.373 132.782C296.236 133.292 295.981 133.704 295.607 134.018C295.241 134.334 294.793 134.537 294.263 134.627C293.742 134.719 293.176 134.683 292.565 134.519ZM292.82 133.569C293.245 133.683 293.626 133.714 293.962 133.664C294.301 133.606 294.585 133.474 294.813 133.271C295.044 133.059 295.205 132.783 295.296 132.443C295.387 132.103 295.384 131.788 295.288 131.497C295.2 131.209 295.023 130.958 294.757 130.746C294.493 130.526 294.144 130.358 293.711 130.242C293.286 130.128 292.905 130.101 292.566 130.159C292.229 130.21 291.947 130.337 291.718 130.541C291.497 130.746 291.341 131.019 291.25 131.359C291.159 131.699 291.157 132.018 291.243 132.314C291.339 132.605 291.519 132.86 291.783 133.08C292.049 133.292 292.395 133.455 292.82 133.569ZM293.947 129.361C294.473 129.502 294.924 129.503 295.301 129.364C295.68 129.217 295.932 128.908 296.059 128.436C296.187 127.957 296.118 127.566 295.851 127.263C295.595 126.954 295.207 126.73 294.69 126.591C294.172 126.452 293.721 126.452 293.336 126.589C292.959 126.728 292.708 127.033 292.581 127.505C292.455 127.976 292.519 128.37 292.774 128.687C293.039 128.998 293.43 129.223 293.947 129.361ZM300.629 136.68C299.996 136.51 299.484 136.257 299.094 135.921C298.713 135.579 298.435 135.181 298.258 134.728C298.089 134.277 298.009 133.787 298.018 133.26C298.029 132.724 298.109 132.178 298.258 131.622L298.426 130.996C298.635 130.216 298.943 129.545 299.35 128.983C299.765 128.423 300.276 128.03 300.884 127.804C301.501 127.571 302.211 127.563 303.015 127.778C303.818 127.994 304.426 128.355 304.836 128.863C305.249 129.362 305.491 129.957 305.563 130.648C305.643 131.34 305.578 132.076 305.369 132.856L305.201 133.482C305.052 134.039 304.848 134.552 304.59 135.021C304.334 135.482 304.016 135.865 303.636 136.169C303.264 136.475 302.828 136.681 302.328 136.787C301.829 136.886 301.263 136.85 300.629 136.68ZM300.903 135.66C301.706 135.876 302.366 135.762 302.882 135.321C303.408 134.874 303.829 134.059 304.146 132.877C304.477 131.64 304.521 130.704 304.277 130.067C304.042 129.432 303.53 129.009 302.741 128.798C301.946 128.585 301.283 128.693 300.754 129.123C300.232 129.555 299.808 130.381 299.481 131.602C299.162 132.792 299.118 133.712 299.35 134.362C299.581 135.012 300.099 135.445 300.903 135.66Z" fill="#0E0637"/>
<g filter="url(#filter0_bi_4846_2414)">
<path d="M143.699 131.677L398.704 200.005L386.28 246.37L131.276 178.042L143.699 131.677Z" fill="white" fill-opacity="0.5"/>
</g>
<path d="M161.358 162.291L161.855 160.436L161.669 160.386L162.244 158.242C162.358 157.817 162.332 157.466 162.165 157.19C162.007 156.916 161.715 156.721 161.29 156.608C161.051 156.543 160.803 156.481 160.545 156.42C160.288 156.36 160.043 156.302 159.809 156.248C159.575 156.194 159.371 156.151 159.197 156.121L159.458 155.148C159.632 155.178 159.813 155.214 160 155.256C160.198 155.292 160.397 155.337 160.598 155.391C160.801 155.437 160.995 155.485 161.18 155.535C161.814 155.704 162.311 155.92 162.671 156.183C163.034 156.437 163.266 156.76 163.368 157.152C163.47 157.544 163.444 158.029 163.288 158.609L162.239 162.527L161.358 162.291ZM159.286 161.909C158.822 161.785 158.441 161.6 158.143 161.355C157.854 161.103 157.657 160.802 157.552 160.451C157.455 160.102 157.464 159.715 157.578 159.29C157.696 158.85 157.891 158.508 158.162 158.267C158.442 158.027 158.791 157.884 159.209 157.839C159.629 157.786 160.105 157.831 160.639 157.973L162.319 158.424L162.096 159.258L160.369 158.796C159.921 158.675 159.548 158.692 159.25 158.844C158.953 158.996 158.758 159.242 158.667 159.582C158.576 159.922 158.622 160.228 158.806 160.501C158.99 160.774 159.306 160.971 159.754 161.091C160.016 161.161 160.28 161.182 160.544 161.153C160.811 161.117 161.051 161.008 161.266 160.825C161.49 160.637 161.664 160.344 161.787 159.946L161.971 160.467C161.814 160.897 161.606 161.239 161.348 161.493C161.099 161.741 160.8 161.901 160.449 161.973C160.106 162.046 159.719 162.025 159.286 161.909ZM166.318 163.818C165.506 163.601 164.923 163.258 164.568 162.791C164.221 162.325 164.12 161.789 164.266 161.182L165.309 161.461C165.261 161.705 165.319 161.965 165.486 162.241C165.661 162.512 166.024 162.721 166.572 162.868C167.067 163 167.471 163.005 167.786 162.883C168.103 162.752 168.299 162.544 168.376 162.258C168.444 162.003 168.4 161.78 168.244 161.589C168.091 161.391 167.803 161.21 167.383 161.048L166.729 160.798C166.159 160.579 165.726 160.277 165.432 159.891C165.14 159.498 165.064 159.039 165.205 158.514C165.31 158.12 165.501 157.81 165.776 157.586C166.054 157.354 166.39 157.212 166.785 157.16C167.182 157.101 167.612 157.134 168.076 157.258C168.771 157.444 169.294 157.75 169.644 158.175C169.994 158.6 170.095 159.12 169.946 159.734L168.903 159.455C168.962 159.206 168.902 158.966 168.723 158.736C168.554 158.5 168.254 158.324 167.821 158.208C167.388 158.092 167.036 158.093 166.764 158.211C166.493 158.329 166.32 158.523 166.248 158.793C166.186 159.025 166.213 159.231 166.331 159.412C166.456 159.594 166.695 159.754 167.047 159.889L167.701 160.139C168.347 160.387 168.831 160.715 169.152 161.124C169.475 161.525 169.564 161.997 169.419 162.537C169.315 162.924 169.111 163.238 168.806 163.479C168.511 163.715 168.148 163.866 167.716 163.932C167.286 163.991 166.82 163.953 166.318 163.818ZM172.374 165.243L175.229 159.597L176.736 160.001L176.593 166.373L175.643 166.118L175.779 159.769L176.15 159.869L173.29 165.488L172.374 165.243ZM171.806 165.09L172.042 164.209L173.329 164.554L173.093 165.435L171.806 165.09ZM171.551 165.022L171.46 158.363L172.526 158.649L172.571 165.295L171.551 165.022ZM175.875 166.18L176.111 165.3L177.397 165.644L177.161 166.525L175.875 166.18ZM176.396 166.32L179.539 160.528L180.547 160.798L177.37 166.581L176.396 166.32ZM184.148 168.397L184.645 166.543L184.459 166.493L185.034 164.349C185.148 163.924 185.122 163.573 184.956 163.297C184.797 163.022 184.506 162.828 184.081 162.714C183.841 162.65 183.593 162.588 183.336 162.527C183.079 162.466 182.833 162.409 182.599 162.355C182.365 162.3 182.161 162.258 181.987 162.228L182.248 161.254C182.422 161.284 182.603 161.32 182.79 161.362C182.988 161.399 183.187 161.444 183.388 161.497C183.591 161.544 183.785 161.591 183.97 161.641C184.604 161.811 185.101 162.027 185.462 162.289C185.824 162.544 186.056 162.867 186.158 163.259C186.261 163.65 186.234 164.136 186.079 164.716L185.029 168.633L184.148 168.397ZM182.076 168.016C181.612 167.892 181.231 167.707 180.933 167.461C180.644 167.21 180.447 166.909 180.342 166.558C180.245 166.209 180.254 165.822 180.368 165.397C180.486 164.956 180.681 164.615 180.953 164.373C181.232 164.133 181.581 163.991 181.999 163.945C182.419 163.892 182.896 163.937 183.429 164.08L185.11 164.53L184.886 165.365L183.159 164.902C182.711 164.782 182.338 164.798 182.04 164.95C181.743 165.102 181.548 165.349 181.457 165.689C181.366 166.029 181.412 166.335 181.596 166.608C181.78 166.881 182.096 167.077 182.544 167.197C182.807 167.268 183.07 167.289 183.335 167.26C183.601 167.224 183.842 167.114 184.056 166.932C184.281 166.743 184.454 166.45 184.577 166.053L184.761 166.574C184.604 167.004 184.397 167.346 184.138 167.6C183.889 167.848 183.59 168.008 183.239 168.079C182.896 168.153 182.509 168.132 182.076 168.016ZM187.199 169.215L189.466 160.753L190.579 161.051L188.311 169.513L187.199 169.215ZM188.372 161.404L188.608 160.523L190.579 161.051L190.343 161.932L188.372 161.404ZM190.573 170.119L192.84 161.657L193.953 161.956L191.686 170.417L190.573 170.119ZM191.747 162.308L191.983 161.428L193.953 161.956L193.717 162.836L191.747 162.308ZM196.453 171.918C195.913 171.773 195.47 171.555 195.125 171.264C194.781 170.973 194.526 170.644 194.359 170.276C194.195 169.901 194.101 169.507 194.079 169.095C194.065 168.686 194.11 168.284 194.216 167.89L194.272 167.681C194.379 167.279 194.542 166.905 194.759 166.557C194.984 166.211 195.261 165.921 195.589 165.686C195.919 165.443 196.297 165.284 196.724 165.207C197.16 165.125 197.637 165.154 198.154 165.293C198.827 165.473 199.34 165.768 199.694 166.177C200.058 166.581 200.283 167.039 200.369 167.551C200.463 168.065 200.441 168.581 200.302 169.098L200.169 169.597L194.675 168.125L194.898 167.29L199.581 168.545L199.205 168.928C199.323 168.488 199.355 168.091 199.301 167.737C199.249 167.375 199.107 167.068 198.877 166.815C198.646 166.563 198.318 166.38 197.893 166.266C197.453 166.148 197.059 166.15 196.711 166.273C196.372 166.397 196.082 166.613 195.842 166.922C195.61 167.232 195.432 167.615 195.31 168.071C195.192 168.512 195.155 168.928 195.199 169.321C195.253 169.708 195.402 170.046 195.648 170.336C195.895 170.617 196.251 170.82 196.714 170.944C197.201 171.075 197.624 171.072 197.984 170.937C198.351 170.803 198.603 170.602 198.742 170.332L199.785 170.612C199.586 171.014 199.318 171.336 198.98 171.576C198.642 171.817 198.258 171.967 197.828 172.026C197.399 172.084 196.94 172.049 196.453 171.918ZM203.426 173.637C202.962 173.513 202.578 173.34 202.273 173.117C201.976 172.897 201.777 172.603 201.677 172.237C201.586 171.865 201.614 171.404 201.761 170.856L203.357 164.898L204.424 165.184L202.79 171.28C202.701 171.613 202.721 171.895 202.849 172.128C202.986 172.356 203.221 172.514 203.554 172.603L204.643 172.895L204.376 173.892L203.426 173.637ZM201.564 167.324L201.788 166.49L206.053 167.633L205.83 168.467L201.564 167.324ZM205.806 174.201L206.185 172.787L207.53 173.147L207.151 174.561L205.806 174.201ZM211.535 175.959C210.994 175.814 210.551 175.596 210.207 175.305C209.863 175.014 209.607 174.685 209.441 174.317C209.276 173.942 209.183 173.548 209.161 173.137C209.146 172.727 209.192 172.325 209.297 171.931L209.353 171.722C209.461 171.32 209.624 170.946 209.841 170.598C210.066 170.253 210.343 169.962 210.671 169.727C211.001 169.484 211.379 169.325 211.805 169.248C212.241 169.167 212.718 169.195 213.236 169.334C213.908 169.514 214.421 169.809 214.775 170.218C215.139 170.622 215.364 171.08 215.451 171.592C215.545 172.106 215.523 172.622 215.384 173.139L215.25 173.638L209.756 172.166L209.98 171.331L214.663 172.586L214.287 172.97C214.405 172.529 214.437 172.132 214.382 171.778C214.33 171.416 214.189 171.109 213.958 170.857C213.728 170.604 213.4 170.421 212.975 170.307C212.534 170.189 212.141 170.191 211.793 170.314C211.453 170.438 211.163 170.654 210.923 170.963C210.691 171.273 210.514 171.656 210.392 172.112C210.274 172.553 210.237 172.969 210.281 173.362C210.334 173.749 210.484 174.087 210.729 174.377C210.977 174.658 211.332 174.861 211.796 174.986C212.283 175.116 212.706 175.113 213.065 174.978C213.432 174.844 213.685 174.643 213.823 174.373L214.867 174.653C214.668 175.055 214.399 175.377 214.062 175.618C213.724 175.858 213.34 176.008 212.91 176.067C212.48 176.126 212.022 176.09 211.535 175.959ZM218.507 177.678C218.044 177.554 217.659 177.381 217.355 177.158C217.058 176.938 216.859 176.644 216.758 176.278C216.667 175.906 216.696 175.445 216.843 174.897L218.439 168.939L219.505 169.225L217.872 175.322C217.783 175.654 217.802 175.937 217.93 176.17C218.068 176.397 218.303 176.555 218.635 176.644L219.725 176.936L219.458 177.933L218.507 177.678ZM216.646 171.365L216.869 170.531L221.135 171.674L220.911 172.508L216.646 171.365ZM221.108 178.301L223.376 169.839L224.488 170.137L223.134 175.191L222.856 175.117C223.02 174.506 223.238 174.001 223.51 173.602C223.793 173.198 224.132 172.92 224.528 172.769C224.925 172.619 225.382 172.613 225.9 172.752L225.946 172.764C226.688 172.963 227.182 173.36 227.428 173.956C227.676 174.545 227.678 175.295 227.434 176.207L226.487 179.742L225.374 179.444L226.383 175.677C226.518 175.174 226.479 174.746 226.268 174.391C226.064 174.038 225.738 173.802 225.29 173.682C224.796 173.549 224.353 173.609 223.963 173.86C223.582 174.106 223.32 174.496 223.178 175.029L222.221 178.599L221.108 178.301Z" fill="#0E0637"/>
</g>
<g clip-path="url(#clip1_4846_2414)">
<rect x="116" y="39.9998" width="264" height="164" fill="#0E0637"/>
<circle cx="348" cy="65.9994" r="60.1613" fill="url(#paint6_linear_4846_2414)" stroke="url(#paint7_linear_4846_2414)" stroke-width="20"/>
<g clip-path="url(#clip2_4846_2414)">
<path d="M340.449 4.16801C343.618 -1.96063 352.382 -1.96063 355.551 4.16801L375.73 43.1948C376.538 44.7587 377.812 46.033 379.377 46.8416L418.403 67.0204C424.532 70.1892 424.532 78.9538 418.403 82.1225L379.377 102.301C377.812 103.11 376.538 104.384 375.73 105.949L355.551 144.975C352.382 151.104 343.618 151.104 340.449 144.975L320.27 105.949C319.461 104.384 318.187 103.11 316.623 102.301L277.596 82.1225C271.468 78.9538 271.468 70.1892 277.596 67.0204L316.623 46.8416C318.187 46.033 319.461 44.7587 320.27 43.1948L340.449 4.16801Z" fill="#0E0637"/>
<path d="M344.224 30.7982C345.809 27.7339 350.191 27.7339 351.776 30.7982L361.865 50.3116C362.269 51.0936 362.906 51.7307 363.688 52.1351L383.202 62.2244C386.266 63.8088 386.266 68.1911 383.202 69.7755L363.688 79.8649C362.906 80.2691 362.269 80.9062 361.865 81.6885L351.776 101.202C350.191 104.266 345.809 104.266 344.224 101.202L334.135 81.6885C333.731 80.9062 333.094 80.2691 332.312 79.8649L312.798 69.7755C309.734 68.1911 309.734 63.8088 312.798 62.2244L332.312 52.1351C333.094 51.7307 333.731 51.0936 334.135 50.3116L344.224 30.7982Z" fill="#0E0637"/>
</g>
<g filter="url(#filter1_bii_4846_2414)">
<path d="M116 156L380 156V204L116 204L116 156Z" fill="white" fill-opacity="0.15"/>
</g>
<g clip-path="url(#clip3_4846_2414)">
<path d="M363.133 89.5389V89.6263H363.215C363.23 89.6266 363.246 89.6227 363.259 89.6152C363.264 89.6114 363.269 89.6064 363.272 89.6005C363.274 89.5947 363.276 89.5882 363.276 89.5817C363.276 89.5754 363.274 89.569 363.272 89.5633C363.269 89.5576 363.264 89.5528 363.259 89.5492C363.246 89.5413 363.23 89.5374 363.215 89.538H363.133V89.5389ZM363.216 89.4771C363.251 89.4749 363.286 89.485 363.314 89.5055C363.326 89.5148 363.335 89.5266 363.341 89.5401C363.347 89.5535 363.35 89.5682 363.349 89.5828C363.35 89.5955 363.347 89.6081 363.343 89.6198C363.338 89.6315 363.331 89.6421 363.321 89.6508C363.299 89.6698 363.272 89.6812 363.243 89.6834L363.353 89.8079H363.268L363.167 89.6842H363.134V89.8079H363.063V89.4773H363.217L363.216 89.4771ZM363.194 89.922C363.231 89.9223 363.268 89.9149 363.302 89.9001C363.335 89.8861 363.365 89.866 363.39 89.8409C363.415 89.8158 363.436 89.7862 363.45 89.7535C363.478 89.6842 363.478 89.6064 363.45 89.5372C363.435 89.5046 363.415 89.475 363.39 89.4498C363.365 89.4247 363.335 89.4046 363.302 89.3905C363.268 89.3766 363.231 89.3696 363.194 89.37C363.156 89.3697 363.119 89.3766 363.084 89.3905C363.05 89.4043 363.02 89.4244 362.994 89.4498C362.955 89.4894 362.929 89.5396 362.918 89.5939C362.908 89.6483 362.914 89.7046 362.935 89.7557C362.949 89.7885 362.969 89.8182 362.994 89.8431C363.02 89.8684 363.05 89.8885 363.084 89.9023C363.119 89.917 363.156 89.9245 363.194 89.9241V89.922ZM363.194 89.2905C363.291 89.2904 363.383 89.328 363.452 89.3954C363.486 89.4277 363.512 89.4662 363.53 89.5088C363.549 89.5524 363.559 89.5995 363.559 89.647C363.559 89.6945 363.549 89.7415 363.53 89.7852C363.512 89.8275 363.485 89.866 363.452 89.8986C363.419 89.9307 363.379 89.9566 363.336 89.9751C363.291 89.9941 363.243 90.0037 363.194 90.0035C363.144 90.0038 363.095 89.9942 363.05 89.9751C363.006 89.9571 362.967 89.9311 362.933 89.8986C362.9 89.8648 362.874 89.825 362.856 89.7815C362.837 89.7378 362.828 89.6908 362.828 89.6433C362.828 89.5957 362.837 89.5487 362.856 89.505C362.874 89.4625 362.901 89.424 362.934 89.3916C362.967 89.3585 363.007 89.3325 363.051 89.3152C363.096 89.2961 363.145 89.2864 363.195 89.2868L363.194 89.2905ZM329.508 88.0137C329.508 87.3833 329.923 86.8655 330.603 86.8655C331.252 86.8655 331.691 87.361 331.691 88.0137C331.691 88.6664 331.252 89.162 330.603 89.162C329.923 89.162 329.508 88.6441 329.508 88.0137ZM332.431 88.0137V86.2198H331.646V86.6568C331.397 86.3338 331.019 86.1313 330.505 86.1313C329.493 86.1313 328.699 86.9196 328.699 88.0146C328.699 89.1095 329.493 89.8979 330.505 89.8979C331.019 89.8979 331.397 89.6952 331.646 89.3724V89.8079H332.43V88.0137H332.431ZM358.961 88.0137C358.961 87.3833 359.377 86.8655 360.057 86.8655C360.707 86.8655 361.144 87.361 361.144 88.0137C361.144 88.6664 360.707 89.162 360.057 89.162C359.377 89.162 358.961 88.6441 358.961 88.0137ZM361.885 88.0137V84.7798H361.1V86.6568C360.85 86.3338 360.473 86.1313 359.959 86.1313C358.947 86.1313 358.153 86.9196 358.153 88.0146C358.153 89.1095 358.947 89.8979 359.959 89.8979C360.473 89.8979 360.85 89.6952 361.1 89.3724V89.8079H361.885V88.0137ZM342.176 86.8285C342.682 86.8285 343.007 87.1436 343.09 87.6984H341.216C341.3 87.1805 341.617 86.8285 342.176 86.8285H342.176ZM342.192 86.1293C341.134 86.1293 340.393 86.8941 340.393 88.0126C340.393 89.153 341.163 89.896 342.244 89.896C342.788 89.896 343.286 89.7611 343.725 89.3934L343.34 88.8154C343.037 89.0558 342.652 89.1906 342.289 89.1906C341.783 89.1906 341.323 88.9579 341.209 88.3122H343.89C343.898 88.2152 343.906 88.1173 343.906 88.0124C343.898 86.8943 343.202 86.1291 342.191 86.1291L342.192 86.1293ZM351.671 88.0124C351.671 87.382 352.087 86.8641 352.767 86.8641C353.416 86.8641 353.854 87.3597 353.854 88.0124C353.854 88.6651 353.416 89.1607 352.767 89.1607C352.087 89.1607 351.671 88.6428 351.671 88.0124H351.671ZM354.594 88.0124V86.2198H353.81V86.6568C353.56 86.3338 353.183 86.1313 352.669 86.1313C351.657 86.1313 350.863 86.9196 350.863 88.0146C350.863 89.1095 351.657 89.8979 352.669 89.8979C353.183 89.8979 353.56 89.6952 353.81 89.3724V89.8079H354.595V88.0137L354.594 88.0124ZM347.237 88.0124C347.237 89.1004 348 89.8957 349.163 89.8957C349.707 89.8957 350.07 89.7756 350.461 89.4681L350.084 88.8377C349.79 89.0481 349.48 89.1607 349.138 89.1607C348.512 89.153 348.051 88.7029 348.051 88.0124C348.051 87.3219 348.512 86.872 349.138 86.8641C349.479 86.8641 349.789 86.9767 350.084 87.1871L350.461 86.5567C350.069 86.2493 349.707 86.1291 349.163 86.1291C348 86.1291 347.237 86.9242 347.237 88.0124ZM357.359 86.1291C356.906 86.1291 356.611 86.3395 356.407 86.6546V86.2198H355.629V89.8059H356.415V87.7957C356.415 87.2022 356.672 86.8724 357.185 86.8724C357.353 86.87 357.52 86.9007 357.676 86.9627L357.918 86.2276C357.745 86.1597 357.518 86.1297 357.359 86.1297L357.359 86.1291ZM336.313 86.5049C335.935 86.2576 335.415 86.1297 334.84 86.1297C333.926 86.1297 333.337 86.5652 333.337 87.2778C333.337 87.8625 333.775 88.2233 334.582 88.3358L334.953 88.3882C335.384 88.4483 335.587 88.5609 335.587 88.7634C335.587 89.0407 335.301 89.1989 334.764 89.1989C334.22 89.1989 333.828 89.0263 333.563 88.8237L333.194 89.4318C333.625 89.7469 334.169 89.8973 334.758 89.8973C335.8 89.8973 336.405 89.4096 336.405 88.7267C336.405 88.0963 335.929 87.7666 335.143 87.6541L334.773 87.6007C334.433 87.557 334.161 87.4891 334.161 87.2487C334.161 86.9865 334.418 86.8287 334.848 86.8287C335.309 86.8287 335.756 87.0014 335.974 87.1362L336.314 86.5058L336.313 86.5049ZM346.444 86.1304C345.991 86.1304 345.696 86.3408 345.493 86.6559V86.2198H344.715V89.8059H345.5V87.7957C345.5 87.2022 345.757 86.8724 346.27 86.8724C346.438 86.87 346.605 86.9007 346.761 86.9627L347.003 86.2276C346.829 86.1597 346.603 86.1297 346.444 86.1297L346.444 86.1304ZM339.744 86.2198H338.46V85.1318L337.666 85.1318V86.2198H336.934V86.9325H337.666V88.5685C337.666 89.4006 337.991 89.8962 338.92 89.8962C339.261 89.8962 339.653 89.7913 339.902 89.6189L339.675 88.9511C339.441 89.0859 339.184 89.1539 338.98 89.1539C338.588 89.1539 338.46 88.9135 338.46 88.5537V86.9332H339.744V86.2198ZM328.005 89.8068V87.5562C328.005 86.7086 327.461 86.1383 326.584 86.1306C326.123 86.123 325.648 86.2654 325.315 86.7687C325.066 86.371 324.673 86.1306 324.122 86.1306C323.736 86.1306 323.359 86.2431 323.064 86.6631V86.2198H322.278V89.8059H323.07V87.8175C323.07 87.195 323.418 86.8641 323.955 86.8641C324.476 86.8641 324.74 87.2017 324.74 87.8096V89.8055H325.534V87.8171C325.534 87.1945 325.896 86.8637 326.417 86.8637C326.953 86.8637 327.209 87.2013 327.209 87.8092V89.8051L328.005 89.8068Z" fill="white" fill-opacity="0.7"/>
<path fill-rule="evenodd" clip-rule="evenodd" d="M341.574 76.234C344.381 74.1833 346.197 70.9182 346.197 67.2407C346.197 63.5632 344.381 60.2982 341.574 58.2474C343.506 56.8362 345.907 56 348.509 56C354.892 56 360.066 61.0326 360.066 67.2407C360.066 73.4488 354.892 78.4814 348.509 78.4814C345.907 78.4814 343.506 77.6452 341.574 76.234Z" fill="white" fill-opacity="0.4"/>
<path fill-rule="evenodd" clip-rule="evenodd" d="M341.574 58.2474C338.767 60.2982 336.951 63.5632 336.951 67.2407C336.951 70.9182 338.767 74.1833 341.574 76.234C339.642 77.6452 337.241 78.4814 334.639 78.4814C328.256 78.4814 323.082 73.4488 323.082 67.2407C323.082 61.0326 328.256 56 334.639 56C337.241 56 339.642 56.8362 341.574 58.2474Z" fill="white" fill-opacity="0.3"/>
<path opacity="0.7" fill-rule="evenodd" clip-rule="evenodd" d="M341.574 76.4387C344.381 74.3416 346.196 71.0026 346.196 67.2417C346.196 63.4809 344.381 60.1419 341.574 58.0447C338.767 60.1419 336.951 63.4809 336.951 67.2417C336.951 71.0026 338.767 74.3416 341.574 76.4387Z" fill="white"/>
</g>
<rect x="136.537" y="60.5" width="30.9632" height="23" rx="3.73461" stroke="url(#paint8_linear_4846_2414)"/>
<path d="M136 68.3075H146.869C147.557 66.089 149.492 61.5178 151.727 60.9805C152.557 61.2858 154.496 62.3848 155.613 64.3387M136 76.0009H146.869C146.869 79.8109 150.108 82.5952 151.727 83.5111C154.447 82.583 156.544 78.1176 157.252 76.0009H168M168 70.1393H157.252C156.767 69.1827 156.087 66.9764 157.252 65.8041" stroke="url(#paint9_linear_4846_2414)"/>
<path d="M179 70.1036C179.453 70.8497 180.088 72.6902 179 74.0829M181.991 68.6736C182.671 69.8549 183.623 72.8767 181.991 75.513M184.643 67.1813C185.527 68.7772 186.764 72.9389 184.643 76.8187M187.498 66C188.632 67.886 190.218 72.9264 187.498 78" stroke="white" stroke-linecap="round" stroke-linejoin="round"/>
<path d="M136.336 184L139.492 175.24H141.484L144.736 184H143.524L140.584 176.008L141.16 176.296H139.744L140.356 176.008L137.512 184H136.336ZM138.22 181.384L138.616 180.328H142.396L142.792 181.384H138.22ZM146.234 184V177.592H147.146V180.34H147.002C147.002 179.708 147.086 179.176 147.254 178.744C147.43 178.304 147.694 177.972 148.046 177.748C148.398 177.516 148.842 177.4 149.378 177.4H149.426C150.234 177.4 150.83 177.652 151.214 178.156C151.606 178.66 151.802 179.388 151.802 180.34V184H150.65V180.1C150.65 179.604 150.51 179.208 150.23 178.912C149.95 178.608 149.566 178.456 149.078 178.456C148.574 178.456 148.166 178.612 147.854 178.924C147.542 179.236 147.386 179.652 147.386 180.172V184H146.234ZM156.646 184.216C156.19 184.216 155.77 184.132 155.386 183.964C155.002 183.796 154.666 183.56 154.378 183.256C154.098 182.952 153.878 182.6 153.718 182.2C153.566 181.8 153.49 181.368 153.49 180.904V180.688C153.49 180.232 153.566 179.804 153.718 179.404C153.87 179.004 154.082 178.652 154.354 178.348C154.634 178.044 154.962 177.808 155.338 177.64C155.722 177.464 156.146 177.376 156.61 177.376C157.098 177.376 157.542 177.48 157.942 177.688C158.342 177.888 158.67 178.204 158.926 178.636C159.182 179.068 159.326 179.628 159.358 180.316L158.878 179.548V175.24H160.03V184H159.118V181.156H159.454C159.422 181.884 159.27 182.476 158.998 182.932C158.726 183.38 158.382 183.708 157.966 183.916C157.558 184.116 157.118 184.216 156.646 184.216ZM156.802 183.208C157.194 183.208 157.55 183.12 157.87 182.944C158.19 182.768 158.446 182.516 158.638 182.188C158.83 181.852 158.926 181.46 158.926 181.012V180.46C158.926 180.02 158.826 179.648 158.626 179.344C158.434 179.032 158.174 178.796 157.846 178.636C157.526 178.468 157.174 178.384 156.79 178.384C156.366 178.384 155.99 178.484 155.662 178.684C155.342 178.884 155.09 179.164 154.906 179.524C154.73 179.884 154.642 180.308 154.642 180.796C154.642 181.284 154.734 181.712 154.918 182.08C155.102 182.44 155.358 182.72 155.686 182.92C156.014 183.112 156.386 183.208 156.802 183.208ZM162.304 184V177.592H163.216V180.232H163.168C163.168 179.296 163.372 178.612 163.78 178.18C164.196 177.74 164.816 177.52 165.64 177.52H165.856V178.552H165.448C164.808 178.552 164.316 178.724 163.972 179.068C163.628 179.404 163.456 179.892 163.456 180.532V184H162.304ZM169.939 184.216C169.379 184.216 168.895 184.12 168.487 183.928C168.079 183.736 167.747 183.484 167.491 183.172C167.235 182.852 167.043 182.496 166.915 182.104C166.795 181.712 166.735 181.312 166.735 180.904V180.688C166.735 180.272 166.795 179.868 166.915 179.476C167.043 179.084 167.235 178.732 167.491 178.42C167.747 178.1 168.071 177.848 168.463 177.664C168.863 177.472 169.331 177.376 169.867 177.376C170.563 177.376 171.135 177.528 171.583 177.832C172.039 178.128 172.375 178.512 172.591 178.984C172.815 179.456 172.927 179.96 172.927 180.496V181.012H167.239V180.148H172.087L171.823 180.616C171.823 180.16 171.751 179.768 171.607 179.44C171.463 179.104 171.247 178.844 170.959 178.66C170.671 178.476 170.307 178.384 169.867 178.384C169.411 178.384 169.031 178.488 168.727 178.696C168.431 178.904 168.207 179.188 168.055 179.548C167.911 179.908 167.839 180.324 167.839 180.796C167.839 181.252 167.911 181.664 168.055 182.032C168.207 182.392 168.439 182.68 168.751 182.896C169.063 183.104 169.459 183.208 169.939 183.208C170.443 183.208 170.851 183.096 171.163 182.872C171.483 182.648 171.675 182.388 171.739 182.092H172.819C172.731 182.532 172.555 182.912 172.291 183.232C172.027 183.552 171.695 183.796 171.295 183.964C170.895 184.132 170.443 184.216 169.939 184.216ZM180.425 184.216C179.697 184.216 179.077 184.096 178.565 183.856C178.053 183.616 177.661 183.284 177.389 182.86C177.117 182.436 176.981 181.956 176.981 181.42H178.157C178.157 181.684 178.225 181.948 178.361 182.212C178.505 182.476 178.741 182.696 179.069 182.872C179.405 183.048 179.857 183.136 180.425 183.136C180.953 183.136 181.385 183.06 181.721 182.908C182.057 182.748 182.305 182.544 182.465 182.296C182.625 182.04 182.705 181.764 182.705 181.468C182.705 181.108 182.549 180.812 182.237 180.58C181.925 180.34 181.469 180.192 180.869 180.136L179.897 180.052C179.121 179.988 178.501 179.748 178.037 179.332C177.573 178.916 177.341 178.368 177.341 177.688C177.341 177.152 177.469 176.684 177.725 176.284C177.989 175.884 178.353 175.572 178.817 175.348C179.281 175.116 179.821 175 180.437 175C181.045 175 181.581 175.112 182.045 175.336C182.509 175.56 182.869 175.876 183.125 176.284C183.389 176.684 183.521 177.164 183.521 177.724H182.345C182.345 177.444 182.277 177.18 182.141 176.932C182.013 176.684 181.809 176.48 181.529 176.32C181.249 176.16 180.885 176.08 180.437 176.08C180.005 176.08 179.645 176.156 179.357 176.308C179.077 176.46 178.865 176.66 178.721 176.908C178.585 177.148 178.517 177.408 178.517 177.688C178.517 178.008 178.641 178.292 178.889 178.54C179.137 178.788 179.505 178.932 179.993 178.972L180.965 179.056C181.565 179.104 182.081 179.232 182.513 179.44C182.953 179.64 183.289 179.912 183.521 180.256C183.761 180.592 183.881 180.996 183.881 181.468C183.881 182.004 183.737 182.48 183.449 182.896C183.161 183.312 182.757 183.636 182.237 183.868C181.717 184.1 181.113 184.216 180.425 184.216ZM189.623 184V182.08H189.431V179.86C189.431 179.42 189.315 179.088 189.083 178.864C188.859 178.64 188.527 178.528 188.087 178.528C187.839 178.528 187.583 178.532 187.319 178.54C187.055 178.548 186.803 178.556 186.563 178.564C186.323 178.572 186.115 178.584 185.939 178.6V177.592C186.115 177.576 186.299 177.564 186.491 177.556C186.691 177.54 186.895 177.532 187.103 177.532C187.311 177.524 187.511 177.52 187.703 177.52C188.359 177.52 188.895 177.6 189.311 177.76C189.727 177.912 190.035 178.164 190.235 178.516C190.435 178.868 190.535 179.344 190.535 179.944V184H189.623ZM187.523 184.168C187.043 184.168 186.627 184.088 186.275 183.928C185.931 183.76 185.663 183.52 185.471 183.208C185.287 182.896 185.195 182.52 185.195 182.08C185.195 181.624 185.295 181.244 185.495 180.94C185.703 180.636 186.003 180.408 186.395 180.256C186.787 180.096 187.259 180.016 187.811 180.016H189.551V180.88H187.763C187.299 180.88 186.943 180.992 186.695 181.216C186.447 181.44 186.323 181.728 186.323 182.08C186.323 182.432 186.447 182.716 186.695 182.932C186.943 183.148 187.299 183.256 187.763 183.256C188.035 183.256 188.295 183.208 188.543 183.112C188.791 183.008 188.995 182.84 189.155 182.608C189.323 182.368 189.415 182.04 189.431 181.624L189.743 182.08C189.703 182.536 189.591 182.92 189.407 183.232C189.231 183.536 188.983 183.768 188.663 183.928C188.351 184.088 187.971 184.168 187.523 184.168ZM192.709 184V177.592H193.621V180.34H193.477C193.477 179.716 193.557 179.188 193.717 178.756C193.885 178.316 194.133 177.98 194.461 177.748C194.789 177.516 195.205 177.4 195.709 177.4H195.757C196.261 177.4 196.677 177.516 197.005 177.748C197.341 177.98 197.589 178.316 197.749 178.756C197.909 179.188 197.989 179.716 197.989 180.34H197.653C197.653 179.716 197.737 179.188 197.905 178.756C198.073 178.316 198.321 177.98 198.649 177.748C198.985 177.516 199.405 177.4 199.909 177.4H199.957C200.461 177.4 200.881 177.516 201.217 177.748C201.553 177.98 201.801 178.316 201.961 178.756C202.129 179.188 202.213 179.716 202.213 180.34V184L201.061 184V180.088C201.061 179.568 200.933 179.168 200.677 178.888C200.421 178.6 200.065 178.456 199.609 178.456C199.137 178.456 198.757 178.608 198.469 178.912C198.181 179.208 198.037 179.624 198.037 180.16V184H196.885V180.088C196.885 179.568 196.757 179.168 196.501 178.888C196.245 178.6 195.889 178.456 195.433 178.456C194.961 178.456 194.581 178.608 194.293 178.912C194.005 179.208 193.861 179.624 193.861 180.16V184H192.709ZM207.334 184.216C206.774 184.216 206.282 184.12 205.858 183.928C205.434 183.736 205.074 183.484 204.778 183.172C204.49 182.852 204.27 182.496 204.118 182.104C203.974 181.712 203.902 181.312 203.902 180.904V180.688C203.902 180.28 203.978 179.88 204.13 179.488C204.282 179.088 204.506 178.732 204.802 178.42C205.098 178.1 205.458 177.848 205.882 177.664C206.306 177.472 206.79 177.376 207.334 177.376C207.878 177.376 208.362 177.472 208.786 177.664C209.21 177.848 209.57 178.1 209.866 178.42C210.162 178.732 210.386 179.088 210.538 179.488C210.69 179.88 210.766 180.28 210.766 180.688V180.904C210.766 181.312 210.69 181.712 210.538 182.104C210.394 182.496 210.174 182.852 209.878 183.172C209.59 183.484 209.234 183.736 208.81 183.928C208.386 184.12 207.894 184.216 207.334 184.216ZM207.334 183.184C207.814 183.184 208.222 183.08 208.558 182.872C208.902 182.656 209.162 182.368 209.338 182.008C209.522 181.648 209.614 181.244 209.614 180.796C209.614 180.34 209.522 179.932 209.338 179.572C209.154 179.212 208.89 178.928 208.546 178.72C208.21 178.512 207.806 178.408 207.334 178.408C206.87 178.408 206.466 178.512 206.122 178.72C205.778 178.928 205.514 179.212 205.33 179.572C205.146 179.932 205.054 180.34 205.054 180.796C205.054 181.244 205.142 181.648 205.318 182.008C205.502 182.368 205.762 182.656 206.098 182.872C206.442 183.08 206.854 183.184 207.334 183.184ZM214.652 184.192C213.812 184.192 213.16 184.012 212.696 183.652C212.24 183.292 212.004 182.8 211.988 182.176H213.068C213.084 182.424 213.208 182.66 213.44 182.884C213.68 183.1 214.084 183.208 214.652 183.208C215.164 183.208 215.556 183.108 215.828 182.908C216.1 182.7 216.236 182.448 216.236 182.152C216.236 181.888 216.136 181.684 215.936 181.54C215.736 181.388 215.412 181.288 214.964 181.24L214.268 181.168C213.66 181.104 213.164 180.924 212.78 180.628C212.396 180.324 212.204 179.9 212.204 179.356C212.204 178.948 212.308 178.6 212.516 178.312C212.724 178.016 213.012 177.792 213.38 177.64C213.748 177.48 214.172 177.4 214.652 177.4C215.372 177.4 215.956 177.56 216.404 177.88C216.852 178.2 217.084 178.676 217.1 179.308H216.02C216.012 179.052 215.892 178.836 215.66 178.66C215.436 178.476 215.1 178.384 214.652 178.384C214.204 178.384 213.864 178.476 213.632 178.66C213.4 178.844 213.284 179.076 213.284 179.356C213.284 179.596 213.364 179.788 213.524 179.932C213.692 180.076 213.964 180.168 214.34 180.208L215.036 180.28C215.724 180.352 216.276 180.544 216.692 180.856C217.108 181.16 217.316 181.592 217.316 182.152C217.316 182.552 217.2 182.908 216.968 183.22C216.744 183.524 216.432 183.764 216.032 183.94C215.632 184.108 215.172 184.192 214.652 184.192ZM222.921 184V182.08H222.729V179.86C222.729 179.42 222.613 179.088 222.381 178.864C222.157 178.64 221.825 178.528 221.385 178.528C221.137 178.528 220.881 178.532 220.617 178.54C220.353 178.548 220.101 178.556 219.861 178.564C219.621 178.572 219.413 178.584 219.237 178.6V177.592C219.413 177.576 219.597 177.564 219.789 177.556C219.989 177.54 220.193 177.532 220.401 177.532C220.609 177.524 220.809 177.52 221.001 177.52C221.657 177.52 222.193 177.6 222.609 177.76C223.025 177.912 223.333 178.164 223.533 178.516C223.733 178.868 223.833 179.344 223.833 179.944V184H222.921ZM220.821 184.168C220.341 184.168 219.925 184.088 219.573 183.928C219.229 183.76 218.961 183.52 218.769 183.208C218.585 182.896 218.493 182.52 218.493 182.08C218.493 181.624 218.593 181.244 218.793 180.94C219.001 180.636 219.301 180.408 219.693 180.256C220.085 180.096 220.557 180.016 221.109 180.016H222.849V180.88H221.061C220.597 180.88 220.241 180.992 219.993 181.216C219.745 181.44 219.621 181.728 219.621 182.08C219.621 182.432 219.745 182.716 219.993 182.932C220.241 183.148 220.597 183.256 221.061 183.256C221.333 183.256 221.593 183.208 221.841 183.112C222.089 183.008 222.293 182.84 222.453 182.608C222.621 182.368 222.713 182.04 222.729 181.624L223.041 182.08C223.001 182.536 222.889 182.92 222.705 183.232C222.529 183.536 222.281 183.768 221.961 183.928C221.649 184.088 221.269 184.168 220.821 184.168Z" fill="white"/>
<path d="M137.022 114.482C136.63 115.238 136.448 116.106 136.448 117.1C136.448 118.108 136.63 118.976 137.022 119.732C137.414 120.488 137.96 121.062 138.688 121.468C139.416 121.888 140.27 122.084 141.25 122.084C142.006 122.084 142.692 121.944 143.308 121.636C143.91 121.342 144.4 120.922 144.778 120.376C145.142 119.844 145.366 119.214 145.45 118.5H143.35C143.224 119.06 142.972 119.508 142.58 119.83C142.188 120.152 141.712 120.306 141.138 120.306C140.354 120.306 139.724 120.012 139.276 119.424C138.814 118.836 138.59 118.052 138.59 117.1C138.59 116.148 138.814 115.364 139.276 114.776C139.724 114.188 140.354 113.894 141.138 113.894C141.712 113.894 142.188 114.062 142.58 114.384C142.972 114.706 143.224 115.14 143.35 115.7H145.45C145.366 115 145.142 114.37 144.778 113.824C144.4 113.292 143.91 112.872 143.308 112.564C142.692 112.27 142.006 112.116 141.25 112.116C140.27 112.116 139.416 112.326 138.688 112.732C137.96 113.152 137.414 113.726 137.022 114.482ZM148.028 121.636C148.602 121.944 149.274 122.084 150.03 122.084C150.786 122.084 151.444 121.944 152.018 121.636C152.592 121.328 153.04 120.908 153.348 120.348C153.656 119.788 153.824 119.144 153.824 118.402C153.824 117.674 153.656 117.03 153.348 116.47C153.04 115.91 152.592 115.49 152.018 115.182C151.444 114.874 150.786 114.72 150.03 114.72C149.274 114.72 148.602 114.874 148.028 115.182C147.454 115.49 147.006 115.91 146.698 116.47C146.39 117.03 146.236 117.674 146.236 118.402C146.236 119.13 146.39 119.774 146.698 120.334C147.006 120.894 147.454 121.328 148.028 121.636ZM151.332 119.9C151.01 120.292 150.576 120.474 150.03 120.474C149.484 120.474 149.05 120.292 148.728 119.9C148.406 119.522 148.252 119.018 148.252 118.402C148.252 117.786 148.406 117.296 148.728 116.904C149.05 116.526 149.484 116.33 150.03 116.33C150.576 116.33 151.01 116.526 151.332 116.904C151.654 117.296 151.822 117.786 151.822 118.402C151.822 119.018 151.654 119.522 151.332 119.9ZM156.717 112.13C156.493 111.92 156.227 111.808 155.905 111.808C155.569 111.808 155.303 111.92 155.079 112.13C154.855 112.34 154.757 112.606 154.757 112.914C154.757 113.236 154.855 113.502 155.079 113.712C155.303 113.936 155.569 114.034 155.905 114.034C156.227 114.034 156.493 113.936 156.717 113.712C156.927 113.502 157.039 113.236 157.039 112.914C157.039 112.606 156.927 112.34 156.717 112.13ZM154.911 114.804V122H156.885V114.804H154.911ZM164.462 115.504C163.916 114.986 163.23 114.72 162.39 114.72C161.858 114.72 161.424 114.818 161.074 114.986C160.71 115.154 160.416 115.392 160.164 115.7L159.982 114.804H158.26V122H160.234V118.318C160.234 117.702 160.374 117.212 160.654 116.862C160.934 116.526 161.326 116.344 161.844 116.344C162.81 116.344 163.3 116.974 163.3 118.206V122H165.274V118.094C165.274 116.89 164.994 116.036 164.462 115.504ZM172.384 115.168C171.88 114.874 171.306 114.72 170.662 114.72C169.766 114.72 169.038 115.056 168.492 115.714V112.2H166.518V122H168.24L168.436 121.02C168.674 121.356 168.982 121.608 169.36 121.804C169.724 122 170.172 122.084 170.676 122.084C171.306 122.084 171.88 121.93 172.384 121.622C172.888 121.314 173.28 120.88 173.56 120.32C173.84 119.76 173.994 119.116 173.994 118.388C173.994 117.646 173.84 117.002 173.56 116.442C173.28 115.882 172.888 115.462 172.384 115.168ZM171.502 119.9C171.166 120.292 170.746 120.474 170.214 120.474C169.682 120.474 169.248 120.292 168.94 119.9C168.618 119.522 168.464 119.018 168.464 118.388C168.464 117.772 168.618 117.282 168.94 116.904C169.248 116.526 169.682 116.33 170.214 116.33C170.746 116.33 171.166 116.526 171.502 116.904C171.824 117.296 171.992 117.786 171.992 118.402C171.992 119.018 171.824 119.522 171.502 119.9ZM182.174 120.334H181.95C181.782 120.334 181.67 120.306 181.6 120.236C181.516 120.18 181.488 120.054 181.488 119.872V117.338C181.488 116.498 181.208 115.84 180.648 115.392C180.088 114.944 179.304 114.72 178.296 114.72C177.316 114.72 176.546 114.93 175.958 115.336C175.37 115.742 175.034 116.316 174.978 117.044H176.882C176.924 116.778 177.064 116.568 177.302 116.4C177.526 116.246 177.834 116.162 178.198 116.162C178.604 116.162 178.926 116.26 179.178 116.456C179.416 116.652 179.542 116.904 179.542 117.226V117.576H178.114C177.036 117.576 176.21 117.786 175.65 118.206C175.09 118.626 174.81 119.214 174.81 119.97C174.81 120.642 175.048 121.174 175.538 121.538C176.028 121.902 176.672 122.084 177.484 122.084C178.016 122.084 178.478 121.986 178.87 121.762C179.248 121.552 179.57 121.244 179.836 120.824C179.808 121.608 180.256 122 181.166 122H182.174V120.334ZM179.542 118.892V119.032C179.528 119.536 179.374 119.928 179.08 120.222C178.772 120.516 178.366 120.656 177.862 120.656C177.526 120.656 177.274 120.586 177.078 120.432C176.882 120.292 176.798 120.082 176.798 119.83C176.798 119.536 176.91 119.312 177.134 119.144C177.358 118.976 177.68 118.892 178.1 118.892H179.542ZM189.14 115.504C188.594 114.986 187.908 114.72 187.068 114.72C186.536 114.72 186.102 114.818 185.752 114.986C185.388 115.154 185.094 115.392 184.842 115.7L184.66 114.804H182.938V122H184.912V118.318C184.912 117.702 185.052 117.212 185.332 116.862C185.612 116.526 186.004 116.344 186.522 116.344C187.488 116.344 187.978 116.974 187.978 118.206V122H189.952V118.094C189.952 116.89 189.672 116.036 189.14 115.504ZM191.196 112.2V122H193.17V120.25L194.248 119.088L196.068 122H198.35L195.648 117.618L198.21 114.804H195.998L193.17 117.87V112.2H191.196Z" fill="white"/>
<path d="M216.688 115.5L214.852 114.204V113.052L216.688 111.756L217.228 112.692L215.656 113.376V113.88L217.228 114.564L216.688 115.5ZM214.828 110.652L214.624 112.896L213.616 113.472L211.576 112.524L212.116 111.6L213.496 112.608L213.94 112.356L213.748 110.664L214.828 110.652ZM211.576 114.732L213.616 113.784L214.624 114.36L214.828 116.604L213.748 116.592L213.94 114.9L213.496 114.648L212.116 115.656L211.576 114.732ZM223.557 115.5L221.721 114.204V113.052L223.557 111.756L224.097 112.692L222.525 113.376V113.88L224.097 114.564L223.557 115.5ZM221.697 110.652L221.493 112.896L220.485 113.472L218.445 112.524L218.985 111.6L220.365 112.608L220.809 112.356L220.617 110.664L221.697 110.652ZM218.445 114.732L220.485 113.784L221.493 114.36L221.697 116.604L220.617 116.592L220.809 114.9L220.365 114.648L218.985 115.656L218.445 114.732ZM230.425 115.5L228.589 114.204V113.052L230.425 111.756L230.965 112.692L229.393 113.376V113.88L230.965 114.564L230.425 115.5ZM228.565 110.652L228.361 112.896L227.353 113.472L225.313 112.524L225.853 111.6L227.233 112.608L227.677 112.356L227.485 110.664L228.565 110.652ZM225.313 114.732L227.353 113.784L228.361 114.36L228.565 116.604L227.485 116.592L227.677 114.9L227.233 114.648L225.853 115.656L225.313 114.732ZM237.294 115.5L235.458 114.204V113.052L237.294 111.756L237.834 112.692L236.262 113.376V113.88L237.834 114.564L237.294 115.5ZM235.434 110.652L235.23 112.896L234.222 113.472L232.182 112.524L232.722 111.6L234.102 112.608L234.546 112.356L234.354 110.664L235.434 110.652ZM232.182 114.732L234.222 113.784L235.23 114.36L235.434 116.604L234.354 116.592L234.546 114.9L234.102 114.648L232.722 115.656L232.182 114.732ZM245.057 120.216C244.385 120.216 243.817 120.08 243.353 119.808C242.889 119.528 242.537 119.164 242.297 118.716C242.057 118.268 241.937 117.792 241.937 117.288H243.065C243.065 117.656 243.145 117.984 243.305 118.272C243.473 118.56 243.705 118.788 244.001 118.956C244.297 119.124 244.649 119.208 245.057 119.208C245.457 119.208 245.805 119.128 246.101 118.968C246.405 118.8 246.641 118.572 246.809 118.284C246.977 117.988 247.061 117.656 247.061 117.288C247.061 116.92 246.977 116.588 246.809 116.292C246.649 115.996 246.417 115.76 246.113 115.584C245.817 115.408 245.465 115.32 245.057 115.32C244.761 115.32 244.461 115.372 244.157 115.476C243.853 115.572 243.609 115.712 243.425 115.896H242.369L242.813 111.24L247.409 111.24V112.224L243.485 112.224L243.773 111.828L243.437 115.224L243.125 115.116C243.357 114.884 243.637 114.7 243.965 114.564C244.301 114.428 244.681 114.36 245.105 114.36C245.777 114.36 246.341 114.5 246.797 114.78C247.253 115.052 247.597 115.408 247.829 115.848C248.069 116.28 248.189 116.732 248.189 117.204V117.372C248.189 117.844 248.069 118.3 247.829 118.74C247.589 119.172 247.233 119.528 246.761 119.808C246.297 120.08 245.729 120.216 245.057 120.216ZM249.377 117.924V116.508L253.013 111.024L253.817 111.66L250.421 116.796L250.529 117.012H256.193V117.924H249.377ZM253.949 120V113.796H255.029V120H253.949ZM260.749 120.24C260.109 120.24 259.573 120.128 259.141 119.904C258.717 119.68 258.377 119.376 258.121 118.992C257.873 118.6 257.693 118.152 257.581 117.648C257.477 117.144 257.425 116.616 257.425 116.064V115.488C257.425 114.104 257.769 113.04 258.457 112.296C259.145 111.544 260.141 111.168 261.445 111.168C261.757 111.168 262.021 111.176 262.237 111.192C262.453 111.208 262.689 111.232 262.945 111.264V112.248C262.681 112.216 262.437 112.192 262.213 112.176C261.989 112.16 261.717 112.152 261.397 112.152C260.669 112.152 260.093 112.288 259.669 112.56C259.245 112.832 258.941 113.224 258.757 113.736C258.573 114.24 258.481 114.852 258.481 115.572V116.112L258.193 117.18C258.201 116.548 258.321 116.024 258.553 115.608C258.793 115.192 259.117 114.88 259.525 114.672C259.941 114.464 260.417 114.36 260.953 114.36C261.577 114.36 262.105 114.488 262.537 114.744C262.969 114.992 263.293 115.336 263.509 115.776C263.733 116.216 263.845 116.716 263.845 117.276C263.845 117.844 263.729 118.352 263.497 118.8C263.265 119.248 262.917 119.6 262.453 119.856C261.997 120.112 261.429 120.24 260.749 120.24ZM260.749 119.232C261.189 119.232 261.557 119.148 261.853 118.98C262.149 118.812 262.369 118.584 262.513 118.296C262.665 118 262.741 117.66 262.741 117.276C262.741 116.892 262.669 116.552 262.525 116.256C262.381 115.96 262.165 115.732 261.877 115.572C261.597 115.404 261.249 115.32 260.833 115.32C260.425 115.32 260.057 115.396 259.729 115.548C259.409 115.7 259.157 115.924 258.973 116.22C258.789 116.508 258.697 116.864 258.697 117.288C258.697 117.64 258.769 117.964 258.913 118.26C259.057 118.556 259.281 118.792 259.585 118.968C259.889 119.144 260.277 119.232 260.749 119.232ZM266.979 120V111.816L267.507 112.224H265.035V111.24H268.131V120H266.979Z" fill="white"/>
<path d="M277.99 184C277.302 184 276.718 183.888 276.238 183.664C275.758 183.432 275.39 183.108 275.134 182.692C274.886 182.268 274.762 181.772 274.762 181.204H275.842C275.842 181.476 275.906 181.752 276.034 182.032C276.17 182.312 276.394 182.548 276.706 182.74C277.018 182.924 277.446 183.016 277.99 183.016C278.71 183.016 279.242 182.864 279.586 182.56C279.938 182.256 280.114 181.908 280.114 181.516C280.114 181.132 279.958 180.812 279.646 180.556C279.334 180.3 278.882 180.144 278.29 180.088L277.498 180.016C276.73 179.944 276.118 179.712 275.662 179.32C275.206 178.928 274.978 178.368 274.978 177.64C274.978 177.136 275.098 176.708 275.338 176.356C275.586 175.996 275.93 175.72 276.37 175.528C276.818 175.336 277.342 175.24 277.942 175.24C278.542 175.24 279.058 175.348 279.49 175.564C279.93 175.772 280.27 176.08 280.51 176.488C280.75 176.888 280.87 177.372 280.87 177.94H279.79C279.79 177.652 279.726 177.38 279.598 177.124C279.47 176.86 279.27 176.644 278.998 176.476C278.734 176.308 278.382 176.224 277.942 176.224C277.55 176.224 277.214 176.288 276.934 176.416C276.662 176.536 276.45 176.704 276.298 176.92C276.154 177.136 276.082 177.376 276.082 177.64C276.082 177.984 276.206 178.284 276.454 178.54C276.702 178.788 277.082 178.936 277.594 178.984L278.386 179.056C279.242 179.136 279.926 179.388 280.438 179.812C280.958 180.228 281.218 180.796 281.218 181.516C281.218 182.012 281.086 182.448 280.822 182.824C280.558 183.192 280.186 183.48 279.706 183.688C279.226 183.896 278.654 184 277.99 184ZM277.474 185.548V183.796H278.506V185.548H277.474ZM277.426 175.828V174.076H278.458V175.828H277.426ZM283.706 184L287.414 176.332L287.342 176.224H282.554V175.24H288.434V176.632L284.906 184H283.706ZM282.554 177.616V175.24H283.514V177.616H282.554ZM290.165 185.884L289.241 185.536L290.357 182.44L291.305 182.8L290.165 185.884ZM293.042 184V182.56C293.042 182.208 293.09 181.908 293.186 181.66C293.29 181.412 293.466 181.188 293.714 180.988C293.962 180.78 294.298 180.58 294.722 180.388L296.366 179.632C296.766 179.448 297.082 179.212 297.314 178.924C297.546 178.628 297.662 178.248 297.662 177.784C297.662 177.224 297.506 176.788 297.194 176.476C296.882 176.164 296.442 176.008 295.874 176.008C295.314 176.008 294.874 176.164 294.554 176.476C294.234 176.788 294.074 177.224 294.074 177.784H292.946C292.946 177.28 293.05 176.816 293.258 176.392C293.474 175.968 293.798 175.632 294.23 175.384C294.662 175.128 295.21 175 295.874 175C296.538 175 297.082 175.128 297.506 175.384C297.938 175.632 298.258 175.96 298.466 176.368C298.682 176.776 298.79 177.22 298.79 177.7V177.868C298.79 178.5 298.606 179.032 298.238 179.464C297.878 179.896 297.39 180.252 296.774 180.532L295.13 181.288C294.762 181.456 294.514 181.624 294.386 181.792C294.258 181.96 294.194 182.184 294.194 182.464V183.568L293.882 183.016H298.898V184H293.042ZM303.4 184.216C302.728 184.216 302.16 184.08 301.696 183.808C301.232 183.528 300.88 183.164 300.64 182.716C300.4 182.268 300.28 181.792 300.28 181.288H301.408C301.408 181.656 301.488 181.984 301.648 182.272C301.816 182.56 302.048 182.788 302.344 182.956C302.64 183.124 302.992 183.208 303.4 183.208C303.8 183.208 304.148 183.128 304.444 182.968C304.748 182.8 304.984 182.572 305.152 182.284C305.32 181.988 305.404 181.656 305.404 181.288C305.404 180.92 305.32 180.588 305.152 180.292C304.992 179.996 304.76 179.76 304.456 179.584C304.16 179.408 303.808 179.32 303.4 179.32C303.104 179.32 302.804 179.372 302.5 179.476C302.196 179.572 301.952 179.712 301.768 179.896H300.712L301.156 175.24H305.752V176.224H301.828L302.116 175.828L301.78 179.224L301.468 179.116C301.7 178.884 301.98 178.7 302.308 178.564C302.644 178.428 303.024 178.36 303.448 178.36C304.12 178.36 304.684 178.5 305.14 178.78C305.596 179.052 305.94 179.408 306.172 179.848C306.412 180.28 306.532 180.732 306.532 181.204V181.372C306.532 181.844 306.412 182.3 306.172 182.74C305.932 183.172 305.576 183.528 305.104 183.808C304.64 184.08 304.072 184.216 303.4 184.216ZM307.72 181.924V180.508L311.356 175.024L312.16 175.66L308.764 180.796L308.872 181.012H314.536V181.924H307.72ZM312.292 184V177.796H313.372V184H312.292ZM315.779 184V182.536H317.171V184H315.779ZM322.568 184.216C321.912 184.216 321.352 184.104 320.888 183.88C320.432 183.648 320.06 183.336 319.772 182.944C319.492 182.552 319.288 182.1 319.16 181.588C319.032 181.068 318.968 180.52 318.968 179.944V179.296C318.968 178.488 319.092 177.76 319.34 177.112C319.596 176.464 319.988 175.952 320.516 175.576C321.052 175.192 321.736 175 322.568 175C323.4 175 324.08 175.192 324.608 175.576C325.136 175.952 325.524 176.464 325.772 177.112C326.028 177.76 326.156 178.488 326.156 179.296V179.944C326.156 180.52 326.092 181.068 325.964 181.588C325.836 182.1 325.628 182.552 325.34 182.944C325.06 183.336 324.692 183.648 324.236 183.88C323.78 184.104 323.224 184.216 322.568 184.216ZM322.568 183.16C323.4 183.16 324.008 182.88 324.392 182.32C324.784 181.752 324.98 180.856 324.98 179.632C324.98 178.352 324.78 177.436 324.38 176.884C323.988 176.332 323.384 176.056 322.568 176.056C321.744 176.056 321.132 176.332 320.732 176.884C320.34 177.436 320.144 178.344 320.144 179.608C320.144 180.84 320.34 181.74 320.732 182.308C321.124 182.876 321.736 183.16 322.568 183.16ZM331.546 184.216C330.89 184.216 330.33 184.104 329.866 183.88C329.41 183.648 329.038 183.336 328.75 182.944C328.47 182.552 328.266 182.1 328.138 181.588C328.01 181.068 327.946 180.52 327.946 179.944V179.296C327.946 178.488 328.07 177.76 328.318 177.112C328.574 176.464 328.966 175.952 329.494 175.576C330.03 175.192 330.714 175 331.546 175C332.378 175 333.058 175.192 333.586 175.576C334.114 175.952 334.502 176.464 334.75 177.112C335.006 177.76 335.134 178.488 335.134 179.296V179.944C335.134 180.52 335.07 181.068 334.942 181.588C334.814 182.1 334.606 182.552 334.318 182.944C334.038 183.336 333.67 183.648 333.214 183.88C332.758 184.104 332.202 184.216 331.546 184.216ZM331.546 183.16C332.378 183.16 332.986 182.88 333.37 182.32C333.762 181.752 333.958 180.856 333.958 179.632C333.958 178.352 333.758 177.436 333.358 176.884C332.966 176.332 332.362 176.056 331.546 176.056C330.722 176.056 330.11 176.332 329.71 176.884C329.318 177.436 329.122 178.344 329.122 179.608C329.122 180.84 329.318 181.74 329.71 182.308C330.102 182.876 330.714 183.16 331.546 183.16Z" fill="white"/>
<path d="M345.21 180.357C345.142 180.249 345.108 180.195 345.089 180.112C345.075 180.049 345.075 179.951 345.089 179.888C345.108 179.805 345.142 179.751 345.21 179.643C345.773 178.752 347.448 176.5 350 176.5C352.553 176.5 354.228 178.752 354.79 179.643C354.858 179.751 354.892 179.805 354.912 179.888C354.926 179.951 354.926 180.049 354.912 180.112C354.892 180.195 354.858 180.249 354.79 180.357C354.228 181.248 352.553 183.5 350 183.5C347.448 183.5 345.773 181.248 345.21 180.357Z" stroke="white" stroke-linecap="round" stroke-linejoin="round"/>
<path d="M350 181.5C350.829 181.5 351.5 180.828 351.5 180C351.5 179.172 350.829 178.5 350 178.5C349.172 178.5 348.5 179.172 348.5 180C348.5 180.828 349.172 181.5 350 181.5Z" stroke="white" stroke-linecap="round" stroke-linejoin="round"/>
</g>
<defs>
<filter id="filter0_bi_4846_2414" x="101.029" y="101.43" width="327.922" height="175.187" filterUnits="userSpaceOnUse" color-interpolation-filters="sRGB">
<feFlood flood-opacity="0" result="BackgroundImageFix"/>
<feGaussianBlur in="BackgroundImageFix" stdDeviation="15.1236"/>
<feComposite in2="SourceAlpha" operator="in" result="effect1_backgroundBlur_4846_2414"/>
<feBlend mode="normal" in="SourceGraphic" in2="effect1_backgroundBlur_4846_2414" result="shape"/>
<feColorMatrix in="SourceAlpha" type="matrix" values="0 0 0 0 0 0 0 0 0 0 0 0 0 0 0 0 0 0 127 0" result="hardAlpha"/>
<feOffset dx="0.604944" dy="0.483955"/>
<feGaussianBlur stdDeviation="0.241978"/>
<feComposite in2="hardAlpha" operator="arithmetic" k2="-1" k3="1"/>
<feColorMatrix type="matrix" values="0 0 0 0 1 0 0 0 0 1 0 0 0 0 1 0 0 0 0.25 0"/>
<feBlend mode="normal" in2="shape" result="effect2_innerShadow_4846_2414"/>
</filter>
<filter id="filter1_bii_4846_2414" x="85.7528" y="125.753" width="324.494" height="108.494" filterUnits="userSpaceOnUse" color-interpolation-filters="sRGB">
<feFlood flood-opacity="0" result="BackgroundImageFix"/>
<feGaussianBlur in="BackgroundImageFix" stdDeviation="15.1236"/>
<feComposite in2="SourceAlpha" operator="in" result="effect1_backgroundBlur_4846_2414"/>
<feBlend mode="normal" in="SourceGraphic" in2="effect1_backgroundBlur_4846_2414" result="shape"/>
<feColorMatrix in="SourceAlpha" type="matrix" values="0 0 0 0 0 0 0 0 0 0 0 0 0 0 0 0 0 0 127 0" result="hardAlpha"/>
<feOffset dx="-0.241978" dy="-0.241978"/>
<feGaussianBlur stdDeviation="0.181483"/>
<feComposite in2="hardAlpha" operator="arithmetic" k2="-1" k3="1"/>
<feColorMatrix type="matrix" values="0 0 0 0 0 0 0 0 0 0 0 0 0 0 0 0 0 0 0.36 0"/>
<feBlend mode="normal" in2="shape" result="effect2_innerShadow_4846_2414"/>
<feColorMatrix in="SourceAlpha" type="matrix" values="0 0 0 0 0 0 0 0 0 0 0 0 0 0 0 0 0 0 127 0" result="hardAlpha"/>
<feOffset dx="0.604944" dy="0.483955"/>
<feGaussianBlur stdDeviation="0.241978"/>
<feComposite in2="hardAlpha" operator="arithmetic" k2="-1" k3="1"/>
<feColorMatrix type="matrix" values="0 0 0 0 1 0 0 0 0 1 0 0 0 0 1 0 0 0 0.25 0"/>
<feBlend mode="normal" in2="effect2_innerShadow_4846_2414" result="effect3_innerShadow_4846_2414"/>
</filter>
<linearGradient id="paint0_linear_4846_2414" x1="83" y1="142" x2="-6" y2="139.5" gradientUnits="userSpaceOnUse">
<stop stop-color="#E3E3E8"/>
<stop offset="1" stop-color="#E3E3E8" stop-opacity="0"/>
</linearGradient>
<linearGradient id="paint1_linear_4846_2414" x1="171" y1="58" x2="-3.37117" y2="51.9999" gradientUnits="userSpaceOnUse">
<stop stop-color="#E3E3E8"/>
<stop offset="1" stop-color="#E3E3E8" stop-opacity="0"/>
</linearGradient>
<linearGradient id="paint2_linear_4846_2414" x1="211" y1="170" x2="50.9577" y2="163.257" gradientUnits="userSpaceOnUse">
<stop stop-color="#E3E3E8"/>
<stop offset="1" stop-color="#E3E3E8" stop-opacity="0"/>
</linearGradient>
<linearGradient id="paint3_linear_4846_2414" x1="776" y1="146" x2="601.629" y2="140" gradientUnits="userSpaceOnUse">
<stop stop-color="#E3E3E8"/>
<stop offset="1" stop-color="#E3E3E8" stop-opacity="0"/>
</linearGradient>
<linearGradient id="paint4_linear_4846_2414" x1="781" y1="222" x2="635.234" y2="215.285" gradientUnits="userSpaceOnUse">
<stop stop-color="#E3E3E8"/>
<stop offset="1" stop-color="#E3E3E8" stop-opacity="0"/>
</linearGradient>
<linearGradient id="paint5_linear_4846_2414" x1="685" y1="218" x2="488.562" y2="214.499" gradientUnits="userSpaceOnUse">
<stop stop-color="#E3E3E8"/>
<stop offset="1" stop-color="#E3E3E8" stop-opacity="0"/>
</linearGradient>
<linearGradient id="paint6_linear_4846_2414" x1="348" y1="-4.16187" x2="348" y2="136.161" gradientUnits="userSpaceOnUse">
<stop stop-color="#5B66FA"/>
<stop offset="1" stop-color="#EFD3EF"/>
</linearGradient>
<linearGradient id="paint7_linear_4846_2414" x1="348" y1="-4.16187" x2="348" y2="136.161" gradientUnits="userSpaceOnUse">
<stop stop-color="#5B66FA"/>
<stop offset="1" stop-color="#EFD3EF"/>
</linearGradient>
<linearGradient id="paint8_linear_4846_2414" x1="137.239" y1="60.3913" x2="167.951" y2="80.0597" gradientUnits="userSpaceOnUse">
<stop stop-color="#B0A3F5"/>
<stop offset="0.494792" stop-color="white"/>
<stop offset="1" stop-color="#7259ED"/>
</linearGradient>
<linearGradient id="paint9_linear_4846_2414" x1="137.203" y1="61.3478" x2="166.769" y2="81.5408" gradientUnits="userSpaceOnUse">
<stop stop-color="#B0A3F5"/>
<stop offset="0.494792" stop-color="white"/>
<stop offset="1" stop-color="#7259ED"/>
</linearGradient>
<clipPath id="clip0_4846_2414">
<rect x="173.723" y="19.6299" width="264" height="164" rx="12" transform="rotate(15 173.723 19.6299)" fill="white"/>
</clipPath>
<clipPath id="clip1_4846_2414">
<rect x="116" y="40" width="264" height="164" rx="12" fill="white"/>
</clipPath>
<clipPath id="clip2_4846_2414">
<rect width="150" height="150" fill="white" transform="translate(273 -9)"/>
</clipPath>
<clipPath id="clip3_4846_2414">
<rect width="44" height="34" fill="white" transform="translate(320 56)"/>
</clipPath>
</defs>
</svg>
