<svg width="1146" height="192" viewBox="0 0 1146 192" fill="none" xmlns="http://www.w3.org/2000/svg">
<g clip-path="url(#clip0_407_11203)">
<rect x="0.5" width="1145" height="192" rx="24" fill="#0E0637"/>
<g opacity="0.2">
<g filter="url(#filter0_b_407_11203)">
<path d="M687.854 109.845L682.767 -453.107C682.617 -469.747 704.811 -475.531 712.802 -460.934L1189.37 409.666C1197.36 424.263 1180.53 439.842 1166.59 430.748L695.11 123.1C690.626 120.174 687.902 115.199 687.854 109.845Z" fill="url(#paint0_linear_407_11203)" fill-opacity="0.3"/>
<path d="M687.854 109.845L682.767 -453.107C682.617 -469.747 704.811 -475.531 712.802 -460.934L1189.37 409.666C1197.36 424.263 1180.53 439.842 1166.59 430.748L695.11 123.1C690.626 120.174 687.902 115.199 687.854 109.845Z" stroke="white"/>
</g>
<g filter="url(#filter1_b_407_11203)">
<path d="M758.029 71.4316L752.942 -491.52C752.792 -508.16 774.986 -513.944 782.976 -499.347L1259.54 371.253C1267.53 385.85 1250.7 401.429 1236.76 392.335L765.285 84.6867C760.801 81.7607 758.077 76.7857 758.029 71.4316Z" fill="url(#paint1_linear_407_11203)" fill-opacity="0.4"/>
<path d="M758.029 71.4316L752.942 -491.52C752.792 -508.16 774.986 -513.944 782.976 -499.347L1259.54 371.253C1267.53 385.85 1250.7 401.429 1236.76 392.335L765.285 84.6867C760.801 81.7607 758.077 76.7857 758.029 71.4316Z" stroke="white"/>
</g>
<g filter="url(#filter2_b_407_11203)">
<path d="M828.203 33.018L823.116 -529.934C822.966 -546.574 845.16 -552.358 853.15 -537.761L1329.72 332.839C1337.71 347.436 1320.87 363.015 1306.94 353.921L835.459 46.2731C830.974 43.3472 828.251 38.3721 828.203 33.018Z" fill="url(#paint2_linear_407_11203)" fill-opacity="0.6"/>
<path d="M828.203 33.018L823.116 -529.934C822.966 -546.574 845.16 -552.358 853.15 -537.761L1329.72 332.839C1337.71 347.436 1320.87 363.015 1306.94 353.921L835.459 46.2731C830.974 43.3472 828.251 38.3721 828.203 33.018Z" stroke="url(#paint3_linear_407_11203)"/>
</g>
</g>
<circle cx="412.5" cy="96" r="24" fill="#00DCFA" stroke="#0E0637" stroke-width="2"/>
<path fill-rule="evenodd" clip-rule="evenodd" d="M406.373 89.8725C406.997 84.0912 411.957 79.6001 417.797 79.6001C424.149 79.6043 429.296 84.7525 429.3 91.1039C429.3 96.9426 424.809 101.903 419.026 102.528C418.422 108.309 413.442 112.8 407.602 112.8C401.25 112.796 396.103 107.648 396.1 101.296C396.1 95.4576 400.589 90.4972 406.373 89.8725ZM419.104 99.8913C422.976 99.3019 426.015 96.2631 426.604 92.3912H419.104V99.8913ZM398.795 100.009L398.798 99.9894H406.295V92.4892C402.424 93.08 399.387 96.1192 398.798 99.9894H398.795V100.009ZM416.41 102.606L416.41 102.605V102.606H416.41ZM416.41 102.606C415.766 106.973 412.016 110.207 407.602 110.203C403.188 110.207 399.439 106.973 398.795 102.606H416.41ZM416.509 92.3912V99.9894H408.891V92.3912H416.509ZM408.989 89.7955H426.604V89.794C425.96 85.4273 422.211 82.1934 417.797 82.1972C413.383 82.1934 409.633 85.4279 408.989 89.7955Z" fill="white"/>
<g clip-path="url(#clip1_407_11203)">
<path d="M391.5 96C391.5 108.703 381.203 119 368.5 119C355.797 119 345.5 108.703 345.5 96C345.5 83.2975 355.797 73 368.5 73C381.203 73 391.5 83.2975 391.5 96Z" fill="#767DFF" stroke="#0E0637" stroke-width="2"/>
<path fill-rule="evenodd" clip-rule="evenodd" d="M365.155 81.75H371.845C372.077 81.7499 372.305 81.8115 372.505 81.9286C372.705 82.0456 372.87 82.2139 372.984 82.416L383.343 100.895C383.452 101.089 383.509 101.309 383.509 101.532C383.509 101.755 383.452 101.975 383.343 102.17L380.028 108.083C379.914 108.285 379.749 108.453 379.55 108.57C379.35 108.688 379.122 108.75 378.891 108.75H358.11C357.878 108.75 357.65 108.688 357.45 108.571C357.25 108.453 357.084 108.285 356.971 108.083L353.658 102.17C353.548 101.975 353.491 101.755 353.491 101.532C353.491 101.309 353.548 101.089 353.658 100.895L364.017 82.416C364.13 82.2139 364.295 82.0456 364.495 81.9286C364.696 81.8115 364.923 81.7499 365.155 81.75ZM368.5 89.1015L361.521 101.532H375.48L368.5 89.1015Z" fill="white"/>
</g>
<g clip-path="url(#clip2_407_11203)">
<path d="M324.5 73C337.203 73 347.5 83.2974 347.5 96C347.5 108.703 337.203 119 324.5 119C311.797 119 301.5 108.703 301.5 96C301.5 83.2974 311.797 73 324.5 73Z" fill="#1A82FF" stroke="#0E0637" stroke-width="2"/>
<path d="M333.274 105.882C331.196 108.428 328.274 109.7 324.508 109.7C320.741 109.7 317.819 108.428 315.74 105.882C313.661 103.336 312.622 100.044 312.623 96.0067C312.624 91.9697 313.663 88.6782 315.739 86.1324C317.817 83.5857 320.739 82.3125 324.506 82.313C328.274 82.3134 331.196 83.5866 333.273 86.1324C335.35 88.6778 336.389 91.9692 336.39 96.0067C336.39 100.044 335.352 103.336 333.274 105.882Z" fill="white"/>
<path d="M324.465 104.378C325.456 104.378 326.299 104.108 326.993 103.568C327.688 103.027 328.191 102.295 328.502 101.369C328.813 100.444 329.032 99.5562 329.16 98.7073C329.288 97.8584 329.352 96.9583 329.351 96.007C329.351 94.8358 329.28 93.7876 329.138 92.8623L320.596 101.764C321.386 103.506 322.675 104.377 324.465 104.378Z" fill="#1A82FF"/>
<path d="M324.549 87.6357C323.558 87.6357 322.715 87.9059 322.021 88.4462C321.326 88.9866 320.823 89.7194 320.512 90.6446C320.199 91.5703 319.98 92.4576 319.854 93.3065C319.726 94.1554 319.662 95.0555 319.663 96.0067C319.663 96.6335 319.683 97.225 319.723 97.7813L327.871 89.2924C327.08 88.1884 325.973 87.6362 324.549 87.6357Z" fill="#1A82FF"/>
<path d="M313.287 104.493L312.238 103.487L320.194 95.1938L321.243 96.2004L313.287 104.493ZM328.277 95.8397L327.228 94.8331L335.184 86.54L336.233 87.5467L328.277 95.8397Z" fill="#1A82FF"/>
</g>
<path opacity="0.2" d="M280.5 120C293.755 120 304.5 109.255 304.5 96C304.5 82.7452 293.755 72 280.5 72C267.245 72 256.5 82.7452 256.5 96C256.5 109.255 267.245 120 280.5 120Z" fill="#E2BD23"/>
<path d="M280.5 120C293.755 120 304.5 109.255 304.5 96C304.5 82.7452 293.755 72 280.5 72C267.245 72 256.5 82.7452 256.5 96C256.5 109.255 267.245 120 280.5 120Z" fill="#F0C30B" stroke="#0E0637" stroke-width="2"/>
<mask id="mask0_407_11203" style="mask-type:alpha" maskUnits="userSpaceOnUse" x="256" y="72" width="49" height="48">
<path d="M280.5 120C293.755 120 304.5 109.255 304.5 96C304.5 82.7452 293.755 72 280.5 72C267.245 72 256.5 82.7452 256.5 96C256.5 109.255 267.245 120 280.5 120Z" fill="white"/>
</mask>
<g mask="url(#mask0_407_11203)">
<path fill-rule="evenodd" clip-rule="evenodd" d="M280.897 86.3735H274.344V95.0768H270.346V97.9779H274.344V106.681H280.897C284.355 106.681 285.101 106.319 286.591 105.595C286.707 105.538 286.827 105.48 286.954 105.419C288.707 104.578 290.07 103.393 291.042 101.865C292.014 100.337 292.5 98.5582 292.5 96.5274C292.5 94.4966 292.014 92.7173 291.042 91.1894C290.07 89.6614 288.707 88.4768 286.954 87.6355C285.2 86.7942 283.181 86.3735 280.897 86.3735ZM279.213 97.9779V102.823H280.656C282.76 102.823 284.439 102.257 285.691 101.126C286.944 99.9942 287.57 98.4615 287.57 96.5274C287.57 94.5933 286.944 93.0606 285.691 91.9291C284.439 90.7977 282.76 90.232 280.656 90.232H279.213V95.0768H283.872V97.9779H279.213Z" fill="white"/>
</g>
<g clip-path="url(#clip3_407_11203)">
<path d="M230.939 118.311L230.938 118.311C218.61 115.238 211.116 102.748 214.189 90.4383L214.189 90.438C217.262 78.1099 229.734 70.6161 242.063 73.6893L242.064 73.6896C254.372 76.7442 261.885 89.2333 258.812 101.562L259.782 101.804L258.812 101.562C255.739 113.89 243.248 121.384 230.939 118.311Z" fill="url(#paint4_linear_407_11203)" stroke="#0E0637" stroke-width="2"/>
<path d="M247.927 93.0095C248.396 89.822 245.977 88.097 242.64 86.9532L243.727 82.622L241.102 81.9657L240.052 86.1845C239.358 86.0157 238.646 85.847 237.933 85.697L238.983 81.4595L236.358 80.8032L235.29 85.1157C234.708 84.9845 234.146 84.8532 233.602 84.722V84.7032L229.965 83.8032L229.271 86.6157C229.271 86.6157 231.221 87.0657 231.183 87.0845C232.252 87.347 232.44 88.0595 232.402 88.622L231.165 93.5532C231.24 93.572 231.333 93.5907 231.446 93.647C231.352 93.6282 231.258 93.6095 231.165 93.572L229.44 100.472C229.308 100.791 228.971 101.278 228.24 101.091C228.258 101.128 226.327 100.622 226.327 100.622L225.015 103.641L228.446 104.503C229.083 104.672 229.702 104.822 230.321 104.991L229.233 109.359L231.858 110.016L232.946 105.684C233.658 105.872 234.371 106.059 235.046 106.228L233.977 110.541L236.602 111.197L237.69 106.828C242.19 107.672 245.565 107.334 246.971 103.266C248.115 100.003 246.915 98.1095 244.552 96.872C246.296 96.4782 247.59 95.3345 247.927 93.0095ZM241.908 101.447C241.102 104.709 235.59 102.947 233.808 102.497L235.252 96.7032C237.033 97.1532 242.771 98.0345 241.908 101.447ZM242.733 92.9532C241.983 95.9345 237.408 94.4157 235.927 94.0407L237.24 88.7907C238.721 89.1657 243.502 89.8595 242.733 92.9532Z" fill="white"/>
</g>
<path d="M465.46 71V57.76H467.42V71H465.46ZM461.02 58.16V56.4H471.86V58.16H461.02ZM473.51 71V60.32H475.03V64.72H474.95C474.95 63.16 475.29 62.02 475.97 61.3C476.663 60.5667 477.696 60.2 479.07 60.2H479.43V61.92H478.75C477.683 61.92 476.863 62.2067 476.29 62.78C475.716 63.34 475.43 64.1533 475.43 65.22V71H473.51ZM488.034 71V67.8H487.714V64.1C487.714 63.3667 487.52 62.8133 487.134 62.44C486.76 62.0667 486.207 61.88 485.474 61.88C485.06 61.88 484.634 61.8867 484.194 61.9C483.754 61.9133 483.334 61.9267 482.934 61.94C482.534 61.9533 482.187 61.9733 481.894 62V60.32C482.187 60.2933 482.494 60.2733 482.814 60.26C483.147 60.2333 483.487 60.22 483.834 60.22C484.18 60.2067 484.514 60.2 484.834 60.2C485.927 60.2 486.82 60.3333 487.514 60.6C488.207 60.8533 488.72 61.2733 489.054 61.86C489.387 62.4467 489.554 63.24 489.554 64.24V71H488.034ZM484.534 71.28C483.734 71.28 483.04 71.1467 482.454 70.88C481.88 70.6 481.434 70.2 481.114 69.68C480.807 69.16 480.654 68.5333 480.654 67.8C480.654 67.04 480.82 66.4067 481.154 65.9C481.5 65.3933 482 65.0133 482.654 64.76C483.307 64.4933 484.094 64.36 485.014 64.36H487.914V65.8H484.934C484.16 65.8 483.567 65.9867 483.154 66.36C482.74 66.7333 482.534 67.2133 482.534 67.8C482.534 68.3867 482.74 68.86 483.154 69.22C483.567 69.58 484.16 69.76 484.934 69.76C485.387 69.76 485.82 69.68 486.234 69.52C486.647 69.3467 486.987 69.0667 487.254 68.68C487.534 68.28 487.687 67.7333 487.714 67.04L488.234 67.8C488.167 68.56 487.98 69.2 487.674 69.72C487.38 70.2267 486.967 70.6133 486.434 70.88C485.914 71.1467 485.28 71.28 484.534 71.28ZM497.438 71.36C496.678 71.36 495.978 71.22 495.338 70.94C494.698 70.66 494.138 70.2667 493.658 69.76C493.191 69.2533 492.824 68.6667 492.558 68C492.304 67.3333 492.178 66.6133 492.178 65.84V65.48C492.178 64.72 492.304 64.0067 492.558 63.34C492.811 62.6733 493.164 62.0867 493.618 61.58C494.084 61.0733 494.631 60.68 495.258 60.4C495.898 60.1067 496.604 59.96 497.378 59.96C498.191 59.96 498.931 60.1333 499.598 60.48C500.264 60.8133 500.811 61.34 501.238 62.06C501.664 62.78 501.904 63.7133 501.958 64.86L501.158 63.58V56.4H503.078V71H501.558V66.26H502.118C502.064 67.4733 501.811 68.46 501.358 69.22C500.904 69.9667 500.331 70.5133 499.638 70.86C498.958 71.1933 498.224 71.36 497.438 71.36ZM497.698 69.68C498.351 69.68 498.944 69.5333 499.478 69.24C500.011 68.9467 500.438 68.5267 500.758 67.98C501.078 67.42 501.238 66.7667 501.238 66.02V65.1C501.238 64.3667 501.071 63.7467 500.738 63.24C500.418 62.72 499.984 62.3267 499.438 62.06C498.904 61.78 498.318 61.64 497.678 61.64C496.971 61.64 496.344 61.8067 495.798 62.14C495.264 62.4733 494.844 62.94 494.538 63.54C494.244 64.14 494.098 64.8467 494.098 65.66C494.098 66.4733 494.251 67.1867 494.558 67.8C494.864 68.4 495.291 68.8667 495.838 69.2C496.384 69.52 497.004 69.68 497.698 69.68ZM511.207 71.36C510.273 71.36 509.467 71.2 508.787 70.88C508.107 70.56 507.553 70.14 507.127 69.62C506.7 69.0867 506.38 68.4933 506.167 67.84C505.967 67.1867 505.867 66.52 505.867 65.84V65.48C505.867 64.7867 505.967 64.1133 506.167 63.46C506.38 62.8067 506.7 62.22 507.127 61.7C507.553 61.1667 508.093 60.7467 508.747 60.44C509.413 60.12 510.193 59.96 511.087 59.96C512.247 59.96 513.2 60.2133 513.947 60.72C514.707 61.2133 515.267 61.8533 515.627 62.64C516 63.4267 516.187 64.2667 516.187 65.16V66.02H506.707V64.58H514.787L514.347 65.36C514.347 64.6 514.227 63.9467 513.987 63.4C513.747 62.84 513.387 62.4067 512.907 62.1C512.427 61.7933 511.82 61.64 511.087 61.64C510.327 61.64 509.693 61.8133 509.187 62.16C508.693 62.5067 508.32 62.98 508.067 63.58C507.827 64.18 507.707 64.8733 507.707 65.66C507.707 66.42 507.827 67.1067 508.067 67.72C508.32 68.32 508.707 68.8 509.227 69.16C509.747 69.5067 510.407 69.68 511.207 69.68C512.047 69.68 512.727 69.4933 513.247 69.12C513.78 68.7467 514.1 68.3133 514.207 67.82H516.007C515.86 68.5533 515.567 69.1867 515.127 69.72C514.687 70.2533 514.133 70.66 513.467 70.94C512.8 71.22 512.047 71.36 511.207 71.36ZM523.263 71V60.32H524.783V64.9H524.543C524.543 63.86 524.677 62.98 524.943 62.26C525.223 61.5267 525.637 60.9667 526.183 60.58C526.73 60.1933 527.423 60 528.263 60H528.343C529.183 60 529.877 60.1933 530.423 60.58C530.983 60.9667 531.397 61.5267 531.663 62.26C531.93 62.98 532.063 63.86 532.063 64.9H531.503C531.503 63.86 531.643 62.98 531.923 62.26C532.203 61.5267 532.617 60.9667 533.163 60.58C533.723 60.1933 534.423 60 535.263 60H535.343C536.183 60 536.883 60.1933 537.443 60.58C538.003 60.9667 538.417 61.5267 538.683 62.26C538.963 62.98 539.103 63.86 539.103 64.9V71H537.183V64.48C537.183 63.6133 536.97 62.9467 536.543 62.48C536.117 62 535.523 61.76 534.763 61.76C533.977 61.76 533.343 62.0133 532.863 62.52C532.383 63.0133 532.143 63.7067 532.143 64.6V71H530.223V64.48C530.223 63.6133 530.01 62.9467 529.583 62.48C529.157 62 528.563 61.76 527.803 61.76C527.017 61.76 526.383 62.0133 525.903 62.52C525.423 63.0133 525.183 63.7067 525.183 64.6V71H523.263ZM547.439 71.36C546.506 71.36 545.686 71.2 544.979 70.88C544.272 70.56 543.672 70.14 543.179 69.62C542.699 69.0867 542.332 68.4933 542.079 67.84C541.839 67.1867 541.719 66.52 541.719 65.84V65.48C541.719 64.8 541.846 64.1333 542.099 63.48C542.352 62.8133 542.726 62.22 543.219 61.7C543.712 61.1667 544.312 60.7467 545.019 60.44C545.726 60.12 546.532 59.96 547.439 59.96C548.346 59.96 549.152 60.12 549.859 60.44C550.566 60.7467 551.166 61.1667 551.659 61.7C552.152 62.22 552.526 62.8133 552.779 63.48C553.032 64.1333 553.159 64.8 553.159 65.48V65.84C553.159 66.52 553.032 67.1867 552.779 67.84C552.539 68.4933 552.172 69.0867 551.679 69.62C551.199 70.14 550.606 70.56 549.899 70.88C549.192 71.2 548.372 71.36 547.439 71.36ZM547.439 69.64C548.239 69.64 548.919 69.4667 549.479 69.12C550.052 68.76 550.486 68.28 550.779 67.68C551.086 67.08 551.239 66.4067 551.239 65.66C551.239 64.9 551.086 64.22 550.779 63.62C550.472 63.02 550.032 62.5467 549.459 62.2C548.899 61.8533 548.226 61.68 547.439 61.68C546.666 61.68 545.992 61.8533 545.419 62.2C544.846 62.5467 544.406 63.02 544.099 63.62C543.792 64.22 543.639 64.9 543.639 65.66C543.639 66.4067 543.786 67.08 544.079 67.68C544.386 68.28 544.819 68.76 545.379 69.12C545.952 69.4667 546.639 69.64 547.439 69.64ZM555.935 71V60.32H557.455V64.72H557.375C557.375 63.16 557.715 62.02 558.395 61.3C559.088 60.5667 560.121 60.2 561.495 60.2H561.855V61.92H561.175C560.108 61.92 559.288 62.2067 558.715 62.78C558.141 63.34 557.855 64.1533 557.855 65.22V71H555.935ZM568.46 71.36C567.527 71.36 566.72 71.2 566.04 70.88C565.36 70.56 564.807 70.14 564.38 69.62C563.954 69.0867 563.634 68.4933 563.42 67.84C563.22 67.1867 563.12 66.52 563.12 65.84V65.48C563.12 64.7867 563.22 64.1133 563.42 63.46C563.634 62.8067 563.954 62.22 564.38 61.7C564.807 61.1667 565.347 60.7467 566 60.44C566.667 60.12 567.447 59.96 568.34 59.96C569.5 59.96 570.454 60.2133 571.2 60.72C571.96 61.2133 572.52 61.8533 572.88 62.64C573.254 63.4267 573.44 64.2667 573.44 65.16V66.02H563.96V64.58H572.04L571.6 65.36C571.6 64.6 571.48 63.9467 571.24 63.4C571 62.84 570.64 62.4067 570.16 62.1C569.68 61.7933 569.074 61.64 568.34 61.64C567.58 61.64 566.947 61.8133 566.44 62.16C565.947 62.5067 565.574 62.98 565.32 63.58C565.08 64.18 564.96 64.8733 564.96 65.66C564.96 66.42 565.08 67.1067 565.32 67.72C565.574 68.32 565.96 68.8 566.48 69.16C567 69.5067 567.66 69.68 568.46 69.68C569.3 69.68 569.98 69.4933 570.5 69.12C571.034 68.7467 571.354 68.3133 571.46 67.82H573.26C573.114 68.5533 572.82 69.1867 572.38 69.72C571.94 70.2533 571.387 70.66 570.72 70.94C570.054 71.22 569.3 71.36 568.46 71.36ZM584.677 71.12C583.877 71.12 583.184 71.0067 582.597 70.78C582.024 70.5533 581.577 70.1667 581.257 69.62C580.951 69.06 580.797 68.3067 580.797 67.36V57.08H582.637V67.6C582.637 68.1733 582.791 68.62 583.097 68.94C583.417 69.2467 583.864 69.4 584.437 69.4H586.317V71.12H584.677ZM578.957 61.76V60.32H586.317V61.76H578.957ZM588.933 71V56.4H590.853V65.12H590.373C590.373 64.0667 590.506 63.16 590.773 62.4C591.053 61.6267 591.48 61.0333 592.053 60.62C592.626 60.2067 593.36 60 594.253 60H594.333C595.613 60 596.58 60.4267 597.233 61.28C597.886 62.12 598.213 63.3267 598.213 64.9V71H596.293V64.5C596.293 63.6333 596.046 62.96 595.553 62.48C595.073 62 594.446 61.76 593.673 61.76C592.82 61.76 592.133 62.0467 591.613 62.62C591.106 63.18 590.853 63.92 590.853 64.84V71H588.933ZM608.086 71V67.8H607.766V64.1C607.766 63.3667 607.573 62.8133 607.186 62.44C606.813 62.0667 606.259 61.88 605.526 61.88C605.113 61.88 604.686 61.8867 604.246 61.9C603.806 61.9133 603.386 61.9267 602.986 61.94C602.586 61.9533 602.239 61.9733 601.946 62V60.32C602.239 60.2933 602.546 60.2733 602.866 60.26C603.199 60.2333 603.539 60.22 603.886 60.22C604.233 60.2067 604.566 60.2 604.886 60.2C605.979 60.2 606.873 60.3333 607.566 60.6C608.259 60.8533 608.773 61.2733 609.106 61.86C609.439 62.4467 609.606 63.24 609.606 64.24V71H608.086ZM604.586 71.28C603.786 71.28 603.093 71.1467 602.506 70.88C601.933 70.6 601.486 70.2 601.166 69.68C600.859 69.16 600.706 68.5333 600.706 67.8C600.706 67.04 600.873 66.4067 601.206 65.9C601.553 65.3933 602.053 65.0133 602.706 64.76C603.359 64.4933 604.146 64.36 605.066 64.36H607.966V65.8H604.986C604.213 65.8 603.619 65.9867 603.206 66.36C602.793 66.7333 602.586 67.2133 602.586 67.8C602.586 68.3867 602.793 68.86 603.206 69.22C603.619 69.58 604.213 69.76 604.986 69.76C605.439 69.76 605.873 69.68 606.286 69.52C606.699 69.3467 607.039 69.0667 607.306 68.68C607.586 68.28 607.739 67.7333 607.766 67.04L608.286 67.8C608.219 68.56 608.033 69.2 607.726 69.72C607.433 70.2267 607.019 70.6133 606.486 70.88C605.966 71.1467 605.333 71.28 604.586 71.28ZM613.03 71V60.32H614.55V64.9H614.31C614.31 63.8467 614.45 62.96 614.73 62.24C615.023 61.5067 615.463 60.9533 616.05 60.58C616.637 60.1933 617.377 60 618.27 60H618.35C619.697 60 620.69 60.42 621.33 61.26C621.983 62.1 622.31 63.3133 622.31 64.9V71H620.39V64.5C620.39 63.6733 620.157 63.0133 619.69 62.52C619.223 62.0133 618.583 61.76 617.77 61.76C616.93 61.76 616.25 62.02 615.73 62.54C615.21 63.06 614.95 63.7533 614.95 64.62V71H613.03ZM466.82 103.36C465.7 103.36 464.753 103.133 463.98 102.68C463.207 102.213 462.62 101.607 462.22 100.86C461.82 100.113 461.62 99.32 461.62 98.48H463.5C463.5 99.0933 463.633 99.64 463.9 100.12C464.18 100.6 464.567 100.98 465.06 101.26C465.553 101.54 466.14 101.68 466.82 101.68C467.487 101.68 468.067 101.547 468.56 101.28C469.067 101 469.46 100.62 469.74 100.14C470.02 99.6467 470.16 99.0933 470.16 98.48C470.16 97.8667 470.02 97.3133 469.74 96.82C469.473 96.3267 469.087 95.9333 468.58 95.64C468.087 95.3467 467.5 95.2 466.82 95.2C466.327 95.2 465.827 95.2867 465.32 95.46C464.813 95.62 464.407 95.8533 464.1 96.16H462.34L463.08 88.4H470.74V90.04H464.2L464.68 89.38L464.12 95.04L463.6 94.86C463.987 94.4733 464.453 94.1667 465 93.94C465.56 93.7133 466.193 93.6 466.9 93.6C468.02 93.6 468.96 93.8333 469.72 94.3C470.48 94.7533 471.053 95.3467 471.44 96.08C471.84 96.8 472.04 97.5533 472.04 98.34V98.62C472.04 99.4067 471.84 100.167 471.44 100.9C471.04 101.62 470.447 102.213 469.66 102.68C468.887 103.133 467.94 103.36 466.82 103.36ZM480.301 103.36C479.208 103.36 478.274 103.173 477.501 102.8C476.741 102.413 476.121 101.893 475.641 101.24C475.174 100.587 474.834 99.8333 474.621 98.98C474.408 98.1133 474.301 97.2 474.301 96.24V95.16C474.301 93.8133 474.508 92.6 474.921 91.52C475.348 90.44 476.001 89.5867 476.881 88.96C477.774 88.32 478.914 88 480.301 88C481.688 88 482.821 88.32 483.701 88.96C484.581 89.5867 485.228 90.44 485.641 91.52C486.068 92.6 486.281 93.8133 486.281 95.16V96.24C486.281 97.2 486.174 98.1133 485.961 98.98C485.748 99.8333 485.401 100.587 484.921 101.24C484.454 101.893 483.841 102.413 483.081 102.8C482.321 103.173 481.394 103.36 480.301 103.36ZM480.301 101.6C481.688 101.6 482.701 101.133 483.341 100.2C483.994 99.2533 484.321 97.76 484.321 95.72C484.321 93.5867 483.988 92.06 483.321 91.14C482.668 90.22 481.661 89.76 480.301 89.76C478.928 89.76 477.908 90.22 477.241 91.14C476.588 92.06 476.261 93.5733 476.261 95.68C476.261 97.7333 476.588 99.2333 477.241 100.18C477.894 101.127 478.914 101.6 480.301 101.6ZM492.704 100.88V91.36H494.344V100.88H492.704ZM488.944 96.88V95.36H498.104V96.88H488.944ZM466.92 135.36C466 135.36 465.2 135.2 464.52 134.88C463.853 134.56 463.3 134.133 462.86 133.6C462.42 133.053 462.087 132.453 461.86 131.8C461.647 131.147 461.54 130.493 461.54 129.84V129.48C461.54 128.8 461.647 128.133 461.86 127.48C462.087 126.827 462.42 126.24 462.86 125.72C463.313 125.187 463.873 124.76 464.54 124.44C465.207 124.12 465.987 123.96 466.88 123.96C467.773 123.96 468.573 124.127 469.28 124.46C470 124.793 470.573 125.267 471 125.88C471.44 126.48 471.687 127.193 471.74 128.02H469.9C469.807 127.353 469.5 126.8 468.98 126.36C468.46 125.907 467.76 125.68 466.88 125.68C466.12 125.68 465.487 125.853 464.98 126.2C464.473 126.547 464.093 127.02 463.84 127.62C463.587 128.22 463.46 128.9 463.46 129.66C463.46 130.393 463.587 131.067 463.84 131.68C464.093 132.28 464.473 132.76 464.98 133.12C465.5 133.467 466.147 133.64 466.92 133.64C467.52 133.64 468.04 133.533 468.48 133.32C468.92 133.107 469.273 132.82 469.54 132.46C469.807 132.1 469.967 131.693 470.02 131.24H471.86C471.82 132.08 471.573 132.807 471.12 133.42C470.68 134.033 470.093 134.513 469.36 134.86C468.64 135.193 467.827 135.36 466.92 135.36ZM474.369 135V124.32H475.889V128.72H475.809C475.809 127.16 476.149 126.02 476.829 125.3C477.522 124.567 478.556 124.2 479.929 124.2H480.289V125.92H479.609C478.542 125.92 477.722 126.207 477.149 126.78C476.576 127.34 476.289 128.153 476.289 129.22V135H474.369ZM482.104 139.16V137.44H483.644C484.097 137.44 484.477 137.38 484.784 137.26C485.104 137.153 485.364 136.967 485.564 136.7C485.777 136.433 485.95 136.08 486.084 135.64L489.444 124.32H491.324L487.764 136.14C487.55 136.847 487.25 137.42 486.864 137.86C486.477 138.313 486.004 138.64 485.444 138.84C484.897 139.053 484.257 139.16 483.524 139.16H482.104ZM485.364 134.76V133.16H487.684V134.76H485.364ZM485.164 134.76L481.344 124.32H483.304L486.964 134.76H485.164ZM493.661 139V124.32H495.181V128.94L494.821 128.9C494.888 127.753 495.128 126.82 495.541 126.1C495.968 125.367 496.521 124.827 497.201 124.48C497.881 124.133 498.621 123.96 499.421 123.96C500.194 123.96 500.894 124.107 501.521 124.4C502.161 124.693 502.708 125.093 503.161 125.6C503.614 126.107 503.961 126.693 504.201 127.36C504.441 128.027 504.561 128.733 504.561 129.48V129.84C504.561 130.587 504.434 131.293 504.181 131.96C503.928 132.627 503.568 133.213 503.101 133.72C502.648 134.227 502.101 134.627 501.461 134.92C500.834 135.213 500.141 135.36 499.381 135.36C498.621 135.36 497.894 135.193 497.201 134.86C496.508 134.527 495.934 133.987 495.481 133.24C495.028 132.493 494.768 131.513 494.701 130.3L495.581 131.9V139H493.661ZM499.081 133.68C499.801 133.68 500.428 133.513 500.961 133.18C501.494 132.833 501.908 132.36 502.201 131.76C502.494 131.147 502.641 130.447 502.641 129.66C502.641 128.86 502.494 128.16 502.201 127.56C501.908 126.96 501.494 126.493 500.961 126.16C500.428 125.813 499.801 125.64 499.081 125.64C498.441 125.64 497.848 125.787 497.301 126.08C496.754 126.36 496.314 126.773 495.981 127.32C495.661 127.853 495.501 128.5 495.501 129.26V130.18C495.501 130.913 495.668 131.54 496.001 132.06C496.334 132.58 496.774 132.98 497.321 133.26C497.868 133.54 498.454 133.68 499.081 133.68ZM511.51 135.12C510.71 135.12 510.017 135.007 509.43 134.78C508.857 134.553 508.41 134.167 508.09 133.62C507.783 133.06 507.63 132.307 507.63 131.36V121.08H509.47V131.6C509.47 132.173 509.623 132.62 509.93 132.94C510.25 133.247 510.697 133.4 511.27 133.4H513.15V135.12H511.51ZM505.79 125.76V124.32H513.15V125.76H505.79ZM520.608 135.36C519.674 135.36 518.854 135.2 518.148 134.88C517.441 134.56 516.841 134.14 516.348 133.62C515.868 133.087 515.501 132.493 515.248 131.84C515.008 131.187 514.888 130.52 514.888 129.84V129.48C514.888 128.8 515.014 128.133 515.268 127.48C515.521 126.813 515.894 126.22 516.388 125.7C516.881 125.167 517.481 124.747 518.188 124.44C518.894 124.12 519.701 123.96 520.608 123.96C521.514 123.96 522.321 124.12 523.028 124.44C523.734 124.747 524.334 125.167 524.828 125.7C525.321 126.22 525.694 126.813 525.948 127.48C526.201 128.133 526.328 128.8 526.328 129.48V129.84C526.328 130.52 526.201 131.187 525.948 131.84C525.708 132.493 525.341 133.087 524.848 133.62C524.368 134.14 523.774 134.56 523.068 134.88C522.361 135.2 521.541 135.36 520.608 135.36ZM520.608 133.64C521.408 133.64 522.088 133.467 522.648 133.12C523.221 132.76 523.654 132.28 523.948 131.68C524.254 131.08 524.408 130.407 524.408 129.66C524.408 128.9 524.254 128.22 523.948 127.62C523.641 127.02 523.201 126.547 522.628 126.2C522.068 125.853 521.394 125.68 520.608 125.68C519.834 125.68 519.161 125.853 518.588 126.2C518.014 126.547 517.574 127.02 517.268 127.62C516.961 128.22 516.808 128.9 516.808 129.66C516.808 130.407 516.954 131.08 517.248 131.68C517.554 132.28 517.988 132.76 518.548 133.12C519.121 133.467 519.808 133.64 520.608 133.64ZM533.683 135.36C532.763 135.36 531.963 135.2 531.283 134.88C530.617 134.56 530.063 134.133 529.623 133.6C529.183 133.053 528.85 132.453 528.623 131.8C528.41 131.147 528.303 130.493 528.303 129.84V129.48C528.303 128.8 528.41 128.133 528.623 127.48C528.85 126.827 529.183 126.24 529.623 125.72C530.077 125.187 530.637 124.76 531.303 124.44C531.97 124.12 532.75 123.96 533.643 123.96C534.537 123.96 535.337 124.127 536.043 124.46C536.763 124.793 537.337 125.267 537.763 125.88C538.203 126.48 538.45 127.193 538.503 128.02H536.663C536.57 127.353 536.263 126.8 535.743 126.36C535.223 125.907 534.523 125.68 533.643 125.68C532.883 125.68 532.25 125.853 531.743 126.2C531.237 126.547 530.857 127.02 530.603 127.62C530.35 128.22 530.223 128.9 530.223 129.66C530.223 130.393 530.35 131.067 530.603 131.68C530.857 132.28 531.237 132.76 531.743 133.12C532.263 133.467 532.91 133.64 533.683 133.64C534.283 133.64 534.803 133.533 535.243 133.32C535.683 133.107 536.037 132.82 536.303 132.46C536.57 132.1 536.73 131.693 536.783 131.24H538.623C538.583 132.08 538.337 132.807 537.883 133.42C537.443 134.033 536.857 134.513 536.123 134.86C535.403 135.193 534.59 135.36 533.683 135.36ZM544.832 135.32C543.566 135.32 542.592 134.907 541.912 134.08C541.232 133.253 540.892 132.06 540.892 130.5V124.3H542.812V130.88C542.812 131.72 543.039 132.38 543.492 132.86C543.946 133.327 544.559 133.56 545.332 133.56C546.132 133.56 546.786 133.307 547.292 132.8C547.799 132.28 548.052 131.573 548.052 130.68V124.3H549.972V135H548.452V130.42H548.692C548.692 131.473 548.552 132.367 548.272 133.1C547.992 133.82 547.572 134.373 547.012 134.76C546.466 135.133 545.766 135.32 544.912 135.32H544.832ZM553.591 135V124.32H555.111V128.72H555.031C555.031 127.16 555.371 126.02 556.051 125.3C556.744 124.567 557.777 124.2 559.151 124.2H559.511V125.92H558.831C557.764 125.92 556.944 126.207 556.371 126.78C555.797 127.34 555.511 128.153 555.511 129.22V135H553.591ZM561.694 135V124.32H563.214V128.72H563.134C563.134 127.16 563.474 126.02 564.154 125.3C564.847 124.567 565.881 124.2 567.254 124.2H567.614V125.92H566.934C565.867 125.92 565.047 126.207 564.474 126.78C563.901 127.34 563.614 128.153 563.614 129.22V135H561.694ZM574.22 135.36C573.287 135.36 572.48 135.2 571.8 134.88C571.12 134.56 570.567 134.14 570.14 133.62C569.713 133.087 569.393 132.493 569.18 131.84C568.98 131.187 568.88 130.52 568.88 129.84V129.48C568.88 128.787 568.98 128.113 569.18 127.46C569.393 126.807 569.713 126.22 570.14 125.7C570.567 125.167 571.107 124.747 571.76 124.44C572.427 124.12 573.207 123.96 574.1 123.96C575.26 123.96 576.213 124.213 576.96 124.72C577.72 125.213 578.28 125.853 578.64 126.64C579.013 127.427 579.2 128.267 579.2 129.16V130.02H569.72V128.58H577.8L577.36 129.36C577.36 128.6 577.24 127.947 577 127.4C576.76 126.84 576.4 126.407 575.92 126.1C575.44 125.793 574.833 125.64 574.1 125.64C573.34 125.64 572.707 125.813 572.2 126.16C571.707 126.507 571.333 126.98 571.08 127.58C570.84 128.18 570.72 128.873 570.72 129.66C570.72 130.42 570.84 131.107 571.08 131.72C571.333 132.32 571.72 132.8 572.24 133.16C572.76 133.507 573.42 133.68 574.22 133.68C575.06 133.68 575.74 133.493 576.26 133.12C576.793 132.747 577.113 132.313 577.22 131.82H579.02C578.873 132.553 578.58 133.187 578.14 133.72C577.7 134.253 577.147 134.66 576.48 134.94C575.813 135.22 575.06 135.36 574.22 135.36ZM581.826 135V124.32H583.346V128.9H583.106C583.106 127.847 583.246 126.96 583.526 126.24C583.819 125.507 584.259 124.953 584.846 124.58C585.433 124.193 586.173 124 587.066 124H587.146C588.493 124 589.486 124.42 590.126 125.26C590.779 126.1 591.106 127.313 591.106 128.9V135H589.186V128.5C589.186 127.673 588.953 127.013 588.486 126.52C588.019 126.013 587.379 125.76 586.566 125.76C585.726 125.76 585.046 126.02 584.526 126.54C584.006 127.06 583.746 127.753 583.746 128.62V135H581.826ZM599.099 135.36C598.179 135.36 597.379 135.2 596.699 134.88C596.032 134.56 595.479 134.133 595.039 133.6C594.599 133.053 594.266 132.453 594.039 131.8C593.826 131.147 593.719 130.493 593.719 129.84V129.48C593.719 128.8 593.826 128.133 594.039 127.48C594.266 126.827 594.599 126.24 595.039 125.72C595.492 125.187 596.052 124.76 596.719 124.44C597.386 124.12 598.166 123.96 599.059 123.96C599.952 123.96 600.752 124.127 601.459 124.46C602.179 124.793 602.752 125.267 603.179 125.88C603.619 126.48 603.866 127.193 603.919 128.02H602.079C601.986 127.353 601.679 126.8 601.159 126.36C600.639 125.907 599.939 125.68 599.059 125.68C598.299 125.68 597.666 125.853 597.159 126.2C596.652 126.547 596.272 127.02 596.019 127.62C595.766 128.22 595.639 128.9 595.639 129.66C595.639 130.393 595.766 131.067 596.019 131.68C596.272 132.28 596.652 132.76 597.159 133.12C597.679 133.467 598.326 133.64 599.099 133.64C599.699 133.64 600.219 133.533 600.659 133.32C601.099 133.107 601.452 132.82 601.719 132.46C601.986 132.1 602.146 131.693 602.199 131.24H604.039C603.999 132.08 603.752 132.807 603.299 133.42C602.859 134.033 602.272 134.513 601.539 134.86C600.819 135.193 600.006 135.36 599.099 135.36ZM607.068 135V124.32H608.988V135H607.068ZM605.428 125.84V124.32H608.988V125.84H605.428ZM607.608 122.6C607.181 122.6 606.861 122.487 606.648 122.26C606.448 122.033 606.348 121.747 606.348 121.4C606.348 121.053 606.448 120.767 606.648 120.54C606.861 120.313 607.181 120.2 607.608 120.2C608.034 120.2 608.348 120.313 608.548 120.54C608.761 120.767 608.868 121.053 608.868 121.4C608.868 121.747 608.761 122.033 608.548 122.26C608.348 122.487 608.034 122.6 607.608 122.6ZM617.14 135.36C616.207 135.36 615.4 135.2 614.72 134.88C614.04 134.56 613.487 134.14 613.06 133.62C612.633 133.087 612.313 132.493 612.1 131.84C611.9 131.187 611.8 130.52 611.8 129.84V129.48C611.8 128.787 611.9 128.113 612.1 127.46C612.313 126.807 612.633 126.22 613.06 125.7C613.487 125.167 614.027 124.747 614.68 124.44C615.347 124.12 616.127 123.96 617.02 123.96C618.18 123.96 619.133 124.213 619.88 124.72C620.64 125.213 621.2 125.853 621.56 126.64C621.933 127.427 622.12 128.267 622.12 129.16V130.02H612.64V128.58H620.72L620.28 129.36C620.28 128.6 620.16 127.947 619.92 127.4C619.68 126.84 619.32 126.407 618.84 126.1C618.36 125.793 617.753 125.64 617.02 125.64C616.26 125.64 615.627 125.813 615.12 126.16C614.627 126.507 614.253 126.98 614 127.58C613.76 128.18 613.64 128.873 613.64 129.66C613.64 130.42 613.76 131.107 614 131.72C614.253 132.32 614.64 132.8 615.16 133.16C615.68 133.507 616.34 133.68 617.14 133.68C617.98 133.68 618.66 133.493 619.18 133.12C619.713 132.747 620.033 132.313 620.14 131.82H621.94C621.793 132.553 621.5 133.187 621.06 133.72C620.62 134.253 620.067 134.66 619.4 134.94C618.733 135.22 617.98 135.36 617.14 135.36ZM628.246 135.32C626.846 135.32 625.76 135.02 624.986 134.42C624.226 133.82 623.833 133 623.806 131.96H625.606C625.633 132.373 625.84 132.767 626.226 133.14C626.626 133.5 627.3 133.68 628.246 133.68C629.1 133.68 629.753 133.513 630.206 133.18C630.66 132.833 630.886 132.413 630.886 131.92C630.886 131.48 630.72 131.14 630.386 130.9C630.053 130.647 629.513 130.48 628.766 130.4L627.606 130.28C626.593 130.173 625.766 129.873 625.126 129.38C624.486 128.873 624.166 128.167 624.166 127.26C624.166 126.58 624.34 126 624.686 125.52C625.033 125.027 625.513 124.653 626.126 124.4C626.74 124.133 627.446 124 628.246 124C629.446 124 630.42 124.267 631.166 124.8C631.913 125.333 632.3 126.127 632.326 127.18H630.526C630.513 126.753 630.313 126.393 629.926 126.1C629.553 125.793 628.993 125.64 628.246 125.64C627.5 125.64 626.933 125.793 626.546 126.1C626.16 126.407 625.966 126.793 625.966 127.26C625.966 127.66 626.1 127.98 626.366 128.22C626.646 128.46 627.1 128.613 627.726 128.68L628.886 128.8C630.033 128.92 630.953 129.24 631.646 129.76C632.34 130.267 632.686 130.987 632.686 131.92C632.686 132.587 632.493 133.18 632.106 133.7C631.733 134.207 631.213 134.607 630.546 134.9C629.88 135.18 629.113 135.32 628.246 135.32Z" fill="white"/>
<g clip-path="url(#clip4_407_11203)">
<path d="M684.5 112C684.037 96.8419 683.658 96.4656 668.5 96C683.658 95.5368 684.034 95.1581 684.5 80C684.963 95.1581 685.342 95.5344 700.5 96C685.342 96.4656 684.966 96.8373 684.5 112Z" fill="#DAF727"/>
</g>
<path d="M710.196 101V89.32H712.756L718.692 99.592H719.204L718.884 99.88V89.32H720.388V101H717.796L711.86 90.728H711.348L711.668 90.44V101H710.196ZM727.262 101.288C726.515 101.288 725.87 101.16 725.326 100.904C724.782 100.648 724.339 100.312 723.998 99.896C723.657 99.4693 723.401 98.9947 723.23 98.472C723.07 97.9493 722.99 97.416 722.99 96.872V96.584C722.99 96.0293 723.07 95.4907 723.23 94.968C723.401 94.4453 723.657 93.976 723.998 93.56C724.339 93.1333 724.771 92.7973 725.294 92.552C725.827 92.296 726.451 92.168 727.166 92.168C728.094 92.168 728.857 92.3707 729.454 92.776C730.062 93.1707 730.51 93.6827 730.798 94.312C731.097 94.9413 731.246 95.6133 731.246 96.328V97.016H723.662V95.864H730.126L729.774 96.488C729.774 95.88 729.678 95.3573 729.486 94.92C729.294 94.472 729.006 94.1253 728.622 93.88C728.238 93.6347 727.753 93.512 727.166 93.512C726.558 93.512 726.051 93.6507 725.646 93.928C725.251 94.2053 724.953 94.584 724.75 95.064C724.558 95.544 724.462 96.0987 724.462 96.728C724.462 97.336 724.558 97.8853 724.75 98.376C724.953 98.856 725.262 99.24 725.678 99.528C726.094 99.8053 726.622 99.944 727.262 99.944C727.934 99.944 728.478 99.7947 728.894 99.496C729.321 99.1973 729.577 98.8507 729.662 98.456H731.102C730.985 99.0427 730.75 99.5493 730.398 99.976C730.046 100.403 729.603 100.728 729.07 100.952C728.537 101.176 727.934 101.288 727.262 101.288ZM735.941 101L737.668 92.744H739.749L741.765 101H740.453L738.437 92.776H738.949L737.205 101H735.941ZM735.157 101V99.784H736.932V101H735.157ZM734.804 101L732.388 92.456H733.86L736.213 101H734.804ZM740.773 101V99.784H742.549V101H740.773ZM741.493 101L743.541 92.456H744.933L742.837 101H741.493ZM755.976 101V98.44H755.72V95.48C755.72 94.8933 755.565 94.4507 755.256 94.152C754.957 93.8533 754.514 93.704 753.928 93.704C753.597 93.704 753.256 93.7093 752.904 93.72C752.552 93.7307 752.216 93.7413 751.896 93.752C751.576 93.7627 751.298 93.7787 751.064 93.8V92.456C751.298 92.4347 751.544 92.4187 751.8 92.408C752.066 92.3867 752.338 92.376 752.616 92.376C752.893 92.3653 753.16 92.36 753.416 92.36C754.29 92.36 755.005 92.4667 755.56 92.68C756.114 92.8827 756.525 93.2187 756.792 93.688C757.058 94.1573 757.192 94.792 757.192 95.592V101H755.976ZM753.176 101.224C752.536 101.224 751.981 101.117 751.512 100.904C751.053 100.68 750.696 100.36 750.44 99.944C750.194 99.528 750.072 99.0267 750.072 98.44C750.072 97.832 750.205 97.3253 750.472 96.92C750.749 96.5147 751.149 96.2107 751.672 96.008C752.194 95.7947 752.824 95.688 753.56 95.688H755.88V96.84H753.496C752.877 96.84 752.402 96.9893 752.072 97.288C751.741 97.5867 751.576 97.9707 751.576 98.44C751.576 98.9093 751.741 99.288 752.072 99.576C752.402 99.864 752.877 100.008 753.496 100.008C753.858 100.008 754.205 99.944 754.536 99.816C754.866 99.6773 755.138 99.4533 755.352 99.144C755.576 98.824 755.698 98.3867 755.72 97.832L756.136 98.44C756.082 99.048 755.933 99.56 755.688 99.976C755.453 100.381 755.122 100.691 754.696 100.904C754.28 101.117 753.773 101.224 753.176 101.224ZM762.891 101.256C761.771 101.256 760.901 101.016 760.283 100.536C759.675 100.056 759.36 99.4 759.339 98.568H760.779C760.8 98.8987 760.965 99.2133 761.275 99.512C761.595 99.8 762.133 99.944 762.891 99.944C763.573 99.944 764.096 99.8107 764.459 99.544C764.821 99.2667 765.003 98.9307 765.003 98.536C765.003 98.184 764.869 97.912 764.603 97.72C764.336 97.5173 763.904 97.384 763.307 97.32L762.379 97.224C761.568 97.1387 760.907 96.8987 760.395 96.504C759.883 96.0987 759.627 95.5333 759.627 94.808C759.627 94.264 759.765 93.8 760.043 93.416C760.32 93.0213 760.704 92.7227 761.195 92.52C761.685 92.3067 762.251 92.2 762.891 92.2C763.851 92.2 764.629 92.4133 765.227 92.84C765.824 93.2667 766.133 93.9013 766.155 94.744H764.715C764.704 94.4027 764.544 94.1147 764.235 93.88C763.936 93.6347 763.488 93.512 762.891 93.512C762.293 93.512 761.84 93.6347 761.531 93.88C761.221 94.1253 761.067 94.4347 761.067 94.808C761.067 95.128 761.173 95.384 761.387 95.576C761.611 95.768 761.973 95.8907 762.475 95.944L763.403 96.04C764.32 96.136 765.056 96.392 765.611 96.808C766.165 97.2133 766.443 97.7893 766.443 98.536C766.443 99.0693 766.288 99.544 765.979 99.96C765.68 100.365 765.264 100.685 764.731 100.92C764.197 101.144 763.584 101.256 762.891 101.256ZM771.549 101.256C770.429 101.256 769.56 101.016 768.941 100.536C768.333 100.056 768.018 99.4 767.997 98.568H769.437C769.458 98.8987 769.624 99.2133 769.933 99.512C770.253 99.8 770.792 99.944 771.549 99.944C772.232 99.944 772.754 99.8107 773.117 99.544C773.48 99.2667 773.661 98.9307 773.661 98.536C773.661 98.184 773.528 97.912 773.261 97.72C772.994 97.5173 772.562 97.384 771.965 97.32L771.037 97.224C770.226 97.1387 769.565 96.8987 769.053 96.504C768.541 96.0987 768.285 95.5333 768.285 94.808C768.285 94.264 768.424 93.8 768.701 93.416C768.978 93.0213 769.362 92.7227 769.853 92.52C770.344 92.3067 770.909 92.2 771.549 92.2C772.509 92.2 773.288 92.4133 773.885 92.84C774.482 93.2667 774.792 93.9013 774.813 94.744H773.373C773.362 94.4027 773.202 94.1147 772.893 93.88C772.594 93.6347 772.146 93.512 771.549 93.512C770.952 93.512 770.498 93.6347 770.189 93.88C769.88 94.1253 769.725 94.4347 769.725 94.808C769.725 95.128 769.832 95.384 770.045 95.576C770.269 95.768 770.632 95.8907 771.133 95.944L772.061 96.04C772.978 96.136 773.714 96.392 774.269 96.808C774.824 97.2133 775.101 97.7893 775.101 98.536C775.101 99.0693 774.946 99.544 774.637 99.96C774.338 100.365 773.922 100.685 773.389 100.92C772.856 101.144 772.242 101.256 771.549 101.256ZM781.039 101.288C780.292 101.288 779.647 101.16 779.103 100.904C778.559 100.648 778.116 100.312 777.775 99.896C777.434 99.4693 777.178 98.9947 777.007 98.472C776.847 97.9493 776.767 97.416 776.767 96.872V96.584C776.767 96.0293 776.847 95.4907 777.007 94.968C777.178 94.4453 777.434 93.976 777.775 93.56C778.116 93.1333 778.548 92.7973 779.071 92.552C779.604 92.296 780.228 92.168 780.943 92.168C781.871 92.168 782.634 92.3707 783.231 92.776C783.839 93.1707 784.287 93.6827 784.575 94.312C784.874 94.9413 785.023 95.6133 785.023 96.328V97.016H777.439V95.864H783.903L783.551 96.488C783.551 95.88 783.455 95.3573 783.263 94.92C783.071 94.472 782.783 94.1253 782.399 93.88C782.015 93.6347 781.53 93.512 780.943 93.512C780.335 93.512 779.828 93.6507 779.423 93.928C779.028 94.2053 778.73 94.584 778.527 95.064C778.335 95.544 778.239 96.0987 778.239 96.728C778.239 97.336 778.335 97.8853 778.527 98.376C778.73 98.856 779.039 99.24 779.455 99.528C779.871 99.8053 780.399 99.944 781.039 99.944C781.711 99.944 782.255 99.7947 782.671 99.496C783.098 99.1973 783.354 98.8507 783.439 98.456H784.879C784.762 99.0427 784.527 99.5493 784.175 99.976C783.823 100.403 783.38 100.728 782.847 100.952C782.314 101.176 781.711 101.288 781.039 101.288ZM790.612 101.096C789.972 101.096 789.417 101.005 788.948 100.824C788.489 100.643 788.132 100.333 787.876 99.896C787.631 99.448 787.508 98.8453 787.508 98.088V89.864H788.98V98.28C788.98 98.7387 789.103 99.096 789.348 99.352C789.604 99.5973 789.961 99.72 790.42 99.72H791.924V101.096H790.612ZM786.036 93.608V92.456H791.924V93.608H786.036ZM796.914 101.256C795.794 101.256 794.925 101.016 794.306 100.536C793.698 100.056 793.383 99.4 793.362 98.568H794.802C794.823 98.8987 794.989 99.2133 795.298 99.512C795.618 99.8 796.157 99.944 796.914 99.944C797.597 99.944 798.119 99.8107 798.482 99.544C798.845 99.2667 799.026 98.9307 799.026 98.536C799.026 98.184 798.893 97.912 798.626 97.72C798.359 97.5173 797.927 97.384 797.33 97.32L796.402 97.224C795.591 97.1387 794.93 96.8987 794.418 96.504C793.906 96.0987 793.65 95.5333 793.65 94.808C793.65 94.264 793.789 93.8 794.066 93.416C794.343 93.0213 794.727 92.7227 795.218 92.52C795.709 92.3067 796.274 92.2 796.914 92.2C797.874 92.2 798.653 92.4133 799.25 92.84C799.847 93.2667 800.157 93.9013 800.178 94.744H798.738C798.727 94.4027 798.567 94.1147 798.258 93.88C797.959 93.6347 797.511 93.512 796.914 93.512C796.317 93.512 795.863 93.6347 795.554 93.88C795.245 94.1253 795.09 94.4347 795.09 94.808C795.09 95.128 795.197 95.384 795.41 95.576C795.634 95.768 795.997 95.8907 796.498 95.944L797.426 96.04C798.343 96.136 799.079 96.392 799.634 96.808C800.189 97.2133 800.466 97.7893 800.466 98.536C800.466 99.0693 800.311 99.544 800.002 99.96C799.703 100.365 799.287 100.685 798.754 100.92C798.221 101.144 797.607 101.256 796.914 101.256ZM811.661 101V98.44H811.405V95.48C811.405 94.8933 811.25 94.4507 810.941 94.152C810.642 93.8533 810.199 93.704 809.613 93.704C809.282 93.704 808.941 93.7093 808.589 93.72C808.237 93.7307 807.901 93.7413 807.581 93.752C807.261 93.7627 806.983 93.7787 806.749 93.8V92.456C806.983 92.4347 807.229 92.4187 807.485 92.408C807.751 92.3867 808.023 92.376 808.301 92.376C808.578 92.3653 808.845 92.36 809.101 92.36C809.975 92.36 810.69 92.4667 811.245 92.68C811.799 92.8827 812.21 93.2187 812.477 93.688C812.743 94.1573 812.877 94.792 812.877 95.592V101H811.661ZM808.861 101.224C808.221 101.224 807.666 101.117 807.197 100.904C806.738 100.68 806.381 100.36 806.125 99.944C805.879 99.528 805.757 99.0267 805.757 98.44C805.757 97.832 805.89 97.3253 806.157 96.92C806.434 96.5147 806.834 96.2107 807.357 96.008C807.879 95.7947 808.509 95.688 809.245 95.688H811.565V96.84H809.181C808.562 96.84 808.087 96.9893 807.757 97.288C807.426 97.5867 807.261 97.9707 807.261 98.44C807.261 98.9093 807.426 99.288 807.757 99.576C808.087 99.864 808.562 100.008 809.181 100.008C809.543 100.008 809.89 99.944 810.221 99.816C810.551 99.6773 810.823 99.4533 811.037 99.144C811.261 98.824 811.383 98.3867 811.405 97.832L811.821 98.44C811.767 99.048 811.618 99.56 811.373 99.976C811.138 100.381 810.807 100.691 810.381 100.904C809.965 101.117 809.458 101.224 808.861 101.224ZM819.344 101.288C818.736 101.288 818.176 101.176 817.664 100.952C817.152 100.728 816.704 100.413 816.32 100.008C815.946 99.6027 815.653 99.1333 815.44 98.6C815.237 98.0667 815.136 97.4907 815.136 96.872V96.584C815.136 95.976 815.237 95.4053 815.44 94.872C815.642 94.3387 815.925 93.8693 816.288 93.464C816.661 93.0587 817.098 92.744 817.6 92.52C818.112 92.2853 818.677 92.168 819.296 92.168C819.946 92.168 820.538 92.3067 821.072 92.584C821.605 92.8507 822.042 93.272 822.384 93.848C822.725 94.424 822.917 95.1707 822.96 96.088L822.32 95.064V89.32H823.856V101H822.64V97.208H823.088C823.045 98.1787 822.842 98.968 822.48 99.576C822.117 100.173 821.658 100.611 821.104 100.888C820.56 101.155 819.973 101.288 819.344 101.288ZM819.552 99.944C820.074 99.944 820.549 99.8267 820.976 99.592C821.402 99.3573 821.744 99.0213 822 98.584C822.256 98.136 822.384 97.6133 822.384 97.016V96.28C822.384 95.6933 822.25 95.1973 821.984 94.792C821.728 94.376 821.381 94.0613 820.944 93.848C820.517 93.624 820.048 93.512 819.536 93.512C818.97 93.512 818.469 93.6453 818.032 93.912C817.605 94.1787 817.269 94.552 817.024 95.032C816.789 95.512 816.672 96.0773 816.672 96.728C816.672 97.3787 816.794 97.9493 817.04 98.44C817.285 98.92 817.626 99.2933 818.064 99.56C818.501 99.816 818.997 99.944 819.552 99.944ZM830.455 101.288C829.847 101.288 829.287 101.176 828.775 100.952C828.263 100.728 827.815 100.413 827.431 100.008C827.058 99.6027 826.764 99.1333 826.551 98.6C826.348 98.0667 826.247 97.4907 826.247 96.872V96.584C826.247 95.976 826.348 95.4053 826.551 94.872C826.754 94.3387 827.036 93.8693 827.399 93.464C827.772 93.0587 828.21 92.744 828.711 92.52C829.223 92.2853 829.788 92.168 830.407 92.168C831.058 92.168 831.65 92.3067 832.183 92.584C832.716 92.8507 833.154 93.272 833.495 93.848C833.836 94.424 834.028 95.1707 834.071 96.088L833.431 95.064V89.32H834.967V101H833.751V97.208H834.199C834.156 98.1787 833.954 98.968 833.591 99.576C833.228 100.173 832.77 100.611 832.215 100.888C831.671 101.155 831.084 101.288 830.455 101.288ZM830.663 99.944C831.186 99.944 831.66 99.8267 832.087 99.592C832.514 99.3573 832.855 99.0213 833.111 98.584C833.367 98.136 833.495 97.6133 833.495 97.016V96.28C833.495 95.6933 833.362 95.1973 833.095 94.792C832.839 94.376 832.492 94.0613 832.055 93.848C831.628 93.624 831.159 93.512 830.647 93.512C830.082 93.512 829.58 93.6453 829.143 93.912C828.716 94.1787 828.38 94.552 828.135 95.032C827.9 95.512 827.783 96.0773 827.783 96.728C827.783 97.3787 827.906 97.9493 828.151 98.44C828.396 98.92 828.738 99.2933 829.175 99.56C829.612 99.816 830.108 99.944 830.663 99.944ZM841.63 101.288C840.884 101.288 840.238 101.16 839.694 100.904C839.15 100.648 838.708 100.312 838.366 99.896C838.025 99.4693 837.769 98.9947 837.598 98.472C837.438 97.9493 837.358 97.416 837.358 96.872V96.584C837.358 96.0293 837.438 95.4907 837.598 94.968C837.769 94.4453 838.025 93.976 838.366 93.56C838.708 93.1333 839.14 92.7973 839.662 92.552C840.196 92.296 840.82 92.168 841.534 92.168C842.462 92.168 843.225 92.3707 843.822 92.776C844.43 93.1707 844.878 93.6827 845.166 94.312C845.465 94.9413 845.614 95.6133 845.614 96.328V97.016H838.03V95.864H844.494L844.142 96.488C844.142 95.88 844.046 95.3573 843.854 94.92C843.662 94.472 843.374 94.1253 842.99 93.88C842.606 93.6347 842.121 93.512 841.534 93.512C840.926 93.512 840.42 93.6507 840.014 93.928C839.62 94.2053 839.321 94.584 839.118 95.064C838.926 95.544 838.83 96.0987 838.83 96.728C838.83 97.336 838.926 97.8853 839.118 98.376C839.321 98.856 839.63 99.24 840.046 99.528C840.462 99.8053 840.99 99.944 841.63 99.944C842.302 99.944 842.846 99.7947 843.262 99.496C843.689 99.1973 843.945 98.8507 844.03 98.456H845.47C845.353 99.0427 845.118 99.5493 844.766 99.976C844.414 100.403 843.972 100.728 843.438 100.952C842.905 101.176 842.302 101.288 841.63 101.288ZM851.443 101.288C850.835 101.288 850.275 101.176 849.763 100.952C849.251 100.728 848.803 100.413 848.419 100.008C848.046 99.6027 847.752 99.1333 847.539 98.6C847.336 98.0667 847.235 97.4907 847.235 96.872V96.584C847.235 95.976 847.336 95.4053 847.539 94.872C847.742 94.3387 848.024 93.8693 848.387 93.464C848.76 93.0587 849.198 92.744 849.699 92.52C850.211 92.2853 850.776 92.168 851.395 92.168C852.046 92.168 852.638 92.3067 853.171 92.584C853.704 92.8507 854.142 93.272 854.483 93.848C854.824 94.424 855.016 95.1707 855.059 96.088L854.419 95.064V89.32H855.955V101H854.739V97.208H855.187C855.144 98.1787 854.942 98.968 854.579 99.576C854.216 100.173 853.758 100.611 853.203 100.888C852.659 101.155 852.072 101.288 851.443 101.288ZM851.651 99.944C852.174 99.944 852.648 99.8267 853.075 99.592C853.502 99.3573 853.843 99.0213 854.099 98.584C854.355 98.136 854.483 97.6133 854.483 97.016V96.28C854.483 95.6933 854.35 95.1973 854.083 94.792C853.827 94.376 853.48 94.0613 853.043 93.848C852.616 93.624 852.147 93.512 851.635 93.512C851.07 93.512 850.568 93.6453 850.131 93.912C849.704 94.1787 849.368 94.552 849.123 95.032C848.888 95.512 848.771 96.0773 848.771 96.728C848.771 97.3787 848.894 97.9493 849.139 98.44C849.384 98.92 849.726 99.2933 850.163 99.56C850.6 99.816 851.096 99.944 851.651 99.944ZM862.707 101V92.456H863.923V95.976H863.859C863.859 94.728 864.131 93.816 864.675 93.24C865.23 92.6533 866.056 92.36 867.155 92.36H867.443V93.736H866.899C866.046 93.736 865.39 93.9653 864.931 94.424C864.472 94.872 864.243 95.5227 864.243 96.376V101H862.707ZM872.888 101.288C872.141 101.288 871.496 101.16 870.952 100.904C870.408 100.648 869.965 100.312 869.624 99.896C869.282 99.4693 869.026 98.9947 868.856 98.472C868.696 97.9493 868.616 97.416 868.616 96.872V96.584C868.616 96.0293 868.696 95.4907 868.856 94.968C869.026 94.4453 869.282 93.976 869.624 93.56C869.965 93.1333 870.397 92.7973 870.92 92.552C871.453 92.296 872.077 92.168 872.792 92.168C873.72 92.168 874.482 92.3707 875.08 92.776C875.688 93.1707 876.136 93.6827 876.424 94.312C876.722 94.9413 876.872 95.6133 876.872 96.328V97.016H869.288V95.864H875.752L875.4 96.488C875.4 95.88 875.304 95.3573 875.112 94.92C874.92 94.472 874.632 94.1253 874.248 93.88C873.864 93.6347 873.378 93.512 872.792 93.512C872.184 93.512 871.677 93.6507 871.272 93.928C870.877 94.2053 870.578 94.584 870.376 95.064C870.184 95.544 870.088 96.0987 870.088 96.728C870.088 97.336 870.184 97.8853 870.376 98.376C870.578 98.856 870.888 99.24 871.304 99.528C871.72 99.8053 872.248 99.944 872.888 99.944C873.56 99.944 874.104 99.7947 874.52 99.496C874.946 99.1973 875.202 98.8507 875.288 98.456H876.728C876.61 99.0427 876.376 99.5493 876.024 99.976C875.672 100.403 875.229 100.728 874.696 100.952C874.162 101.176 873.56 101.288 872.888 101.288ZM882.365 104.328C881.97 104.328 881.57 104.312 881.165 104.28C880.77 104.248 880.391 104.205 880.029 104.152V102.856C880.413 102.909 880.813 102.952 881.229 102.984C881.655 103.027 882.055 103.048 882.429 103.048C883.207 103.048 883.826 102.941 884.285 102.728C884.754 102.525 885.09 102.2 885.293 101.752C885.506 101.315 885.613 100.749 885.613 100.056V98.424L886.125 97.208C886.093 98.072 885.911 98.792 885.581 99.368C885.25 99.9333 884.818 100.36 884.285 100.648C883.762 100.925 883.181 101.064 882.541 101.064C881.943 101.064 881.394 100.952 880.893 100.728C880.402 100.493 879.975 100.173 879.613 99.768C879.261 99.3627 878.983 98.8987 878.781 98.376C878.589 97.8427 878.493 97.2827 878.493 96.696V96.408C878.493 95.8107 878.594 95.256 878.797 94.744C878.999 94.2213 879.282 93.768 879.645 93.384C880.007 93 880.439 92.7013 880.941 92.488C881.453 92.2747 882.013 92.168 882.621 92.168C883.335 92.168 883.965 92.3227 884.509 92.632C885.053 92.9307 885.479 93.3733 885.789 93.96C886.109 94.536 886.285 95.2453 886.317 96.088L885.869 96.104V92.456H887.085V99.992C887.085 101.016 886.925 101.843 886.605 102.472C886.295 103.112 885.794 103.581 885.101 103.88C884.418 104.179 883.506 104.328 882.365 104.328ZM882.829 99.656C883.341 99.656 883.805 99.544 884.221 99.32C884.647 99.096 884.983 98.776 885.229 98.36C885.485 97.9333 885.613 97.4267 885.613 96.84V96.104C885.613 95.528 885.479 95.0427 885.213 94.648C884.957 94.2533 884.621 93.9547 884.205 93.752C883.789 93.5493 883.335 93.448 882.845 93.448C882.29 93.448 881.799 93.576 881.373 93.832C880.946 94.088 880.615 94.4507 880.381 94.92C880.146 95.3787 880.029 95.9227 880.029 96.552C880.029 97.1813 880.146 97.7307 880.381 98.2C880.626 98.6693 880.957 99.032 881.373 99.288C881.799 99.5333 882.285 99.656 882.829 99.656ZM892.97 101.256C891.956 101.256 891.178 100.925 890.634 100.264C890.09 99.6027 889.818 98.648 889.818 97.4V92.44H891.354V97.704C891.354 98.376 891.535 98.904 891.898 99.288C892.26 99.6613 892.751 99.848 893.37 99.848C894.01 99.848 894.532 99.6453 894.938 99.24C895.343 98.824 895.546 98.2587 895.546 97.544V92.44H897.082V101H895.866V97.336H896.058C896.058 98.1787 895.946 98.8933 895.722 99.48C895.498 100.056 895.162 100.499 894.714 100.808C894.276 101.107 893.716 101.256 893.034 101.256H892.97ZM900.232 101V89.32H901.768V101H900.232ZM899.048 90.536V89.32H901.768V90.536H899.048ZM909.962 101V98.44H909.706V95.48C909.706 94.8933 909.552 94.4507 909.242 94.152C908.944 93.8533 908.501 93.704 907.914 93.704C907.584 93.704 907.242 93.7093 906.89 93.72C906.538 93.7307 906.202 93.7413 905.882 93.752C905.562 93.7627 905.285 93.7787 905.05 93.8V92.456C905.285 92.4347 905.53 92.4187 905.786 92.408C906.053 92.3867 906.325 92.376 906.602 92.376C906.88 92.3653 907.146 92.36 907.402 92.36C908.277 92.36 908.992 92.4667 909.546 92.68C910.101 92.8827 910.512 93.2187 910.778 93.688C911.045 94.1573 911.178 94.792 911.178 95.592V101H909.962ZM907.162 101.224C906.522 101.224 905.968 101.117 905.498 100.904C905.04 100.68 904.682 100.36 904.426 99.944C904.181 99.528 904.058 99.0267 904.058 98.44C904.058 97.832 904.192 97.3253 904.458 96.92C904.736 96.5147 905.136 96.2107 905.658 96.008C906.181 95.7947 906.81 95.688 907.546 95.688H909.866V96.84H907.482C906.864 96.84 906.389 96.9893 906.058 97.288C905.728 97.5867 905.562 97.9707 905.562 98.44C905.562 98.9093 905.728 99.288 906.058 99.576C906.389 99.864 906.864 100.008 907.482 100.008C907.845 100.008 908.192 99.944 908.522 99.816C908.853 99.6773 909.125 99.4533 909.338 99.144C909.562 98.824 909.685 98.3867 909.706 97.832L910.122 98.44C910.069 99.048 909.92 99.56 909.674 99.976C909.44 100.381 909.109 100.691 908.682 100.904C908.266 101.117 907.76 101.224 907.162 101.224ZM914.078 101V92.456H915.294V95.976H915.23C915.23 94.728 915.502 93.816 916.046 93.24C916.6 92.6533 917.427 92.36 918.526 92.36H918.814V93.736H918.27C917.416 93.736 916.76 93.9653 916.302 94.424C915.843 94.872 915.614 95.5227 915.614 96.376V101H914.078ZM920.816 101V89.32H922.352V101H920.816ZM919.632 90.536V89.32H922.352V90.536H919.632ZM924.802 104.328V102.952H926.034C926.397 102.952 926.701 102.904 926.946 102.808C927.202 102.723 927.41 102.573 927.57 102.36C927.741 102.147 927.88 101.864 927.986 101.512L930.674 92.456H932.178L929.33 101.912C929.16 102.477 928.92 102.936 928.61 103.288C928.301 103.651 927.922 103.912 927.474 104.072C927.037 104.243 926.525 104.328 925.938 104.328H924.802ZM927.41 100.808V99.528H929.266V100.808H927.41ZM927.25 100.808L924.194 92.456H925.762L928.69 100.808H927.25Z" fill="#C8C8D0"/>
</g>
<defs>
<filter id="filter0_b_407_11203" x="582.267" y="-569.78" width="709.668" height="1103.73" filterUnits="userSpaceOnUse" color-interpolation-filters="sRGB">
<feFlood flood-opacity="0" result="BackgroundImageFix"/>
<feGaussianBlur in="BackgroundImageFix" stdDeviation="50"/>
<feComposite in2="SourceAlpha" operator="in" result="effect1_backgroundBlur_407_11203"/>
<feBlend mode="normal" in="SourceGraphic" in2="effect1_backgroundBlur_407_11203" result="shape"/>
</filter>
<filter id="filter1_b_407_11203" x="652.441" y="-608.193" width="709.668" height="1103.73" filterUnits="userSpaceOnUse" color-interpolation-filters="sRGB">
<feFlood flood-opacity="0" result="BackgroundImageFix"/>
<feGaussianBlur in="BackgroundImageFix" stdDeviation="50"/>
<feComposite in2="SourceAlpha" operator="in" result="effect1_backgroundBlur_407_11203"/>
<feBlend mode="normal" in="SourceGraphic" in2="effect1_backgroundBlur_407_11203" result="shape"/>
</filter>
<filter id="filter2_b_407_11203" x="722.615" y="-646.606" width="709.668" height="1103.73" filterUnits="userSpaceOnUse" color-interpolation-filters="sRGB">
<feFlood flood-opacity="0" result="BackgroundImageFix"/>
<feGaussianBlur in="BackgroundImageFix" stdDeviation="50"/>
<feComposite in2="SourceAlpha" operator="in" result="effect1_backgroundBlur_407_11203"/>
<feBlend mode="normal" in="SourceGraphic" in2="effect1_backgroundBlur_407_11203" result="shape"/>
</filter>
<linearGradient id="paint0_linear_407_11203" x1="951.085" y1="-25.6342" x2="687.932" y2="118.416" gradientUnits="userSpaceOnUse">
<stop stop-color="white" stop-opacity="0.2"/>
<stop offset="1" stop-color="white"/>
</linearGradient>
<linearGradient id="paint1_linear_407_11203" x1="1021.26" y1="-64.0473" x2="758.106" y2="80.0027" gradientUnits="userSpaceOnUse">
<stop stop-color="white" stop-opacity="0.2"/>
<stop offset="1" stop-color="white"/>
</linearGradient>
<linearGradient id="paint2_linear_407_11203" x1="1091.43" y1="-102.461" x2="828.28" y2="41.5891" gradientUnits="userSpaceOnUse">
<stop stop-color="white" stop-opacity="0.2"/>
<stop offset="1" stop-color="white"/>
</linearGradient>
<linearGradient id="paint3_linear_407_11203" x1="1215.12" y1="-170.164" x2="842.315" y2="33.9064" gradientUnits="userSpaceOnUse">
<stop stop-color="white" stop-opacity="0"/>
<stop offset="1" stop-color="white"/>
</linearGradient>
<linearGradient id="paint4_linear_407_11203" x1="236.487" y1="71.9885" x2="236.487" y2="119.995" gradientUnits="userSpaceOnUse">
<stop stop-color="#F9AA4B"/>
<stop offset="1" stop-color="#F7931A"/>
</linearGradient>
<clipPath id="clip0_407_11203">
<rect x="0.5" width="1145" height="192" rx="24" fill="white"/>
</clipPath>
<clipPath id="clip1_407_11203">
<rect width="48" height="48" fill="white" transform="translate(344.5 72)"/>
</clipPath>
<clipPath id="clip2_407_11203">
<rect width="48" height="48" fill="white" transform="translate(300.5 72)"/>
</clipPath>
<clipPath id="clip3_407_11203">
<rect width="48" height="48" fill="white" transform="translate(212.5 72)"/>
</clipPath>
<clipPath id="clip4_407_11203">
<rect width="32" height="32" fill="white" transform="translate(668.5 80)"/>
</clipPath>
</defs>
</svg>
