<svg width="1125" height="340" viewBox="0 0 1125 340" fill="none" xmlns="http://www.w3.org/2000/svg">
<g clip-path="url(#clip0_5024_14288)">
<rect width="1125" height="340" rx="24" fill="#0E0637"/>
<g opacity="0.2">
<g filter="url(#filter0_b_5024_14288)">
<path d="M326.644 241.542L344.538 804.232C345.067 820.865 323.01 827.152 314.69 812.741L-181.561 -46.7909C-189.881 -61.2021 -173.408 -77.1602 -159.268 -68.386L319.089 228.455C323.638 231.279 326.474 236.19 326.644 241.542Z" fill="url(#paint0_linear_5024_14288)" fill-opacity="0.3"/>
<path d="M326.644 241.542L344.538 804.232C345.067 820.865 323.01 827.152 314.69 812.741L-181.561 -46.7909C-189.881 -61.2021 -173.408 -77.1602 -159.268 -68.386L319.089 228.455C323.638 231.279 326.474 236.19 326.644 241.542Z" stroke="white"/>
</g>
<g filter="url(#filter1_b_5024_14288)">
<path d="M257.361 281.542L275.255 844.232C275.784 860.865 253.727 867.152 245.407 852.741L-250.844 -6.79094C-259.165 -21.2021 -242.691 -37.1602 -228.551 -28.386L249.806 268.455C254.355 271.279 257.191 276.19 257.361 281.542Z" fill="url(#paint1_linear_5024_14288)" fill-opacity="0.4"/>
<path d="M257.361 281.542L275.255 844.232C275.784 860.865 253.727 867.152 245.407 852.741L-250.844 -6.79094C-259.165 -21.2021 -242.691 -37.1602 -228.551 -28.386L249.806 268.455C254.355 271.279 257.191 276.19 257.361 281.542Z" stroke="white"/>
</g>
<g filter="url(#filter2_b_5024_14288)">
<path d="M188.08 321.542L205.974 884.232C206.503 900.865 184.446 907.152 176.125 892.741L-320.126 33.2091C-328.446 18.7979 -311.972 2.8398 -297.833 11.614L180.524 308.455C185.074 311.279 187.91 316.19 188.08 321.542Z" fill="url(#paint2_linear_5024_14288)" fill-opacity="0.6"/>
<path d="M188.08 321.542L205.974 884.232C206.503 900.865 184.446 907.152 176.125 892.741L-320.126 33.2091C-328.446 18.7979 -311.972 2.8398 -297.833 11.614L180.524 308.455C185.074 311.279 187.91 316.19 188.08 321.542Z" stroke="url(#paint3_linear_5024_14288)"/>
</g>
</g>
</g>
<defs>
<filter id="filter0_b_5024_14288" x="-284.309" y="-171.396" width="729.356" height="1092.67" filterUnits="userSpaceOnUse" color-interpolation-filters="sRGB">
<feFlood flood-opacity="0" result="BackgroundImageFix"/>
<feGaussianBlur in="BackgroundImageFix" stdDeviation="50"/>
<feComposite in2="SourceAlpha" operator="in" result="effect1_backgroundBlur_5024_14288"/>
<feBlend mode="normal" in="SourceGraphic" in2="effect1_backgroundBlur_5024_14288" result="shape"/>
</filter>
<filter id="filter1_b_5024_14288" x="-353.592" y="-131.396" width="729.356" height="1092.67" filterUnits="userSpaceOnUse" color-interpolation-filters="sRGB">
<feFlood flood-opacity="0" result="BackgroundImageFix"/>
<feGaussianBlur in="BackgroundImageFix" stdDeviation="50"/>
<feComposite in2="SourceAlpha" operator="in" result="effect1_backgroundBlur_5024_14288"/>
<feBlend mode="normal" in="SourceGraphic" in2="effect1_backgroundBlur_5024_14288" result="shape"/>
</filter>
<filter id="filter2_b_5024_14288" x="-422.873" y="-91.3965" width="729.356" height="1092.67" filterUnits="userSpaceOnUse" color-interpolation-filters="sRGB">
<feFlood flood-opacity="0" result="BackgroundImageFix"/>
<feGaussianBlur in="BackgroundImageFix" stdDeviation="50"/>
<feComposite in2="SourceAlpha" operator="in" result="effect1_backgroundBlur_5024_14288"/>
<feBlend mode="normal" in="SourceGraphic" in2="effect1_backgroundBlur_5024_14288" result="shape"/>
</filter>
<linearGradient id="paint0_linear_5024_14288" x1="66.5644" y1="382.975" x2="326.372" y2="232.975" gradientUnits="userSpaceOnUse">
<stop stop-color="white" stop-opacity="0.2"/>
<stop offset="1" stop-color="white"/>
</linearGradient>
<linearGradient id="paint1_linear_5024_14288" x1="-2.71878" y1="422.975" x2="257.089" y2="272.975" gradientUnits="userSpaceOnUse">
<stop stop-color="white" stop-opacity="0.2"/>
<stop offset="1" stop-color="white"/>
</linearGradient>
<linearGradient id="paint2_linear_5024_14288" x1="-72" y1="462.975" x2="187.808" y2="312.975" gradientUnits="userSpaceOnUse">
<stop stop-color="white" stop-opacity="0.2"/>
<stop offset="1" stop-color="white"/>
</linearGradient>
<linearGradient id="paint3_linear_5024_14288" x1="-194.11" y1="533.475" x2="173.951" y2="320.975" gradientUnits="userSpaceOnUse">
<stop stop-color="white" stop-opacity="0"/>
<stop offset="1" stop-color="white"/>
</linearGradient>
<clipPath id="clip0_5024_14288">
<rect width="1125" height="340" rx="24" fill="white"/>
</clipPath>
</defs>
</svg>
