<svg width="29" height="26" viewBox="0 0 29 26" fill="none" xmlns="http://www.w3.org/2000/svg">
<path d="M0.300938 25.92V21.76H1.02094C2.7276 21.76 4.0876 21.4667 5.10094 20.88C6.11427 20.2933 6.83427 19.3867 7.26094 18.16C7.74094 16.88 7.98094 15.28 7.98094 13.36V7.36L9.90094 10.96C9.52761 11.1733 9.02094 11.3333 8.38094 11.44C7.79427 11.5467 7.2076 11.6 6.62094 11.6C5.1276 11.6 3.87427 11.1467 2.86094 10.24C1.90094 9.28 1.42094 7.97333 1.42094 6.32C1.42094 4.77333 1.87427 3.49333 2.78094 2.48C3.74094 1.46666 5.02094 0.959997 6.62094 0.959997C7.63427 0.959997 8.59427 1.2 9.50094 1.68C10.4076 2.16 11.1543 3.01333 11.7409 4.24C12.3276 5.46666 12.6209 7.22666 12.6209 9.52V11.2C12.6209 15.0933 12.1409 18.1067 11.1809 20.24C10.2209 22.3733 8.86094 23.8667 7.10094 24.72C5.34094 25.52 3.26094 25.92 0.860938 25.92H0.300938ZM15.8209 25.92V21.76H16.5409C18.2476 21.76 19.6076 21.4667 20.6209 20.88C21.6343 20.2933 22.3543 19.3867 22.7809 18.16C23.2609 16.88 23.5009 15.28 23.5009 13.36V7.36L25.4209 10.96C25.0476 11.1733 24.5409 11.3333 23.9009 11.44C23.3143 11.5467 22.7276 11.6 22.1409 11.6C20.6476 11.6 19.3943 11.1467 18.3809 10.24C17.4209 9.28 16.9409 7.97333 16.9409 6.32C16.9409 4.77333 17.3943 3.49333 18.3009 2.48C19.2609 1.46666 20.5409 0.959997 22.1409 0.959997C23.1543 0.959997 24.1143 1.2 25.0209 1.68C25.9276 2.16 26.6743 3.01333 27.2609 4.24C27.8476 5.46666 28.1409 7.22666 28.1409 9.52V11.2C28.1409 15.0933 27.6609 18.1067 26.7009 20.24C25.7409 22.3733 24.3809 23.8667 22.6209 24.72C20.8609 25.52 18.7809 25.92 16.3809 25.92H15.8209Z" fill="#5235E8"/>
</svg>
