<svg width="29" height="26" viewBox="0 0 29 26" fill="none" xmlns="http://www.w3.org/2000/svg">
<path d="M28.6609 0.959997V5.12H27.9409C26.2343 5.12 24.8743 5.41333 23.8609 6C22.8476 6.58666 22.1009 7.52 21.6209 8.8C21.1943 10.0267 20.9809 11.6 20.9809 13.52V19.52L19.0609 15.92C19.4343 15.7067 19.9143 15.5467 20.5009 15.44C21.1409 15.3333 21.7543 15.28 22.3409 15.28C23.8343 15.28 25.0609 15.76 26.0209 16.72C27.0343 17.6267 27.5409 18.9067 27.5409 20.56C27.5409 22.1067 27.0609 23.3867 26.1009 24.4C25.1943 25.4133 23.9409 25.92 22.3409 25.92C21.3276 25.92 20.3676 25.68 19.4609 25.2C18.5543 24.72 17.8076 23.8667 17.2209 22.64C16.6343 21.4133 16.3409 19.6533 16.3409 17.36V15.68C16.3409 11.7867 16.8209 8.77333 17.7809 6.64C18.7409 4.50666 20.1009 3.04 21.8609 2.24C23.6209 1.38666 25.7009 0.959997 28.1009 0.959997H28.6609ZM13.1409 0.959997V5.12H12.4209C10.7143 5.12 9.35427 5.41333 8.34094 6C7.3276 6.58666 6.58094 7.52 6.10094 8.8C5.67427 10.0267 5.46094 11.6 5.46094 13.52V19.52L3.54094 15.92C3.91427 15.7067 4.39427 15.5467 4.98094 15.44C5.62094 15.3333 6.23427 15.28 6.82094 15.28C8.31427 15.28 9.54094 15.76 10.5009 16.72C11.5143 17.6267 12.0209 18.9067 12.0209 20.56C12.0209 22.1067 11.5409 23.3867 10.5809 24.4C9.67427 25.4133 8.42094 25.92 6.82094 25.92C5.8076 25.92 4.8476 25.68 3.94094 25.2C3.03427 24.72 2.2876 23.8667 1.70094 22.64C1.11427 21.4133 0.820938 19.6533 0.820938 17.36V15.68C0.820938 11.7867 1.30094 8.77333 2.26094 6.64C3.22094 4.50666 4.58094 3.04 6.34094 2.24C8.10094 1.38666 10.1809 0.959997 12.5809 0.959997H13.1409Z" fill="#5235E8"/>
</svg>
