<svg width="416" height="72" viewBox="0 0 416 72" fill="none" xmlns="http://www.w3.org/2000/svg">
<rect width="416" height="72" rx="16" fill="#0E0637"/>
<rect x="291" y="20" width="93" height="32" rx="8" fill="white"/>
<path d="M310.715 32V23.24H312.275L314.867 29.084H315.059L317.639 23.24H319.211V32H318.035V24.524L318.119 24.548L315.635 30.188H314.195L311.699 24.548L311.795 24.524V32H310.715ZM324.598 32.216C324.038 32.216 323.546 32.12 323.122 31.928C322.698 31.736 322.338 31.484 322.042 31.172C321.754 30.852 321.534 30.496 321.382 30.104C321.238 29.712 321.166 29.312 321.166 28.904V28.688C321.166 28.28 321.242 27.88 321.394 27.488C321.546 27.088 321.77 26.732 322.066 26.42C322.362 26.1 322.722 25.848 323.146 25.664C323.57 25.472 324.054 25.376 324.598 25.376C325.142 25.376 325.626 25.472 326.05 25.664C326.474 25.848 326.834 26.1 327.13 26.42C327.426 26.732 327.65 27.088 327.802 27.488C327.954 27.88 328.03 28.28 328.03 28.688V28.904C328.03 29.312 327.954 29.712 327.802 30.104C327.658 30.496 327.438 30.852 327.142 31.172C326.854 31.484 326.498 31.736 326.074 31.928C325.65 32.12 325.158 32.216 324.598 32.216ZM324.598 31.184C325.078 31.184 325.486 31.08 325.822 30.872C326.166 30.656 326.426 30.368 326.602 30.008C326.786 29.648 326.878 29.244 326.878 28.796C326.878 28.34 326.786 27.932 326.602 27.572C326.418 27.212 326.154 26.928 325.81 26.72C325.474 26.512 325.07 26.408 324.598 26.408C324.134 26.408 323.73 26.512 323.386 26.72C323.042 26.928 322.778 27.212 322.594 27.572C322.41 27.932 322.318 28.34 322.318 28.796C322.318 29.244 322.406 29.648 322.582 30.008C322.766 30.368 323.026 30.656 323.362 30.872C323.706 31.08 324.118 31.184 324.598 31.184ZM329.816 32V25.592H330.728V28.34H330.584C330.584 27.708 330.668 27.176 330.836 26.744C331.012 26.304 331.276 25.972 331.628 25.748C331.98 25.516 332.424 25.4 332.96 25.4H333.008C333.816 25.4 334.412 25.652 334.796 26.156C335.188 26.66 335.384 27.388 335.384 28.34V32H334.232V28.1C334.232 27.604 334.092 27.208 333.812 26.912C333.532 26.608 333.148 26.456 332.66 26.456C332.156 26.456 331.748 26.612 331.436 26.924C331.124 27.236 330.968 27.652 330.968 28.172V32H329.816ZM340.047 32.072C339.567 32.072 339.151 32.004 338.799 31.868C338.455 31.732 338.187 31.5 337.995 31.172C337.811 30.836 337.719 30.384 337.719 29.816V23.648H338.823V29.96C338.823 30.304 338.915 30.572 339.099 30.764C339.291 30.948 339.559 31.04 339.903 31.04H341.031V32.072H340.047ZM336.615 26.456V25.592H341.031V26.456H336.615ZM317.708 48V39.24H318.86V44.472H318.572C318.572 43.84 318.652 43.296 318.812 42.84C318.98 42.376 319.236 42.02 319.58 41.772C319.924 41.524 320.364 41.4 320.9 41.4H320.948C321.716 41.4 322.296 41.656 322.688 42.168C323.08 42.672 323.276 43.396 323.276 44.34V48H322.124V44.1C322.124 43.58 321.976 43.176 321.68 42.888C321.392 42.6 321.016 42.456 320.552 42.456C320.04 42.456 319.628 42.628 319.316 42.972C319.012 43.308 318.86 43.752 318.86 44.304V48H317.708ZM325.516 48V39.24H326.668V48H325.516ZM324.628 40.152V39.24H326.668V40.152H324.628ZM328.505 50.496V49.464H329.429C329.701 49.464 329.929 49.428 330.113 49.356C330.305 49.292 330.461 49.18 330.581 49.02C330.709 48.86 330.813 48.648 330.893 48.384L332.909 41.592H334.037L331.901 48.684C331.773 49.108 331.593 49.452 331.361 49.716C331.129 49.988 330.845 50.184 330.509 50.304C330.181 50.432 329.797 50.496 329.357 50.496H328.505ZM330.461 47.856V46.896H331.853V47.856H330.461ZM330.341 47.856L328.049 41.592H329.225L331.421 47.856H330.341Z" fill="#0E0637"/>
<path d="M360 34L364 38L368 34" stroke="#9C9CAB" stroke-width="1.5" stroke-linecap="round" stroke-linejoin="round"/>
<path d="M36.55 31C35.7473 31 35.066 30.8693 34.506 30.608C33.946 30.3373 33.5167 29.9593 33.218 29.474C32.9287 28.9793 32.784 28.4007 32.784 27.738H34.044C34.044 28.0553 34.1187 28.3773 34.268 28.704C34.4267 29.0307 34.688 29.306 35.052 29.53C35.416 29.7447 35.9153 29.852 36.55 29.852C37.39 29.852 38.0107 29.6747 38.412 29.32C38.8227 28.9653 39.028 28.5593 39.028 28.102C39.028 27.654 38.846 27.2807 38.482 26.982C38.118 26.6833 37.5907 26.5013 36.9 26.436L35.976 26.352C35.08 26.268 34.366 25.9973 33.834 25.54C33.302 25.0827 33.036 24.4293 33.036 23.58C33.036 22.992 33.176 22.4927 33.456 22.082C33.7453 21.662 34.1467 21.34 34.66 21.116C35.1827 20.892 35.794 20.78 36.494 20.78C37.194 20.78 37.796 20.906 38.3 21.158C38.8133 21.4007 39.21 21.76 39.49 22.236C39.77 22.7027 39.91 23.2673 39.91 23.93H38.65C38.65 23.594 38.5753 23.2767 38.426 22.978C38.2767 22.67 38.0433 22.418 37.726 22.222C37.418 22.026 37.0073 21.928 36.494 21.928C36.0367 21.928 35.6447 22.0027 35.318 22.152C35.0007 22.292 34.7533 22.488 34.576 22.74C34.408 22.992 34.324 23.272 34.324 23.58C34.324 23.9813 34.4687 24.3313 34.758 24.63C35.0473 24.9193 35.4907 25.092 36.088 25.148L37.012 25.232C38.0107 25.3253 38.8087 25.6193 39.406 26.114C40.0127 26.5993 40.316 27.262 40.316 28.102C40.316 28.6807 40.162 29.1893 39.854 29.628C39.546 30.0573 39.112 30.3933 38.552 30.636C37.992 30.8787 37.3247 31 36.55 31ZM35.948 32.806V30.762H37.152V32.806H35.948ZM35.892 21.466V19.422H37.096V21.466H35.892ZM46.0188 31.28C45.2721 31.28 44.6468 31.1493 44.1428 30.888C43.6481 30.6267 43.2515 30.272 42.9528 29.824C42.6635 29.3667 42.4535 28.844 42.3228 28.256C42.2015 27.668 42.1408 27.052 42.1408 26.408V25.736C42.1408 24.1213 42.5421 22.88 43.3448 22.012C44.1475 21.1347 45.3095 20.696 46.8308 20.696C47.1948 20.696 47.5028 20.7053 47.7548 20.724C48.0068 20.7427 48.2821 20.7707 48.5808 20.808V21.956C48.2728 21.9187 47.9881 21.8907 47.7268 21.872C47.4655 21.8533 47.1481 21.844 46.7748 21.844C45.9255 21.844 45.2535 22.0027 44.7588 22.32C44.2641 22.6373 43.9095 23.0947 43.6948 23.692C43.4801 24.28 43.3728 24.994 43.3728 25.834V26.464L43.0368 27.71C43.0461 26.9727 43.1861 26.3613 43.4568 25.876C43.7368 25.3907 44.1148 25.0267 44.5908 24.784C45.0761 24.5413 45.6315 24.42 46.2568 24.42C46.9848 24.42 47.6008 24.5693 48.1048 24.868C48.6088 25.1573 48.9868 25.5587 49.2388 26.072C49.5001 26.5853 49.6308 27.1687 49.6308 27.822C49.6308 28.4847 49.4955 29.0773 49.2248 29.6C48.9541 30.1227 48.5481 30.5333 48.0068 30.832C47.4748 31.1307 46.8121 31.28 46.0188 31.28ZM46.0188 30.104C46.5321 30.104 46.9615 30.006 47.3068 29.81C47.6521 29.614 47.9088 29.348 48.0768 29.012C48.2541 28.6667 48.3428 28.27 48.3428 27.822C48.3428 27.374 48.2588 26.9773 48.0908 26.632C47.9228 26.2867 47.6708 26.0207 47.3348 25.834C47.0081 25.638 46.6021 25.54 46.1168 25.54C45.6408 25.54 45.2115 25.6287 44.8288 25.806C44.4555 25.9833 44.1615 26.2447 43.9468 26.59C43.7321 26.926 43.6248 27.3413 43.6248 27.836C43.6248 28.2467 43.7088 28.6247 43.8768 28.97C44.0448 29.3153 44.3061 29.5907 44.6608 29.796C45.0155 30.0013 45.4681 30.104 46.0188 30.104ZM51.4253 31V29.32C51.4253 28.9093 51.4813 28.5593 51.5933 28.27C51.7147 27.9807 51.92 27.7193 52.2093 27.486C52.4987 27.2433 52.8907 27.01 53.3853 26.786L55.3033 25.904C55.77 25.6893 56.1387 25.414 56.4093 25.078C56.68 24.7327 56.8153 24.2893 56.8153 23.748C56.8153 23.0947 56.6333 22.586 56.2693 22.222C55.9053 21.858 55.392 21.676 54.7293 21.676C54.076 21.676 53.5627 21.858 53.1893 22.222C52.816 22.586 52.6293 23.0947 52.6293 23.748H51.3133C51.3133 23.16 51.4347 22.6187 51.6773 22.124C51.9293 21.6293 52.3073 21.2373 52.8113 20.948C53.3153 20.6493 53.9547 20.5 54.7293 20.5C55.504 20.5 56.1387 20.6493 56.6333 20.948C57.1373 21.2373 57.5107 21.62 57.7533 22.096C58.0053 22.572 58.1313 23.09 58.1313 23.65V23.846C58.1313 24.5833 57.9167 25.204 57.4873 25.708C57.0673 26.212 56.498 26.6273 55.7793 26.954L53.8613 27.836C53.432 28.032 53.1427 28.228 52.9933 28.424C52.844 28.62 52.7693 28.8813 52.7693 29.208V30.496L52.4053 29.852H58.2573V31H51.4253ZM61.0316 31L65.3576 22.054L65.2736 21.928H59.6876V20.78H66.5476V22.404L62.4316 31H61.0316ZM59.6876 23.552V20.78H60.8076V23.552H59.6876ZM71.5067 31.252C70.7787 31.252 70.13 31.1213 69.5607 30.86C69.0007 30.5987 68.5574 30.2347 68.2307 29.768C67.9134 29.3013 67.7547 28.76 67.7547 28.144C67.7547 27.7333 67.834 27.3647 67.9927 27.038C68.1514 26.702 68.3707 26.4127 68.6507 26.17C68.9307 25.9273 69.248 25.7407 69.6027 25.61V25.47C69.3227 25.3487 69.066 25.1853 68.8327 24.98C68.6087 24.7747 68.4267 24.532 68.2867 24.252C68.156 23.972 68.0907 23.6547 68.0907 23.3C68.0907 22.712 68.2447 22.2127 68.5527 21.802C68.87 21.3913 69.2854 21.0787 69.7987 20.864C70.3214 20.64 70.8907 20.528 71.5067 20.528C72.132 20.528 72.7014 20.64 73.2147 20.864C73.7374 21.0787 74.1527 21.3913 74.4607 21.802C74.7687 22.2127 74.9227 22.712 74.9227 23.3C74.9227 23.6547 74.8574 23.972 74.7267 24.252C74.596 24.532 74.414 24.7747 74.1807 24.98C73.9567 25.1853 73.7 25.3487 73.4107 25.47V25.61C73.7747 25.7407 74.0967 25.932 74.3767 26.184C74.6567 26.4267 74.876 26.716 75.0347 27.052C75.1934 27.3787 75.2727 27.7427 75.2727 28.144C75.2727 28.76 75.1094 29.3013 74.7827 29.768C74.4654 30.2347 74.022 30.5987 73.4527 30.86C72.8927 31.1213 72.244 31.252 71.5067 31.252ZM71.5067 30.104C72.02 30.104 72.4587 30.0247 72.8227 29.866C73.1867 29.698 73.4667 29.4647 73.6627 29.166C73.8587 28.858 73.9567 28.4987 73.9567 28.088C73.9567 27.6773 73.8587 27.3227 73.6627 27.024C73.476 26.7253 73.2007 26.4967 72.8367 26.338C72.4727 26.17 72.0294 26.086 71.5067 26.086C70.9934 26.086 70.5547 26.17 70.1907 26.338C69.8267 26.4967 69.5467 26.7253 69.3507 27.024C69.164 27.3227 69.0707 27.6773 69.0707 28.088C69.0707 28.4987 69.164 28.858 69.3507 29.166C69.5467 29.4647 69.8267 29.698 70.1907 29.866C70.5547 30.0247 70.9934 30.104 71.5067 30.104ZM71.5067 25.022C72.1414 25.022 72.65 24.8867 73.0327 24.616C73.4154 24.336 73.6067 23.9113 73.6067 23.342C73.6067 22.7633 73.4107 22.3433 73.0187 22.082C72.636 21.8113 72.132 21.676 71.5067 21.676C70.8814 21.676 70.3727 21.8113 69.9807 22.082C69.598 22.3527 69.4067 22.7727 69.4067 23.342C69.4067 23.9113 69.598 24.336 69.9807 24.616C70.3727 24.8867 70.8814 25.022 71.5067 25.022ZM76.9908 31V29.292H78.6148V31H76.9908ZM82.4888 31V21.452L83.1048 21.928H80.2208V20.78H83.8328V31H82.4888ZM89.6977 31.252C88.9324 31.252 88.2837 31.1027 87.7517 30.804C87.2197 30.5053 86.8137 30.1087 86.5337 29.614C86.2631 29.1193 86.1277 28.5827 86.1277 28.004H87.4437C87.4437 28.6387 87.6444 29.1427 88.0457 29.516C88.4564 29.8893 89.0071 30.076 89.6977 30.076C90.1551 30.076 90.5517 29.992 90.8877 29.824C91.2237 29.656 91.4851 29.418 91.6717 29.11C91.8584 28.7927 91.9517 28.424 91.9517 28.004C91.9517 27.3693 91.7464 26.856 91.3357 26.464C90.9344 26.072 90.3931 25.876 89.7117 25.876C89.4224 25.876 89.1704 25.9133 88.9557 25.988C88.7504 26.0533 88.5684 26.1373 88.4097 26.24L87.7377 25.036L91.6437 22.18L91.5037 21.928H86.5337V20.78H92.7637V22.642L89.5297 24.994L88.5497 25.036C88.7084 24.98 88.8811 24.9333 89.0677 24.896C89.2637 24.8587 89.4924 24.84 89.7537 24.84C90.5004 24.84 91.1351 24.98 91.6577 25.26C92.1804 25.54 92.5771 25.9133 92.8477 26.38C93.1277 26.8467 93.2677 27.3553 93.2677 27.906V28.102C93.2677 28.6433 93.1277 29.1567 92.8477 29.642C92.5771 30.118 92.1757 30.5053 91.6437 30.804C91.1211 31.1027 90.4724 31.252 89.6977 31.252Z" fill="white"/>
<path d="M33.272 44V35.24H34.448V44H33.272ZM34.208 44V42.944H38.216V44H34.208ZM43.5673 44V42.08H43.3753V39.86C43.3753 39.42 43.2593 39.088 43.0273 38.864C42.8033 38.64 42.4713 38.528 42.0313 38.528C41.7833 38.528 41.5273 38.532 41.2633 38.54C40.9993 38.548 40.7473 38.556 40.5073 38.564C40.2673 38.572 40.0593 38.584 39.8833 38.6V37.592C40.0593 37.576 40.2433 37.564 40.4353 37.556C40.6353 37.54 40.8393 37.532 41.0473 37.532C41.2553 37.524 41.4553 37.52 41.6473 37.52C42.3033 37.52 42.8393 37.6 43.2553 37.76C43.6713 37.912 43.9793 38.164 44.1793 38.516C44.3793 38.868 44.4793 39.344 44.4793 39.944V44H43.5673ZM41.4673 44.168C40.9873 44.168 40.5713 44.088 40.2193 43.928C39.8753 43.76 39.6073 43.52 39.4153 43.208C39.2313 42.896 39.1393 42.52 39.1393 42.08C39.1393 41.624 39.2393 41.244 39.4393 40.94C39.6473 40.636 39.9473 40.408 40.3393 40.256C40.7313 40.096 41.2033 40.016 41.7553 40.016H43.4953V40.88H41.7073C41.2433 40.88 40.8873 40.992 40.6393 41.216C40.3913 41.44 40.2673 41.728 40.2673 42.08C40.2673 42.432 40.3913 42.716 40.6393 42.932C40.8873 43.148 41.2433 43.256 41.7073 43.256C41.9793 43.256 42.2393 43.208 42.4873 43.112C42.7353 43.008 42.9393 42.84 43.0993 42.608C43.2673 42.368 43.3593 42.04 43.3753 41.624L43.6873 42.08C43.6473 42.536 43.5353 42.92 43.3513 43.232C43.1753 43.536 42.9273 43.768 42.6073 43.928C42.2953 44.088 41.9153 44.168 41.4673 44.168ZM48.7537 44.192C47.9137 44.192 47.2617 44.012 46.7977 43.652C46.3417 43.292 46.1057 42.8 46.0897 42.176H47.1697C47.1857 42.424 47.3097 42.66 47.5417 42.884C47.7817 43.1 48.1857 43.208 48.7537 43.208C49.2657 43.208 49.6577 43.108 49.9297 42.908C50.2017 42.7 50.3377 42.448 50.3377 42.152C50.3377 41.888 50.2377 41.684 50.0377 41.54C49.8377 41.388 49.5137 41.288 49.0657 41.24L48.3697 41.168C47.7617 41.104 47.2657 40.924 46.8817 40.628C46.4977 40.324 46.3057 39.9 46.3057 39.356C46.3057 38.948 46.4097 38.6 46.6177 38.312C46.8257 38.016 47.1137 37.792 47.4817 37.64C47.8497 37.48 48.2737 37.4 48.7537 37.4C49.4737 37.4 50.0577 37.56 50.5057 37.88C50.9537 38.2 51.1857 38.676 51.2017 39.308H50.1217C50.1137 39.052 49.9937 38.836 49.7617 38.66C49.5377 38.476 49.2017 38.384 48.7537 38.384C48.3057 38.384 47.9657 38.476 47.7337 38.66C47.5017 38.844 47.3857 39.076 47.3857 39.356C47.3857 39.596 47.4657 39.788 47.6257 39.932C47.7937 40.076 48.0657 40.168 48.4417 40.208L49.1377 40.28C49.8257 40.352 50.3777 40.544 50.7937 40.856C51.2097 41.16 51.4177 41.592 51.4177 42.152C51.4177 42.552 51.3017 42.908 51.0697 43.22C50.8457 43.524 50.5337 43.764 50.1337 43.94C49.7337 44.108 49.2737 44.192 48.7537 44.192ZM55.6433 44.072C55.1633 44.072 54.7473 44.004 54.3953 43.868C54.0513 43.732 53.7833 43.5 53.5913 43.172C53.4073 42.836 53.3153 42.384 53.3153 41.816V35.648H54.4193V41.96C54.4193 42.304 54.5113 42.572 54.6953 42.764C54.8873 42.948 55.1553 43.04 55.4993 43.04H56.6273V44.072H55.6433ZM52.2113 38.456V37.592H56.6273V38.456H52.2113ZM33.104 62.4V53.592H34.016V56.364L33.8 56.34C33.84 55.652 33.984 55.092 34.232 54.66C34.488 54.22 34.82 53.896 35.228 53.688C35.636 53.48 36.08 53.376 36.56 53.376C37.024 53.376 37.444 53.464 37.82 53.64C38.204 53.816 38.532 54.056 38.804 54.36C39.076 54.664 39.284 55.016 39.428 55.416C39.572 55.816 39.644 56.24 39.644 56.688V56.904C39.644 57.352 39.568 57.776 39.416 58.176C39.264 58.576 39.048 58.928 38.768 59.232C38.496 59.536 38.168 59.776 37.784 59.952C37.408 60.128 36.992 60.216 36.536 60.216C36.08 60.216 35.644 60.116 35.228 59.916C34.812 59.716 34.468 59.392 34.196 58.944C33.924 58.496 33.768 57.908 33.728 57.18L34.256 58.14V62.4H33.104ZM36.356 59.208C36.788 59.208 37.164 59.108 37.484 58.908C37.804 58.7 38.052 58.416 38.228 58.056C38.404 57.688 38.492 57.268 38.492 56.796C38.492 56.316 38.404 55.896 38.228 55.536C38.052 55.176 37.804 54.896 37.484 54.696C37.164 54.488 36.788 54.384 36.356 54.384C35.972 54.384 35.616 54.472 35.288 54.648C34.96 54.816 34.696 55.064 34.496 55.392C34.304 55.712 34.208 56.1 34.208 56.556V57.108C34.208 57.548 34.308 57.924 34.508 58.236C34.708 58.548 34.972 58.788 35.3 58.956C35.628 59.124 35.98 59.208 36.356 59.208ZM41.4374 60V53.592H42.3494V56.232H42.3014C42.3014 55.296 42.5054 54.612 42.9134 54.18C43.3294 53.74 43.9494 53.52 44.7734 53.52H44.9894V54.552H44.5814C43.9414 54.552 43.4494 54.724 43.1054 55.068C42.7614 55.404 42.5894 55.892 42.5894 56.532V60H41.4374ZM46.7313 60V53.592H47.8833V60H46.7313ZM45.7473 54.504V53.592H47.8833V54.504H45.7473ZM47.0553 52.56C46.7993 52.56 46.6073 52.492 46.4793 52.356C46.3593 52.22 46.2993 52.048 46.2993 51.84C46.2993 51.632 46.3593 51.46 46.4793 51.324C46.6073 51.188 46.7993 51.12 47.0553 51.12C47.3113 51.12 47.4993 51.188 47.6193 51.324C47.7473 51.46 47.8113 51.632 47.8113 51.84C47.8113 52.048 47.7473 52.22 47.6193 52.356C47.4993 52.492 47.3113 52.56 47.0553 52.56ZM52.9187 60.216C52.3667 60.216 51.8867 60.12 51.4787 59.928C51.0787 59.736 50.7467 59.48 50.4827 59.16C50.2187 58.832 50.0187 58.472 49.8827 58.08C49.7547 57.688 49.6907 57.296 49.6907 56.904V56.688C49.6907 56.28 49.7547 55.88 49.8827 55.488C50.0187 55.096 50.2187 54.744 50.4827 54.432C50.7547 54.112 51.0907 53.856 51.4907 53.664C51.8907 53.472 52.3587 53.376 52.8947 53.376C53.4307 53.376 53.9107 53.476 54.3347 53.676C54.7667 53.876 55.1107 54.16 55.3667 54.528C55.6307 54.888 55.7787 55.316 55.8107 55.812H54.7067C54.6507 55.412 54.4667 55.08 54.1547 54.816C53.8427 54.544 53.4227 54.408 52.8947 54.408C52.4387 54.408 52.0587 54.512 51.7547 54.72C51.4507 54.928 51.2227 55.212 51.0707 55.572C50.9187 55.932 50.8427 56.34 50.8427 56.796C50.8427 57.236 50.9187 57.64 51.0707 58.008C51.2227 58.368 51.4507 58.656 51.7547 58.872C52.0667 59.08 52.4547 59.184 52.9187 59.184C53.2787 59.184 53.5907 59.12 53.8547 58.992C54.1187 58.864 54.3307 58.692 54.4907 58.476C54.6507 58.26 54.7467 58.016 54.7787 57.744H55.8827C55.8587 58.248 55.7107 58.684 55.4387 59.052C55.1747 59.42 54.8227 59.708 54.3827 59.916C53.9507 60.116 53.4627 60.216 52.9187 60.216ZM60.2321 60.216C59.6721 60.216 59.1881 60.12 58.7801 59.928C58.3721 59.736 58.0401 59.484 57.7841 59.172C57.5281 58.852 57.3361 58.496 57.2081 58.104C57.0881 57.712 57.0281 57.312 57.0281 56.904V56.688C57.0281 56.272 57.0881 55.868 57.2081 55.476C57.3361 55.084 57.5281 54.732 57.7841 54.42C58.0401 54.1 58.3641 53.848 58.7561 53.664C59.1561 53.472 59.6241 53.376 60.1601 53.376C60.8561 53.376 61.4281 53.528 61.8761 53.832C62.3321 54.128 62.6681 54.512 62.8841 54.984C63.1081 55.456 63.2201 55.96 63.2201 56.496V57.012H57.5321V56.148H62.3801L62.1161 56.616C62.1161 56.16 62.0441 55.768 61.9001 55.44C61.7561 55.104 61.5401 54.844 61.2521 54.66C60.9641 54.476 60.6001 54.384 60.1601 54.384C59.7041 54.384 59.3241 54.488 59.0201 54.696C58.7241 54.904 58.5001 55.188 58.3481 55.548C58.2041 55.908 58.1321 56.324 58.1321 56.796C58.1321 57.252 58.2041 57.664 58.3481 58.032C58.5001 58.392 58.7321 58.68 59.0441 58.896C59.3561 59.104 59.7521 59.208 60.2321 59.208C60.7361 59.208 61.1441 59.096 61.4561 58.872C61.7761 58.648 61.9681 58.388 62.0321 58.092H63.1121C63.0241 58.532 62.8481 58.912 62.5841 59.232C62.3201 59.552 61.9881 59.796 61.5881 59.964C61.1881 60.132 60.7361 60.216 60.2321 60.216Z" fill="#9C9CAB"/>
<path d="M141.186 31.252C140.421 31.252 139.772 31.1027 139.24 30.804C138.708 30.5053 138.302 30.1087 138.022 29.614C137.751 29.1193 137.616 28.5827 137.616 28.004H138.932C138.932 28.6387 139.133 29.1427 139.534 29.516C139.945 29.8893 140.495 30.076 141.186 30.076C141.643 30.076 142.04 29.992 142.376 29.824C142.712 29.656 142.973 29.418 143.16 29.11C143.347 28.7927 143.44 28.424 143.44 28.004C143.44 27.3693 143.235 26.856 142.824 26.464C142.423 26.072 141.881 25.876 141.2 25.876C140.911 25.876 140.659 25.9133 140.444 25.988C140.239 26.0533 140.057 26.1373 139.898 26.24L139.226 25.036L143.132 22.18L142.992 21.928H138.022V20.78H144.252V22.642L141.018 24.994L140.038 25.036C140.197 24.98 140.369 24.9333 140.556 24.896C140.752 24.8587 140.981 24.84 141.242 24.84C141.989 24.84 142.623 24.98 143.146 25.26C143.669 25.54 144.065 25.9133 144.336 26.38C144.616 26.8467 144.756 27.3553 144.756 27.906V28.102C144.756 28.6433 144.616 29.1567 144.336 29.642C144.065 30.118 143.664 30.5053 143.132 30.804C142.609 31.1027 141.961 31.252 141.186 31.252ZM150.052 31.252C149.324 31.252 148.675 31.1213 148.106 30.86C147.546 30.5987 147.102 30.2347 146.776 29.768C146.458 29.3013 146.3 28.76 146.3 28.144C146.3 27.7333 146.379 27.3647 146.538 27.038C146.696 26.702 146.916 26.4127 147.196 26.17C147.476 25.9273 147.793 25.7407 148.148 25.61V25.47C147.868 25.3487 147.611 25.1853 147.378 24.98C147.154 24.7747 146.972 24.532 146.832 24.252C146.701 23.972 146.636 23.6547 146.636 23.3C146.636 22.712 146.79 22.2127 147.098 21.802C147.415 21.3913 147.83 21.0787 148.344 20.864C148.866 20.64 149.436 20.528 150.052 20.528C150.677 20.528 151.246 20.64 151.76 20.864C152.282 21.0787 152.698 21.3913 153.006 21.802C153.314 22.2127 153.468 22.712 153.468 23.3C153.468 23.6547 153.402 23.972 153.272 24.252C153.141 24.532 152.959 24.7747 152.726 24.98C152.502 25.1853 152.245 25.3487 151.956 25.47V25.61C152.32 25.7407 152.642 25.932 152.922 26.184C153.202 26.4267 153.421 26.716 153.58 27.052C153.738 27.3787 153.818 27.7427 153.818 28.144C153.818 28.76 153.654 29.3013 153.328 29.768C153.01 30.2347 152.567 30.5987 151.998 30.86C151.438 31.1213 150.789 31.252 150.052 31.252ZM150.052 30.104C150.565 30.104 151.004 30.0247 151.368 29.866C151.732 29.698 152.012 29.4647 152.208 29.166C152.404 28.858 152.502 28.4987 152.502 28.088C152.502 27.6773 152.404 27.3227 152.208 27.024C152.021 26.7253 151.746 26.4967 151.382 26.338C151.018 26.17 150.574 26.086 150.052 26.086C149.538 26.086 149.1 26.17 148.736 26.338C148.372 26.4967 148.092 26.7253 147.896 27.024C147.709 27.3227 147.616 27.6773 147.616 28.088C147.616 28.4987 147.709 28.858 147.896 29.166C148.092 29.4647 148.372 29.698 148.736 29.866C149.1 30.0247 149.538 30.104 150.052 30.104ZM150.052 25.022C150.686 25.022 151.195 24.8867 151.578 24.616C151.96 24.336 152.152 23.9113 152.152 23.342C152.152 22.7633 151.956 22.3433 151.564 22.082C151.181 21.8113 150.677 21.676 150.052 21.676C149.426 21.676 148.918 21.8113 148.526 22.082C148.143 22.3527 147.952 22.7727 147.952 23.342C147.952 23.9113 148.143 24.336 148.526 24.616C148.918 24.8867 149.426 25.022 150.052 25.022ZM155.536 31V29.292H157.16V31H155.536ZM159.242 31V29.32C159.242 28.9093 159.298 28.5593 159.41 28.27C159.531 27.9807 159.736 27.7193 160.026 27.486C160.315 27.2433 160.707 27.01 161.202 26.786L163.12 25.904C163.586 25.6893 163.955 25.414 164.226 25.078C164.496 24.7327 164.632 24.2893 164.632 23.748C164.632 23.0947 164.45 22.586 164.086 22.222C163.722 21.858 163.208 21.676 162.546 21.676C161.892 21.676 161.379 21.858 161.006 22.222C160.632 22.586 160.446 23.0947 160.446 23.748H159.13C159.13 23.16 159.251 22.6187 159.494 22.124C159.746 21.6293 160.124 21.2373 160.628 20.948C161.132 20.6493 161.771 20.5 162.546 20.5C163.32 20.5 163.955 20.6493 164.45 20.948C164.954 21.2373 165.327 21.62 165.57 22.096C165.822 22.572 165.948 23.09 165.948 23.65V23.846C165.948 24.5833 165.733 25.204 165.304 25.708C164.884 26.212 164.314 26.6273 163.596 26.954L161.678 27.836C161.248 28.032 160.959 28.228 160.81 28.424C160.66 28.62 160.586 28.8813 160.586 29.208V30.496L160.222 29.852H166.074V31H159.242ZM171.256 31.252C170.472 31.252 169.809 31.0933 169.268 30.776C168.727 30.4493 168.316 30.0247 168.036 29.502C167.756 28.9793 167.616 28.424 167.616 27.836H168.932C168.932 28.2653 169.025 28.648 169.212 28.984C169.408 29.32 169.679 29.586 170.024 29.782C170.369 29.978 170.78 30.076 171.256 30.076C171.723 30.076 172.129 29.9827 172.474 29.796C172.829 29.6 173.104 29.334 173.3 28.998C173.496 28.6527 173.594 28.2653 173.594 27.836C173.594 27.4067 173.496 27.0193 173.3 26.674C173.113 26.3287 172.843 26.0533 172.488 25.848C172.143 25.6427 171.732 25.54 171.256 25.54C170.911 25.54 170.561 25.6007 170.206 25.722C169.851 25.834 169.567 25.9973 169.352 26.212H168.12L168.638 20.78H174V21.928H169.422L169.758 21.466L169.366 25.428L169.002 25.302C169.273 25.0313 169.599 24.8167 169.982 24.658C170.374 24.4993 170.817 24.42 171.312 24.42C172.096 24.42 172.754 24.5833 173.286 24.91C173.818 25.2273 174.219 25.6427 174.49 26.156C174.77 26.66 174.91 27.1873 174.91 27.738V27.934C174.91 28.4847 174.77 29.0167 174.49 29.53C174.21 30.034 173.795 30.4493 173.244 30.776C172.703 31.0933 172.04 31.252 171.256 31.252ZM181.316 31.056V29.852H184.172C184.723 29.852 185.148 29.698 185.446 29.39C185.754 29.0727 185.908 28.6527 185.908 28.13C185.908 27.598 185.759 27.1827 185.46 26.884C185.162 26.576 184.732 26.422 184.172 26.422H181.316V25.526H183.976C184.63 25.526 185.204 25.6053 185.698 25.764C186.202 25.9227 186.594 26.1887 186.874 26.562C187.164 26.926 187.308 27.4253 187.308 28.06V28.256C187.308 28.8533 187.187 29.362 186.944 29.782C186.702 30.1927 186.333 30.51 185.838 30.734C185.344 30.9487 184.723 31.056 183.976 31.056H181.316ZM180.224 31.056V20.724H181.596V31.056H180.224ZM181.316 26.17V25.274H183.794C184.373 25.274 184.798 25.12 185.068 24.812C185.348 24.4947 185.488 24.0933 185.488 23.608C185.488 23.1133 185.348 22.712 185.068 22.404C184.798 22.0867 184.373 21.928 183.794 21.928H181.316V20.724H183.556C184.676 20.724 185.512 20.962 186.062 21.438C186.613 21.9047 186.888 22.5813 186.888 23.468V23.664C186.888 24.2893 186.748 24.7887 186.468 25.162C186.188 25.526 185.796 25.7873 185.292 25.946C184.798 26.0953 184.219 26.17 183.556 26.17H181.316ZM191.536 31V21.732H192.908V31H191.536ZM188.428 22.012V20.78H196.016V22.012H188.428ZM201.985 31.252C201.051 31.252 200.253 31.0887 199.591 30.762C198.937 30.4353 198.41 30.0107 198.009 29.488C197.607 28.9653 197.313 28.4007 197.127 27.794C196.94 27.178 196.847 26.5853 196.847 26.016V25.708C196.847 25.092 196.94 24.476 197.127 23.86C197.323 23.244 197.621 22.684 198.023 22.18C198.424 21.676 198.947 21.27 199.591 20.962C200.235 20.654 201.005 20.5 201.901 20.5C202.815 20.5 203.599 20.6587 204.253 20.976C204.906 21.2933 205.424 21.7367 205.807 22.306C206.189 22.8753 206.423 23.5473 206.507 24.322H205.107C205.032 23.7433 204.845 23.2673 204.547 22.894C204.248 22.5113 203.87 22.2267 203.413 22.04C202.965 21.8533 202.461 21.76 201.901 21.76C201.294 21.76 200.762 21.8673 200.305 22.082C199.847 22.2873 199.465 22.5813 199.157 22.964C198.858 23.3373 198.629 23.7713 198.471 24.266C198.321 24.7607 198.247 25.2973 198.247 25.876C198.247 26.4267 198.321 26.9493 198.471 27.444C198.629 27.9387 198.863 28.3773 199.171 28.76C199.488 29.1427 199.88 29.446 200.347 29.67C200.813 29.8847 201.359 29.992 201.985 29.992C202.862 29.992 203.599 29.7727 204.197 29.334C204.794 28.8953 205.158 28.2607 205.289 27.43H206.689C206.595 28.13 206.357 28.7693 205.975 29.348C205.601 29.9267 205.079 30.3887 204.407 30.734C203.744 31.0793 202.937 31.252 201.985 31.252Z" fill="white"/>
<path d="M140.3 44L137.264 35.24H138.476L141.2 43.232L140.624 42.944H142.064L141.452 43.232L143.96 35.24H145.136L142.316 44H140.3ZM149.132 44.216C148.572 44.216 148.08 44.12 147.656 43.928C147.232 43.736 146.872 43.484 146.576 43.172C146.288 42.852 146.068 42.496 145.916 42.104C145.772 41.712 145.7 41.312 145.7 40.904V40.688C145.7 40.28 145.776 39.88 145.928 39.488C146.08 39.088 146.304 38.732 146.6 38.42C146.896 38.1 147.256 37.848 147.68 37.664C148.104 37.472 148.588 37.376 149.132 37.376C149.676 37.376 150.16 37.472 150.584 37.664C151.008 37.848 151.368 38.1 151.664 38.42C151.96 38.732 152.184 39.088 152.336 39.488C152.488 39.88 152.564 40.28 152.564 40.688V40.904C152.564 41.312 152.488 41.712 152.336 42.104C152.192 42.496 151.972 42.852 151.676 43.172C151.388 43.484 151.032 43.736 150.608 43.928C150.184 44.12 149.692 44.216 149.132 44.216ZM149.132 43.184C149.612 43.184 150.02 43.08 150.356 42.872C150.7 42.656 150.96 42.368 151.136 42.008C151.32 41.648 151.412 41.244 151.412 40.796C151.412 40.34 151.32 39.932 151.136 39.572C150.952 39.212 150.688 38.928 150.344 38.72C150.008 38.512 149.604 38.408 149.132 38.408C148.668 38.408 148.264 38.512 147.92 38.72C147.576 38.928 147.312 39.212 147.128 39.572C146.944 39.932 146.852 40.34 146.852 40.796C146.852 41.244 146.94 41.648 147.116 42.008C147.3 42.368 147.56 42.656 147.896 42.872C148.24 43.08 148.652 43.184 149.132 43.184ZM154.421 44V35.24H155.573V44H154.421ZM153.533 36.152V35.24H155.573V36.152H153.533ZM160.063 44.192C159.303 44.192 158.719 43.944 158.311 43.448C157.903 42.952 157.699 42.236 157.699 41.3V37.58H158.851V41.528C158.851 42.032 158.987 42.428 159.259 42.716C159.531 42.996 159.899 43.136 160.363 43.136C160.843 43.136 161.235 42.984 161.539 42.68C161.843 42.368 161.995 41.944 161.995 41.408V37.58H163.147V44H162.235V41.252H162.379C162.379 41.884 162.295 42.42 162.127 42.86C161.959 43.292 161.707 43.624 161.371 43.856C161.043 44.08 160.623 44.192 160.111 44.192H160.063ZM165.438 44V37.592H166.35V40.34H166.206C166.206 39.716 166.286 39.188 166.446 38.756C166.614 38.316 166.862 37.98 167.19 37.748C167.518 37.516 167.934 37.4 168.438 37.4H168.486C168.99 37.4 169.406 37.516 169.734 37.748C170.07 37.98 170.318 38.316 170.478 38.756C170.638 39.188 170.718 39.716 170.718 40.34H170.382C170.382 39.716 170.466 39.188 170.634 38.756C170.802 38.316 171.05 37.98 171.378 37.748C171.714 37.516 172.134 37.4 172.638 37.4H172.686C173.19 37.4 173.61 37.516 173.946 37.748C174.282 37.98 174.53 38.316 174.69 38.756C174.858 39.188 174.942 39.716 174.942 40.34V44H173.79V40.088C173.79 39.568 173.662 39.168 173.406 38.888C173.15 38.6 172.794 38.456 172.338 38.456C171.866 38.456 171.486 38.608 171.198 38.912C170.91 39.208 170.766 39.624 170.766 40.16V44H169.614V40.088C169.614 39.568 169.486 39.168 169.23 38.888C168.974 38.6 168.618 38.456 168.162 38.456C167.69 38.456 167.31 38.608 167.022 38.912C166.734 39.208 166.59 39.624 166.59 40.16V44H165.438ZM179.835 44.216C179.275 44.216 178.791 44.12 178.383 43.928C177.975 43.736 177.643 43.484 177.387 43.172C177.131 42.852 176.939 42.496 176.811 42.104C176.691 41.712 176.631 41.312 176.631 40.904V40.688C176.631 40.272 176.691 39.868 176.811 39.476C176.939 39.084 177.131 38.732 177.387 38.42C177.643 38.1 177.967 37.848 178.359 37.664C178.759 37.472 179.227 37.376 179.763 37.376C180.459 37.376 181.031 37.528 181.479 37.832C181.935 38.128 182.271 38.512 182.487 38.984C182.711 39.456 182.823 39.96 182.823 40.496V41.012H177.135V40.148H181.983L181.719 40.616C181.719 40.16 181.647 39.768 181.503 39.44C181.359 39.104 181.143 38.844 180.855 38.66C180.567 38.476 180.203 38.384 179.763 38.384C179.307 38.384 178.927 38.488 178.623 38.696C178.327 38.904 178.103 39.188 177.951 39.548C177.807 39.908 177.735 40.324 177.735 40.796C177.735 41.252 177.807 41.664 177.951 42.032C178.103 42.392 178.335 42.68 178.647 42.896C178.959 43.104 179.355 43.208 179.835 43.208C180.339 43.208 180.747 43.096 181.059 42.872C181.379 42.648 181.571 42.388 181.635 42.092H182.715C182.627 42.532 182.451 42.912 182.187 43.232C181.923 43.552 181.591 43.796 181.191 43.964C180.791 44.132 180.339 44.216 179.835 44.216ZM140 62.184C139.576 61.696 139.2 61.164 138.872 60.588C138.552 60.02 138.304 59.392 138.128 58.704C137.952 58.008 137.864 57.236 137.864 56.388C137.864 55.54 137.952 54.772 138.128 54.084C138.312 53.396 138.564 52.772 138.884 52.212C139.212 51.652 139.584 51.144 140 50.688H141.32C140.824 51.224 140.4 51.78 140.048 52.356C139.704 52.932 139.44 53.552 139.256 54.216C139.08 54.872 138.992 55.596 138.992 56.388C138.992 57.18 139.08 57.912 139.256 58.584C139.432 59.248 139.692 59.872 140.036 60.456C140.388 61.048 140.816 61.624 141.32 62.184H140ZM142.484 60V58.56C142.484 58.208 142.532 57.908 142.628 57.66C142.732 57.412 142.908 57.188 143.156 56.988C143.404 56.78 143.74 56.58 144.164 56.388L145.808 55.632C146.208 55.448 146.524 55.212 146.756 54.924C146.988 54.628 147.104 54.248 147.104 53.784C147.104 53.224 146.948 52.788 146.636 52.476C146.324 52.164 145.884 52.008 145.316 52.008C144.756 52.008 144.316 52.164 143.996 52.476C143.676 52.788 143.516 53.224 143.516 53.784H142.388C142.388 53.28 142.492 52.816 142.7 52.392C142.916 51.968 143.24 51.632 143.672 51.384C144.104 51.128 144.652 51 145.316 51C145.98 51 146.524 51.128 146.948 51.384C147.38 51.632 147.7 51.96 147.908 52.368C148.124 52.776 148.232 53.22 148.232 53.7V53.868C148.232 54.5 148.048 55.032 147.68 55.464C147.32 55.896 146.832 56.252 146.216 56.532L144.572 57.288C144.204 57.456 143.956 57.624 143.828 57.792C143.7 57.96 143.636 58.184 143.636 58.464V59.568L143.324 59.016H148.34V60H142.484ZM149.626 57.924V56.508L153.262 51.024L154.066 51.66L150.67 56.796L150.778 57.012H156.442V57.924H149.626ZM154.198 60V53.796H155.278V60H154.198ZM157.913 60V51.24H159.065V56.472H158.777C158.777 55.84 158.857 55.296 159.017 54.84C159.185 54.376 159.441 54.02 159.785 53.772C160.129 53.524 160.569 53.4 161.105 53.4H161.153C161.921 53.4 162.501 53.656 162.893 54.168C163.285 54.672 163.481 55.396 163.481 56.34V60H162.329V56.1C162.329 55.58 162.181 55.176 161.885 54.888C161.597 54.6 161.221 54.456 160.757 54.456C160.245 54.456 159.833 54.628 159.521 54.972C159.217 55.308 159.065 55.752 159.065 56.304V60H157.913ZM165.822 62.184H164.502C165.006 61.624 165.43 61.048 165.774 60.456C166.126 59.872 166.39 59.248 166.566 58.584C166.742 57.912 166.83 57.18 166.83 56.388C166.83 55.596 166.738 54.872 166.554 54.216C166.378 53.552 166.114 52.932 165.762 52.356C165.418 51.78 164.998 51.224 164.502 50.688H165.822C166.238 51.144 166.606 51.652 166.926 52.212C167.254 52.772 167.506 53.396 167.682 54.084C167.866 54.772 167.958 55.54 167.958 56.388C167.958 57.236 167.87 58.008 167.694 58.704C167.518 59.392 167.266 60.02 166.938 60.588C166.618 61.164 166.246 61.696 165.822 62.184Z" fill="#9C9CAB"/>
</svg>
