<svg width="509" height="538" viewBox="0 0 509 538" fill="none" xmlns="http://www.w3.org/2000/svg">
<rect x="33.6001" width="515.2" height="89.6" rx="16.8" fill="white"/>
<path d="M417.97 51.8008C416.846 51.8008 415.892 51.6178 415.108 51.252C414.324 50.873 413.723 50.3438 413.305 49.6644C412.9 48.9718 412.698 48.1617 412.698 47.234H414.462C414.462 47.6782 414.566 48.129 414.775 48.5864C414.997 49.0437 415.363 49.4292 415.873 49.7428C416.382 50.0433 417.082 50.1936 417.97 50.1936C419.146 50.1936 420.015 49.9453 420.577 49.4488C421.152 48.9522 421.439 48.3838 421.439 47.7436C421.439 47.1164 421.184 46.5937 420.675 46.1756C420.165 45.7574 419.427 45.5026 418.46 45.4112L417.166 45.2936C415.912 45.176 414.912 44.797 414.168 44.1568C413.423 43.5165 413.05 42.6018 413.05 41.4128C413.05 40.5896 413.246 39.8905 413.638 39.3156C414.044 38.7276 414.605 38.2768 415.324 37.9632C416.056 37.6496 416.912 37.4928 417.892 37.4928C418.872 37.4928 419.714 37.6692 420.42 38.022C421.139 38.3617 421.694 38.8648 422.086 39.5312C422.478 40.1845 422.674 40.975 422.674 41.9028H420.91C420.91 41.4324 420.806 40.9881 420.596 40.57C420.387 40.1388 420.061 39.786 419.616 39.5116C419.185 39.2372 418.61 39.1 417.892 39.1C417.251 39.1 416.703 39.2045 416.245 39.4136C415.801 39.6096 415.455 39.884 415.206 40.2368C414.971 40.5896 414.854 40.9816 414.854 41.4128C414.854 41.9746 415.056 42.4646 415.461 42.8828C415.866 43.2878 416.487 43.5296 417.323 43.608L418.617 43.7256C420.015 43.8562 421.132 44.2678 421.968 44.9604C422.818 45.6398 423.242 46.5676 423.242 47.7436C423.242 48.5537 423.027 49.2658 422.596 49.88C422.164 50.481 421.557 50.9514 420.773 51.2912C419.989 51.6309 419.055 51.8008 417.97 51.8008ZM417.127 54.3292V51.4676H418.813V54.3292H417.127ZM417.049 38.4532V35.5916H418.734V38.4532H417.049ZM428.384 51.8008V38.4336L429.247 39.1H425.209V37.4928H430.266V51.8008H428.384ZM434.635 54.878L433.126 54.3096L434.949 49.2528L436.497 49.8408L434.635 54.878ZM439.236 51.8008V49.4488C439.236 48.8738 439.314 48.3838 439.471 47.9788C439.641 47.5737 439.928 47.2078 440.333 46.8812C440.738 46.5414 441.287 46.2148 441.98 45.9012L444.665 44.6664C445.318 44.3658 445.834 43.9804 446.213 43.51C446.592 43.0265 446.782 42.4058 446.782 41.648C446.782 40.7333 446.527 40.0212 446.017 39.5116C445.508 39.002 444.789 38.7472 443.861 38.7472C442.947 38.7472 442.228 39.002 441.705 39.5116C441.183 40.0212 440.921 40.7333 440.921 41.648H439.079C439.079 40.8248 439.249 40.0669 439.589 39.3744C439.941 38.6818 440.471 38.133 441.176 37.728C441.882 37.3098 442.777 37.1008 443.861 37.1008C444.946 37.1008 445.834 37.3098 446.527 37.728C447.233 38.133 447.755 38.6688 448.095 39.3352C448.448 40.0016 448.624 40.7268 448.624 41.5108V41.7852C448.624 42.8174 448.324 43.6864 447.723 44.392C447.135 45.0976 446.338 45.679 445.331 46.1364L442.646 47.3712C442.045 47.6456 441.64 47.92 441.431 48.1944C441.222 48.4688 441.117 48.8346 441.117 49.292V51.0952L440.608 50.1936H448.801V51.8008H439.236ZM455.723 52.1536C454.651 52.1536 453.743 51.9445 452.998 51.5264C452.253 51.1082 451.685 50.5529 451.293 49.8604C450.914 49.1678 450.725 48.4165 450.725 47.6064H452.567C452.567 48.4949 452.848 49.2005 453.41 49.7232C453.985 50.2458 454.756 50.5072 455.723 50.5072C456.363 50.5072 456.918 50.3896 457.389 50.1544C457.859 49.9192 458.225 49.586 458.486 49.1548C458.748 48.7105 458.878 48.1944 458.878 47.6064C458.878 46.7178 458.591 45.9992 458.016 45.4504C457.454 44.9016 456.696 44.6272 455.742 44.6272C455.337 44.6272 454.984 44.6794 454.684 44.784C454.396 44.8754 454.142 44.993 453.919 45.1368L452.979 43.4512L458.447 39.4528L458.251 39.1H451.293V37.4928H460.015V40.0996L455.487 43.3924L454.115 43.4512C454.338 43.3728 454.579 43.3074 454.841 43.2552C455.115 43.2029 455.435 43.1768 455.801 43.1768C456.846 43.1768 457.735 43.3728 458.467 43.7648C459.198 44.1568 459.754 44.6794 460.133 45.3328C460.525 45.9861 460.721 46.6982 460.721 47.4692V47.7436C460.721 48.5014 460.525 49.2201 460.133 49.8996C459.754 50.566 459.192 51.1082 458.447 51.5264C457.715 51.9445 456.807 52.1536 455.723 52.1536ZM468.742 52.1928C467.697 52.1928 466.821 52.0098 466.116 51.644C465.423 51.2781 464.868 50.7816 464.45 50.1544C464.045 49.5141 463.751 48.7824 463.568 47.9592C463.398 47.136 463.313 46.2736 463.313 45.372V44.4312C463.313 42.1706 463.875 40.4328 464.998 39.2176C466.122 37.9893 467.749 37.3752 469.879 37.3752C470.388 37.3752 470.82 37.3882 471.172 37.4144C471.525 37.4405 471.911 37.4797 472.329 37.532V39.1392C471.898 39.0869 471.499 39.0477 471.133 39.0216C470.767 38.9954 470.323 38.9824 469.8 38.9824C468.611 38.9824 467.671 39.2045 466.978 39.6488C466.286 40.093 465.789 40.7333 465.488 41.5696C465.188 42.3928 465.038 43.3924 465.038 44.5684V45.4504L464.567 47.1948C464.58 46.1625 464.776 45.3066 465.155 44.6272C465.547 43.9477 466.076 43.4381 466.743 43.0984C467.422 42.7586 468.2 42.5888 469.075 42.5888C470.094 42.5888 470.957 42.7978 471.662 43.216C472.368 43.621 472.897 44.1829 473.25 44.9016C473.616 45.6202 473.799 46.4369 473.799 47.3516C473.799 48.2793 473.609 49.109 473.23 49.8408C472.852 50.5725 472.283 51.1474 471.525 51.5656C470.78 51.9837 469.853 52.1928 468.742 52.1928ZM468.742 50.5464C469.461 50.5464 470.062 50.4092 470.545 50.1348C471.029 49.8604 471.388 49.488 471.623 49.0176C471.872 48.5341 471.996 47.9788 471.996 47.3516C471.996 46.7244 471.878 46.169 471.643 45.6856C471.408 45.2021 471.055 44.8297 470.584 44.5684C470.127 44.294 469.559 44.1568 468.879 44.1568C468.213 44.1568 467.612 44.2809 467.076 44.5292C466.553 44.7774 466.142 45.1433 465.841 45.6268C465.541 46.0972 465.39 46.6786 465.39 47.3712C465.39 47.9461 465.508 48.4753 465.743 48.9588C465.978 49.4422 466.344 49.8277 466.841 50.1152C467.337 50.4026 467.971 50.5464 468.742 50.5464ZM476.252 51.8008V49.4096H478.526V51.8008H476.252ZM481.441 51.8008V49.4488C481.441 48.8738 481.519 48.3838 481.676 47.9788C481.846 47.5737 482.133 47.2078 482.538 46.8812C482.944 46.5414 483.492 46.2148 484.185 45.9012L486.87 44.6664C487.523 44.3658 488.04 43.9804 488.418 43.51C488.797 43.0265 488.987 42.4058 488.987 41.648C488.987 40.7333 488.732 40.0212 488.222 39.5116C487.713 39.002 486.994 38.7472 486.066 38.7472C485.152 38.7472 484.433 39.002 483.91 39.5116C483.388 40.0212 483.126 40.7333 483.126 41.648H481.284C481.284 40.8248 481.454 40.0669 481.794 39.3744C482.146 38.6818 482.676 38.133 483.381 37.728C484.087 37.3098 484.982 37.1008 486.066 37.1008C487.151 37.1008 488.04 37.3098 488.732 37.728C489.438 38.133 489.96 38.6688 490.3 39.3352C490.653 40.0016 490.829 40.7268 490.829 41.5108V41.7852C490.829 42.8174 490.529 43.6864 489.928 44.392C489.34 45.0976 488.543 45.679 487.536 46.1364L484.851 47.3712C484.25 47.6456 483.845 47.92 483.636 48.1944C483.427 48.4688 483.322 48.8346 483.322 49.292V51.0952L482.813 50.1936H491.006V51.8008H481.441ZM496.066 51.8008V38.4336L496.928 39.1H492.89V37.4928H497.947V51.8008H496.066Z" fill="#0E0637"/>
<g clip-path="url(#clip0_736_241894)">
<path d="M111.162 51.571C107.421 66.579 92.2153 75.7022 77.2287 71.9609C62.2203 68.2198 53.0971 53.0149 56.8384 38.0286C60.5794 23.0206 75.7629 13.8974 90.7713 17.6387C105.758 21.3579 114.903 36.5627 111.162 51.571Z" fill="url(#paint0_linear_736_241894)"/>
<path d="M97.3309 41.3109C97.8777 37.5922 95.0559 35.5797 91.1621 34.2453L92.4309 29.1922L89.3684 28.4266L88.1434 33.3484C87.334 33.1516 86.5027 32.9547 85.6715 32.7797L86.8965 27.8359L83.834 27.0703L82.5871 32.1016C81.909 31.9484 81.2527 31.7953 80.6184 31.6422V31.6203L76.3746 30.5703L75.5652 33.8516C75.5652 33.8516 77.8402 34.3766 77.7965 34.3984C79.0434 34.7047 79.2621 35.5359 79.2184 36.1922L77.7746 41.9453C77.8621 41.9672 77.9715 41.9891 78.1027 42.0547C77.9934 42.0328 77.884 42.0109 77.7746 41.9672L75.7621 50.0172C75.609 50.3891 75.2152 50.9578 74.3621 50.7391C74.384 50.7828 72.1309 50.1922 72.1309 50.1922L70.5996 53.7141L74.6027 54.7203C75.3465 54.9172 76.0684 55.0922 76.7902 55.2891L75.5215 60.3859L78.584 61.1516L79.8527 56.0984C80.684 56.3172 81.5152 56.5359 82.3027 56.7328L81.0559 61.7641L84.1184 62.5297L85.3871 57.4328C90.6371 58.4172 94.5746 58.0234 96.2152 53.2766C97.5496 49.4703 96.1496 47.2609 93.3934 45.8172C95.4277 45.3578 96.9371 44.0234 97.3309 41.3109ZM90.309 51.1547C89.3684 54.9609 82.9371 52.9047 80.859 52.3797L82.5434 45.6203C84.6215 46.1453 91.3152 47.1734 90.309 51.1547ZM91.2715 41.2453C90.3965 44.7234 85.059 42.9516 83.3309 42.5141L84.8621 36.3891C86.5902 36.8266 92.1684 37.6359 91.2715 41.2453Z" fill="white"/>
</g>
<rect x="198.817" y="26.2441" width="129.628" height="35.787" rx="6.36213" fill="#E7E3FC"/>
<path d="M138.522 52.6902V50.7638H143.092C143.973 50.7638 144.652 50.5174 145.13 50.0246C145.623 49.5169 145.869 48.8449 145.869 48.0086C145.869 47.1574 145.63 46.4929 145.152 46.015C144.675 45.5222 143.988 45.2758 143.092 45.2758H138.522V43.8422H142.778C143.823 43.8422 144.742 43.9691 145.533 44.223C146.34 44.4769 146.967 44.9025 147.415 45.4998C147.878 46.0822 148.109 46.8811 148.109 47.8966V48.2102C148.109 49.1659 147.915 49.9798 147.527 50.6518C147.139 51.3089 146.549 51.8166 145.757 52.175C144.966 52.5185 143.973 52.6902 142.778 52.6902H138.522ZM136.775 52.6902V36.159H138.97V52.6902H136.775ZM138.522 44.8726V43.439H142.487C143.413 43.439 144.092 43.1926 144.525 42.6998C144.973 42.1921 145.197 41.5499 145.197 40.7734C145.197 39.9819 144.973 39.3398 144.525 38.847C144.092 38.3393 143.413 38.0854 142.487 38.0854H138.522V36.159H142.106C143.898 36.159 145.235 36.5398 146.116 37.3014C146.997 38.0481 147.437 39.1307 147.437 40.5494V40.863C147.437 41.8635 147.213 42.6625 146.765 43.2598C146.317 43.8422 145.69 44.2603 144.884 44.5142C144.092 44.7531 143.166 44.8726 142.106 44.8726H138.522ZM154.986 52.6006V37.7718H157.182V52.6006H154.986ZM150.014 38.2198V36.2486H162.154V38.2198H150.014ZM171.815 53.0038C170.322 53.0038 169.045 52.7425 167.985 52.2198C166.939 51.6971 166.096 51.0177 165.454 50.1814C164.811 49.3451 164.341 48.4417 164.042 47.471C163.744 46.4854 163.594 45.5371 163.594 44.6262V44.1334C163.594 43.1478 163.744 42.1622 164.042 41.1766C164.356 40.191 164.834 39.295 165.476 38.4886C166.118 37.6822 166.954 37.0326 167.985 36.5398C169.015 36.047 170.247 35.8006 171.681 35.8006C173.144 35.8006 174.399 36.0545 175.444 36.5622C176.489 37.0699 177.318 37.7793 177.93 38.6902C178.543 39.6011 178.916 40.6763 179.05 41.9158H176.81C176.691 40.9899 176.392 40.2283 175.914 39.631C175.437 39.0187 174.832 38.5633 174.1 38.2646C173.383 37.9659 172.577 37.8166 171.681 37.8166C170.71 37.8166 169.859 37.9883 169.127 38.3318C168.395 38.6603 167.783 39.1307 167.29 39.743C166.813 40.3403 166.447 41.0347 166.193 41.8262C165.954 42.6177 165.834 43.4763 165.834 44.4022C165.834 45.2833 165.954 46.1195 166.193 46.911C166.447 47.7025 166.82 48.4043 167.313 49.0166C167.821 49.6289 168.448 50.1142 169.194 50.4726C169.941 50.8161 170.815 50.9878 171.815 50.9878C173.219 50.9878 174.399 50.6369 175.354 49.935C176.31 49.2331 176.893 48.2177 177.102 46.8886H179.342C179.192 48.0086 178.811 49.0315 178.199 49.9574C177.602 50.8833 176.766 51.6225 175.69 52.175C174.63 52.7275 173.338 53.0038 171.815 53.0038Z" fill="#9C9CAB"/>
<rect y="448.002" width="686" height="89.6" rx="16.8" fill="white"/>
<path d="M557.091 506.157H560V508.201C560 508.974 559.373 509.601 558.6 509.601H455C454.227 509.601 453.6 508.974 453.6 508.201V484.161L456.996 493.243C457.494 494.574 459.43 494.402 459.685 493.003L460.324 489.499C460.507 488.496 461.666 488.018 462.503 488.602L463.006 488.953C463.684 489.427 464.623 489.212 465.028 488.49L465.933 486.876C466.394 486.055 467.517 485.914 468.167 486.594L473.278 491.947C473.694 492.382 474.342 492.503 474.887 492.247L474.921 492.231C475.64 491.893 476.496 492.22 476.806 492.952L479.056 498.27C479.552 499.441 481.225 499.398 481.661 498.204L483.635 492.79C483.663 492.714 483.697 492.641 483.737 492.571L486.482 487.802C486.988 486.924 488.23 486.857 488.827 487.676L489.33 488.366C489.782 488.985 490.647 489.126 491.272 488.683L493.933 486.794C494.747 486.216 495.887 486.651 496.108 487.624L497.206 492.439C497.241 492.596 497.304 492.745 497.39 492.881L498.485 494.596C498.997 495.399 500.144 495.467 500.748 494.731L502.086 493.1C502.31 492.827 502.628 492.649 502.978 492.601L504.14 492.442C504.678 492.368 505.125 491.99 505.286 491.472L508.066 482.578C508.408 481.486 509.854 481.261 510.511 482.198C511.171 483.139 512.625 482.907 512.959 481.807L513.646 479.546C514.021 478.311 515.725 478.198 516.26 479.372L518.231 483.696C518.458 484.195 518.956 484.516 519.505 484.516H522.972C523.471 484.516 523.933 484.782 524.183 485.213L525.114 486.818C525.528 487.531 526.557 487.531 526.971 486.818C527.456 485.982 528.711 486.162 528.942 487.1L533.643 506.21C533.745 506.625 534.031 506.971 534.42 507.149L536.41 508.058C537.114 508.38 537.945 508.07 538.266 507.366L539.786 504.032C540.183 503.16 541.32 502.936 542.019 503.593L545.863 507.207C546.589 507.89 547.776 507.617 548.13 506.684L548.943 504.545C548.984 504.438 549.037 504.336 549.103 504.242L551.681 500.543C552.327 499.617 553.747 499.797 554.142 500.855L555.779 505.247C555.984 505.794 556.507 506.157 557.091 506.157Z" fill="url(#paint1_linear_736_241894)"/>
<path d="M560 506.158H556.119L553.209 498.352L549.004 504.384L547.387 508.641L540.596 502.255L537.685 508.641L533.804 506.867L528.306 484.516L526.043 488.418L523.779 484.516H518.604L514.723 476.001L512.136 484.516L508.902 479.904L505.021 492.321L502.434 492.676L499.523 496.224L497.26 492.676L495.643 485.58L490.145 489.483L487.557 485.935L483.677 492.676L480.443 501.545L476.238 491.611L473.974 492.676L466.86 485.225L464.272 489.838L460.715 487.354L458.774 497.998L454.233 484.161" stroke="#FA2256" stroke-width="1.4" stroke-linecap="round"/>
<g clip-path="url(#clip1_736_241894)">
<path d="M78.3479 492.791C78.3479 508.179 65.8746 520.652 50.4872 520.652C35.1003 520.652 22.6265 508.179 22.6265 492.791C22.6265 477.404 35.1003 464.931 50.4872 464.931C65.8746 464.931 78.3479 477.404 78.3479 492.791Z" fill="#1BA27A"/>
<path d="M63.5624 478.98H37.1812V485.349H47.1873V494.711H53.5563V485.349H63.5624V478.98Z" fill="white"/>
<path d="M50.433 495.706C42.1556 495.706 35.4448 494.396 35.4448 492.779C35.4448 491.164 42.1554 489.853 50.433 489.853C58.7105 489.853 65.421 491.164 65.421 492.779C65.421 494.396 58.7105 495.706 50.433 495.706ZM67.2623 493.267C67.2623 491.183 59.7277 489.494 50.433 489.494C41.1387 489.494 33.6035 491.183 33.6035 493.267C33.6035 495.102 39.4462 496.631 47.1884 496.97V510.409H53.5568V496.976C61.3586 496.647 67.2623 495.112 67.2623 493.267Z" fill="white"/>
</g>
<path d="M298.97 498.401C297.846 498.401 296.892 498.218 296.108 497.853C295.324 497.474 294.723 496.944 294.305 496.265C293.9 495.572 293.698 494.762 293.698 493.835H295.462C295.462 494.279 295.566 494.73 295.775 495.187C295.997 495.644 296.363 496.03 296.873 496.343C297.382 496.644 298.082 496.794 298.97 496.794C300.146 496.794 301.015 496.546 301.577 496.049C302.152 495.553 302.439 494.984 302.439 494.344C302.439 493.717 302.184 493.194 301.675 492.776C301.165 492.358 300.427 492.103 299.46 492.012L298.166 491.894C296.912 491.777 295.912 491.398 295.168 490.757C294.423 490.117 294.05 489.202 294.05 488.013C294.05 487.19 294.246 486.491 294.638 485.916C295.044 485.328 295.605 484.877 296.324 484.564C297.056 484.25 297.912 484.093 298.892 484.093C299.872 484.093 300.714 484.27 301.42 484.623C302.139 484.962 302.694 485.465 303.086 486.132C303.478 486.785 303.674 487.576 303.674 488.503H301.91C301.91 488.033 301.806 487.589 301.596 487.171C301.387 486.739 301.061 486.387 300.616 486.112C300.185 485.838 299.61 485.701 298.892 485.701C298.251 485.701 297.703 485.805 297.245 486.014C296.801 486.21 296.455 486.485 296.206 486.837C295.971 487.19 295.854 487.582 295.854 488.013C295.854 488.575 296.056 489.065 296.461 489.483C296.866 489.888 297.487 490.13 298.323 490.209L299.617 490.326C301.015 490.457 302.132 490.868 302.968 491.561C303.818 492.24 304.242 493.168 304.242 494.344C304.242 495.154 304.027 495.866 303.596 496.481C303.164 497.082 302.557 497.552 301.773 497.892C300.989 498.232 300.055 498.401 298.97 498.401ZM298.127 500.93V498.068H299.813V500.93H298.127ZM298.049 485.054V482.192H299.734V485.054H298.049ZM309.384 498.401V485.034L310.247 485.701H306.209V484.093H311.266V498.401H309.384ZM320.457 498.793C319.412 498.793 318.536 498.61 317.831 498.245C317.138 497.879 316.583 497.382 316.165 496.755C315.759 496.115 315.465 495.383 315.283 494.56C315.113 493.737 315.028 492.874 315.028 491.973V491.032C315.028 488.771 315.59 487.033 316.713 485.818C317.837 484.59 319.464 483.976 321.594 483.976C322.103 483.976 322.535 483.989 322.887 484.015C323.24 484.041 323.626 484.08 324.044 484.133V485.74C323.613 485.688 323.214 485.648 322.848 485.622C322.482 485.596 322.038 485.583 321.515 485.583C320.326 485.583 319.385 485.805 318.693 486.249C318 486.694 317.504 487.334 317.203 488.17C316.903 488.993 316.753 489.993 316.753 491.169V492.051L316.282 493.795C316.295 492.763 316.491 491.907 316.87 491.228C317.262 490.548 317.791 490.039 318.458 489.699C319.137 489.359 319.915 489.189 320.79 489.189C321.809 489.189 322.672 489.398 323.377 489.817C324.083 490.222 324.612 490.784 324.965 491.502C325.331 492.221 325.514 493.038 325.514 493.952C325.514 494.88 325.324 495.71 324.945 496.441C324.566 497.173 323.998 497.748 323.24 498.166C322.495 498.584 321.568 498.793 320.457 498.793ZM320.457 497.147C321.176 497.147 321.777 497.01 322.26 496.735C322.744 496.461 323.103 496.089 323.338 495.618C323.586 495.135 323.711 494.579 323.711 493.952C323.711 493.325 323.593 492.77 323.358 492.286C323.123 491.803 322.77 491.43 322.299 491.169C321.842 490.895 321.274 490.757 320.594 490.757C319.928 490.757 319.327 490.882 318.791 491.13C318.268 491.378 317.857 491.744 317.556 492.227C317.256 492.698 317.105 493.279 317.105 493.972C317.105 494.547 317.223 495.076 317.458 495.559C317.693 496.043 318.059 496.428 318.556 496.716C319.052 497.003 319.686 497.147 320.457 497.147ZM332.73 498.754C331.632 498.754 330.705 498.532 329.947 498.088C329.189 497.63 328.614 497.036 328.222 496.304C327.83 495.572 327.634 494.795 327.634 493.972H329.476C329.476 494.573 329.607 495.109 329.868 495.579C330.143 496.049 330.522 496.422 331.005 496.696C331.489 496.971 332.064 497.108 332.73 497.108C333.383 497.108 333.952 496.977 334.435 496.716C334.932 496.441 335.317 496.069 335.592 495.599C335.866 495.115 336.003 494.573 336.003 493.972C336.003 493.371 335.866 492.828 335.592 492.345C335.33 491.862 334.951 491.476 334.455 491.189C333.971 490.901 333.396 490.757 332.73 490.757C332.247 490.757 331.757 490.842 331.26 491.012C330.763 491.169 330.365 491.398 330.064 491.698H328.34L329.065 484.093H336.572V485.701H330.162L330.633 485.054L330.084 490.601L329.574 490.424C329.953 490.045 330.411 489.745 330.946 489.523C331.495 489.3 332.116 489.189 332.808 489.189C333.906 489.189 334.827 489.418 335.572 489.875C336.317 490.32 336.879 490.901 337.258 491.62C337.65 492.325 337.846 493.064 337.846 493.835V494.109C337.846 494.88 337.65 495.625 337.258 496.343C336.866 497.049 336.284 497.63 335.513 498.088C334.755 498.532 333.828 498.754 332.73 498.754ZM340.767 501.479L339.258 500.91L341.081 495.853L342.629 496.441L340.767 501.479ZM350.111 498.754C349.091 498.754 348.183 498.571 347.386 498.205C346.602 497.84 345.982 497.33 345.524 496.677C345.08 496.023 344.858 495.265 344.858 494.403C344.858 493.828 344.969 493.312 345.191 492.855C345.413 492.384 345.72 491.979 346.112 491.639C346.504 491.3 346.948 491.038 347.445 490.855V490.659C347.053 490.49 346.694 490.261 346.367 489.973C346.053 489.686 345.799 489.346 345.603 488.954C345.42 488.562 345.328 488.118 345.328 487.621C345.328 486.798 345.544 486.099 345.975 485.524C346.419 484.949 347.001 484.512 347.719 484.211C348.451 483.897 349.248 483.741 350.111 483.741C350.986 483.741 351.783 483.897 352.502 484.211C353.234 484.512 353.815 484.949 354.246 485.524C354.677 486.099 354.893 486.798 354.893 487.621C354.893 488.118 354.802 488.562 354.619 488.954C354.436 489.346 354.181 489.686 353.854 489.973C353.541 490.261 353.181 490.49 352.776 490.659V490.855C353.286 491.038 353.737 491.306 354.129 491.659C354.521 491.999 354.828 492.404 355.05 492.874C355.272 493.332 355.383 493.841 355.383 494.403C355.383 495.265 355.154 496.023 354.697 496.677C354.253 497.33 353.632 497.84 352.835 498.205C352.051 498.571 351.143 498.754 350.111 498.754ZM350.111 497.147C350.829 497.147 351.443 497.036 351.953 496.814C352.463 496.579 352.855 496.252 353.129 495.834C353.403 495.403 353.541 494.9 353.541 494.325C353.541 493.75 353.403 493.253 353.129 492.835C352.868 492.417 352.482 492.097 351.973 491.875C351.463 491.639 350.842 491.522 350.111 491.522C349.392 491.522 348.778 491.639 348.268 491.875C347.759 492.097 347.367 492.417 347.092 492.835C346.831 493.253 346.7 493.75 346.7 494.325C346.7 494.9 346.831 495.403 347.092 495.834C347.367 496.252 347.759 496.579 348.268 496.814C348.778 497.036 349.392 497.147 350.111 497.147ZM350.111 490.032C350.999 490.032 351.711 489.843 352.247 489.464C352.783 489.072 353.051 488.477 353.051 487.68C353.051 486.87 352.776 486.282 352.227 485.916C351.692 485.537 350.986 485.348 350.111 485.348C349.235 485.348 348.523 485.537 347.974 485.916C347.438 486.295 347.171 486.883 347.171 487.68C347.171 488.477 347.438 489.072 347.974 489.464C348.523 489.843 349.235 490.032 350.111 490.032Z" fill="#0E0637"/>
<path fill-rule="evenodd" clip-rule="evenodd" d="M373.799 501.761C376.175 501.761 378.454 500.817 380.135 499.136C381.815 497.456 382.759 495.177 382.759 492.801C382.759 490.424 381.815 488.145 380.135 486.465C378.454 484.785 376.175 483.841 373.799 483.841C371.423 483.841 369.144 484.785 367.463 486.465C365.783 488.145 364.839 490.424 364.839 492.801C364.839 495.177 365.783 497.456 367.463 499.136C369.144 500.817 371.423 501.761 373.799 501.761ZM374.919 489.441C374.919 489.144 374.801 488.859 374.591 488.649C374.381 488.439 374.096 488.321 373.799 488.321C373.502 488.321 373.217 488.439 373.007 488.649C372.797 488.859 372.679 489.144 372.679 489.441V493.457L371.231 492.009C371.019 491.805 370.737 491.692 370.443 491.695C370.149 491.697 369.868 491.815 369.661 492.023C369.453 492.23 369.335 492.511 369.333 492.805C369.33 493.099 369.443 493.381 369.647 493.593L373.007 496.953C373.217 497.163 373.502 497.281 373.799 497.281C374.096 497.281 374.381 497.163 374.591 496.953L377.951 493.593C378.155 493.381 378.268 493.099 378.265 492.805C378.263 492.511 378.145 492.23 377.937 492.023C377.729 491.815 377.448 491.697 377.155 491.695C376.861 491.692 376.578 491.805 376.367 492.009L374.919 493.457V489.441Z" fill="#FB3766"/>
<path d="M109.648 501.005C108.17 501.005 106.923 500.721 105.907 500.154C104.907 499.571 104.145 498.765 103.623 497.734C103.115 496.689 102.861 495.479 102.861 494.106V484.25H105.056V494.374C105.056 495.285 105.228 496.092 105.571 496.794C105.93 497.48 106.453 498.018 107.139 498.406C107.826 498.795 108.663 498.989 109.648 498.989C110.634 498.989 111.463 498.802 112.135 498.429C112.822 498.04 113.337 497.503 113.68 496.816C114.039 496.114 114.218 495.3 114.218 494.374V484.25H116.413V494.106C116.413 495.479 116.159 496.689 115.651 497.734C115.144 498.765 114.39 499.571 113.389 500.154C112.389 500.721 111.142 501.005 109.648 501.005ZM126.27 501.005C124.912 501.005 123.754 500.781 122.798 500.333C121.843 499.885 121.111 499.265 120.603 498.474C120.096 497.682 119.842 496.786 119.842 495.786H122.037C122.037 496.278 122.164 496.771 122.418 497.264C122.686 497.757 123.127 498.167 123.739 498.496C124.366 498.824 125.21 498.989 126.27 498.989C127.256 498.989 128.062 498.847 128.69 498.563C129.317 498.264 129.78 497.884 130.078 497.421C130.377 496.943 130.526 496.428 130.526 495.875C130.526 495.203 130.235 494.651 129.653 494.218C129.07 493.77 128.219 493.493 127.099 493.389L125.285 493.232C123.836 493.112 122.679 492.664 121.813 491.888C120.947 491.111 120.514 490.088 120.514 488.819C120.514 487.819 120.753 486.945 121.23 486.198C121.723 485.452 122.403 484.869 123.269 484.451C124.135 484.018 125.143 483.802 126.293 483.802C127.428 483.802 128.428 484.011 129.294 484.429C130.161 484.847 130.833 485.437 131.31 486.198C131.803 486.945 132.05 487.841 132.05 488.886H129.854C129.854 488.364 129.728 487.871 129.474 487.408C129.235 486.945 128.854 486.564 128.331 486.266C127.809 485.967 127.129 485.818 126.293 485.818C125.486 485.818 124.814 485.959 124.277 486.243C123.754 486.527 123.358 486.9 123.09 487.363C122.836 487.811 122.709 488.296 122.709 488.819C122.709 489.416 122.94 489.947 123.403 490.41C123.866 490.872 124.553 491.141 125.464 491.216L127.278 491.373C128.398 491.462 129.362 491.701 130.168 492.09C130.989 492.463 131.617 492.971 132.05 493.613C132.498 494.24 132.722 494.994 132.722 495.875C132.722 496.876 132.453 497.764 131.915 498.541C131.378 499.317 130.624 499.922 129.653 500.355C128.682 500.788 127.555 501.005 126.27 501.005ZM138.265 500.691V498.675H142.341C143.327 498.675 144.201 498.518 144.962 498.205C145.739 497.876 146.396 497.428 146.933 496.861C147.486 496.293 147.904 495.629 148.188 494.867C148.472 494.106 148.613 493.284 148.613 492.403C148.613 491.477 148.472 490.641 148.188 489.894C147.904 489.133 147.486 488.476 146.933 487.923C146.396 487.356 145.739 486.923 144.962 486.624C144.201 486.325 143.327 486.176 142.341 486.176H138.265V484.16H142.117C143.596 484.16 144.88 484.391 145.97 484.854C147.06 485.302 147.964 485.915 148.681 486.691C149.412 487.453 149.957 488.311 150.316 489.267C150.674 490.208 150.853 491.171 150.853 492.157V492.65C150.853 493.605 150.674 494.561 150.316 495.517C149.957 496.472 149.412 497.339 148.681 498.115C147.964 498.892 147.06 499.519 145.97 499.997C144.88 500.46 143.596 500.691 142.117 500.691H138.265ZM136.517 500.691V484.16H138.713V500.691H136.517ZM157.026 500.602V485.773H159.221V500.602H157.026ZM152.053 486.221V484.25H164.194V486.221H152.053Z" fill="#9C9CAB"/>
<rect x="180.525" y="474.775" width="88.2746" height="35.787" rx="6.36213" fill="#E7E3FC"/>
<rect x="168" y="336.001" width="515.2" height="89.6" rx="16.8" fill="white"/>
<path d="M496.37 390.601C495.246 390.601 494.292 390.418 493.508 390.052C492.724 389.673 492.123 389.144 491.705 388.464C491.3 387.772 491.098 386.962 491.098 386.034H492.862C492.862 386.478 492.966 386.929 493.175 387.386C493.397 387.844 493.763 388.229 494.273 388.543C494.782 388.843 495.481 388.993 496.37 388.993C497.546 388.993 498.415 388.745 498.977 388.249C499.552 387.752 499.839 387.184 499.839 386.543C499.839 385.916 499.584 385.394 499.075 384.975C498.565 384.557 497.827 384.302 496.86 384.211L495.566 384.093C494.312 383.976 493.312 383.597 492.568 382.957C491.823 382.316 491.45 381.402 491.45 380.213C491.45 379.389 491.646 378.69 492.038 378.115C492.443 377.527 493.005 377.077 493.724 376.763C494.456 376.449 495.312 376.293 496.292 376.293C497.272 376.293 498.114 376.469 498.82 376.822C499.539 377.162 500.094 377.665 500.486 378.331C500.878 378.984 501.074 379.775 501.074 380.703H499.31C499.31 380.232 499.205 379.788 498.996 379.37C498.787 378.939 498.461 378.586 498.016 378.311C497.585 378.037 497.01 377.9 496.292 377.9C495.651 377.9 495.103 378.004 494.645 378.213C494.201 378.409 493.855 378.684 493.606 379.037C493.371 379.389 493.254 379.781 493.254 380.213C493.254 380.774 493.456 381.264 493.861 381.683C494.266 382.088 494.887 382.329 495.723 382.408L497.017 382.525C498.415 382.656 499.532 383.068 500.368 383.76C501.218 384.44 501.642 385.367 501.642 386.543C501.642 387.354 501.427 388.066 500.996 388.68C500.564 389.281 499.957 389.751 499.173 390.091C498.389 390.431 497.455 390.601 496.37 390.601ZM495.527 393.129V390.267H497.213V393.129H495.527ZM495.449 377.253V374.391H497.134V377.253H495.449ZM506.784 390.601V377.233L507.647 377.9H503.609V376.293H508.666V390.601H506.784ZM517.857 390.993C516.811 390.993 515.936 390.81 515.23 390.444C514.538 390.078 513.983 389.581 513.564 388.954C513.159 388.314 512.865 387.582 512.682 386.759C512.513 385.936 512.428 385.073 512.428 384.172V383.231C512.428 380.97 512.989 379.233 514.113 378.017C515.237 376.789 516.864 376.175 518.994 376.175C519.503 376.175 519.934 376.188 520.287 376.214C520.64 376.24 521.025 376.28 521.444 376.332V377.939C521.012 377.887 520.614 377.848 520.248 377.821C519.882 377.795 519.438 377.782 518.915 377.782C517.726 377.782 516.785 378.004 516.093 378.449C515.4 378.893 514.904 379.533 514.603 380.369C514.303 381.193 514.152 382.192 514.152 383.368V384.25L513.682 385.995C513.695 384.962 513.891 384.106 514.27 383.427C514.662 382.748 515.191 382.238 515.858 381.898C516.537 381.558 517.315 381.389 518.19 381.389C519.209 381.389 520.072 381.598 520.777 382.016C521.483 382.421 522.012 382.983 522.365 383.701C522.731 384.42 522.914 385.237 522.914 386.151C522.914 387.079 522.724 387.909 522.345 388.641C521.966 389.372 521.398 389.947 520.64 390.365C519.895 390.784 518.967 390.993 517.857 390.993ZM517.857 389.346C518.575 389.346 519.177 389.209 519.66 388.935C520.143 388.66 520.503 388.288 520.738 387.817C520.986 387.334 521.11 386.779 521.11 386.151C521.11 385.524 520.993 384.969 520.758 384.485C520.522 384.002 520.17 383.63 519.699 383.368C519.242 383.094 518.673 382.957 517.994 382.957C517.328 382.957 516.727 383.081 516.191 383.329C515.668 383.577 515.257 383.943 514.956 384.427C514.655 384.897 514.505 385.478 514.505 386.171C514.505 386.746 514.623 387.275 514.858 387.759C515.093 388.242 515.459 388.628 515.956 388.915C516.452 389.202 517.086 389.346 517.857 389.346ZM530.13 390.953C529.032 390.953 528.105 390.731 527.347 390.287C526.589 389.83 526.014 389.235 525.622 388.503C525.23 387.772 525.034 386.994 525.034 386.171H526.876C526.876 386.772 527.007 387.308 527.268 387.778C527.543 388.249 527.922 388.621 528.405 388.895C528.889 389.17 529.464 389.307 530.13 389.307C530.783 389.307 531.352 389.176 531.835 388.915C532.332 388.641 532.717 388.268 532.992 387.798C533.266 387.314 533.403 386.772 533.403 386.171C533.403 385.57 533.266 385.028 532.992 384.544C532.73 384.061 532.351 383.675 531.855 383.388C531.371 383.1 530.796 382.957 530.13 382.957C529.646 382.957 529.156 383.042 528.66 383.211C528.163 383.368 527.765 383.597 527.464 383.897H525.74L526.465 376.293H533.972V377.9H527.562L528.033 377.253L527.484 382.8L526.974 382.623C527.353 382.244 527.811 381.944 528.346 381.722C528.895 381.5 529.516 381.389 530.208 381.389C531.306 381.389 532.227 381.617 532.972 382.075C533.717 382.519 534.279 383.1 534.658 383.819C535.05 384.525 535.246 385.263 535.246 386.034V386.308C535.246 387.079 535.05 387.824 534.658 388.543C534.266 389.248 533.684 389.83 532.913 390.287C532.155 390.731 531.228 390.953 530.13 390.953ZM538.167 393.678L536.658 393.109L538.48 388.053L540.029 388.641L538.167 393.678ZM547.511 390.953C546.491 390.953 545.583 390.77 544.786 390.405C544.002 390.039 543.381 389.529 542.924 388.876C542.48 388.222 542.258 387.465 542.258 386.602C542.258 386.027 542.369 385.511 542.591 385.054C542.813 384.583 543.12 384.178 543.512 383.839C543.904 383.499 544.348 383.238 544.845 383.055V382.859C544.453 382.689 544.094 382.46 543.767 382.173C543.453 381.885 543.199 381.545 543.003 381.153C542.82 380.761 542.728 380.317 542.728 379.821C542.728 378.997 542.944 378.298 543.375 377.723C543.819 377.148 544.401 376.711 545.119 376.41C545.851 376.097 546.648 375.94 547.511 375.94C548.386 375.94 549.183 376.097 549.902 376.41C550.633 376.711 551.215 377.148 551.646 377.723C552.077 378.298 552.293 378.997 552.293 379.821C552.293 380.317 552.201 380.761 552.019 381.153C551.836 381.545 551.581 381.885 551.254 382.173C550.941 382.46 550.581 382.689 550.176 382.859V383.055C550.686 383.238 551.137 383.505 551.529 383.858C551.921 384.198 552.228 384.603 552.45 385.073C552.672 385.531 552.783 386.04 552.783 386.602C552.783 387.465 552.554 388.222 552.097 388.876C551.653 389.529 551.032 390.039 550.235 390.405C549.451 390.77 548.543 390.953 547.511 390.953ZM547.511 389.346C548.229 389.346 548.843 389.235 549.353 389.013C549.863 388.778 550.255 388.451 550.529 388.033C550.803 387.602 550.941 387.099 550.941 386.524C550.941 385.949 550.803 385.452 550.529 385.034C550.268 384.616 549.882 384.296 549.373 384.074C548.863 383.839 548.242 383.721 547.511 383.721C546.792 383.721 546.178 383.839 545.668 384.074C545.159 384.296 544.767 384.616 544.492 385.034C544.231 385.452 544.1 385.949 544.1 386.524C544.1 387.099 544.231 387.602 544.492 388.033C544.767 388.451 545.159 388.778 545.668 389.013C546.178 389.235 546.792 389.346 547.511 389.346ZM547.511 382.231C548.399 382.231 549.111 382.042 549.647 381.663C550.183 381.271 550.451 380.676 550.451 379.879C550.451 379.069 550.176 378.481 549.627 378.115C549.092 377.736 548.386 377.547 547.511 377.547C546.635 377.547 545.923 377.736 545.374 378.115C544.838 378.494 544.571 379.082 544.571 379.879C544.571 380.676 544.838 381.271 545.374 381.663C545.923 382.042 546.635 382.231 547.511 382.231Z" fill="#0E0637"/>
<g clip-path="url(#clip2_736_241894)">
<path d="M218.399 408.8C233.863 408.8 246.399 396.264 246.399 380.8C246.399 365.336 233.863 352.8 218.399 352.8C202.935 352.8 190.399 365.336 190.399 380.8C190.399 396.264 202.935 408.8 218.399 408.8Z" fill="#767DFF"/>
<path fill-rule="evenodd" clip-rule="evenodd" d="M214.496 364.176H222.301C222.571 364.176 222.837 364.248 223.07 364.384C223.304 364.521 223.497 364.717 223.629 364.953L235.715 386.511C235.842 386.738 235.909 386.994 235.909 387.255C235.909 387.515 235.842 387.771 235.715 387.999L231.847 394.897C231.715 395.133 231.523 395.329 231.29 395.466C231.056 395.603 230.791 395.675 230.521 395.676H206.276C206.006 395.676 205.74 395.604 205.506 395.467C205.273 395.33 205.08 395.133 204.948 394.897L201.082 387.999C200.955 387.771 200.888 387.515 200.888 387.255C200.888 386.994 200.955 386.738 201.082 386.511L213.168 364.953C213.3 364.717 213.493 364.521 213.726 364.384C213.96 364.248 214.226 364.176 214.496 364.176ZM218.398 372.753L210.256 387.255H226.541L218.398 372.753Z" fill="white"/>
</g>
<path d="M269.427 388.601L275.319 372.249H279.037L285.107 388.601H282.845L277.357 373.682L278.432 374.22H275.789L276.931 373.682L271.623 388.601H269.427ZM272.944 383.717L273.683 381.746H280.739L281.479 383.717H272.944ZM294.794 389.004C293.3 389.004 292.024 388.742 290.963 388.22C289.918 387.697 289.074 387.018 288.432 386.181C287.79 385.345 287.32 384.442 287.021 383.471C286.722 382.485 286.573 381.537 286.573 380.626V380.133C286.573 379.148 286.722 378.162 287.021 377.177C287.335 376.191 287.812 375.295 288.455 374.489C289.097 373.682 289.933 373.033 290.963 372.54C291.994 372.047 293.226 371.801 294.659 371.801C296.123 371.801 297.377 372.054 298.423 372.562C299.468 373.07 300.297 373.779 300.909 374.69C301.521 375.601 301.895 376.676 302.029 377.916H299.789C299.669 376.99 299.371 376.228 298.893 375.631C298.415 375.019 297.81 374.563 297.079 374.265C296.362 373.966 295.555 373.817 294.659 373.817C293.689 373.817 292.837 373.988 292.106 374.332C291.374 374.66 290.762 375.131 290.269 375.743C289.791 376.34 289.425 377.035 289.171 377.826C288.932 378.618 288.813 379.476 288.813 380.402C288.813 381.283 288.932 382.12 289.171 382.911C289.425 383.702 289.799 384.404 290.291 385.017C290.799 385.629 291.426 386.114 292.173 386.473C292.92 386.816 293.793 386.988 294.794 386.988C296.197 386.988 297.377 386.637 298.333 385.935C299.289 385.233 299.871 384.218 300.08 382.889H302.32C302.171 384.009 301.79 385.032 301.178 385.957C300.58 386.883 299.744 387.622 298.669 388.175C297.609 388.728 296.317 389.004 294.794 389.004ZM305.611 388.601V372.249H309.195L317.506 386.629H318.222L317.774 387.033V372.249H319.88V388.601H316.251L307.941 374.22H307.224L307.672 373.817V388.601H305.611Z" fill="#9C9CAB"/>
<rect x="333.217" y="362.643" width="129.628" height="35.787" rx="6.36213" fill="#E7E3FC"/>
<rect y="112.001" width="725.2" height="89.6" rx="16.8" fill="white"/>
<path d="M495.695 170.057L493.967 168.663V172.2C493.967 172.973 494.594 173.6 495.367 173.6H584.828C585.601 173.6 586.228 172.973 586.228 172.2V157.349L584.823 161.43C584.723 161.718 584.533 161.966 584.28 162.136L583.44 162.701C582.658 163.227 581.589 162.845 581.318 161.942L579.671 156.46C579.493 155.868 578.948 155.463 578.33 155.463H577.944C577.314 155.463 576.761 155.042 576.594 154.435L575.905 151.934C575.673 151.091 574.563 150.904 574.067 151.624C573.875 151.902 573.558 152.069 573.22 152.069H569.368C568.988 152.069 568.624 151.914 568.36 151.64L568.021 151.289C567.335 150.577 566.148 150.781 565.739 151.681L564.739 153.88C564.2 155.066 562.476 154.937 562.119 153.684L560.178 146.877C560.093 146.575 559.908 146.311 559.655 146.127L557.426 144.509C557.109 144.279 556.711 144.193 556.327 144.27L554.179 144.703C553.588 144.822 552.986 144.55 552.687 144.026L551.587 142.103C551.052 141.168 549.705 141.162 549.162 142.093L547.459 145.012C547.106 145.619 546.222 145.596 545.9 144.972C545.563 144.321 544.628 144.332 544.308 144.991L543.382 146.897C542.846 147.999 541.252 147.929 540.815 146.783L539.656 143.744C539.183 142.506 537.415 142.556 537.013 143.819L535.421 148.83C535.236 149.411 534.696 149.806 534.086 149.806H533.935C533.334 149.806 532.8 150.19 532.608 150.76L528.959 161.628C528.905 161.791 528.82 161.942 528.711 162.074L524.899 166.687C524.363 167.336 523.379 167.369 522.802 166.757L522.033 165.943C521.647 165.534 521.054 165.396 520.527 165.592L518.117 166.489C517.64 166.667 517.297 167.09 517.221 167.593L516.9 169.734C516.797 170.419 516.208 170.926 515.515 170.926H514.045C513.575 170.926 513.136 170.69 512.877 170.298L510.663 166.95C510.125 166.135 508.939 166.108 508.364 166.897L505.864 170.326C505.349 171.031 504.322 171.099 503.719 170.467L501.289 167.918C500.71 167.311 499.731 167.346 499.196 167.992L497.653 169.859C497.165 170.45 496.292 170.538 495.695 170.057Z" fill="url(#paint2_linear_736_241894)"/>
<path d="M493.967 168.663L496.772 170.926L500.201 166.777L504.876 171.68L509.551 165.269L513.292 170.926H516.72L517.344 166.777L521.396 165.269L523.889 167.909L528.877 161.874L532.929 149.806H535.11L538.227 140L541.968 149.806L545.085 143.394L546.643 146.411L550.383 140L553.189 144.903L556.929 144.149L560.046 146.411L563.163 157.349L566.591 149.806L568.773 152.069H573.76L575.319 149.806L576.877 155.463H579.371L581.864 163.76L584.67 161.874L585.679 157.28" stroke="#11CABE" stroke-width="1.4" stroke-linecap="round"/>
<path fill-rule="evenodd" clip-rule="evenodd" d="M417.2 165.76C419.577 165.76 421.856 164.816 423.536 163.136C425.216 161.455 426.16 159.176 426.16 156.8C426.16 154.424 425.216 152.144 423.536 150.464C421.856 148.784 419.577 147.84 417.2 147.84C414.824 147.84 412.545 148.784 410.865 150.464C409.184 152.144 408.24 154.424 408.24 156.8C408.24 159.176 409.184 161.455 410.865 163.136C412.545 164.816 414.824 165.76 417.2 165.76ZM421.352 156.008L417.992 152.648C417.782 152.438 417.497 152.32 417.2 152.32C416.903 152.32 416.618 152.438 416.408 152.648L413.048 156.008C412.844 156.219 412.731 156.502 412.734 156.796C412.737 157.089 412.854 157.37 413.062 157.578C413.27 157.786 413.551 157.903 413.844 157.906C414.138 157.909 414.421 157.796 414.632 157.592L416.08 156.144V160.16C416.08 160.457 416.198 160.742 416.408 160.952C416.618 161.162 416.903 161.28 417.2 161.28C417.497 161.28 417.782 161.162 417.992 160.952C418.202 160.742 418.32 160.457 418.32 160.16V156.144L419.768 157.592C419.98 157.796 420.263 157.909 420.556 157.906C420.85 157.903 421.131 157.786 421.338 157.578C421.546 157.37 421.664 157.089 421.666 156.796C421.669 156.502 421.556 156.219 421.352 156.008Z" fill="#11CABE"/>
<path d="M315.77 162.4C314.646 162.4 313.692 162.217 312.908 161.852C312.124 161.473 311.523 160.943 311.105 160.264C310.7 159.571 310.498 158.761 310.498 157.834H312.262C312.262 158.278 312.366 158.729 312.575 159.186C312.797 159.643 313.163 160.029 313.673 160.342C314.182 160.643 314.881 160.793 315.77 160.793C316.946 160.793 317.815 160.545 318.377 160.048C318.952 159.552 319.239 158.983 319.239 158.343C319.239 157.716 318.984 157.193 318.475 156.775C317.965 156.357 317.227 156.102 316.26 156.011L314.966 155.893C313.712 155.776 312.712 155.397 311.968 154.756C311.223 154.116 310.85 153.201 310.85 152.012C310.85 151.189 311.046 150.49 311.438 149.915C311.843 149.327 312.405 148.876 313.124 148.563C313.856 148.249 314.712 148.092 315.692 148.092C316.672 148.092 317.514 148.269 318.22 148.622C318.939 148.961 319.494 149.464 319.886 150.131C320.278 150.784 320.474 151.575 320.474 152.502H318.71C318.71 152.032 318.605 151.588 318.396 151.17C318.187 150.738 317.861 150.386 317.416 150.111C316.985 149.837 316.41 149.7 315.692 149.7C315.051 149.7 314.502 149.804 314.045 150.013C313.601 150.209 313.255 150.484 313.006 150.836C312.771 151.189 312.654 151.581 312.654 152.012C312.654 152.574 312.856 153.064 313.261 153.482C313.666 153.887 314.287 154.129 315.123 154.208L316.417 154.325C317.815 154.456 318.932 154.867 319.768 155.56C320.618 156.239 321.042 157.167 321.042 158.343C321.042 159.153 320.827 159.865 320.396 160.48C319.964 161.081 319.357 161.551 318.573 161.891C317.789 162.231 316.854 162.4 315.77 162.4ZM314.927 164.929V162.067H316.613V164.929H314.927ZM314.849 149.053V146.191H316.534V149.053H314.849ZM323.675 162.4V160.048C323.675 159.473 323.754 158.983 323.911 158.578C324.081 158.173 324.368 157.807 324.773 157.481C325.178 157.141 325.727 156.814 326.419 156.501L329.105 155.266C329.758 154.965 330.274 154.58 330.653 154.11C331.032 153.626 331.221 153.005 331.221 152.248C331.221 151.333 330.967 150.621 330.457 150.111C329.947 149.602 329.229 149.347 328.301 149.347C327.386 149.347 326.668 149.602 326.145 150.111C325.622 150.621 325.361 151.333 325.361 152.248H323.519C323.519 151.424 323.689 150.667 324.028 149.974C324.381 149.281 324.91 148.733 325.616 148.328C326.321 147.909 327.217 147.7 328.301 147.7C329.386 147.7 330.274 147.909 330.967 148.328C331.672 148.733 332.195 149.268 332.535 149.935C332.887 150.601 333.064 151.326 333.064 152.11V152.385C333.064 153.417 332.763 154.286 332.162 154.992C331.574 155.697 330.777 156.279 329.771 156.736L327.086 157.971C326.485 158.245 326.08 158.52 325.871 158.794C325.662 159.068 325.557 159.434 325.557 159.892V161.695L325.047 160.793H333.24V162.4H323.675ZM336.321 165.478L334.811 164.909L336.634 159.852L338.183 160.44L336.321 165.478ZM340.921 162.4V160.048C340.921 159.473 341 158.983 341.156 158.578C341.326 158.173 341.614 157.807 342.019 157.481C342.424 157.141 342.973 156.814 343.665 156.501L346.35 155.266C347.004 154.965 347.52 154.58 347.899 154.11C348.278 153.626 348.467 153.005 348.467 152.248C348.467 151.333 348.212 150.621 347.703 150.111C347.193 149.602 346.474 149.347 345.547 149.347C344.632 149.347 343.913 149.602 343.391 150.111C342.868 150.621 342.607 151.333 342.607 152.248H340.764C340.764 151.424 340.934 150.667 341.274 149.974C341.627 149.281 342.156 148.733 342.862 148.328C343.567 147.909 344.462 147.7 345.547 147.7C346.631 147.7 347.52 147.909 348.212 148.328C348.918 148.733 349.441 149.268 349.78 149.935C350.133 150.601 350.31 151.326 350.31 152.11V152.385C350.31 153.417 350.009 154.286 349.408 154.992C348.82 155.697 348.023 156.279 347.017 156.736L344.332 157.971C343.73 158.245 343.325 158.52 343.116 158.794C342.907 159.068 342.803 159.434 342.803 159.892V161.695L342.293 160.793H350.486V162.4H340.921ZM357.408 162.753C356.336 162.753 355.428 162.544 354.684 162.126C353.939 161.708 353.37 161.153 352.978 160.46C352.599 159.767 352.41 159.016 352.41 158.206H354.252C354.252 159.095 354.533 159.8 355.095 160.323C355.67 160.845 356.441 161.107 357.408 161.107C358.048 161.107 358.604 160.989 359.074 160.754C359.544 160.519 359.91 160.186 360.172 159.754C360.433 159.31 360.564 158.794 360.564 158.206C360.564 157.317 360.276 156.599 359.701 156.05C359.139 155.501 358.381 155.227 357.428 155.227C357.022 155.227 356.67 155.279 356.369 155.384C356.082 155.475 355.827 155.593 355.605 155.736L354.664 154.051L360.132 150.052L359.936 149.7H352.978V148.092H361.7V150.699L357.173 153.992L355.801 154.051C356.023 153.972 356.265 153.907 356.526 153.855C356.8 153.803 357.12 153.776 357.486 153.776C358.532 153.776 359.42 153.972 360.152 154.364C360.884 154.756 361.439 155.279 361.818 155.932C362.21 156.586 362.406 157.298 362.406 158.069V158.343C362.406 159.101 362.21 159.82 361.818 160.499C361.439 161.166 360.877 161.708 360.132 162.126C359.401 162.544 358.492 162.753 357.408 162.753ZM370.427 162.792C369.382 162.792 368.507 162.609 367.801 162.244C367.108 161.878 366.553 161.381 366.135 160.754C365.73 160.114 365.436 159.382 365.253 158.559C365.083 157.736 364.998 156.873 364.998 155.972V155.031C364.998 152.77 365.56 151.032 366.684 149.817C367.808 148.589 369.434 147.975 371.564 147.975C372.074 147.975 372.505 147.988 372.858 148.014C373.211 148.04 373.596 148.079 374.014 148.132V149.739C373.583 149.687 373.184 149.647 372.819 149.621C372.453 149.595 372.008 149.582 371.486 149.582C370.297 149.582 369.356 149.804 368.663 150.248C367.971 150.693 367.474 151.333 367.174 152.169C366.873 152.992 366.723 153.992 366.723 155.168V156.05L366.253 157.794C366.266 156.762 366.462 155.906 366.841 155.227C367.233 154.547 367.762 154.038 368.428 153.698C369.108 153.358 369.885 153.188 370.761 153.188C371.78 153.188 372.642 153.397 373.348 153.816C374.053 154.221 374.583 154.783 374.935 155.501C375.301 156.22 375.484 157.037 375.484 157.951C375.484 158.879 375.295 159.709 374.916 160.44C374.537 161.172 373.968 161.747 373.211 162.165C372.466 162.583 371.538 162.792 370.427 162.792ZM370.427 161.146C371.146 161.146 371.747 161.009 372.231 160.734C372.714 160.46 373.073 160.088 373.309 159.617C373.557 159.134 373.681 158.578 373.681 157.951C373.681 157.324 373.563 156.769 373.328 156.285C373.093 155.802 372.74 155.429 372.27 155.168C371.812 154.894 371.244 154.756 370.565 154.756C369.898 154.756 369.297 154.881 368.761 155.129C368.239 155.377 367.827 155.743 367.527 156.226C367.226 156.697 367.076 157.278 367.076 157.971C367.076 158.546 367.193 159.075 367.429 159.558C367.664 160.042 368.03 160.427 368.526 160.715C369.023 161.002 369.656 161.146 370.427 161.146ZM377.938 162.4V160.009H380.211V162.4H377.938ZM383.126 162.4V160.048C383.126 159.473 383.205 158.983 383.361 158.578C383.531 158.173 383.819 157.807 384.224 157.481C384.629 157.141 385.178 156.814 385.87 156.501L388.555 155.266C389.209 154.965 389.725 154.58 390.104 154.11C390.483 153.626 390.672 153.005 390.672 152.248C390.672 151.333 390.417 150.621 389.908 150.111C389.398 149.602 388.68 149.347 387.752 149.347C386.837 149.347 386.118 149.602 385.596 150.111C385.073 150.621 384.812 151.333 384.812 152.248H382.969C382.969 151.424 383.139 150.667 383.479 149.974C383.832 149.281 384.361 148.733 385.067 148.328C385.772 147.909 386.667 147.7 387.752 147.7C388.836 147.7 389.725 147.909 390.417 148.328C391.123 148.733 391.646 149.268 391.985 149.935C392.338 150.601 392.515 151.326 392.515 152.11V152.385C392.515 153.417 392.214 154.286 391.613 154.992C391.025 155.697 390.228 156.279 389.222 156.736L386.537 157.971C385.936 158.245 385.53 158.52 385.321 158.794C385.112 159.068 385.008 159.434 385.008 159.892V161.695L384.498 160.793H392.691V162.4H383.126ZM397.751 162.4V149.033L398.613 149.7H394.576V148.092H399.633V162.4H397.751Z" fill="#0E0637"/>
<path d="M103.175 164.601V148.249H105.37V164.601H103.175ZM104.922 164.601V162.629H112.851V164.601H104.922ZM104.922 157.276V155.305H112.157V157.276H104.922ZM104.922 150.22V148.249H112.627V150.22H104.922ZM119.899 164.601V149.772H122.094V164.601H119.899ZM114.926 150.22V148.249H127.067V150.22H114.926ZM141.196 164.601V148.249H143.391V164.601H141.196ZM130.13 164.601V148.249H132.325V164.601H130.13ZM131.877 157.455V155.484H141.644V157.455H131.877Z" fill="#9C9CAB"/>
<g clip-path="url(#clip3_736_241894)">
<circle cx="50.3994" cy="156.801" r="28" fill="#5235E8"/>
<path d="M51.0206 135.859V135.879C51.0405 135.979 51.0405 136.098 51.0405 136.217V150.55C51.0206 150.63 50.961 150.65 50.9013 150.69C50.4839 150.888 50.0863 151.067 49.6688 151.246C49.0923 151.505 48.4959 151.783 47.9194 152.041L45.832 152.996C45.2555 153.254 44.679 153.513 44.1224 153.771C43.4465 154.089 42.7507 154.387 42.0748 154.705C41.4983 154.964 40.9218 155.242 40.3254 155.501C39.8483 155.719 39.3712 155.918 38.9139 156.137C38.8742 156.157 38.8344 156.176 38.7946 156.176C38.7748 156.176 38.7748 156.176 38.7549 156.157L39.2916 155.262C40.3254 153.552 41.3392 151.863 42.373 150.153C43.4664 148.324 44.5796 146.495 45.673 144.666C46.6868 142.976 47.7206 141.287 48.7344 139.597C49.47 138.364 50.2254 137.132 50.961 135.899C50.9808 135.859 51.0007 135.84 51.0007 135.8H51.0206C51.0007 135.82 51.0206 135.84 51.0206 135.859Z" fill="#F3F3F3"/>
<path d="M63.2253 156.157L63.2452 156.177L60.3229 157.906L51.1385 163.334C51.0988 163.353 51.059 163.373 51.0391 163.393C50.9795 163.393 50.9795 163.334 50.9795 163.314V163.135V150.849C50.9795 150.789 50.9795 150.71 50.9994 150.65C51.0193 150.571 51.0789 150.591 51.1385 150.611C51.397 150.73 51.6753 150.849 51.9337 150.968C52.709 151.326 53.4843 151.684 54.2596 152.022C54.9355 152.32 55.5916 152.638 56.2675 152.936C56.9434 153.235 57.6193 153.553 58.2952 153.851C58.8717 154.109 59.4681 154.388 60.0446 154.646C60.6211 154.905 61.2175 155.183 61.794 155.441C62.2512 155.64 62.7085 155.859 63.1657 156.058C63.1657 156.117 63.1856 156.137 63.2253 156.157Z" fill="#8A8DA7"/>
<path d="M51.0196 175.738C51.0196 175.758 50.9997 175.778 50.9997 175.798H50.9799C50.9799 175.758 50.9401 175.738 50.9202 175.698C49.6877 173.969 48.4552 172.219 47.2226 170.49C45.9702 168.72 44.6979 166.931 43.4455 165.162C42.2328 163.452 41.0003 161.723 39.7876 160.013C39.4696 159.556 39.1515 159.119 38.8334 158.661C38.8135 158.622 38.7937 158.602 38.7539 158.542C38.8135 158.542 38.8533 158.582 38.8732 158.602C40.6027 159.615 42.3124 160.629 44.0419 161.643C46.0298 162.816 47.9979 163.989 49.9859 165.162L50.9997 165.758C51.0395 165.798 51.0395 165.838 51.0395 165.878V175.46C51.0395 175.559 51.0395 175.658 51.0196 175.738Z" fill="#F3F3F3"/>
<path d="M38.7334 156.196V156.176C39.3695 155.898 39.9858 155.6 40.622 155.321C41.437 154.943 42.2521 154.586 43.0672 154.208C43.6834 153.93 44.3196 153.631 44.9358 153.353C45.8503 152.936 46.7449 152.538 47.6593 152.121C48.2756 151.842 48.8919 151.564 49.528 151.266C49.9654 151.067 50.4226 150.868 50.86 150.669C50.8997 150.649 50.9594 150.63 50.9792 150.59C50.9991 150.59 50.9991 150.61 50.9792 150.63V163.253C50.9792 163.313 50.9594 163.372 50.9991 163.412C50.9594 163.472 50.9196 163.412 50.8997 163.392C50.7208 163.293 50.5419 163.194 50.363 163.074C46.5262 160.808 42.6696 158.522 38.8328 156.256C38.8129 156.236 38.7732 156.216 38.7334 156.196Z" fill="#C5C8D9"/>
<path d="M63.1862 158.542H63.2061C63.2061 158.582 63.1663 158.622 63.1464 158.661C59.4886 163.81 55.8307 168.979 52.1729 174.128C51.7952 174.664 51.3976 175.201 51.0199 175.738C51 175.718 51 175.698 51 175.678V175.559V165.917V165.738C51.8349 165.241 52.65 164.764 53.485 164.267C56.7055 162.359 59.9259 160.47 63.1266 158.562C63.1464 158.582 63.1663 158.562 63.1862 158.542Z" fill="#C5C8D9"/>
<path d="M50.9997 150.63V150.59V150.471V136.038C50.9997 135.978 50.9798 135.939 51.0196 135.879C55.0552 142.578 59.0907 149.258 63.1064 155.957C63.1462 156.017 63.2058 156.096 63.2257 156.176C62.9474 156.077 62.6889 155.937 62.4305 155.818C62.1124 155.679 61.7745 155.52 61.4564 155.381C61.2576 155.281 61.0389 155.202 60.8401 155.102C60.5022 154.943 60.1642 154.804 59.8263 154.645C59.6275 154.566 59.4287 154.466 59.2299 154.367L57.9178 153.771C57.6992 153.671 57.4805 153.572 57.2419 153.472L56.2877 153.055C56.0889 152.975 55.8901 152.876 55.6913 152.777L54.3793 152.18C54.1606 152.081 53.9419 151.981 53.7033 151.882L52.7491 151.465C52.5304 151.365 52.3317 151.266 52.113 151.166C51.7353 150.987 51.3576 150.808 50.96 150.649C51.0196 150.63 50.9997 150.63 50.9997 150.63Z" fill="#C5C8D9"/>
</g>
<rect x="165.416" y="138.377" width="129.628" height="35.787" rx="6.36213" fill="#E7E3FC"/>
<rect x="235.2" y="224.001" width="569.8" height="89.6" rx="16.8" fill="white"/>
<g clip-path="url(#clip4_736_241894)">
<path d="M285.599 240.8C301.063 240.8 313.599 253.336 313.599 268.8C313.599 284.264 301.063 296.8 285.599 296.8C270.135 296.8 257.599 284.264 257.599 268.8C257.599 253.336 270.135 240.8 285.599 240.8Z" fill="#1A82FF"/>
<path d="M295.835 280.33C293.411 283.299 290.002 284.784 285.608 284.784C281.214 284.784 277.804 283.299 275.379 280.33C272.953 277.358 271.741 273.518 271.742 268.808C271.743 264.098 272.955 260.258 275.377 257.288C277.801 254.317 281.211 252.831 285.606 252.832C290.001 252.833 293.41 254.318 295.833 257.288C298.257 260.258 299.47 264.098 299.47 268.808C299.471 273.518 298.259 277.359 295.835 280.33Z" fill="white"/>
<path d="M285.557 278.574C286.714 278.574 287.697 278.259 288.507 277.628C289.318 276.998 289.904 276.143 290.267 275.063C290.63 273.983 290.886 272.948 291.035 271.958C291.185 270.967 291.259 269.917 291.258 268.807C291.258 267.441 291.175 266.218 291.01 265.139L281.043 275.524C281.965 277.556 283.47 278.573 285.557 278.574Z" fill="#1A82FF"/>
<path d="M285.656 259.041C284.499 259.041 283.516 259.356 282.705 259.987C281.895 260.617 281.309 261.472 280.945 262.551C280.581 263.631 280.325 264.666 280.177 265.657C280.028 266.647 279.954 267.697 279.955 268.807C279.955 269.538 279.979 270.228 280.025 270.878L289.531 260.974C288.608 259.686 287.316 259.042 285.656 259.041Z" fill="#1A82FF"/>
<path d="M272.517 278.707L271.293 277.533L280.575 267.858L281.799 269.032L272.517 278.707ZM290.005 268.611L288.781 267.437L298.063 257.762L299.287 258.936L290.005 268.611Z" fill="#1A82FF"/>
</g>
<rect x="400.019" y="250.511" width="129.628" height="35.787" rx="6.36213" fill="#E7E3FC"/>
<path d="M345.699 277.004C344.236 277.004 342.974 276.742 341.914 276.22C340.853 275.697 339.98 275.01 339.293 274.159C338.606 273.308 338.091 272.397 337.747 271.426C337.419 270.456 337.254 269.522 337.254 268.626V268.133C337.254 267.163 337.426 266.185 337.77 265.199C338.113 264.213 338.636 263.317 339.338 262.511C340.039 261.69 340.913 261.033 341.958 260.54C343.019 260.047 344.266 259.801 345.699 259.801C347.133 259.801 348.372 260.047 349.418 260.54C350.478 261.033 351.359 261.69 352.061 262.511C352.763 263.317 353.285 264.213 353.629 265.199C353.972 266.185 354.144 267.163 354.144 268.133V268.626C354.144 269.522 353.972 270.456 353.629 271.426C353.3 272.397 352.793 273.308 352.106 274.159C351.419 275.01 350.545 275.697 349.485 276.22C348.425 276.742 347.163 277.004 345.699 277.004ZM345.699 274.988C346.655 274.988 347.514 274.809 348.275 274.45C349.052 274.092 349.709 273.606 350.246 272.994C350.784 272.367 351.195 271.665 351.478 270.889C351.762 270.097 351.904 269.268 351.904 268.402C351.904 267.491 351.762 266.64 351.478 265.849C351.195 265.057 350.784 264.363 350.246 263.765C349.709 263.153 349.052 262.675 348.275 262.332C347.514 261.988 346.655 261.817 345.699 261.817C344.743 261.817 343.877 261.988 343.101 262.332C342.339 262.675 341.69 263.153 341.152 263.765C340.614 264.363 340.204 265.057 339.92 265.849C339.636 266.64 339.494 267.491 339.494 268.402C339.494 269.268 339.636 270.097 339.92 270.889C340.204 271.665 340.614 272.367 341.152 272.994C341.69 273.606 342.339 274.092 343.101 274.45C343.877 274.809 344.743 274.988 345.699 274.988ZM365.17 277.004C363.901 277.004 362.751 276.795 361.72 276.377C360.69 275.958 359.802 275.369 359.055 274.607C358.323 273.845 357.756 272.949 357.352 271.919C356.949 270.874 356.748 269.739 356.748 268.514V268.021C356.748 266.976 356.927 265.968 357.285 264.997C357.659 264.012 358.189 263.131 358.876 262.354C359.578 261.563 360.429 260.943 361.429 260.495C362.43 260.032 363.557 259.801 364.812 259.801C366.171 259.801 367.38 260.062 368.44 260.585C369.501 261.092 370.352 261.809 370.994 262.735C371.636 263.646 372.01 264.706 372.114 265.916H369.874C369.77 265.005 369.471 264.251 368.978 263.653C368.485 263.041 367.873 262.586 367.141 262.287C366.424 261.973 365.648 261.817 364.812 261.817C363.96 261.817 363.176 261.973 362.46 262.287C361.743 262.586 361.123 263.019 360.6 263.586C360.093 264.154 359.697 264.833 359.413 265.625C359.13 266.416 358.988 267.305 358.988 268.29C358.988 269.41 359.137 270.396 359.436 271.247C359.749 272.083 360.182 272.785 360.735 273.353C361.287 273.905 361.937 274.323 362.684 274.607C363.445 274.891 364.274 275.033 365.17 275.033C366.439 275.033 367.552 274.779 368.508 274.271C369.478 273.748 370.21 273.076 370.703 272.255L369.896 274.921V270.06H371.957V273.957C371.226 274.913 370.285 275.66 369.135 276.197C367.985 276.735 366.663 277.004 365.17 277.004ZM364.588 270.508V268.671H373.346V270.508H364.588ZM376.595 276.601V260.249H380.179L388.49 274.629H389.206L388.758 275.033V260.249H390.864V276.601H387.235L378.925 262.22H378.208L378.656 261.817V276.601H376.595Z" fill="#9C9CAB"/>
<defs>
<linearGradient id="paint0_linear_736_241894" x1="83.9844" y1="16.7864" x2="83.9844" y2="72.7942" gradientUnits="userSpaceOnUse">
<stop stop-color="#F9AA4B"/>
<stop offset="1" stop-color="#F7931A"/>
</linearGradient>
<linearGradient id="paint1_linear_736_241894" x1="506.8" y1="476.001" x2="506.8" y2="509.601" gradientUnits="userSpaceOnUse">
<stop offset="0.104167" stop-color="#FCE2ED"/>
<stop offset="1" stop-color="#FCE2ED" stop-opacity="0"/>
</linearGradient>
<linearGradient id="paint2_linear_736_241894" x1="540.097" y1="140" x2="540.097" y2="173.6" gradientUnits="userSpaceOnUse">
<stop offset="0.260417" stop-color="#BCFBFF" stop-opacity="0.4"/>
<stop offset="1" stop-color="#BCFBFF" stop-opacity="0"/>
</linearGradient>
<clipPath id="clip0_736_241894">
<rect width="56" height="56" fill="white" transform="translate(56 16.7998)"/>
</clipPath>
<clipPath id="clip1_736_241894">
<rect width="56" height="56" fill="white" transform="translate(22.3999 464.802)"/>
</clipPath>
<clipPath id="clip2_736_241894">
<rect width="56" height="56" fill="white" transform="translate(190.4 352.801)"/>
</clipPath>
<clipPath id="clip3_736_241894">
<rect width="56" height="56" fill="white" transform="translate(22.3999 128.801)"/>
</clipPath>
<clipPath id="clip4_736_241894">
<rect width="56" height="56" fill="white" transform="translate(257.6 240.801)"/>
</clipPath>
</defs>
</svg>
