<svg width="256" height="72" viewBox="0 0 256 72" fill="none" xmlns="http://www.w3.org/2000/svg">
<path d="M94.0387 42.0262C94.0387 42.812 93.8764 43.4159 93.5519 43.8377C93.2358 44.2597 92.7075 44.4706 91.967 44.4706C91.2681 44.4706 90.7731 44.2597 90.4819 43.8377C90.199 43.4159 90.0576 42.812 90.0576 42.0262V28.9108C90.0576 28.125 90.199 27.5211 90.4819 27.0992C90.7731 26.6774 91.2681 26.4664 91.967 26.4664C92.7075 26.4664 93.2358 26.6774 93.5519 27.0992C93.8764 27.5211 94.0387 28.125 94.0387 28.9108V42.0262Z" fill="#9C9CAB"/>
<path d="M95.2471 38.217C95.2471 37.34 95.3885 36.5129 95.6714 35.7353C95.9626 34.9494 96.3952 34.2629 96.9693 33.6756C97.5517 33.0882 98.2755 32.6209 99.1408 32.2735C100.014 31.926 101.038 31.7523 102.211 31.7523C103.334 31.7523 104.328 31.9136 105.193 32.2362C106.059 32.5588 106.787 33.0097 107.377 33.5887C107.968 34.1594 108.417 34.8419 108.725 35.636C109.033 36.4218 109.187 37.2821 109.187 38.217C109.187 39.0855 109.041 39.9085 108.75 40.6861C108.459 41.4554 108.022 42.1338 107.44 42.7211C106.857 43.3001 106.129 43.7633 105.256 44.1108C104.382 44.4499 103.367 44.6195 102.211 44.6195C101.071 44.6195 100.064 44.4582 99.1906 44.1356C98.3254 43.8047 97.5975 43.3538 97.0068 42.783C96.4244 42.2041 95.9834 41.5258 95.6839 40.7482C95.3926 39.9623 95.2471 39.1186 95.2471 38.217ZM99.4029 38.217C99.4029 38.7629 99.4527 39.284 99.5526 39.7803C99.6524 40.2683 99.8105 40.6985 100.027 41.0708C100.251 41.443 100.543 41.7408 100.9 41.9641C101.258 42.1792 101.695 42.2868 102.211 42.2868C102.685 42.2868 103.097 42.1876 103.446 41.9889C103.804 41.7905 104.095 41.5133 104.32 41.1576C104.553 40.802 104.728 40.3759 104.844 39.8796C104.96 39.375 105.019 38.8208 105.019 38.217C105.019 37.6709 104.965 37.1539 104.857 36.6659C104.757 36.1696 104.594 35.7353 104.37 35.363C104.145 34.9826 103.854 34.6847 103.496 34.4697C103.147 34.2464 102.718 34.1347 102.211 34.1347C101.703 34.1347 101.271 34.2421 100.913 34.4573C100.555 34.6723 100.264 34.966 100.039 35.3382C99.8147 35.7105 99.6524 36.1447 99.5526 36.6411C99.4527 37.1374 99.4029 37.6627 99.4029 38.217Z" fill="#9C9CAB"/>
<path d="M119.431 42.0759C119.206 42.4894 118.931 42.841 118.607 43.1305C118.291 43.42 117.937 43.66 117.546 43.8502C117.164 44.0321 116.752 44.1686 116.311 44.2597C115.878 44.3424 115.433 44.3838 114.975 44.3838C114.21 44.3838 113.511 44.2473 112.879 43.9742C112.247 43.7013 111.702 43.3083 111.244 42.7955C110.795 42.2744 110.445 41.6374 110.196 40.8847C109.946 40.1319 109.821 39.2716 109.821 38.3038C109.821 37.3938 109.938 36.5418 110.171 35.7477C110.404 34.9536 110.741 34.2629 111.182 33.6756C111.631 33.0882 112.18 32.625 112.829 32.2859C113.478 31.9467 114.218 31.7771 115.05 31.7771C115.999 31.7771 116.839 31.9591 117.571 32.323C118.312 32.6871 118.948 33.2826 119.481 34.1098V33.7873C119.481 33.1917 119.643 32.745 119.967 32.4471C120.3 32.1411 120.758 31.988 121.34 31.988C121.69 31.988 121.985 32.0459 122.226 32.1618C122.467 32.2693 122.659 32.4347 122.8 32.6581C122.942 32.8732 123.041 33.142 123.1 33.4647C123.166 33.7789 123.2 34.1388 123.2 34.5441V42.8576C123.2 43.8667 123.071 44.7683 122.813 45.5625C122.563 46.3566 122.172 47.0267 121.64 47.5726C121.107 48.1186 120.425 48.5321 119.593 48.8135C118.761 49.1029 117.771 49.2477 116.623 49.2477C115.816 49.2477 115.1 49.2105 114.476 49.136C113.861 49.0699 113.328 48.9665 112.879 48.8259C112.43 48.6686 112.089 48.495 111.856 48.3047C111.631 48.1144 111.519 47.8662 111.519 47.5602C111.519 47.3865 111.544 47.2211 111.593 47.0639C111.643 46.9067 111.718 46.7661 111.818 46.642C111.926 46.5262 112.064 46.4311 112.23 46.3566C112.405 46.2905 112.617 46.2574 112.866 46.2574C113.133 46.2574 113.399 46.2739 113.665 46.307C113.94 46.3401 114.223 46.3732 114.514 46.4062C114.813 46.4476 115.125 46.4848 115.45 46.5179C115.782 46.551 116.14 46.5676 116.523 46.5676C116.981 46.5676 117.388 46.5221 117.746 46.4311C118.104 46.3401 118.407 46.1788 118.657 45.9471C118.907 45.7156 119.098 45.4053 119.231 45.0165C119.364 44.636 119.431 44.148 119.431 43.5524V42.0759ZM119.431 38.217C119.431 37.613 119.385 37.063 119.293 36.5667C119.21 36.0703 119.065 35.6485 118.857 35.301C118.649 34.9453 118.37 34.6723 118.021 34.4821C117.671 34.2835 117.234 34.1843 116.71 34.1843C116.194 34.1843 115.766 34.2877 115.425 34.4945C115.092 34.7013 114.826 34.9867 114.626 35.3506C114.426 35.7147 114.285 36.1406 114.202 36.6287C114.127 37.1167 114.089 37.6379 114.089 38.1921C114.089 39.4577 114.314 40.4091 114.763 41.0459C115.213 41.6829 115.866 42.0014 116.723 42.0014C117.122 41.9932 117.484 41.9186 117.808 41.778C118.141 41.6291 118.428 41.4017 118.669 41.0956C118.911 40.7895 119.098 40.4007 119.231 39.9292C119.364 39.4577 119.431 38.887 119.431 38.217Z" fill="#9C9CAB"/>
<path d="M124.346 38.217C124.346 37.34 124.487 36.5129 124.77 35.7353C125.061 34.9494 125.494 34.2629 126.068 33.6756C126.65 33.0882 127.374 32.6209 128.239 32.2735C129.113 31.926 130.136 31.7523 131.309 31.7523C132.432 31.7523 133.427 31.9136 134.292 32.2362C135.157 32.5588 135.885 33.0097 136.476 33.5887C137.067 34.1594 137.516 34.8419 137.824 35.636C138.132 36.4218 138.285 37.2821 138.285 38.217C138.285 39.0855 138.14 39.9085 137.849 40.6861C137.557 41.4554 137.121 42.1338 136.538 42.7211C135.956 43.3001 135.228 43.7633 134.354 44.1108C133.481 44.4499 132.466 44.6195 131.309 44.6195C130.17 44.6195 129.163 44.4582 128.289 44.1356C127.424 43.8047 126.696 43.3538 126.105 42.783C125.523 42.2041 125.082 41.5258 124.782 40.7482C124.491 39.9623 124.346 39.1186 124.346 38.217ZM128.501 38.217C128.501 38.7629 128.551 39.284 128.651 39.7803C128.751 40.2683 128.909 40.6985 129.125 41.0708C129.35 41.443 129.641 41.7408 129.999 41.9641C130.357 42.1792 130.794 42.2868 131.309 42.2868C131.784 42.2868 132.195 42.1876 132.545 41.9889C132.903 41.7905 133.194 41.5133 133.418 41.1576C133.651 40.802 133.826 40.3759 133.943 39.8796C134.059 39.375 134.117 38.8208 134.117 38.217C134.117 37.6709 134.063 37.1539 133.955 36.6659C133.855 36.1696 133.693 35.7353 133.468 35.363C133.244 34.9826 132.953 34.6847 132.595 34.4697C132.245 34.2464 131.817 34.1347 131.309 34.1347C130.802 34.1347 130.369 34.2421 130.011 34.4573C129.654 34.6723 129.363 34.966 129.138 35.3382C128.913 35.7105 128.751 36.1447 128.651 36.6411C128.551 37.1374 128.501 37.6627 128.501 38.217Z" fill="#9C9CAB"/>
<path d="M143.638 27.5708C143.638 27.8437 143.575 28.0878 143.451 28.3028C143.326 28.5096 143.164 28.6833 142.964 28.824C142.764 28.9646 142.531 29.0721 142.265 29.1465C142.007 29.2127 141.741 29.2459 141.466 29.2459C141.175 29.2459 140.896 29.2086 140.63 29.1342C140.372 29.0597 140.144 28.9523 139.944 28.8115C139.744 28.6627 139.586 28.4848 139.47 28.278C139.353 28.0712 139.295 27.8355 139.295 27.5708C139.295 27.3309 139.349 27.1117 139.457 26.9131C139.574 26.7063 139.728 26.5285 139.919 26.3796C140.11 26.2307 140.339 26.1149 140.605 26.0322C140.872 25.9494 141.163 25.9081 141.479 25.9081C141.753 25.9081 142.02 25.9453 142.278 26.0198C142.544 26.0942 142.777 26.2017 142.976 26.3424C143.176 26.483 143.334 26.6567 143.451 26.8635C143.575 27.0703 143.638 27.3061 143.638 27.5708ZM143.451 42.0262C143.451 42.812 143.288 43.4159 142.964 43.8377C142.648 44.2597 142.119 44.4706 141.379 44.4706C140.68 44.4706 140.185 44.2597 139.894 43.8377C139.611 43.4159 139.47 42.812 139.47 42.0262V34.4324C139.47 33.6465 139.611 33.0427 139.894 32.6209C140.185 32.199 140.68 31.988 141.379 31.988C142.119 31.988 142.648 32.199 142.964 32.6209C143.288 33.0427 143.451 33.6465 143.451 34.4324V42.0262Z" fill="#9C9CAB"/>
<path d="M149.189 38.1921C149.189 38.7464 149.23 39.2633 149.314 39.7432C149.405 40.2229 149.555 40.6447 149.763 41.0088C149.979 41.3644 150.262 41.6457 150.611 41.8524C150.969 42.0593 151.41 42.1627 151.934 42.1627C152.417 42.1627 152.82 42.0635 153.145 41.8649C153.477 41.6581 153.744 41.3768 153.944 41.0212C154.143 40.6571 154.285 40.2312 154.368 39.7432C154.459 39.255 154.505 38.7256 154.505 38.1549C154.505 37.6999 154.472 37.2367 154.405 36.7652C154.339 36.2854 154.214 35.8511 154.031 35.4623C153.848 35.0735 153.595 34.755 153.27 34.5069C152.945 34.2588 152.521 34.1347 151.997 34.1347C151.473 34.1347 151.027 34.2174 150.661 34.3829C150.304 34.5483 150.012 34.8006 149.788 35.1397C149.571 35.4789 149.418 35.9049 149.326 36.4177C149.235 36.9223 149.189 37.5138 149.189 38.1921ZM149.176 34.4324C149.384 33.9941 149.651 33.6094 149.975 33.2785C150.299 32.9476 150.657 32.6705 151.048 32.4471C151.439 32.2238 151.847 32.0583 152.271 31.9509C152.704 31.835 153.132 31.7771 153.556 31.7771C154.322 31.7771 155.013 31.9467 155.629 32.2859C156.244 32.625 156.768 33.0882 157.2 33.6756C157.641 34.2546 157.979 34.9412 158.212 35.7353C158.444 36.5212 158.561 37.3649 158.561 38.2665C158.561 39.2013 158.436 40.0574 158.187 40.835C157.946 41.6126 157.6 42.2826 157.15 42.8451C156.71 43.3994 156.177 43.8336 155.553 44.148C154.937 44.4623 154.252 44.6195 153.494 44.6195C152.563 44.6195 151.731 44.4044 150.998 43.9742C150.266 43.5441 149.659 42.9403 149.176 42.1627V46.6296C149.176 47.4154 149.014 48.0193 148.69 48.4412C148.373 48.863 147.845 49.074 147.105 49.074C146.406 49.074 145.911 48.863 145.62 48.4412C145.337 48.0193 145.195 47.4154 145.195 46.6296V34.4324C145.195 33.6466 145.337 33.0427 145.62 32.6209C145.911 32.199 146.406 31.988 147.105 31.988C147.845 31.988 148.373 32.199 148.69 32.6209C149.014 33.0427 149.176 33.6466 149.176 34.4324Z" fill="#9C9CAB"/>
<path d="M162.952 35.3135C162.952 35.636 163.094 35.8883 163.376 36.0703C163.659 36.2441 164.05 36.3888 164.55 36.5046C165.024 36.6121 165.51 36.7156 166.01 36.8148C166.509 36.9141 166.996 37.0299 167.47 37.1623C167.944 37.2863 168.389 37.4352 168.805 37.6089C169.22 37.7826 169.587 38.0018 169.903 38.2665C170.219 38.523 170.469 38.8373 170.652 39.2095C170.835 39.5735 170.926 40.012 170.926 40.5248C170.926 41.17 170.793 41.745 170.527 42.2495C170.261 42.7459 169.883 43.1677 169.392 43.5152C168.909 43.8626 168.331 44.1314 167.657 44.3217C166.983 44.512 166.239 44.6112 165.423 44.6195C164.65 44.6195 163.904 44.5699 163.189 44.4706C162.474 44.3796 161.837 44.2348 161.279 44.0363C160.731 43.8377 160.29 43.5938 159.957 43.3042C159.624 43.0064 159.458 42.659 159.458 42.262C159.458 41.9145 159.57 41.6456 159.795 41.4554C160.019 41.2652 160.306 41.17 160.656 41.17C160.789 41.17 160.947 41.1948 161.13 41.2445C161.313 41.2941 161.512 41.3562 161.729 41.4306C161.945 41.505 162.174 41.5877 162.416 41.6788C162.665 41.7615 162.922 41.8359 163.189 41.9021C163.522 41.9932 163.863 42.0676 164.212 42.1255C164.57 42.1751 164.936 42.1999 165.311 42.1999C165.543 42.1999 165.772 42.1792 165.997 42.1379C166.222 42.0882 166.422 42.0179 166.596 41.927C166.78 41.8277 166.929 41.7036 167.046 41.5547C167.162 41.4058 167.232 41.2238 167.258 41.0088C167.282 40.9591 167.304 40.9094 167.32 40.8598C167.337 40.8102 167.345 40.7523 167.345 40.6861C167.345 40.4545 167.236 40.2477 167.02 40.0657C166.813 39.8838 166.517 39.7389 166.134 39.6314C165.493 39.4826 164.882 39.3461 164.299 39.222C163.718 39.0979 163.177 38.9656 162.677 38.8249C162.187 38.6843 161.737 38.523 161.329 38.341C160.93 38.159 160.589 37.9356 160.306 37.6709C160.032 37.4062 159.815 37.0877 159.657 36.7156C159.507 36.3433 159.433 35.8924 159.433 35.363C159.433 34.7923 159.561 34.2835 159.819 33.8368C160.085 33.3818 160.465 33.0014 160.955 32.6953C161.446 32.3892 162.041 32.1576 162.74 32.0005C163.439 31.835 164.229 31.7523 165.111 31.7523C166.691 31.7523 167.894 31.9426 168.718 32.323C169.55 32.6953 169.966 33.1833 169.966 33.7873C169.966 34.1264 169.853 34.387 169.628 34.5689C169.404 34.7426 169.133 34.8295 168.818 34.8295C168.651 34.8295 168.476 34.8006 168.293 34.7426C168.118 34.6765 167.906 34.6062 167.657 34.5317C167.407 34.449 167.108 34.3787 166.758 34.3208C166.418 34.2546 165.993 34.2215 165.486 34.2215C165.102 34.2215 164.753 34.238 164.437 34.2712C164.129 34.3042 163.863 34.3621 163.638 34.4448C163.422 34.5276 163.251 34.6392 163.127 34.7799C163.01 34.9205 162.952 35.0983 162.952 35.3135Z" fill="#9C9CAB"/>
<path d="M175.991 39.8672C175.991 40.256 176.042 40.5951 176.142 40.8847C176.249 41.1742 176.395 41.4182 176.578 41.6168C176.761 41.807 176.973 41.9518 177.214 42.051C177.464 42.142 177.731 42.1876 178.013 42.1876C178.346 42.1876 178.667 42.1379 178.974 42.0386C179.282 41.9394 179.553 41.7863 179.786 41.5795C180.027 41.3727 180.218 41.1121 180.36 40.7978C180.5 40.4835 180.572 40.1154 180.572 39.6935V34.4324C180.572 33.6466 180.713 33.0427 180.996 32.6209C181.287 32.1991 181.783 31.988 182.481 31.988C183.221 31.988 183.75 32.1991 184.066 32.6209C184.391 33.0427 184.552 33.6466 184.552 34.4324V42.0262C184.552 42.8121 184.391 43.4159 184.066 43.8378C183.75 44.2597 183.221 44.4706 182.481 44.4706C181.783 44.4706 181.287 44.2597 180.996 43.8378C180.713 43.4159 180.572 42.8121 180.572 42.0262C180.397 42.4068 180.168 42.7542 179.885 43.0685C179.61 43.3829 179.286 43.6558 178.912 43.8874C178.545 44.1108 178.138 44.2845 177.689 44.4086C177.248 44.5327 176.769 44.5947 176.253 44.5947C175.696 44.5947 175.16 44.4995 174.643 44.3094C174.136 44.1108 173.687 43.8212 173.296 43.4407C172.905 43.052 172.593 42.5721 172.36 42.0014C172.127 41.4306 172.011 40.7647 172.011 40.0036V34.4324C172.011 33.6466 172.152 33.0427 172.435 32.6209C172.726 32.1991 173.221 31.988 173.92 31.988C174.66 31.988 175.189 32.1991 175.505 32.6209C175.83 33.0427 175.991 33.6466 175.991 34.4324V39.8672Z" fill="#9C9CAB"/>
<path d="M186.359 34.4324C186.359 33.6466 186.501 33.0427 186.784 32.6209C187.075 32.199 187.57 31.988 188.269 31.988C189.01 31.988 189.538 32.199 189.854 32.6209C190.178 33.0427 190.341 33.6466 190.341 34.4324C190.507 34.0354 190.732 33.6756 191.015 33.3529C191.306 33.0221 191.635 32.7408 192 32.5092C192.375 32.2776 192.779 32.0997 193.211 31.9756C193.644 31.8433 194.093 31.7771 194.559 31.7771C194.992 31.7771 195.416 31.835 195.832 31.9509C196.256 32.0583 196.648 32.2362 197.006 32.4844C197.371 32.7242 197.691 33.0303 197.966 33.4026C198.241 33.7748 198.453 34.2215 198.603 34.7427C198.861 34.1885 199.164 33.7211 199.513 33.3406C199.863 32.96 200.242 32.6539 200.649 32.4223C201.057 32.1907 201.481 32.0253 201.922 31.926C202.372 31.8268 202.82 31.7771 203.269 31.7771C203.802 31.7771 204.31 31.8723 204.792 32.0625C205.283 32.2527 205.711 32.5423 206.078 32.9311C206.453 33.3115 206.748 33.7955 206.964 34.3829C207.188 34.9618 207.3 35.6402 207.3 36.4177V42.0262C207.3 42.8121 207.138 43.4159 206.814 43.8377C206.498 44.2597 205.969 44.4706 205.229 44.4706C204.53 44.4706 204.035 44.2597 203.744 43.8377C203.461 43.4159 203.32 42.8121 203.32 42.0262V36.5915C203.32 36.2192 203.269 35.8883 203.17 35.5988C203.07 35.301 202.929 35.0529 202.746 34.8544C202.571 34.6476 202.363 34.4945 202.121 34.3953C201.881 34.2877 201.622 34.2339 201.348 34.2339C201.007 34.2339 200.683 34.2877 200.375 34.3953C200.067 34.5027 199.797 34.6682 199.564 34.8915C199.339 35.1149 199.156 35.4003 199.014 35.7477C198.881 36.0951 198.815 36.5129 198.815 37.0009V42.0262C198.815 42.8121 198.652 43.4159 198.328 43.8377C198.012 44.2597 197.484 44.4706 196.742 44.4706C196.044 44.4706 195.549 44.2597 195.258 43.8377C194.975 43.4159 194.833 42.8121 194.833 42.0262V36.8272C194.833 35.9752 194.654 35.33 194.297 34.8915C193.947 34.4532 193.469 34.2339 192.862 34.2339C192.504 34.2339 192.171 34.2918 191.863 34.4076C191.555 34.5235 191.289 34.693 191.064 34.9164C190.84 35.1397 190.661 35.4168 190.528 35.7477C190.403 36.0786 190.341 36.4591 190.341 36.8892V42.0262C190.341 42.8121 190.178 43.4159 189.854 43.8377C189.538 44.2597 189.01 44.4706 188.269 44.4706C187.57 44.4706 187.075 44.2597 186.784 43.8377C186.501 43.4159 186.359 42.8121 186.359 42.0262V34.4324Z" fill="#9C9CAB"/>
<path d="M64.1045 42.353C60.5756 42.353 57.7148 39.5087 57.7148 36C57.7148 32.4914 60.5756 29.6471 64.1045 29.6471C67.6333 29.6471 70.4941 32.4914 70.4941 36C70.4941 39.5087 67.6333 42.353 64.1045 42.353Z" fill="#9C9CAB"/>
<path d="M51.7256 38.1702C49.874 38.4948 48.6048 40.2732 49.3156 42.004C50.3079 44.4202 51.8911 46.573 53.9435 48.2553C56.8784 50.6606 60.5801 51.9459 64.383 51.8799C68.1859 51.814 71.8403 50.401 74.689 47.8952C76.6811 46.1428 78.1878 43.9363 79.0948 41.4872C79.7444 39.7328 78.4134 37.9995 76.5515 37.7393C74.6897 37.4792 73.0179 38.8267 72.0982 40.4572C71.5998 41.341 70.9526 42.1429 70.1773 42.8249C68.5429 44.2627 66.4461 45.0733 64.2643 45.1112C62.0823 45.149 59.9584 44.4116 58.2745 43.0315C57.4757 42.3768 56.8009 41.5979 56.2716 40.7319C55.2953 39.1342 53.5773 37.8455 51.7256 38.1702Z" fill="#9C9CAB"/>
<path d="M79.9544 37.9848C80.036 37.3346 80.0779 36.6722 80.0779 36C80.0779 27.2284 72.9262 20.1177 64.1039 20.1177C55.2817 20.1177 48.1299 27.2284 48.1299 36C48.1299 36.8627 48.1991 37.7092 48.3322 38.5345C49.0659 37.5359 50.211 36.8229 51.448 36.6061C52.7863 36.3715 54.0026 36.6942 55.031 37.2974C54.9702 36.8737 54.9388 36.4405 54.9388 36C54.9388 30.9673 59.0422 26.8875 64.1039 26.8875C69.1657 26.8875 73.2691 30.9673 73.2691 36C73.2691 36.3319 73.2512 36.6596 73.2165 36.9822C74.2231 36.3434 75.4276 35.9784 76.7735 36.1666C78.017 36.3403 79.1861 37.0127 79.9544 37.9848Z" fill="#9C9CAB"/>
</svg>
