<svg width="256" height="72" viewBox="0 0 256 72" fill="none" xmlns="http://www.w3.org/2000/svg">
<path d="M96 42.1762H106.401V39.344H99.4353V25.9282H96V42.1762Z" fill="#9C9CAB"/>
<path d="M113.448 42.4143C117.145 42.4143 119.446 39.8835 119.446 36.1309C119.446 32.3544 117.145 29.8315 113.448 29.8315C109.751 29.8315 107.45 32.3544 107.45 36.1309C107.45 39.8835 109.751 42.4143 113.448 42.4143ZM113.464 39.7962C111.758 39.7962 110.885 38.2332 110.885 36.107C110.885 33.9808 111.758 32.41 113.464 32.41C115.138 32.41 116.01 33.9808 116.01 36.107C116.01 38.2332 115.138 39.7962 113.464 39.7962Z" fill="#9C9CAB"/>
<path d="M126.463 47C129.946 47 132.421 45.4131 132.421 42.2953V29.9903H129.065V32.0371H128.938C128.486 31.0453 127.494 29.8315 125.455 29.8315C122.782 29.8315 120.521 31.9102 120.521 36.0595C120.521 40.1135 122.718 42.0017 125.463 42.0017C127.407 42.0017 128.494 41.0259 128.938 40.0183H129.081V42.2477C129.081 43.9217 128.01 44.5723 126.542 44.5723C125.051 44.5723 124.297 43.9217 124.019 43.1838L120.893 43.6044C121.298 45.5242 123.178 47 126.463 47ZM126.534 39.4629C124.876 39.4629 123.972 38.146 123.972 36.0436C123.972 33.9729 124.86 32.5211 126.534 32.5211C128.176 32.5211 129.097 33.9094 129.097 36.0436C129.097 38.1935 128.161 39.4629 126.534 39.4629Z" fill="#9C9CAB"/>
<path d="M139.946 42.4143C143.643 42.4143 145.944 39.8835 145.944 36.1309C145.944 32.3544 143.643 29.8315 139.946 29.8315C136.249 29.8315 133.948 32.3544 133.948 36.1309C133.948 39.8835 136.249 42.4143 139.946 42.4143ZM139.962 39.7962C138.256 39.7962 137.384 38.2332 137.384 36.107C137.384 33.9808 138.256 32.41 139.962 32.41C141.636 32.41 142.509 33.9808 142.509 36.107C142.509 38.2332 141.636 39.7962 139.962 39.7962Z" fill="#9C9CAB"/>
<path d="M147.472 42.1763H150.851V29.9903H147.472V42.1763ZM149.17 28.4194C150.177 28.4194 151.002 27.6499 151.002 26.7058C151.002 25.7696 150.177 25 149.17 25C148.17 25 147.345 25.7696 147.345 26.7058C147.345 27.6499 148.17 28.4194 149.17 28.4194Z" fill="#9C9CAB"/>
<path d="M152.889 46.7461H156.268V40.2246H156.371C156.839 41.2401 157.862 42.3747 159.83 42.3747C162.607 42.3747 164.773 40.1771 164.773 36.0991C164.773 31.9102 162.511 29.8315 159.838 29.8315C157.799 29.8315 156.824 31.0453 156.371 32.0371H156.22V29.9903H152.889V46.7461ZM156.196 36.0833C156.196 33.9094 157.116 32.5211 158.759 32.5211C160.434 32.5211 161.322 33.9729 161.322 36.0833C161.322 38.2095 160.417 39.6851 158.759 39.6851C157.133 39.6851 156.196 38.2571 156.196 36.0833Z" fill="#9C9CAB"/>
<path d="M176.496 33.4651C176.194 31.22 174.385 29.8315 171.307 29.8315C168.189 29.8315 166.135 31.2755 166.142 33.6238C166.135 35.4486 167.284 36.6307 169.665 37.1067L171.775 37.5272C172.838 37.7414 173.323 38.1301 173.338 38.741C173.323 39.4629 172.537 39.9787 171.355 39.9787C170.148 39.9787 169.348 39.4629 169.142 38.4713L165.817 38.6458C166.135 40.9783 168.117 42.4143 171.347 42.4143C174.504 42.4143 176.765 40.8037 176.773 38.3999C176.765 36.6387 175.614 35.5835 173.251 35.0995L171.045 34.6551C169.911 34.4092 169.49 34.0205 169.499 33.4334C169.49 32.7036 170.316 32.2275 171.362 32.2275C172.537 32.2275 173.235 32.8701 173.401 33.6555L176.496 33.4651Z" fill="#9C9CAB"/>
<path d="M186.046 36.9877C186.054 38.6221 184.935 39.4789 183.721 39.4789C182.444 39.4789 181.619 38.5824 181.611 37.1463V29.9903H178.231V37.7494C178.238 40.5975 179.905 42.335 182.356 42.335C184.189 42.335 185.506 41.3909 186.054 39.9628H186.18V42.1763H189.425V29.9903H186.046V36.9877Z" fill="#9C9CAB"/>
<path d="M191.458 42.1763H194.838V34.8615C194.838 33.5127 195.695 32.6163 196.821 32.6163C197.932 32.6163 198.678 33.3779 198.678 34.5759V42.1763H201.955V34.7345C201.955 33.4731 202.677 32.6163 203.906 32.6163C204.985 32.6163 205.794 33.2906 205.794 34.6473V42.1763H209.166V33.9808C209.166 31.3389 207.596 29.8315 205.326 29.8315C203.541 29.8315 202.153 30.7439 201.653 32.1402H201.527C201.138 30.728 199.891 29.8315 198.218 29.8315C196.575 29.8315 195.33 30.7043 194.822 32.1402H194.679V29.9903H191.458V42.1763Z" fill="#9C9CAB"/>
<path d="M61.4605 20H69.4701L66.2551 29.5837C60.5964 30.6444 56.2683 36.4843 56.2683 43.5294C56.2683 46.7076 57.1491 49.6405 58.6354 52H48L57.7229 23.0173C58.3342 21.195 59.8144 20 61.4605 20Z" fill="#9C9CAB"/>
<path d="M69.4706 20L67.2111 26.7354L66.5303 20H69.4706Z" fill="#9C9CAB"/>
<path d="M74.5399 20H66.5303L69.7318 29.5433C75.5031 30.4865 79.9491 36.3888 79.9491 43.5294C79.9491 46.7076 79.0683 49.6405 77.582 52H88.0004L78.2776 23.0173C77.6663 21.195 76.186 20 74.5399 20Z" fill="#9C9CAB"/>
<path d="M60.0326 51.0776C58.6639 48.9984 57.8477 46.3775 57.8477 43.5293C57.8477 36.7719 62.4419 31.2941 68.1091 31.2941C73.7763 31.2941 78.3705 36.7719 78.3705 43.5293C78.3705 46.3775 77.5543 48.9984 76.1856 51.0776C73.9386 49.2933 71.1413 48.2352 68.1091 48.2352C65.0769 48.2352 62.2796 49.2933 60.0326 51.0776Z" fill="#9C9CAB"/>
</svg>
