<svg width="256" height="72" viewBox="0 0 256 72" fill="none" xmlns="http://www.w3.org/2000/svg">
<g clip-path="url(#clip0_4846_11903)">
<path d="M110.582 26.2839H107V42.4472H116.916V39.2801H110.582V26.2839Z" fill="#9C9CAB"/>
<path d="M117.259 36.9648C117.259 40.4159 119.574 42.7093 123.069 42.7093C126.542 42.7093 128.857 40.4159 128.857 36.9648C128.857 33.5137 126.542 31.1984 123.069 31.1984C119.574 31.1984 117.259 33.5137 117.259 36.9648ZM120.644 36.9429C120.644 35.3048 121.605 34.2127 123.069 34.2127C124.51 34.2127 125.471 35.3048 125.471 36.9429C125.471 38.603 124.51 39.6951 123.069 39.6951C121.605 39.6951 120.644 38.603 120.644 36.9429Z" fill="#9C9CAB"/>
<path d="M129.398 36.7901C129.398 40.0882 131.539 42.3161 134.575 42.3161C136.038 42.3161 137.305 41.7919 137.938 40.9401V42.4472C137.938 43.9543 136.999 44.959 135.339 44.959C133.854 44.959 132.827 44.2601 132.762 43.0151H129.354C129.66 46.0075 131.976 48.0169 135.143 48.0169C138.878 48.0169 141.237 45.5925 141.237 41.7482V31.5261H138.201L138.026 32.64C137.414 31.7445 136.126 31.1548 134.64 31.1548C131.582 31.1548 129.398 33.4482 129.398 36.7901ZM132.806 36.7027C132.806 35.13 133.854 34.0816 135.186 34.0816C136.737 34.0816 137.873 35.1082 137.873 36.7027C137.873 38.2972 136.759 39.3893 135.208 39.3893C133.876 39.3893 132.806 38.2972 132.806 36.7027Z" fill="#9C9CAB"/>
<path d="M142.217 36.9648C142.217 40.4159 144.532 42.7093 148.027 42.7093C151.5 42.7093 153.815 40.4159 153.815 36.9648C153.815 33.5137 151.5 31.1984 148.027 31.1984C144.532 31.1984 142.217 33.5137 142.217 36.9648ZM145.602 36.9429C145.602 35.3048 146.563 34.2127 148.027 34.2127C149.468 34.2127 150.429 35.3048 150.429 36.9429C150.429 38.603 149.468 39.6951 148.027 39.6951C146.563 39.6951 145.602 38.603 145.602 36.9429Z" fill="#9C9CAB"/>
<path d="M156.715 29.8224C157.763 29.8224 158.615 28.9705 158.615 27.9003C158.615 26.83 157.763 26 156.715 26C155.645 26 154.793 26.83 154.793 27.9003C154.793 28.9705 155.645 29.8224 156.715 29.8224ZM155.011 42.4472H158.397V31.5261H155.011V42.4472Z" fill="#9C9CAB"/>
<path d="M160.368 47.6893H163.688V41.3551C164.321 42.1851 165.763 42.753 167.27 42.753C170.524 42.753 172.49 40.263 172.403 36.8119C172.315 33.2953 170.284 31.1766 167.248 31.1766C165.697 31.1766 164.234 31.8537 163.622 32.8585L163.447 31.5261H160.368V47.6893ZM163.753 36.9866C163.753 35.3485 164.845 34.2564 166.418 34.2564C168.012 34.2564 169.017 35.3703 169.017 36.9866C169.017 38.603 168.012 39.7169 166.418 39.7169C164.845 39.7169 163.753 38.6248 163.753 36.9866Z" fill="#9C9CAB"/>
<path d="M172.761 38.9961C172.848 41.2022 174.596 42.7311 177.348 42.7311C179.991 42.7311 181.826 41.3332 181.826 39.0835C181.826 37.4672 180.865 36.3969 179.073 35.96L177.13 35.4795C176.431 35.3048 175.994 35.13 175.994 34.5621C175.994 33.9942 176.452 33.6229 177.13 33.6229C177.894 33.6229 178.396 34.1253 178.375 34.8679H181.411C181.323 32.5963 179.598 31.1766 177.195 31.1766C174.771 31.1766 172.958 32.6182 172.958 34.8024C172.958 36.2658 173.766 37.4672 175.928 38.0351L177.85 38.5374C178.418 38.6903 178.658 38.9524 178.658 39.3237C178.658 39.8698 178.156 40.2193 177.304 40.2193C176.321 40.2193 175.797 39.7606 175.797 38.9961H172.761Z" fill="#9C9CAB"/>
<path d="M186.974 42.7311C188.307 42.7311 189.639 42.1195 190.316 41.224L190.535 42.4472H193.702V31.5261H190.338V37.2051C190.338 38.8432 189.858 39.7387 188.307 39.7387C187.105 39.7387 186.319 39.1927 186.319 37.1614V31.5261H182.955V38.3845C182.955 40.9838 184.397 42.7311 186.974 42.7311Z" fill="#9C9CAB"/>
<path d="M199.036 42.4472V36.4843C199.036 34.6495 200.019 34.1253 200.98 34.1253C202.05 34.1253 202.749 34.7806 202.749 36.1348V42.4472H206.069V36.4843C206.069 34.6277 207.03 34.1035 207.991 34.1035C209.061 34.1035 209.782 34.7587 209.782 36.1348V42.4472H213.059V35.3048C213.059 32.8148 211.748 31.1548 208.93 31.1548C207.358 31.1548 206.069 31.9192 205.501 33.0987C204.846 31.9192 203.71 31.1548 201.897 31.1548C200.696 31.1548 199.582 31.7008 198.927 32.5745L198.796 31.5261H195.65V42.4472H199.036Z" fill="#9C9CAB"/>
<path d="M43 36C43 27.1634 50.1634 20 59 20H80C88.8366 20 96 27.1634 96 36V52H59C50.1634 52 43 44.8366 43 36Z" fill="#9C9CAB"/>
<path d="M80 26H59C53.4772 26 49 30.4772 49 36C49 41.5228 53.4772 46 59 46H80C85.5228 46 90 41.5228 90 36C90 30.4772 85.5228 26 80 26Z" fill="white"/>
<path d="M59 41C61.7614 41 64 38.7614 64 36C64 33.2386 61.7614 31 59 31C56.2386 31 54 33.2386 54 36C54 38.7614 56.2386 41 59 41Z" fill="#9C9CAB"/>
<path d="M57 35C57.5523 35 58 34.5523 58 34C58 33.4477 57.5523 33 57 33C56.4477 33 56 33.4477 56 34C56 34.5523 56.4477 35 57 35Z" fill="white"/>
<path d="M81 41C83.7614 41 86 38.7614 86 36C86 33.2386 83.7614 31 81 31C78.2386 31 76 33.2386 76 36C76 38.7614 78.2386 41 81 41Z" fill="#9C9CAB"/>
<path d="M79 35C79.5523 35 80 34.5523 80 34C80 33.4477 79.5523 33 79 33C78.4477 33 78 33.4477 78 34C78 34.5523 78.4477 35 79 35Z" fill="white"/>
</g>
<defs>
<clipPath id="clip0_4846_11903">
<rect width="171" height="32" fill="white" transform="translate(43 20)"/>
</clipPath>
</defs>
</svg>
