<svg width="256" height="72" viewBox="0 0 256 72" fill="none" xmlns="http://www.w3.org/2000/svg">
<g clip-path="url(#clip0_4846_11921)">
<path d="M138.659 43.6191H142.381V29.5482H138.659V43.6191ZM138.659 27.3539H142.381V24.0076H138.659V27.3539Z" fill="#9C9CAB"/>
<path d="M144.78 48.2271H148.502V42.0282H148.556C149.35 43.2351 150.636 44.0305 152.606 44.0305C156.219 44.0305 158.682 41.1505 158.682 36.5974C158.682 32.2087 156.301 29.1642 152.579 29.1642C150.664 29.1642 149.35 30.0694 148.447 31.3036H148.365V29.5482H144.78V48.2271ZM151.813 40.9311C149.596 40.9311 148.42 39.2579 148.42 36.7071C148.42 34.1836 149.35 32.1814 151.676 32.1814C153.975 32.1814 154.905 34.0465 154.905 36.7071C154.905 39.3676 153.701 40.9311 151.813 40.9311Z" fill="#9C9CAB"/>
<path d="M166.105 44.0305C169.609 44.0305 172.017 42.3299 172.017 39.5047C172.017 36.2134 169.417 35.5551 167.063 35.0614C165.065 34.6499 163.205 34.5402 163.205 33.3334C163.205 32.3185 164.163 31.7699 165.613 31.7699C167.2 31.7699 168.158 32.3185 168.322 33.8271H171.688C171.415 31.0019 169.362 29.1642 165.668 29.1642C162.466 29.1642 159.948 30.6179 159.948 33.6625C159.948 36.7345 162.411 37.4202 164.929 37.9139C166.844 38.2979 168.623 38.4351 168.623 39.7791C168.623 40.7665 167.693 41.3974 166.051 41.3974C164.381 41.3974 163.232 40.6842 162.986 39.0659H159.538C159.757 42.0556 162.028 44.0305 166.105 44.0305Z" fill="#9C9CAB"/>
<path d="M186.147 43.619V29.5482H182.425V37.667C182.425 39.5322 181.358 40.8487 179.606 40.8487C178.019 40.8487 177.281 39.9436 177.281 38.2979V29.5482H173.586V38.9287C173.586 42.0007 175.337 44.003 178.457 44.003C180.428 44.003 181.522 43.2625 182.48 41.9734H182.562V43.619H186.147Z" fill="#9C9CAB"/>
<path d="M188.554 43.6191H192.276V35.4454C192.276 33.5802 193.288 32.3734 194.794 32.3734C196.162 32.3734 196.955 33.1962 196.955 34.7871V43.6191H200.677V35.4454C200.677 33.5802 201.635 32.3734 203.194 32.3734C204.563 32.3734 205.357 33.1962 205.357 34.7871V43.6191H209.079V34.1562C209.079 31.0842 207.409 29.1642 204.453 29.1642C202.675 29.1642 201.197 30.0967 200.239 31.6327H200.185C199.501 30.1516 198.077 29.1642 196.298 29.1642C194.356 29.1642 192.988 30.1516 192.221 31.4407H192.139V29.5482H188.554V43.6191Z" fill="#9C9CAB"/>
<path d="M41.6582 43.6191H45.3799V24.0076H41.6582V43.6191Z" fill="#9C9CAB"/>
<path d="M54.4795 44.0305C58.8307 44.0305 61.8135 40.7939 61.8135 36.5974C61.8135 32.4007 58.8307 29.1642 54.4795 29.1642C50.1283 29.1642 47.1455 32.4007 47.1455 36.5974C47.1455 40.7939 50.1283 44.0305 54.4795 44.0305ZM54.4795 41.1779C52.1808 41.1779 50.922 39.3402 50.922 36.5974C50.922 33.8545 52.1808 31.9894 54.4795 31.9894C56.7509 31.9894 58.037 33.8545 58.037 36.5974C58.037 39.3402 56.7509 41.1779 54.4795 41.1779Z" fill="#9C9CAB"/>
<path d="M69.7281 48.4191C71.8079 48.4191 73.6141 47.9254 74.7907 46.8282C75.8307 45.8682 76.4601 44.5242 76.4601 42.5494V29.5482H72.8752V31.0294H72.8205C71.9721 29.8499 70.6859 29.1642 68.9345 29.1642C65.377 29.1642 62.8594 31.8522 62.8594 36.0487C62.8594 40.3002 65.9243 42.7687 69.044 42.7687C70.8227 42.7687 71.8901 42.0556 72.711 41.1231H72.7931V42.6591C72.7931 44.5791 71.7805 45.5939 69.6734 45.5939C67.9494 45.5939 67.1557 44.9082 66.8548 44.0305H63.1604C63.5435 46.7734 65.897 48.4191 69.7281 48.4191ZM69.6734 39.7791C67.7578 39.7791 66.499 38.3802 66.499 35.9939C66.499 33.6351 67.7578 32.1539 69.646 32.1539C71.8901 32.1539 72.9847 33.9094 72.9847 35.9665C72.9847 38.0511 72.0269 39.7791 69.6734 39.7791Z" fill="#9C9CAB"/>
<path d="M85.5069 44.0305C89.858 44.0305 92.8409 40.7939 92.8409 36.5974C92.8409 32.4007 89.858 29.1642 85.5069 29.1642C81.1558 29.1642 78.1729 32.4007 78.1729 36.5974C78.1729 40.7939 81.1558 44.0305 85.5069 44.0305ZM85.5069 41.1779C83.2082 41.1779 81.9494 39.3402 81.9494 36.5974C81.9494 33.8545 83.2082 31.9894 85.5069 31.9894C87.7782 31.9894 89.0645 33.8545 89.0645 36.5974C89.0645 39.3402 87.7782 41.1779 85.5069 41.1779Z" fill="#9C9CAB"/>
<path d="M210.431 27.2381C210.431 26.6069 210.941 26.0952 211.571 26.0952H213.852C214.481 26.0952 214.992 26.6069 214.992 27.2381C214.992 27.8693 214.481 28.3809 213.852 28.3809H211.571C210.941 28.3809 210.431 27.8693 210.431 27.2381Z" fill="#9C9CAB"/>
<path fill-rule="evenodd" clip-rule="evenodd" d="M115.412 20C124.228 20 131.375 27.1634 131.375 36C131.375 44.8366 124.228 52 115.412 52C106.595 52 99.4482 44.8366 99.4482 36C99.4482 27.1634 106.595 20 115.412 20ZM114.835 21.1973C113.013 21.4542 111.279 22.9209 109.933 25.3739C109.543 26.0855 109.19 26.8716 108.883 27.7204C110.714 27.2593 112.724 26.9875 114.835 26.9455V21.1973ZM107.534 28.1046C107.916 26.9037 108.383 25.7987 108.922 24.8165C109.589 23.6005 110.381 22.5504 111.274 21.7438C106.422 23.1562 102.597 26.9894 101.188 31.8526C101.993 30.9582 103.04 30.1645 104.254 29.4957C105.234 28.9554 106.336 28.4873 107.534 28.1046ZM107.151 29.4569C106.691 31.2914 106.42 33.3067 106.378 35.4217H100.643C100.899 33.5963 102.362 31.8582 104.81 30.5091C105.52 30.1178 106.304 29.7646 107.151 29.4569ZM107.532 35.4217C107.58 33.1136 107.911 30.9467 108.46 29.0322C110.37 28.4824 112.532 28.1501 114.835 28.1023V30.6006C113.975 32.805 112.223 34.561 110.024 35.4217H107.532ZM106.378 36.5783H100.643C100.899 38.4037 102.362 40.1417 104.81 41.4909C105.52 41.8822 106.304 42.2354 107.151 42.5431C106.691 40.7086 106.42 38.6933 106.378 36.5783ZM108.46 42.9678C107.911 41.0533 107.58 38.8864 107.532 36.5783H110.024C112.223 37.439 113.975 39.195 114.835 41.3994V43.8977C112.532 43.8499 110.37 43.5176 108.46 42.9678ZM107.534 43.8954C106.336 43.5127 105.234 43.0446 104.254 42.5043C103.04 41.8355 101.993 41.0418 101.188 40.1474C102.597 45.0106 106.422 48.8438 111.274 50.2562C110.381 49.4496 109.589 48.3995 108.922 47.1834C108.383 46.2013 107.916 45.0963 107.534 43.8954ZM114.835 50.8027C113.013 50.5458 111.279 49.0791 109.933 46.6261C109.543 45.9146 109.19 45.1284 108.883 44.2797C110.714 44.7406 112.724 45.0125 114.835 45.0545V50.8027ZM119.549 50.2562C120.442 49.4496 121.234 48.3995 121.901 47.1834C122.44 46.2013 122.907 45.0963 123.289 43.8954C124.487 43.5127 125.589 43.0446 126.569 42.5043C127.783 41.8355 128.831 41.0418 129.635 40.1474C128.226 45.0106 124.402 48.8438 119.549 50.2562ZM121.94 44.2797C121.633 45.1284 121.28 45.9146 120.89 46.6261C119.544 49.0791 117.81 50.5458 115.988 50.8027V45.0545C118.099 45.0125 120.109 44.7406 121.94 44.2797ZM123.672 42.5431C124.519 42.2354 125.303 41.8822 126.013 41.4909C128.461 40.1418 129.924 38.4037 130.18 36.5783H124.445C124.403 38.6933 124.132 40.7086 123.672 42.5431ZM123.291 36.5783C123.243 38.8864 122.912 41.0533 122.363 42.9678C120.453 43.5176 118.291 43.8499 115.988 43.8977V41.4012C116.847 39.1961 118.6 37.4393 120.8 36.5783H123.291ZM124.445 35.4217H130.18C129.924 33.5963 128.461 31.8582 126.013 30.5091C125.303 30.1178 124.519 29.7646 123.672 29.4569C124.132 31.2914 124.403 33.3067 124.445 35.4217ZM122.363 29.0322C122.912 30.9467 123.243 33.1136 123.291 35.4217H120.8C118.6 34.5607 116.847 32.8039 115.988 30.5988V28.1023C118.291 28.1501 120.453 28.4824 122.363 29.0322ZM123.289 28.1046C124.487 28.4873 125.589 28.9554 126.569 29.4957C127.783 30.1645 128.831 30.9582 129.635 31.8526C128.226 26.9894 124.402 23.1562 119.549 21.7438C120.442 22.5504 121.234 23.6005 121.901 24.8165C122.44 25.7987 122.907 26.9037 123.289 28.1046ZM115.988 21.1973C117.81 21.4542 119.544 22.9209 120.89 25.3739C121.28 26.0855 121.633 26.8716 121.94 27.7204C120.109 27.2593 118.099 26.9875 115.988 26.9455V21.1973Z" fill="#9C9CAB"/>
</g>
<defs>
<clipPath id="clip0_4846_11921">
<rect width="174" height="32" fill="white" transform="translate(41 20)"/>
</clipPath>
</defs>
</svg>
