<svg width="540" height="336" viewBox="0 0 540 336" fill="none" xmlns="http://www.w3.org/2000/svg">
<g clip-path="url(#clip0_4919_14564)">
<g clip-path="url(#clip1_4919_14564)">
<rect width="320" height="692.907" rx="40" fill="white"/>
<rect x="-459" y="27" width="904" height="382" rx="8" fill="white"/>
<path d="M47.8 74C46.424 74 45.256 73.776 44.296 73.328C43.336 72.864 42.6 72.216 42.088 71.384C41.592 70.536 41.344 69.544 41.344 68.408H43.504C43.504 68.952 43.632 69.504 43.888 70.064C44.16 70.624 44.608 71.096 45.232 71.48C45.856 71.848 46.712 72.032 47.8 72.032C49.24 72.032 50.304 71.728 50.992 71.12C51.696 70.512 52.048 69.816 52.048 69.032C52.048 68.264 51.736 67.624 51.112 67.112C50.488 66.6 49.584 66.288 48.4 66.176L46.816 66.032C45.28 65.888 44.056 65.424 43.144 64.64C42.232 63.856 41.776 62.736 41.776 61.28C41.776 60.272 42.016 59.416 42.496 58.712C42.992 57.992 43.68 57.44 44.56 57.056C45.456 56.672 46.504 56.48 47.704 56.48C48.904 56.48 49.936 56.696 50.8 57.128C51.68 57.544 52.36 58.16 52.84 58.976C53.32 59.776 53.56 60.744 53.56 61.88H51.4C51.4 61.304 51.272 60.76 51.016 60.248C50.76 59.72 50.36 59.288 49.816 58.952C49.288 58.616 48.584 58.448 47.704 58.448C46.92 58.448 46.248 58.576 45.688 58.832C45.144 59.072 44.72 59.408 44.416 59.84C44.128 60.272 43.984 60.752 43.984 61.28C43.984 61.968 44.232 62.568 44.728 63.08C45.224 63.576 45.984 63.872 47.008 63.968L48.592 64.112C50.304 64.272 51.672 64.776 52.696 65.624C53.736 66.456 54.256 67.592 54.256 69.032C54.256 70.024 53.992 70.896 53.464 71.648C52.936 72.384 52.192 72.96 51.232 73.376C50.272 73.792 49.128 74 47.8 74ZM46.768 77.096V73.592H48.832V77.096H46.768ZM46.672 57.656V54.152H48.736V57.656H46.672ZM63.7923 74.48C62.5123 74.48 61.4403 74.256 60.5763 73.808C59.7283 73.36 59.0483 72.752 58.5363 71.984C58.0403 71.2 57.6803 70.304 57.4563 69.296C57.2483 68.288 57.1443 67.232 57.1443 66.128V64.976C57.1443 62.208 57.8323 60.08 59.2083 58.592C60.5843 57.088 62.5763 56.336 65.1843 56.336C65.8083 56.336 66.3363 56.352 66.7683 56.384C67.2003 56.416 67.6723 56.464 68.1843 56.528V58.496C67.6563 58.432 67.1683 58.384 66.7203 58.352C66.2723 58.32 65.7283 58.304 65.0883 58.304C63.6323 58.304 62.4803 58.576 61.6323 59.12C60.7843 59.664 60.1763 60.448 59.8083 61.472C59.4403 62.48 59.2563 63.704 59.2563 65.144V66.224L58.6803 68.36C58.6963 67.096 58.9363 66.048 59.4003 65.216C59.8803 64.384 60.5283 63.76 61.3443 63.344C62.1763 62.928 63.1283 62.72 64.2003 62.72C65.4483 62.72 66.5043 62.976 67.3683 63.488C68.2323 63.984 68.8803 64.672 69.3123 65.552C69.7603 66.432 69.9843 67.432 69.9843 68.552C69.9843 69.688 69.7523 70.704 69.2883 71.6C68.8243 72.496 68.1283 73.2 67.2003 73.712C66.2883 74.224 65.1523 74.48 63.7923 74.48ZM63.7923 72.464C64.6723 72.464 65.4083 72.296 66.0003 71.96C66.5923 71.624 67.0323 71.168 67.3203 70.592C67.6243 70 67.7763 69.32 67.7763 68.552C67.7763 67.784 67.6323 67.104 67.3443 66.512C67.0563 65.92 66.6243 65.464 66.0483 65.144C65.4883 64.808 64.7923 64.64 63.9603 64.64C63.1443 64.64 62.4083 64.792 61.7523 65.096C61.1123 65.4 60.6083 65.848 60.2403 66.44C59.8723 67.016 59.6883 67.728 59.6883 68.576C59.6883 69.28 59.8323 69.928 60.1203 70.52C60.4083 71.112 60.8563 71.584 61.4643 71.936C62.0723 72.288 62.8483 72.464 63.7923 72.464ZM72.8206 74V71.12C72.8206 70.416 72.9166 69.816 73.1086 69.32C73.3166 68.824 73.6686 68.376 74.1646 67.976C74.6606 67.56 75.3326 67.16 76.1806 66.776L79.4686 65.264C80.2686 64.896 80.9006 64.424 81.3646 63.848C81.8286 63.256 82.0606 62.496 82.0606 61.568C82.0606 60.448 81.7486 59.576 81.1246 58.952C80.5006 58.328 79.6206 58.016 78.4846 58.016C77.3646 58.016 76.4846 58.328 75.8446 58.952C75.2046 59.576 74.8846 60.448 74.8846 61.568H72.6286C72.6286 60.56 72.8366 59.632 73.2526 58.784C73.6846 57.936 74.3326 57.264 75.1966 56.768C76.0606 56.256 77.1566 56 78.4846 56C79.8126 56 80.9006 56.256 81.7486 56.768C82.6126 57.264 83.2526 57.92 83.6686 58.736C84.1006 59.552 84.3166 60.44 84.3166 61.4V61.736C84.3166 63 83.9486 64.064 83.2126 64.928C82.4926 65.792 81.5166 66.504 80.2846 67.064L76.9966 68.576C76.2606 68.912 75.7646 69.248 75.5086 69.584C75.2526 69.92 75.1246 70.368 75.1246 70.928V73.136L74.5006 72.032H84.5326V74H72.8206ZM89.0485 74L96.4645 58.664L96.3205 58.448H86.7445V56.48H98.5045V59.264L91.4485 74H89.0485ZM86.7445 61.232V56.48H88.6645V61.232H86.7445ZM106.766 74.432C105.518 74.432 104.406 74.208 103.43 73.76C102.47 73.312 101.71 72.688 101.15 71.888C100.606 71.088 100.334 70.16 100.334 69.104C100.334 68.4 100.47 67.768 100.742 67.208C101.014 66.632 101.39 66.136 101.87 65.72C102.35 65.304 102.894 64.984 103.502 64.76V64.52C103.022 64.312 102.582 64.032 102.182 63.68C101.798 63.328 101.486 62.912 101.246 62.432C101.022 61.952 100.91 61.408 100.91 60.8C100.91 59.792 101.174 58.936 101.702 58.232C102.246 57.528 102.958 56.992 103.838 56.624C104.734 56.24 105.71 56.048 106.766 56.048C107.838 56.048 108.814 56.24 109.694 56.624C110.59 56.992 111.302 57.528 111.83 58.232C112.358 58.936 112.622 59.792 112.622 60.8C112.622 61.408 112.51 61.952 112.286 62.432C112.062 62.912 111.75 63.328 111.35 63.68C110.966 64.032 110.526 64.312 110.03 64.52V64.76C110.654 64.984 111.206 65.312 111.686 65.744C112.166 66.16 112.542 66.656 112.814 67.232C113.086 67.792 113.222 68.416 113.222 69.104C113.222 70.16 112.942 71.088 112.382 71.888C111.838 72.688 111.078 73.312 110.102 73.76C109.142 74.208 108.03 74.432 106.766 74.432ZM106.766 72.464C107.646 72.464 108.398 72.328 109.022 72.056C109.646 71.768 110.126 71.368 110.462 70.856C110.798 70.328 110.966 69.712 110.966 69.008C110.966 68.304 110.798 67.696 110.462 67.184C110.142 66.672 109.67 66.28 109.046 66.008C108.422 65.72 107.662 65.576 106.766 65.576C105.886 65.576 105.134 65.72 104.51 66.008C103.886 66.28 103.406 66.672 103.07 67.184C102.75 67.696 102.59 68.304 102.59 69.008C102.59 69.712 102.75 70.328 103.07 70.856C103.406 71.368 103.886 71.768 104.51 72.056C105.134 72.328 105.886 72.464 106.766 72.464ZM106.766 63.752C107.854 63.752 108.726 63.52 109.382 63.056C110.038 62.576 110.366 61.848 110.366 60.872C110.366 59.88 110.03 59.16 109.358 58.712C108.702 58.248 107.838 58.016 106.766 58.016C105.694 58.016 104.822 58.248 104.15 58.712C103.494 59.176 103.166 59.896 103.166 60.872C103.166 61.848 103.494 62.576 104.15 63.056C104.822 63.52 105.694 63.752 106.766 63.752ZM115.927 74V71.072H118.711V74H115.927ZM125.112 74V57.632L126.168 58.448H121.224V56.48H127.416V74H125.112ZM137.23 74.432C135.918 74.432 134.806 74.176 133.894 73.664C132.982 73.152 132.286 72.472 131.806 71.624C131.342 70.776 131.11 69.856 131.11 68.864H133.366C133.366 69.952 133.71 70.816 134.398 71.456C135.102 72.096 136.046 72.416 137.23 72.416C138.014 72.416 138.694 72.272 139.27 71.984C139.846 71.696 140.294 71.288 140.614 70.76C140.934 70.216 141.094 69.584 141.094 68.864C141.094 67.776 140.742 66.896 140.038 66.224C139.35 65.552 138.422 65.216 137.254 65.216C136.758 65.216 136.326 65.28 135.958 65.408C135.606 65.52 135.294 65.664 135.022 65.84L133.87 63.776L140.566 58.88L140.326 58.448H131.806V56.48H142.486V59.672L136.942 63.704L135.262 63.776C135.534 63.68 135.83 63.6 136.15 63.536C136.486 63.472 136.878 63.44 137.326 63.44C138.606 63.44 139.694 63.68 140.59 64.16C141.486 64.64 142.166 65.28 142.63 66.08C143.11 66.88 143.35 67.752 143.35 68.696V69.032C143.35 69.96 143.11 70.84 142.63 71.672C142.166 72.488 141.478 73.152 140.566 73.664C139.67 74.176 138.558 74.432 137.23 74.432Z" fill="#131316"/>
<path d="M41.696 102V90.32H43.264V102H41.696ZM42.944 102V100.592H48.288V102H42.944ZM55.4231 102V99.44H55.1671V96.48C55.1671 95.8933 55.0125 95.4507 54.7031 95.152C54.4045 94.8533 53.9618 94.704 53.3751 94.704C53.0445 94.704 52.7031 94.7093 52.3511 94.72C51.9991 94.7307 51.6631 94.7413 51.3431 94.752C51.0231 94.7627 50.7458 94.7787 50.5111 94.8V93.456C50.7458 93.4347 50.9911 93.4187 51.2471 93.408C51.5138 93.3867 51.7858 93.376 52.0631 93.376C52.3405 93.3653 52.6071 93.36 52.8631 93.36C53.7378 93.36 54.4525 93.4667 55.0071 93.68C55.5618 93.8827 55.9725 94.2187 56.2391 94.688C56.5058 95.1573 56.6391 95.792 56.6391 96.592V102H55.4231ZM52.6231 102.224C51.9831 102.224 51.4285 102.117 50.9591 101.904C50.5005 101.68 50.1431 101.36 49.8871 100.944C49.6418 100.528 49.5191 100.027 49.5191 99.44C49.5191 98.832 49.6525 98.3253 49.9191 97.92C50.1965 97.5147 50.5965 97.2107 51.1191 97.008C51.6418 96.7947 52.2711 96.688 53.0071 96.688H55.3271V97.84H52.9431C52.3245 97.84 51.8498 97.9893 51.5191 98.288C51.1885 98.5867 51.0231 98.9707 51.0231 99.44C51.0231 99.9093 51.1885 100.288 51.5191 100.576C51.8498 100.864 52.3245 101.008 52.9431 101.008C53.3058 101.008 53.6525 100.944 53.9831 100.816C54.3138 100.677 54.5858 100.453 54.7991 100.144C55.0231 99.824 55.1458 99.3867 55.1671 98.832L55.5831 99.44C55.5298 100.048 55.3805 100.56 55.1351 100.976C54.9005 101.381 54.5698 101.691 54.1431 101.904C53.7271 102.117 53.2205 102.224 52.6231 102.224ZM62.3383 102.256C61.2182 102.256 60.3489 102.016 59.7302 101.536C59.1222 101.056 58.8076 100.4 58.7862 99.568H60.2262C60.2476 99.8987 60.4129 100.213 60.7222 100.512C61.0422 100.8 61.5809 100.944 62.3383 100.944C63.0209 100.944 63.5436 100.811 63.9062 100.544C64.2689 100.267 64.4503 99.9307 64.4503 99.536C64.4503 99.184 64.3169 98.912 64.0503 98.72C63.7836 98.5173 63.3516 98.384 62.7543 98.32L61.8263 98.224C61.0156 98.1387 60.3542 97.8987 59.8422 97.504C59.3302 97.0987 59.0742 96.5333 59.0742 95.808C59.0742 95.264 59.2129 94.8 59.4902 94.416C59.7676 94.0213 60.1516 93.7227 60.6423 93.52C61.1329 93.3067 61.6983 93.2 62.3383 93.2C63.2983 93.2 64.0769 93.4133 64.6743 93.84C65.2716 94.2667 65.5809 94.9013 65.6023 95.744H64.1623C64.1516 95.4027 63.9916 95.1147 63.6823 94.88C63.3836 94.6347 62.9356 94.512 62.3383 94.512C61.7409 94.512 61.2876 94.6347 60.9783 94.88C60.6689 95.1253 60.5143 95.4347 60.5143 95.808C60.5143 96.128 60.6209 96.384 60.8342 96.576C61.0582 96.768 61.4209 96.8907 61.9223 96.944L62.8503 97.04C63.7676 97.136 64.5036 97.392 65.0582 97.808C65.6129 98.2133 65.8903 98.7893 65.8903 99.536C65.8903 100.069 65.7356 100.544 65.4262 100.96C65.1276 101.365 64.7116 101.685 64.1783 101.92C63.6449 102.144 63.0316 102.256 62.3383 102.256ZM71.5244 102.096C70.8844 102.096 70.3297 102.005 69.8604 101.824C69.4017 101.643 69.0444 101.333 68.7884 100.896C68.543 100.448 68.4204 99.8453 68.4204 99.088V90.864H69.8924V99.28C69.8924 99.7387 70.015 100.096 70.2604 100.352C70.5164 100.597 70.8737 100.72 71.3324 100.72H72.8364V102.096H71.5244ZM66.9484 94.608V93.456H72.8364V94.608H66.9484ZM78.8095 105.2V93.456H80.0255V97.152L79.7375 97.12C79.7908 96.2027 79.9828 95.456 80.3135 94.88C80.6548 94.2933 81.0975 93.8613 81.6415 93.584C82.1855 93.3067 82.7775 93.168 83.4175 93.168C84.0362 93.168 84.5962 93.2853 85.0975 93.52C85.6095 93.7547 86.0468 94.0747 86.4095 94.48C86.7722 94.8853 87.0495 95.3547 87.2415 95.888C87.4335 96.4213 87.5295 96.9867 87.5295 97.584V97.872C87.5295 98.4693 87.4282 99.0347 87.2255 99.568C87.0228 100.101 86.7348 100.571 86.3615 100.976C85.9988 101.381 85.5615 101.701 85.0495 101.936C84.5482 102.171 83.9935 102.288 83.3855 102.288C82.7775 102.288 82.1962 102.155 81.6415 101.888C81.0868 101.621 80.6282 101.189 80.2655 100.592C79.9028 99.9947 79.6948 99.2107 79.6415 98.24L80.3455 99.52V105.2H78.8095ZM83.1455 100.944C83.7215 100.944 84.2228 100.811 84.6495 100.544C85.0762 100.267 85.4068 99.888 85.6415 99.408C85.8762 98.9173 85.9935 98.3573 85.9935 97.728C85.9935 97.088 85.8762 96.528 85.6415 96.048C85.4068 95.568 85.0762 95.1947 84.6495 94.928C84.2228 94.6507 83.7215 94.512 83.1455 94.512C82.6335 94.512 82.1588 94.6293 81.7215 94.864C81.2842 95.088 80.9322 95.4187 80.6655 95.856C80.4095 96.2827 80.2815 96.8 80.2815 97.408V98.144C80.2815 98.7307 80.4148 99.232 80.6815 99.648C80.9482 100.064 81.3002 100.384 81.7375 100.608C82.1748 100.832 82.6442 100.944 83.1455 100.944ZM89.9207 102V93.456H91.1367V96.976H91.0727C91.0727 95.728 91.3447 94.816 91.8887 94.24C92.4434 93.6533 93.2701 93.36 94.3687 93.36H94.6567V94.736H94.1127C93.2594 94.736 92.6034 94.9653 92.1447 95.424C91.6861 95.872 91.4567 96.5227 91.4567 97.376V102H89.9207ZM96.9793 102V93.456H98.5153V102H96.9793ZM95.6673 94.672V93.456H98.5153V94.672H95.6673ZM97.4113 92.08C97.0699 92.08 96.8139 91.9893 96.6433 91.808C96.4833 91.6267 96.4033 91.3973 96.4033 91.12C96.4033 90.8427 96.4833 90.6133 96.6433 90.432C96.8139 90.2507 97.0699 90.16 97.4113 90.16C97.7526 90.16 98.0033 90.2507 98.1633 90.432C98.3339 90.6133 98.4193 90.8427 98.4193 91.12C98.4193 91.3973 98.3339 91.6267 98.1633 91.808C98.0033 91.9893 97.7526 92.08 97.4113 92.08ZM105.229 102.288C104.493 102.288 103.853 102.16 103.309 101.904C102.776 101.648 102.333 101.307 101.981 100.88C101.629 100.443 101.362 99.9627 101.181 99.44C101.01 98.9173 100.925 98.3947 100.925 97.872V97.584C100.925 97.04 101.01 96.5067 101.181 95.984C101.362 95.4613 101.629 94.992 101.981 94.576C102.344 94.1493 102.792 93.808 103.325 93.552C103.858 93.296 104.482 93.168 105.197 93.168C105.912 93.168 106.552 93.3013 107.117 93.568C107.693 93.8347 108.152 94.2133 108.493 94.704C108.845 95.184 109.042 95.7547 109.085 96.416H107.613C107.538 95.8827 107.293 95.44 106.877 95.088C106.461 94.7253 105.901 94.544 105.197 94.544C104.589 94.544 104.082 94.6827 103.677 94.96C103.272 95.2373 102.968 95.616 102.765 96.096C102.562 96.576 102.461 97.12 102.461 97.728C102.461 98.3147 102.562 98.8533 102.765 99.344C102.968 99.824 103.272 100.208 103.677 100.496C104.093 100.773 104.61 100.912 105.229 100.912C105.709 100.912 106.125 100.827 106.477 100.656C106.829 100.485 107.112 100.256 107.325 99.968C107.538 99.68 107.666 99.3547 107.709 98.992H109.181C109.149 99.664 108.952 100.245 108.589 100.736C108.237 101.227 107.768 101.611 107.181 101.888C106.605 102.155 105.954 102.288 105.229 102.288ZM114.98 102.288C114.234 102.288 113.588 102.16 113.044 101.904C112.5 101.648 112.058 101.312 111.716 100.896C111.375 100.469 111.119 99.9947 110.948 99.472C110.788 98.9493 110.708 98.416 110.708 97.872V97.584C110.708 97.0293 110.788 96.4907 110.948 95.968C111.119 95.4453 111.375 94.976 111.716 94.56C112.058 94.1333 112.49 93.7973 113.012 93.552C113.546 93.296 114.17 93.168 114.884 93.168C115.812 93.168 116.575 93.3707 117.172 93.776C117.78 94.1707 118.228 94.6827 118.516 95.312C118.815 95.9413 118.964 96.6133 118.964 97.328V98.016H111.38V96.864H117.844L117.492 97.488C117.492 96.88 117.396 96.3573 117.204 95.92C117.012 95.472 116.724 95.1253 116.34 94.88C115.956 94.6347 115.471 94.512 114.884 94.512C114.276 94.512 113.77 94.6507 113.364 94.928C112.97 95.2053 112.671 95.584 112.468 96.064C112.276 96.544 112.18 97.0987 112.18 97.728C112.18 98.336 112.276 98.8853 112.468 99.376C112.671 99.856 112.98 100.24 113.396 100.528C113.812 100.805 114.34 100.944 114.98 100.944C115.652 100.944 116.196 100.795 116.612 100.496C117.039 100.197 117.295 99.8507 117.38 99.456H118.82C118.703 100.043 118.468 100.549 118.116 100.976C117.764 101.403 117.322 101.728 116.788 101.952C116.255 102.176 115.652 102.288 114.98 102.288Z" fill="#717184"/>
<path d="M177.176 74.432C175.864 74.432 174.752 74.176 173.84 73.664C172.928 73.152 172.232 72.472 171.752 71.624C171.288 70.776 171.056 69.856 171.056 68.864H173.312C173.312 69.952 173.656 70.816 174.344 71.456C175.048 72.096 175.992 72.416 177.176 72.416C177.96 72.416 178.64 72.272 179.216 71.984C179.792 71.696 180.24 71.288 180.56 70.76C180.88 70.216 181.04 69.584 181.04 68.864C181.04 67.776 180.688 66.896 179.984 66.224C179.296 65.552 178.368 65.216 177.2 65.216C176.704 65.216 176.272 65.28 175.904 65.408C175.552 65.52 175.24 65.664 174.968 65.84L173.816 63.776L180.512 58.88L180.272 58.448H171.752V56.48H182.432V59.672L176.888 63.704L175.208 63.776C175.48 63.68 175.776 63.6 176.096 63.536C176.432 63.472 176.824 63.44 177.272 63.44C178.552 63.44 179.64 63.68 180.536 64.16C181.432 64.64 182.112 65.28 182.576 66.08C183.056 66.88 183.296 67.752 183.296 68.696V69.032C183.296 69.96 183.056 70.84 182.576 71.672C182.112 72.488 181.424 73.152 180.512 73.664C179.616 74.176 178.504 74.432 177.176 74.432ZM192.134 74.432C190.886 74.432 189.774 74.208 188.798 73.76C187.838 73.312 187.078 72.688 186.518 71.888C185.974 71.088 185.702 70.16 185.702 69.104C185.702 68.4 185.838 67.768 186.11 67.208C186.382 66.632 186.758 66.136 187.238 65.72C187.718 65.304 188.262 64.984 188.87 64.76V64.52C188.39 64.312 187.95 64.032 187.55 63.68C187.166 63.328 186.854 62.912 186.614 62.432C186.39 61.952 186.278 61.408 186.278 60.8C186.278 59.792 186.542 58.936 187.07 58.232C187.614 57.528 188.326 56.992 189.206 56.624C190.102 56.24 191.078 56.048 192.134 56.048C193.206 56.048 194.182 56.24 195.062 56.624C195.958 56.992 196.67 57.528 197.198 58.232C197.726 58.936 197.99 59.792 197.99 60.8C197.99 61.408 197.878 61.952 197.654 62.432C197.43 62.912 197.118 63.328 196.718 63.68C196.334 64.032 195.894 64.312 195.398 64.52V64.76C196.022 64.984 196.574 65.312 197.054 65.744C197.534 66.16 197.91 66.656 198.182 67.232C198.454 67.792 198.59 68.416 198.59 69.104C198.59 70.16 198.31 71.088 197.75 71.888C197.206 72.688 196.446 73.312 195.47 73.76C194.51 74.208 193.398 74.432 192.134 74.432ZM192.134 72.464C193.014 72.464 193.766 72.328 194.39 72.056C195.014 71.768 195.494 71.368 195.83 70.856C196.166 70.328 196.334 69.712 196.334 69.008C196.334 68.304 196.166 67.696 195.83 67.184C195.51 66.672 195.038 66.28 194.414 66.008C193.79 65.72 193.03 65.576 192.134 65.576C191.254 65.576 190.502 65.72 189.878 66.008C189.254 66.28 188.774 66.672 188.438 67.184C188.118 67.696 187.958 68.304 187.958 69.008C187.958 69.712 188.118 70.328 188.438 70.856C188.774 71.368 189.254 71.768 189.878 72.056C190.502 72.328 191.254 72.464 192.134 72.464ZM192.134 63.752C193.222 63.752 194.094 63.52 194.75 63.056C195.406 62.576 195.734 61.848 195.734 60.872C195.734 59.88 195.398 59.16 194.726 58.712C194.07 58.248 193.206 58.016 192.134 58.016C191.062 58.016 190.19 58.248 189.518 58.712C188.862 59.176 188.534 59.896 188.534 60.872C188.534 61.848 188.862 62.576 189.518 63.056C190.19 63.52 191.062 63.752 192.134 63.752ZM201.295 74V71.072H204.079V74H201.295ZM207.409 74V71.12C207.409 70.416 207.505 69.816 207.697 69.32C207.905 68.824 208.257 68.376 208.753 67.976C209.249 67.56 209.921 67.16 210.769 66.776L214.057 65.264C214.857 64.896 215.489 64.424 215.953 63.848C216.417 63.256 216.649 62.496 216.649 61.568C216.649 60.448 216.337 59.576 215.713 58.952C215.089 58.328 214.209 58.016 213.073 58.016C211.953 58.016 211.073 58.328 210.433 58.952C209.793 59.576 209.473 60.448 209.473 61.568H207.217C207.217 60.56 207.425 59.632 207.841 58.784C208.273 57.936 208.921 57.264 209.785 56.768C210.649 56.256 211.745 56 213.073 56C214.401 56 215.489 56.256 216.337 56.768C217.201 57.264 217.841 57.92 218.257 58.736C218.689 59.552 218.905 60.44 218.905 61.4V61.736C218.905 63 218.537 64.064 217.801 64.928C217.081 65.792 216.105 66.504 214.873 67.064L211.585 68.576C210.849 68.912 210.353 69.248 210.097 69.584C209.841 69.92 209.713 70.368 209.713 70.928V73.136L209.089 72.032H219.121V74H207.409ZM227.765 74.432C226.421 74.432 225.285 74.16 224.357 73.616C223.429 73.056 222.725 72.328 222.245 71.432C221.765 70.536 221.525 69.584 221.525 68.576H223.781C223.781 69.312 223.941 69.968 224.261 70.544C224.597 71.12 225.061 71.576 225.653 71.912C226.245 72.248 226.949 72.416 227.765 72.416C228.565 72.416 229.261 72.256 229.853 71.936C230.461 71.6 230.933 71.144 231.269 70.568C231.605 69.976 231.773 69.312 231.773 68.576C231.773 67.84 231.605 67.176 231.269 66.584C230.949 65.992 230.485 65.52 229.877 65.168C229.285 64.816 228.581 64.64 227.765 64.64C227.173 64.64 226.573 64.744 225.965 64.952C225.357 65.144 224.869 65.424 224.501 65.792H222.389L223.277 56.48H232.469V58.448H224.621L225.197 57.656L224.525 64.448L223.901 64.232C224.365 63.768 224.925 63.4 225.581 63.128C226.253 62.856 227.013 62.72 227.861 62.72C229.205 62.72 230.333 63 231.245 63.56C232.157 64.104 232.845 64.816 233.309 65.696C233.789 66.56 234.029 67.464 234.029 68.408V68.744C234.029 69.688 233.789 70.6 233.309 71.48C232.829 72.344 232.117 73.056 231.173 73.616C230.245 74.16 229.109 74.432 227.765 74.432ZM244.531 74.096V72.032H249.427C250.371 72.032 251.099 71.768 251.611 71.24C252.139 70.696 252.403 69.976 252.403 69.08C252.403 68.168 252.147 67.456 251.635 66.944C251.123 66.416 250.387 66.152 249.427 66.152H244.531V64.616H249.091C250.211 64.616 251.195 64.752 252.043 65.024C252.907 65.296 253.579 65.752 254.059 66.392C254.555 67.016 254.803 67.872 254.803 68.96V69.296C254.803 70.32 254.595 71.192 254.179 71.912C253.763 72.616 253.131 73.16 252.283 73.544C251.435 73.912 250.371 74.096 249.091 74.096H244.531ZM242.659 74.096V56.384H245.011V74.096H242.659ZM244.531 65.72V64.184H248.779C249.771 64.184 250.499 63.92 250.963 63.392C251.443 62.848 251.683 62.16 251.683 61.328C251.683 60.48 251.443 59.792 250.963 59.264C250.499 58.72 249.771 58.448 248.779 58.448H244.531V56.384H248.371C250.291 56.384 251.723 56.792 252.667 57.608C253.611 58.408 254.083 59.568 254.083 61.088V61.424C254.083 62.496 253.843 63.352 253.363 63.992C252.883 64.616 252.211 65.064 251.347 65.336C250.499 65.592 249.507 65.72 248.371 65.72H244.531ZM261.811 74V58.112H264.163V74H261.811ZM256.483 58.592V56.48H269.491V58.592H256.483ZM279.482 74.432C277.882 74.432 276.514 74.152 275.378 73.592C274.258 73.032 273.354 72.304 272.666 71.408C271.978 70.512 271.474 69.544 271.154 68.504C270.834 67.448 270.674 66.432 270.674 65.456V64.928C270.674 63.872 270.834 62.816 271.154 61.76C271.49 60.704 272.002 59.744 272.69 58.88C273.378 58.016 274.274 57.32 275.378 56.792C276.482 56.264 277.802 56 279.338 56C280.906 56 282.25 56.272 283.37 56.816C284.49 57.36 285.378 58.12 286.034 59.096C286.69 60.072 287.09 61.224 287.234 62.552H284.834C284.706 61.56 284.386 60.744 283.874 60.104C283.362 59.448 282.714 58.96 281.93 58.64C281.162 58.32 280.298 58.16 279.338 58.16C278.298 58.16 277.386 58.344 276.602 58.712C275.818 59.064 275.162 59.568 274.634 60.224C274.122 60.864 273.73 61.608 273.458 62.456C273.202 63.304 273.074 64.224 273.074 65.216C273.074 66.16 273.202 67.056 273.458 67.904C273.73 68.752 274.13 69.504 274.658 70.16C275.202 70.816 275.874 71.336 276.674 71.72C277.474 72.088 278.41 72.272 279.482 72.272C280.986 72.272 282.25 71.896 283.274 71.144C284.298 70.392 284.922 69.304 285.146 67.88H287.546C287.386 69.08 286.978 70.176 286.322 71.168C285.682 72.16 284.786 72.952 283.634 73.544C282.498 74.136 281.114 74.432 279.482 74.432Z" fill="#131316"/>
<path d="M174.4 102L170.352 90.32H171.968L175.6 100.976L174.832 100.592H176.752L175.936 100.976L179.28 90.32H180.848L177.088 102H174.4ZM186.176 102.288C185.429 102.288 184.773 102.16 184.207 101.904C183.642 101.648 183.162 101.312 182.767 100.896C182.383 100.469 182.09 99.9947 181.887 99.472C181.695 98.9493 181.599 98.416 181.599 97.872V97.584C181.599 97.04 181.701 96.5067 181.903 95.984C182.106 95.4507 182.405 94.976 182.799 94.56C183.194 94.1333 183.674 93.7973 184.24 93.552C184.805 93.296 185.45 93.168 186.176 93.168C186.901 93.168 187.546 93.296 188.112 93.552C188.677 93.7973 189.157 94.1333 189.552 94.56C189.946 94.976 190.245 95.4507 190.448 95.984C190.65 96.5067 190.752 97.04 190.752 97.584V97.872C190.752 98.416 190.65 98.9493 190.448 99.472C190.256 99.9947 189.962 100.469 189.568 100.896C189.183 101.312 188.709 101.648 188.144 101.904C187.578 102.16 186.922 102.288 186.176 102.288ZM186.176 100.912C186.816 100.912 187.36 100.773 187.808 100.496C188.266 100.208 188.613 99.824 188.847 99.344C189.093 98.864 189.215 98.3253 189.215 97.728C189.215 97.12 189.093 96.576 188.847 96.096C188.602 95.616 188.25 95.2373 187.792 94.96C187.344 94.6827 186.805 94.544 186.176 94.544C185.557 94.544 185.018 94.6827 184.56 94.96C184.101 95.2373 183.749 95.616 183.503 96.096C183.258 96.576 183.135 97.12 183.135 97.728C183.135 98.3253 183.253 98.864 183.487 99.344C183.733 99.824 184.08 100.208 184.528 100.496C184.986 100.773 185.536 100.912 186.176 100.912ZM193.228 102V90.32H194.764V102H193.228ZM192.044 91.536V90.32H194.764V91.536H192.044ZM200.75 102.256C199.737 102.256 198.958 101.925 198.414 101.264C197.87 100.603 197.598 99.648 197.598 98.4V93.44H199.134V98.704C199.134 99.376 199.315 99.904 199.678 100.288C200.041 100.661 200.531 100.848 201.15 100.848C201.79 100.848 202.313 100.645 202.718 100.24C203.123 99.824 203.326 99.2587 203.326 98.544V93.44H204.862V102H203.646V98.336H203.838C203.838 99.1787 203.726 99.8933 203.502 100.48C203.278 101.056 202.942 101.499 202.494 101.808C202.057 102.107 201.497 102.256 200.814 102.256H200.75ZM207.917 102V93.456H209.133V97.12H208.941C208.941 96.288 209.048 95.584 209.261 95.008C209.485 94.4213 209.816 93.9733 210.253 93.664C210.69 93.3547 211.245 93.2 211.917 93.2H211.981C212.653 93.2 213.208 93.3547 213.645 93.664C214.093 93.9733 214.424 94.4213 214.637 95.008C214.85 95.584 214.957 96.288 214.957 97.12H214.509C214.509 96.288 214.621 95.584 214.845 95.008C215.069 94.4213 215.4 93.9733 215.837 93.664C216.285 93.3547 216.845 93.2 217.517 93.2H217.581C218.253 93.2 218.813 93.3547 219.261 93.664C219.709 93.9733 220.04 94.4213 220.253 95.008C220.477 95.584 220.589 96.288 220.589 97.12V102H219.053V96.784C219.053 96.0907 218.882 95.5573 218.541 95.184C218.2 94.8 217.725 94.608 217.117 94.608C216.488 94.608 215.981 94.8107 215.597 95.216C215.213 95.6107 215.021 96.1653 215.021 96.88V102H213.485V96.784C213.485 96.0907 213.314 95.5573 212.973 95.184C212.632 94.8 212.157 94.608 211.549 94.608C210.92 94.608 210.413 94.8107 210.029 95.216C209.645 95.6107 209.453 96.1653 209.453 96.88V102H207.917ZM227.113 102.288C226.367 102.288 225.721 102.16 225.177 101.904C224.633 101.648 224.191 101.312 223.849 100.896C223.508 100.469 223.252 99.9947 223.081 99.472C222.921 98.9493 222.841 98.416 222.841 97.872V97.584C222.841 97.0293 222.921 96.4907 223.081 95.968C223.252 95.4453 223.508 94.976 223.849 94.56C224.191 94.1333 224.623 93.7973 225.145 93.552C225.679 93.296 226.303 93.168 227.017 93.168C227.945 93.168 228.708 93.3707 229.305 93.776C229.913 94.1707 230.361 94.6827 230.649 95.312C230.948 95.9413 231.097 96.6133 231.097 97.328V98.016H223.513V96.864H229.977L229.625 97.488C229.625 96.88 229.529 96.3573 229.337 95.92C229.145 95.472 228.857 95.1253 228.473 94.88C228.089 94.6347 227.604 94.512 227.017 94.512C226.409 94.512 225.903 94.6507 225.497 94.928C225.103 95.2053 224.804 95.584 224.601 96.064C224.409 96.544 224.313 97.0987 224.313 97.728C224.313 98.336 224.409 98.8853 224.601 99.376C224.804 99.856 225.113 100.24 225.529 100.528C225.945 100.805 226.473 100.944 227.113 100.944C227.785 100.944 228.329 100.795 228.745 100.496C229.172 100.197 229.428 99.8507 229.513 99.456H230.953C230.836 100.043 230.601 100.549 230.249 100.976C229.897 101.403 229.455 101.728 228.921 101.952C228.388 102.176 227.785 102.288 227.113 102.288ZM239.607 104.912C239.042 104.261 238.54 103.552 238.103 102.784C237.676 102.027 237.346 101.189 237.111 100.272C236.876 99.344 236.759 98.3147 236.759 97.184C236.759 96.0533 236.876 95.0293 237.111 94.112C237.356 93.1947 237.692 92.3627 238.119 91.616C238.556 90.8693 239.052 90.192 239.607 89.584H241.367C240.706 90.2987 240.14 91.04 239.671 91.808C239.212 92.576 238.86 93.4027 238.615 94.288C238.38 95.1627 238.263 96.128 238.263 97.184C238.263 98.24 238.38 99.216 238.615 100.112C238.85 100.997 239.196 101.829 239.655 102.608C240.124 103.397 240.695 104.165 241.367 104.912H239.607ZM242.918 102V100.08C242.918 99.6107 242.982 99.2107 243.11 98.88C243.249 98.5493 243.484 98.2507 243.814 97.984C244.145 97.7067 244.593 97.44 245.158 97.184L247.35 96.176C247.884 95.9307 248.305 95.616 248.614 95.232C248.924 94.8373 249.078 94.3307 249.078 93.712C249.078 92.9653 248.87 92.384 248.454 91.968C248.038 91.552 247.452 91.344 246.694 91.344C245.948 91.344 245.361 91.552 244.934 91.968C244.508 92.384 244.294 92.9653 244.294 93.712H242.79C242.79 93.04 242.929 92.4213 243.206 91.856C243.494 91.2907 243.926 90.8427 244.502 90.512C245.078 90.1707 245.809 90 246.694 90C247.58 90 248.305 90.1707 248.87 90.512C249.446 90.8427 249.873 91.28 250.15 91.824C250.438 92.368 250.582 92.96 250.582 93.6V93.824C250.582 94.6667 250.337 95.376 249.846 95.952C249.366 96.528 248.716 97.0027 247.894 97.376L245.702 98.384C245.212 98.608 244.881 98.832 244.71 99.056C244.54 99.28 244.454 99.5787 244.454 99.952V101.424L244.038 100.688H250.726V102H242.918ZM252.441 99.232V97.344L257.289 90.032L258.361 90.88L253.833 97.728L253.977 98.016H261.529V99.232H252.441ZM258.537 102V93.728H259.977V102H258.537ZM263.491 102V90.32H265.027V97.296H264.643C264.643 96.4533 264.749 95.728 264.963 95.12C265.187 94.5013 265.528 94.0267 265.987 93.696C266.445 93.3653 267.032 93.2 267.747 93.2H267.811C268.835 93.2 269.608 93.5413 270.131 94.224C270.653 94.896 270.915 95.8613 270.915 97.12V102H269.379V96.8C269.379 96.1067 269.181 95.568 268.787 95.184C268.403 94.8 267.901 94.608 267.283 94.608C266.6 94.608 266.051 94.8373 265.635 95.296C265.229 95.744 265.027 96.336 265.027 97.072V102H263.491ZM274.037 104.912H272.277C272.949 104.165 273.514 103.397 273.973 102.608C274.442 101.829 274.794 100.997 275.029 100.112C275.263 99.216 275.381 98.24 275.381 97.184C275.381 96.128 275.258 95.1627 275.013 94.288C274.778 93.4027 274.426 92.576 273.957 91.808C273.498 91.04 272.938 90.2987 272.277 89.584H274.037C274.591 90.192 275.082 90.8693 275.509 91.616C275.946 92.3627 276.282 93.1947 276.517 94.112C276.762 95.0293 276.885 96.0533 276.885 97.184C276.885 98.3147 276.767 99.344 276.533 100.272C276.298 101.189 275.962 102.027 275.525 102.784C275.098 103.552 274.602 104.261 274.037 104.912Z" fill="#717184"/>
<rect x="80.5" y="115" width="1.5" height="240" fill="#F9F9FA"/>
<rect x="182" y="115" width="1.5" height="240" fill="#F9F9FA"/>
<rect x="283.5" y="115" width="1.5" height="240" fill="#F9F9FA"/>
<rect x="417.962" y="115" width="1.5" height="843" transform="rotate(90 417.962 115)" fill="#F9F9FA"/>
<rect x="417.962" y="162.5" width="1.5" height="843" transform="rotate(90 417.962 162.5)" fill="#F9F9FA"/>
<rect x="417.962" y="210" width="1.5" height="843" transform="rotate(90 417.962 210)" fill="#F9F9FA"/>
<rect x="417.962" y="257.5" width="1.5" height="843" transform="rotate(90 417.962 257.5)" fill="#F9F9FA"/>
<rect x="417.962" y="305" width="1.5" height="843" transform="rotate(90 417.962 305)" fill="#F9F9FA"/>
<rect x="167" y="200" width="8" height="54" rx="4" fill="#FB3766"/>
<rect x="170" y="192" width="2" height="80" rx="1" fill="#FB3766"/>
<rect x="119" y="181" width="8" height="54" rx="4" fill="#11CF8B"/>
<rect x="122" y="173" width="2" height="80" rx="1" fill="#11CF8B"/>
<rect x="143" y="166" width="8" height="54" rx="4" fill="#11CF8B"/>
<rect x="146" y="158" width="2" height="124" rx="1" fill="#11CF8B"/>
<rect x="47" y="202" width="8" height="54" rx="4" fill="#FB3766"/>
<rect x="50" y="194" width="2" height="103" rx="1" fill="#FB3766"/>
<rect x="311" y="221" width="8" height="54" rx="4" fill="#11CF8B"/>
<rect x="314" y="213" width="2" height="80" rx="1" fill="#11CF8B"/>
<rect x="287" y="229" width="8" height="27" rx="4" fill="#11CF8B"/>
<rect x="290" y="225" width="2" height="55" rx="1" fill="#11CF8B"/>
<rect x="95" y="229" width="8" height="27" rx="4" fill="#FB3766"/>
<rect x="98" y="208" width="2" height="55" rx="1" fill="#FB3766"/>
<rect x="191" y="213" width="8" height="20" rx="4" fill="#11CF8B"/>
<rect x="194" y="206" width="2" height="46" rx="1" fill="#11CF8B"/>
<rect x="263" y="241" width="8" height="16" rx="4" fill="#FB3766"/>
<rect x="266" y="235" width="2" height="55" rx="1" fill="#FB3766"/>
<rect x="239" y="252" width="8" height="16" rx="4" fill="#FB3766"/>
<rect x="242" y="243" width="2" height="70" rx="1" fill="#FB3766"/>
<rect x="23" y="241" width="8" height="16" rx="4" fill="#11CF8B"/>
<rect x="26" y="219" width="2" height="98" rx="1" fill="#11CF8B"/>
<rect x="71" y="207" width="8" height="16" rx="4" fill="#11CF8B"/>
<rect x="74" y="201" width="2" height="40" rx="1" fill="#11CF8B"/>
<rect x="215" y="258" width="8" height="16" rx="4" fill="#11CF8B"/>
<rect x="218" y="252" width="2" height="40" rx="1" fill="#11CF8B"/>
</g>
<rect x="4" y="4" width="312" height="684.907" rx="36" stroke="#0E0637" stroke-width="8"/>
<rect x="400" width="140" height="140" rx="24" fill="url(#paint0_linear_4919_14564)"/>
<rect x="408.518" y="8.51709" width="122.966" height="122.966" rx="16" fill="white"/>
<g clip-path="url(#clip2_4919_14564)">
<path d="M427.681 27.6812L427.681 55.9606H455.96L455.96 27.6812H427.681ZM449.306 49.3066H434.335L434.335 34.3351H449.306L449.306 49.3066Z" fill="#131316"/>
<path d="M445.147 38.4941H438.493L438.493 45.1481H445.147L445.147 38.4941Z" fill="#131316"/>
<path d="M484.572 27.6812L484.572 55.9606H512.852L512.852 27.6812H484.572ZM506.198 49.3066H491.226L491.226 34.3351H506.198L506.198 49.3066Z" fill="#131316"/>
<path d="M502.039 38.4941H495.385L495.385 45.1481H502.039L502.039 38.4941Z" fill="#131316"/>
<path d="M427.681 84.5728L427.681 112.852H455.96L455.96 84.5728H427.681ZM449.306 106.198H434.335L434.335 91.2267H449.306L449.306 106.198Z" fill="#131316"/>
<path d="M445.147 95.3857H438.493L438.493 102.04H445.147L445.147 95.3857Z" fill="#131316"/>
<path d="M440.989 60.4521H434.335L434.335 67.1061H440.989L440.989 60.4521Z" fill="#131316"/>
<path d="M447.642 73.76L447.642 67.106H440.988L440.988 73.76H447.476L447.476 80.4139H454.13L454.13 73.76H447.642Z" fill="#131316"/>
<path d="M480.913 40.4902H474.259L474.259 47.1442H480.913L480.913 40.4902Z" fill="#131316"/>
<path d="M467.604 34.335H460.95L460.95 47.1439H467.604L467.604 34.335Z" fill="#131316"/>
<path d="M474.258 27.6812H467.604L467.604 34.3351H474.258L474.258 27.6812Z" fill="#131316"/>
<path d="M467.604 47.144L467.604 53.798H460.95L460.95 60.452H474.258L474.258 47.144H467.604Z" fill="#131316"/>
<path d="M474.258 86.7352L474.258 80.2476H467.604L467.604 67.106H460.95L460.95 80.4139H467.604L467.604 86.9016H474.258L474.258 93.3892H487.566L487.566 86.7352H474.258Z" fill="#131316"/>
<path d="M480.913 60.4521H474.259L474.259 73.7601H480.913L480.913 60.4521Z" fill="#131316"/>
<path d="M506.198 66.9398L506.198 60.4521H494.054L494.054 67.1061H487.566L487.566 73.7601H494.22L494.22 80.2478H512.852L512.852 66.9398H506.198ZM506.198 73.5938H494.22L494.22 67.1061H506.198L506.198 73.5938Z" fill="#131316"/>
<path d="M512.852 86.7354H506.198L506.198 100.043H512.852L512.852 86.7354Z" fill="#131316"/>
<path d="M487.566 73.7603H480.912L480.912 80.4142H487.566L487.566 73.7603Z" fill="#131316"/>
<path d="M494.22 93.3892H487.566L487.566 100.043H494.22L494.22 93.3892Z" fill="#131316"/>
<path d="M500.875 86.7354H494.221L494.221 93.3893H500.875L500.875 86.7354Z" fill="#131316"/>
<path d="M494.221 100.043L494.221 112.852H500.875L500.875 106.697H506.198L506.198 100.043H494.221Z" fill="#131316"/>
<path d="M467.604 86.9019H460.95L460.95 99.5444H467.604L467.604 86.9019Z" fill="#131316"/>
<path d="M480.912 106.198L480.912 99.5444H467.604L467.604 112.852H474.258L474.258 106.198H480.746L480.746 112.852H487.4L487.4 106.198H480.912Z" fill="#131316"/>
<path d="M460.951 60.4521H447.643L447.643 67.1061H460.951L460.951 60.4521Z" fill="#131316"/>
<path d="M434.335 67.106H427.681L427.681 80.4139H434.335L434.335 67.106Z" fill="#131316"/>
</g>
<path d="M470.707 155.293C470.317 154.902 469.683 154.902 469.293 155.293L462.929 161.657C462.538 162.047 462.538 162.681 462.929 163.071C463.319 163.462 463.953 163.462 464.343 163.071L470 157.414L475.657 163.071C476.047 163.462 476.681 163.462 477.071 163.071C477.462 162.681 477.462 162.047 477.071 161.657L470.707 155.293ZM471 188L471 174.284H469L469 188H471ZM471 174.284L471 156H469L469 174.284H471Z" fill="url(#paint1_linear_4919_14564)"/>
<path d="M410.872 219.252C410.023 219.252 409.3 219.112 408.702 218.832C408.105 218.552 407.648 218.165 407.33 217.67C407.013 217.175 406.854 216.615 406.854 215.99H408.226C408.226 216.298 408.306 216.606 408.464 216.914C408.632 217.222 408.908 217.479 409.29 217.684C409.682 217.889 410.21 217.992 410.872 217.992C411.488 217.992 411.992 217.903 412.384 217.726C412.776 217.539 413.066 217.301 413.252 217.012C413.439 216.713 413.532 216.391 413.532 216.046C413.532 215.626 413.35 215.281 412.986 215.01C412.622 214.73 412.09 214.557 411.39 214.492L410.256 214.394C409.351 214.319 408.628 214.039 408.086 213.554C407.545 213.069 407.274 212.429 407.274 211.636C407.274 211.011 407.424 210.465 407.722 209.998C408.03 209.531 408.455 209.167 408.996 208.906C409.538 208.635 410.168 208.5 410.886 208.5C411.596 208.5 412.221 208.631 412.762 208.892C413.304 209.153 413.724 209.522 414.022 209.998C414.33 210.465 414.484 211.025 414.484 211.678H413.112C413.112 211.351 413.033 211.043 412.874 210.754C412.725 210.465 412.487 210.227 412.16 210.04C411.834 209.853 411.409 209.76 410.886 209.76C410.382 209.76 409.962 209.849 409.626 210.026C409.3 210.203 409.052 210.437 408.884 210.726C408.726 211.006 408.646 211.309 408.646 211.636C408.646 212.009 408.791 212.341 409.08 212.63C409.37 212.919 409.799 213.087 410.368 213.134L411.502 213.232C412.202 213.288 412.804 213.437 413.308 213.68C413.822 213.913 414.214 214.231 414.484 214.632C414.764 215.024 414.904 215.495 414.904 216.046C414.904 216.671 414.736 217.227 414.4 217.712C414.064 218.197 413.593 218.575 412.986 218.846C412.38 219.117 411.675 219.252 410.872 219.252ZM420.217 219.252C419.573 219.252 419.013 219.14 418.537 218.916C418.07 218.692 417.683 218.393 417.375 218.02C417.067 217.637 416.833 217.217 416.675 216.76C416.525 216.303 416.451 215.845 416.451 215.388V215.136C416.451 214.66 416.525 214.193 416.675 213.736C416.833 213.279 417.067 212.868 417.375 212.504C417.692 212.131 418.084 211.832 418.551 211.608C419.017 211.384 419.563 211.272 420.189 211.272C420.814 211.272 421.374 211.389 421.869 211.622C422.373 211.855 422.774 212.187 423.073 212.616C423.381 213.036 423.553 213.535 423.591 214.114H422.303C422.237 213.647 422.023 213.26 421.659 212.952C421.295 212.635 420.805 212.476 420.189 212.476C419.657 212.476 419.213 212.597 418.859 212.84C418.504 213.083 418.238 213.414 418.061 213.834C417.883 214.254 417.795 214.73 417.795 215.262C417.795 215.775 417.883 216.247 418.061 216.676C418.238 217.096 418.504 217.432 418.859 217.684C419.223 217.927 419.675 218.048 420.217 218.048C420.637 218.048 421.001 217.973 421.309 217.824C421.617 217.675 421.864 217.474 422.051 217.222C422.237 216.97 422.349 216.685 422.387 216.368H423.675C423.647 216.956 423.474 217.465 423.157 217.894C422.849 218.323 422.438 218.659 421.925 218.902C421.421 219.135 420.851 219.252 420.217 219.252ZM430.023 219V216.76H429.799V214.17C429.799 213.657 429.664 213.269 429.393 213.008C429.132 212.747 428.744 212.616 428.231 212.616C427.942 212.616 427.643 212.621 427.335 212.63C427.027 212.639 426.733 212.649 426.453 212.658C426.173 212.667 425.93 212.681 425.725 212.7V211.524C425.93 211.505 426.145 211.491 426.369 211.482C426.602 211.463 426.84 211.454 427.083 211.454C427.326 211.445 427.559 211.44 427.783 211.44C428.548 211.44 429.174 211.533 429.659 211.72C430.144 211.897 430.504 212.191 430.737 212.602C430.97 213.013 431.087 213.568 431.087 214.268V219H430.023ZM427.573 219.196C427.013 219.196 426.528 219.103 426.117 218.916C425.716 218.72 425.403 218.44 425.179 218.076C424.964 217.712 424.857 217.273 424.857 216.76C424.857 216.228 424.974 215.785 425.207 215.43C425.45 215.075 425.8 214.809 426.257 214.632C426.714 214.445 427.265 214.352 427.909 214.352H429.939V215.36H427.853C427.312 215.36 426.896 215.491 426.607 215.752C426.318 216.013 426.173 216.349 426.173 216.76C426.173 217.171 426.318 217.502 426.607 217.754C426.896 218.006 427.312 218.132 427.853 218.132C428.17 218.132 428.474 218.076 428.763 217.964C429.052 217.843 429.29 217.647 429.477 217.376C429.673 217.096 429.78 216.713 429.799 216.228L430.163 216.76C430.116 217.292 429.986 217.74 429.771 218.104C429.566 218.459 429.276 218.729 428.903 218.916C428.539 219.103 428.096 219.196 427.573 219.196ZM433.554 219V211.524H434.618V214.73H434.45C434.45 213.993 434.548 213.372 434.744 212.868C434.949 212.355 435.257 211.967 435.668 211.706C436.078 211.435 436.596 211.3 437.222 211.3H437.278C438.22 211.3 438.916 211.594 439.364 212.182C439.821 212.77 440.05 213.619 440.05 214.73V219H438.706V214.45C438.706 213.871 438.542 213.409 438.216 213.064C437.889 212.709 437.441 212.532 436.872 212.532C436.284 212.532 435.808 212.714 435.444 213.078C435.08 213.442 434.898 213.927 434.898 214.534V219H433.554ZM448.606 219.084C448.046 219.084 447.561 219.005 447.15 218.846C446.749 218.687 446.436 218.417 446.212 218.034C445.998 217.642 445.89 217.115 445.89 216.452V209.256H447.178V216.62C447.178 217.021 447.286 217.334 447.5 217.558C447.724 217.773 448.037 217.88 448.438 217.88H449.754V219.084H448.606ZM444.602 212.532V211.524H449.754V212.532H444.602ZM455.045 219.252C454.391 219.252 453.817 219.14 453.323 218.916C452.828 218.692 452.408 218.398 452.062 218.034C451.727 217.661 451.47 217.245 451.293 216.788C451.125 216.331 451.041 215.864 451.041 215.388V215.136C451.041 214.66 451.129 214.193 451.307 213.736C451.484 213.269 451.745 212.854 452.091 212.49C452.436 212.117 452.856 211.823 453.351 211.608C453.845 211.384 454.41 211.272 455.045 211.272C455.679 211.272 456.244 211.384 456.739 211.608C457.233 211.823 457.653 212.117 457.999 212.49C458.344 212.854 458.605 213.269 458.783 213.736C458.96 214.193 459.049 214.66 459.049 215.136V215.388C459.049 215.864 458.96 216.331 458.783 216.788C458.615 217.245 458.358 217.661 458.013 218.034C457.677 218.398 457.261 218.692 456.767 218.916C456.272 219.14 455.698 219.252 455.045 219.252ZM455.045 218.048C455.605 218.048 456.081 217.927 456.473 217.684C456.874 217.432 457.177 217.096 457.382 216.676C457.597 216.256 457.704 215.785 457.704 215.262C457.704 214.73 457.597 214.254 457.382 213.834C457.168 213.414 456.86 213.083 456.459 212.84C456.067 212.597 455.595 212.476 455.045 212.476C454.503 212.476 454.032 212.597 453.631 212.84C453.229 213.083 452.921 213.414 452.707 213.834C452.492 214.254 452.385 214.73 452.385 215.262C452.385 215.785 452.487 216.256 452.693 216.676C452.907 217.096 453.211 217.432 453.603 217.684C454.004 217.927 454.485 218.048 455.045 218.048ZM467.369 219.252C466.837 219.252 466.347 219.154 465.899 218.958C465.451 218.762 465.059 218.487 464.723 218.132C464.396 217.777 464.14 217.367 463.953 216.9C463.776 216.433 463.687 215.929 463.687 215.388V215.136C463.687 214.604 463.776 214.105 463.953 213.638C464.13 213.171 464.378 212.761 464.695 212.406C465.022 212.051 465.404 211.776 465.843 211.58C466.291 211.375 466.786 211.272 467.327 211.272C467.896 211.272 468.414 211.393 468.881 211.636C469.348 211.869 469.73 212.238 470.029 212.742C470.328 213.246 470.496 213.899 470.533 214.702L469.973 213.806V208.78H471.317V219H470.253V215.682H470.645C470.608 216.531 470.43 217.222 470.113 217.754C469.796 218.277 469.394 218.659 468.909 218.902C468.433 219.135 467.92 219.252 467.369 219.252ZM467.551 218.076C468.008 218.076 468.424 217.973 468.797 217.768C469.17 217.563 469.469 217.269 469.693 216.886C469.917 216.494 470.029 216.037 470.029 215.514V214.87C470.029 214.357 469.912 213.923 469.679 213.568C469.455 213.204 469.152 212.929 468.769 212.742C468.396 212.546 467.985 212.448 467.537 212.448C467.042 212.448 466.604 212.565 466.221 212.798C465.848 213.031 465.554 213.358 465.339 213.778C465.134 214.198 465.031 214.693 465.031 215.262C465.031 215.831 465.138 216.331 465.353 216.76C465.568 217.18 465.866 217.507 466.249 217.74C466.632 217.964 467.066 218.076 467.551 218.076ZM477.343 219.252C476.69 219.252 476.116 219.14 475.621 218.916C475.127 218.692 474.707 218.398 474.361 218.034C474.025 217.661 473.769 217.245 473.591 216.788C473.423 216.331 473.339 215.864 473.339 215.388V215.136C473.339 214.66 473.428 214.193 473.605 213.736C473.783 213.269 474.044 212.854 474.389 212.49C474.735 212.117 475.155 211.823 475.649 211.608C476.144 211.384 476.709 211.272 477.343 211.272C477.978 211.272 478.543 211.384 479.037 211.608C479.532 211.823 479.952 212.117 480.297 212.49C480.643 212.854 480.904 213.269 481.081 213.736C481.259 214.193 481.347 214.66 481.347 215.136V215.388C481.347 215.864 481.259 216.331 481.081 216.788C480.913 217.245 480.657 217.661 480.311 218.034C479.975 218.398 479.56 218.692 479.065 218.916C478.571 219.14 477.997 219.252 477.343 219.252ZM477.343 218.048C477.903 218.048 478.379 217.927 478.771 217.684C479.173 217.432 479.476 217.096 479.681 216.676C479.896 216.256 480.003 215.785 480.003 215.262C480.003 214.73 479.896 214.254 479.681 213.834C479.467 213.414 479.159 213.083 478.757 212.84C478.365 212.597 477.894 212.476 477.343 212.476C476.802 212.476 476.331 212.597 475.929 212.84C475.528 213.083 475.22 213.414 475.005 213.834C474.791 214.254 474.683 214.73 474.683 215.262C474.683 215.785 474.786 216.256 474.991 216.676C475.206 217.096 475.509 217.432 475.901 217.684C476.303 217.927 476.783 218.048 477.343 218.048ZM485.408 219L486.92 211.776H488.74L490.504 219H489.356L487.592 211.804H488.04L486.514 219H485.408ZM484.722 219V217.936H486.276V219H484.722ZM484.414 219L482.3 211.524H483.588L485.646 219H484.414ZM489.636 219V217.936H491.19V219H489.636ZM490.266 219L492.058 211.524H493.276L491.442 219H490.266ZM495.091 219V211.524H496.155V214.73H495.987C495.987 213.993 496.085 213.372 496.281 212.868C496.486 212.355 496.794 211.967 497.205 211.706C497.615 211.435 498.133 211.3 498.759 211.3H498.815C499.757 211.3 500.453 211.594 500.901 212.182C501.358 212.77 501.587 213.619 501.587 214.73V219H500.243V214.45C500.243 213.871 500.079 213.409 499.753 213.064C499.426 212.709 498.978 212.532 498.409 212.532C497.821 212.532 497.345 212.714 496.981 213.078C496.617 213.442 496.435 213.927 496.435 214.534V219H495.091ZM504.13 219V208.78H505.474V219H504.13ZM503.094 209.844V208.78H505.474V209.844H503.094ZM511.496 219.252C510.842 219.252 510.268 219.14 509.774 218.916C509.279 218.692 508.859 218.398 508.514 218.034C508.178 217.661 507.921 217.245 507.744 216.788C507.576 216.331 507.492 215.864 507.492 215.388V215.136C507.492 214.66 507.58 214.193 507.758 213.736C507.935 213.269 508.196 212.854 508.542 212.49C508.887 212.117 509.307 211.823 509.802 211.608C510.296 211.384 510.861 211.272 511.496 211.272C512.13 211.272 512.695 211.384 513.19 211.608C513.684 211.823 514.104 212.117 514.45 212.49C514.795 212.854 515.056 213.269 515.234 213.736C515.411 214.193 515.5 214.66 515.5 215.136V215.388C515.5 215.864 515.411 216.331 515.234 216.788C515.066 217.245 514.809 217.661 514.464 218.034C514.128 218.398 513.712 218.692 513.218 218.916C512.723 219.14 512.149 219.252 511.496 219.252ZM511.496 218.048C512.056 218.048 512.532 217.927 512.924 217.684C513.325 217.432 513.628 217.096 513.834 216.676C514.048 216.256 514.156 215.785 514.156 215.262C514.156 214.73 514.048 214.254 513.834 213.834C513.619 213.414 513.311 213.083 512.91 212.84C512.518 212.597 512.046 212.476 511.496 212.476C510.954 212.476 510.483 212.597 510.082 212.84C509.68 213.083 509.372 213.414 509.158 213.834C508.943 214.254 508.836 214.73 508.836 215.262C508.836 215.785 508.938 216.256 509.144 216.676C509.358 217.096 509.662 217.432 510.054 217.684C510.455 217.927 510.936 218.048 511.496 218.048ZM522.035 219V216.76H521.811V214.17C521.811 213.657 521.675 213.269 521.405 213.008C521.143 212.747 520.756 212.616 520.243 212.616C519.953 212.616 519.655 212.621 519.347 212.63C519.039 212.639 518.745 212.649 518.465 212.658C518.185 212.667 517.942 212.681 517.737 212.7V211.524C517.942 211.505 518.157 211.491 518.381 211.482C518.614 211.463 518.852 211.454 519.095 211.454C519.337 211.445 519.571 211.44 519.795 211.44C520.56 211.44 521.185 211.533 521.671 211.72C522.156 211.897 522.515 212.191 522.749 212.602C522.982 213.013 523.099 213.568 523.099 214.268V219H522.035ZM519.585 219.196C519.025 219.196 518.539 219.103 518.129 218.916C517.727 218.72 517.415 218.44 517.191 218.076C516.976 217.712 516.869 217.273 516.869 216.76C516.869 216.228 516.985 215.785 517.219 215.43C517.461 215.075 517.811 214.809 518.269 214.632C518.726 214.445 519.277 214.352 519.921 214.352H521.951V215.36H519.865C519.323 215.36 518.908 215.491 518.619 215.752C518.329 216.013 518.185 216.349 518.185 216.76C518.185 217.171 518.329 217.502 518.619 217.754C518.908 218.006 519.323 218.132 519.865 218.132C520.182 218.132 520.485 218.076 520.775 217.964C521.064 217.843 521.302 217.647 521.489 217.376C521.685 217.096 521.792 216.713 521.811 216.228L522.175 216.76C522.128 217.292 521.997 217.74 521.783 218.104C521.577 218.459 521.288 218.729 520.915 218.916C520.551 219.103 520.107 219.196 519.585 219.196ZM528.687 219.252C528.155 219.252 527.665 219.154 527.217 218.958C526.769 218.762 526.377 218.487 526.041 218.132C525.715 217.777 525.458 217.367 525.271 216.9C525.094 216.433 525.005 215.929 525.005 215.388V215.136C525.005 214.604 525.094 214.105 525.271 213.638C525.449 213.171 525.696 212.761 526.013 212.406C526.34 212.051 526.723 211.776 527.161 211.58C527.609 211.375 528.104 211.272 528.645 211.272C529.215 211.272 529.733 211.393 530.199 211.636C530.666 211.869 531.049 212.238 531.347 212.742C531.646 213.246 531.814 213.899 531.851 214.702L531.291 213.806V208.78H532.635V219H531.571V215.682H531.963C531.926 216.531 531.749 217.222 531.431 217.754C531.114 218.277 530.713 218.659 530.227 218.902C529.751 219.135 529.238 219.252 528.687 219.252ZM528.869 218.076C529.327 218.076 529.742 217.973 530.115 217.768C530.489 217.563 530.787 217.269 531.011 216.886C531.235 216.494 531.347 216.037 531.347 215.514V214.87C531.347 214.357 531.231 213.923 530.997 213.568C530.773 213.204 530.47 212.929 530.087 212.742C529.714 212.546 529.303 212.448 528.855 212.448C528.361 212.448 527.922 212.565 527.539 212.798C527.166 213.031 526.872 213.358 526.657 213.778C526.452 214.198 526.349 214.693 526.349 215.262C526.349 215.831 526.457 216.331 526.671 216.76C526.886 217.18 527.185 217.507 527.567 217.74C527.95 217.964 528.384 218.076 528.869 218.076ZM418.856 239.252C417.922 239.252 417.124 239.089 416.462 238.762C415.808 238.435 415.281 238.011 414.88 237.488C414.478 236.965 414.184 236.401 413.998 235.794C413.811 235.178 413.718 234.585 413.718 234.016V233.708C413.718 233.092 413.811 232.476 413.998 231.86C414.194 231.244 414.492 230.684 414.894 230.18C415.295 229.676 415.818 229.27 416.462 228.962C417.106 228.654 417.876 228.5 418.772 228.5C419.686 228.5 420.47 228.659 421.124 228.976C421.777 229.293 422.295 229.737 422.678 230.306C423.06 230.875 423.294 231.547 423.378 232.322H421.978C421.903 231.743 421.716 231.267 421.418 230.894C421.119 230.511 420.741 230.227 420.284 230.04C419.836 229.853 419.332 229.76 418.772 229.76C418.165 229.76 417.633 229.867 417.176 230.082C416.718 230.287 416.336 230.581 416.028 230.964C415.729 231.337 415.5 231.771 415.342 232.266C415.192 232.761 415.118 233.297 415.118 233.876C415.118 234.427 415.192 234.949 415.342 235.444C415.5 235.939 415.734 236.377 416.042 236.76C416.359 237.143 416.751 237.446 417.218 237.67C417.684 237.885 418.23 237.992 418.856 237.992C419.733 237.992 420.47 237.773 421.068 237.334C421.665 236.895 422.029 236.261 422.16 235.43H423.56C423.466 236.13 423.228 236.769 422.846 237.348C422.472 237.927 421.95 238.389 421.278 238.734C420.615 239.079 419.808 239.252 418.856 239.252ZM428.795 239.252C428.141 239.252 427.567 239.14 427.073 238.916C426.578 238.692 426.158 238.398 425.812 238.034C425.477 237.661 425.22 237.245 425.043 236.788C424.875 236.331 424.791 235.864 424.791 235.388V235.136C424.791 234.66 424.879 234.193 425.057 233.736C425.234 233.269 425.495 232.854 425.841 232.49C426.186 232.117 426.606 231.823 427.101 231.608C427.595 231.384 428.16 231.272 428.795 231.272C429.429 231.272 429.994 231.384 430.489 231.608C430.983 231.823 431.403 232.117 431.749 232.49C432.094 232.854 432.355 233.269 432.533 233.736C432.71 234.193 432.799 234.66 432.799 235.136V235.388C432.799 235.864 432.71 236.331 432.533 236.788C432.365 237.245 432.108 237.661 431.763 238.034C431.427 238.398 431.011 238.692 430.517 238.916C430.022 239.14 429.448 239.252 428.795 239.252ZM428.795 238.048C429.355 238.048 429.831 237.927 430.223 237.684C430.624 237.432 430.927 237.096 431.132 236.676C431.347 236.256 431.454 235.785 431.454 235.262C431.454 234.73 431.347 234.254 431.132 233.834C430.918 233.414 430.61 233.083 430.209 232.84C429.817 232.597 429.345 232.476 428.795 232.476C428.253 232.476 427.782 232.597 427.381 232.84C426.979 233.083 426.671 233.414 426.457 233.834C426.242 234.254 426.135 234.73 426.135 235.262C426.135 235.785 426.237 236.256 426.443 236.676C426.657 237.096 426.961 237.432 427.353 237.684C427.754 237.927 428.235 238.048 428.795 238.048ZM435.175 239V231.524H436.519V239H435.175ZM434.027 232.588V231.524H436.519V232.588H434.027ZM435.553 230.32C435.255 230.32 435.031 230.241 434.881 230.082C434.741 229.923 434.671 229.723 434.671 229.48C434.671 229.237 434.741 229.037 434.881 228.878C435.031 228.719 435.255 228.64 435.553 228.64C435.852 228.64 436.071 228.719 436.211 228.878C436.361 229.037 436.435 229.237 436.435 229.48C436.435 229.723 436.361 229.923 436.211 230.082C436.071 230.241 435.852 230.32 435.553 230.32ZM439.118 239V231.524H440.182V234.73H440.014C440.014 233.993 440.112 233.372 440.308 232.868C440.513 232.355 440.821 231.967 441.232 231.706C441.643 231.435 442.161 231.3 442.786 231.3H442.842C443.785 231.3 444.48 231.594 444.928 232.182C445.385 232.77 445.614 233.619 445.614 234.73V239H444.27V234.45C444.27 233.871 444.107 233.409 443.78 233.064C443.453 232.709 443.005 232.532 442.436 232.532C441.848 232.532 441.372 232.714 441.008 233.078C440.644 233.442 440.462 233.927 440.462 234.534V239H439.118ZM452.021 239.252C451.405 239.252 450.854 239.117 450.369 238.846C449.893 238.575 449.515 238.183 449.235 237.67C448.955 237.147 448.801 236.522 448.773 235.794H449.137V239H448.073V228.78H449.417V233.75L448.941 234.772C448.978 233.96 449.142 233.297 449.431 232.784C449.72 232.271 450.098 231.893 450.565 231.65C451.041 231.398 451.564 231.272 452.133 231.272C452.665 231.272 453.15 231.375 453.589 231.58C454.028 231.776 454.406 232.051 454.723 232.406C455.04 232.751 455.283 233.157 455.451 233.624C455.619 234.081 455.703 234.576 455.703 235.108V235.36C455.703 235.892 455.614 236.391 455.437 236.858C455.269 237.325 455.022 237.74 454.695 238.104C454.368 238.459 453.976 238.739 453.519 238.944C453.071 239.149 452.572 239.252 452.021 239.252ZM451.867 238.076C452.371 238.076 452.81 237.955 453.183 237.712C453.556 237.469 453.846 237.138 454.051 236.718C454.256 236.289 454.359 235.794 454.359 235.234C454.359 234.674 454.252 234.184 454.037 233.764C453.832 233.344 453.542 233.022 453.169 232.798C452.796 232.565 452.362 232.448 451.867 232.448C451.419 232.448 451.004 232.551 450.621 232.756C450.238 232.952 449.93 233.241 449.697 233.624C449.473 233.997 449.361 234.45 449.361 234.982V235.626C449.361 236.139 449.478 236.578 449.711 236.942C449.944 237.306 450.252 237.586 450.635 237.782C451.018 237.978 451.428 238.076 451.867 238.076ZM462.248 239V236.76H462.024V234.17C462.024 233.657 461.888 233.269 461.618 233.008C461.356 232.747 460.969 232.616 460.456 232.616C460.166 232.616 459.868 232.621 459.56 232.63C459.252 232.639 458.958 232.649 458.678 232.658C458.398 232.667 458.155 232.681 457.95 232.7V231.524C458.155 231.505 458.37 231.491 458.594 231.482C458.827 231.463 459.065 231.454 459.308 231.454C459.55 231.445 459.784 231.44 460.008 231.44C460.773 231.44 461.398 231.533 461.884 231.72C462.369 231.897 462.728 232.191 462.962 232.602C463.195 233.013 463.312 233.568 463.312 234.268V239H462.248ZM459.798 239.196C459.238 239.196 458.752 239.103 458.342 238.916C457.94 238.72 457.628 238.44 457.404 238.076C457.189 237.712 457.082 237.273 457.082 236.76C457.082 236.228 457.198 235.785 457.432 235.43C457.674 235.075 458.024 234.809 458.482 234.632C458.939 234.445 459.49 234.352 460.133 234.352H462.164V235.36H460.078C459.536 235.36 459.121 235.491 458.832 235.752C458.542 236.013 458.398 236.349 458.398 236.76C458.398 237.171 458.542 237.502 458.832 237.754C459.121 238.006 459.536 238.132 460.078 238.132C460.395 238.132 460.698 238.076 460.988 237.964C461.277 237.843 461.515 237.647 461.702 237.376C461.898 237.096 462.005 236.713 462.024 236.228L462.388 236.76C462.341 237.292 462.21 237.74 461.996 238.104C461.79 238.459 461.501 238.729 461.128 238.916C460.764 239.103 460.32 239.196 459.798 239.196ZM465.778 239V231.524H466.842V234.73H466.674C466.674 233.993 466.772 233.372 466.968 232.868C467.174 232.355 467.482 231.967 467.892 231.706C468.303 231.435 468.821 231.3 469.446 231.3H469.502C470.445 231.3 471.14 231.594 471.588 232.182C472.046 232.77 472.274 233.619 472.274 234.73V239H470.93V234.45C470.93 233.871 470.767 233.409 470.44 233.064C470.114 232.709 469.666 232.532 469.096 232.532C468.508 232.532 468.032 232.714 467.668 233.078C467.304 233.442 467.122 233.927 467.122 234.534V239H465.778ZM479.885 239L477.071 235.514H475.839L479.269 231.524H480.683L477.575 235.122L477.673 234.408L481.439 239H479.885ZM474.733 239V228.78H476.077V239H474.733ZM488.128 239L489.64 231.776H491.46L493.224 239H492.076L490.312 231.804H490.76L489.234 239H488.128ZM487.442 239V237.936H488.996V239H487.442ZM487.134 239L485.02 231.524H486.308L488.366 239H487.134ZM492.356 239V237.936H493.91V239H492.356ZM492.986 239L494.778 231.524H495.996L494.162 239H492.986ZM502.279 239V236.76H502.055V234.17C502.055 233.657 501.919 233.269 501.649 233.008C501.387 232.747 501 232.616 500.487 232.616C500.197 232.616 499.899 232.621 499.591 232.63C499.283 232.639 498.989 232.649 498.709 232.658C498.429 232.667 498.186 232.681 497.981 232.7V231.524C498.186 231.505 498.401 231.491 498.625 231.482C498.858 231.463 499.096 231.454 499.339 231.454C499.581 231.445 499.815 231.44 500.039 231.44C500.804 231.44 501.429 231.533 501.915 231.72C502.4 231.897 502.759 232.191 502.993 232.602C503.226 233.013 503.343 233.568 503.343 234.268V239H502.279ZM499.829 239.196C499.269 239.196 498.783 239.103 498.373 238.916C497.971 238.72 497.659 238.44 497.435 238.076C497.22 237.712 497.113 237.273 497.113 236.76C497.113 236.228 497.229 235.785 497.463 235.43C497.705 235.075 498.055 234.809 498.513 234.632C498.97 234.445 499.521 234.352 500.165 234.352H502.195V235.36H500.109C499.567 235.36 499.152 235.491 498.863 235.752C498.573 236.013 498.429 236.349 498.429 236.76C498.429 237.171 498.573 237.502 498.863 237.754C499.152 238.006 499.567 238.132 500.109 238.132C500.426 238.132 500.729 238.076 501.019 237.964C501.308 237.843 501.546 237.647 501.733 237.376C501.929 237.096 502.036 236.713 502.055 236.228L502.419 236.76C502.372 237.292 502.241 237.74 502.027 238.104C501.821 238.459 501.532 238.729 501.159 238.916C500.795 239.103 500.351 239.196 499.829 239.196ZM505.893 239V228.78H507.237V239H505.893ZM504.857 229.844V228.78H507.237V229.844H504.857ZM509.899 239V228.78H511.243V239H509.899ZM508.863 229.844V228.78H511.243V229.844H508.863ZM516.999 239.252C516.346 239.252 515.781 239.14 515.305 238.916C514.829 238.692 514.442 238.398 514.143 238.034C513.845 237.661 513.621 237.245 513.471 236.788C513.331 236.331 513.261 235.864 513.261 235.388V235.136C513.261 234.651 513.331 234.179 513.471 233.722C513.621 233.265 513.845 232.854 514.143 232.49C514.442 232.117 514.82 231.823 515.277 231.608C515.744 231.384 516.29 231.272 516.915 231.272C517.727 231.272 518.395 231.449 518.917 231.804C519.449 232.149 519.841 232.597 520.093 233.148C520.355 233.699 520.485 234.287 520.485 234.912V235.514H513.849V234.506H519.505L519.197 235.052C519.197 234.52 519.113 234.063 518.945 233.68C518.777 233.288 518.525 232.985 518.189 232.77C517.853 232.555 517.429 232.448 516.915 232.448C516.383 232.448 515.94 232.569 515.585 232.812C515.24 233.055 514.979 233.386 514.801 233.806C514.633 234.226 514.549 234.711 514.549 235.262C514.549 235.794 514.633 236.275 514.801 236.704C514.979 237.124 515.249 237.46 515.613 237.712C515.977 237.955 516.439 238.076 516.999 238.076C517.587 238.076 518.063 237.945 518.427 237.684C518.801 237.423 519.025 237.119 519.099 236.774H520.359C520.257 237.287 520.051 237.731 519.743 238.104C519.435 238.477 519.048 238.762 518.581 238.958C518.115 239.154 517.587 239.252 516.999 239.252ZM525.305 239.084C524.745 239.084 524.26 239.005 523.849 238.846C523.448 238.687 523.135 238.417 522.911 238.034C522.697 237.642 522.589 237.115 522.589 236.452V229.256H523.877V236.62C523.877 237.021 523.985 237.334 524.199 237.558C524.423 237.773 524.736 237.88 525.137 237.88H526.453V239.084H525.305ZM521.301 232.532V231.524H526.453V232.532H521.301Z" fill="white"/>
</g>
<defs>
<linearGradient id="paint0_linear_4919_14564" x1="434.601" y1="34.6008" x2="540" y2="140" gradientUnits="userSpaceOnUse">
<stop stop-color="#DAF727"/>
<stop offset="1" stop-color="#725AEC"/>
</linearGradient>
<linearGradient id="paint1_linear_4919_14564" x1="-5.63715e+09" y1="188.237" x2="-5.63715e+09" y2="153.594" gradientUnits="userSpaceOnUse">
<stop stop-color="white" stop-opacity="0.04"/>
<stop offset="1" stop-color="white"/>
</linearGradient>
<clipPath id="clip0_4919_14564">
<rect width="540" height="336" fill="white"/>
</clipPath>
<clipPath id="clip1_4919_14564">
<rect width="320" height="692.907" rx="40" fill="white"/>
</clipPath>
<clipPath id="clip2_4919_14564">
<rect width="85.1711" height="85.1711" fill="white" transform="translate(427.681 27.6812)"/>
</clipPath>
</defs>
</svg>
