<svg width="416" height="402" viewBox="0 0 416 402" fill="none" xmlns="http://www.w3.org/2000/svg">
<rect width="416" height="72" rx="16" fill="#0E0637"/>
<rect x="291" y="20" width="93" height="32" rx="8" fill="white"/>
<path d="M310.715 32V23.24H312.275L314.867 29.084H315.059L317.639 23.24H319.211V32H318.035V24.524L318.119 24.548L315.635 30.188H314.195L311.699 24.548L311.795 24.524V32H310.715ZM324.598 32.216C324.038 32.216 323.546 32.12 323.122 31.928C322.698 31.736 322.338 31.484 322.042 31.172C321.754 30.852 321.534 30.496 321.382 30.104C321.238 29.712 321.166 29.312 321.166 28.904V28.688C321.166 28.28 321.242 27.88 321.394 27.488C321.546 27.088 321.77 26.732 322.066 26.42C322.362 26.1 322.722 25.848 323.146 25.664C323.57 25.472 324.054 25.376 324.598 25.376C325.142 25.376 325.626 25.472 326.05 25.664C326.474 25.848 326.834 26.1 327.13 26.42C327.426 26.732 327.65 27.088 327.802 27.488C327.954 27.88 328.03 28.28 328.03 28.688V28.904C328.03 29.312 327.954 29.712 327.802 30.104C327.658 30.496 327.438 30.852 327.142 31.172C326.854 31.484 326.498 31.736 326.074 31.928C325.65 32.12 325.158 32.216 324.598 32.216ZM324.598 31.184C325.078 31.184 325.486 31.08 325.822 30.872C326.166 30.656 326.426 30.368 326.602 30.008C326.786 29.648 326.878 29.244 326.878 28.796C326.878 28.34 326.786 27.932 326.602 27.572C326.418 27.212 326.154 26.928 325.81 26.72C325.474 26.512 325.07 26.408 324.598 26.408C324.134 26.408 323.73 26.512 323.386 26.72C323.042 26.928 322.778 27.212 322.594 27.572C322.41 27.932 322.318 28.34 322.318 28.796C322.318 29.244 322.406 29.648 322.582 30.008C322.766 30.368 323.026 30.656 323.362 30.872C323.706 31.08 324.118 31.184 324.598 31.184ZM329.816 32V25.592H330.728V28.34H330.584C330.584 27.708 330.668 27.176 330.836 26.744C331.012 26.304 331.276 25.972 331.628 25.748C331.98 25.516 332.424 25.4 332.96 25.4H333.008C333.816 25.4 334.412 25.652 334.796 26.156C335.188 26.66 335.384 27.388 335.384 28.34V32H334.232V28.1C334.232 27.604 334.092 27.208 333.812 26.912C333.532 26.608 333.148 26.456 332.66 26.456C332.156 26.456 331.748 26.612 331.436 26.924C331.124 27.236 330.968 27.652 330.968 28.172V32H329.816ZM340.047 32.072C339.567 32.072 339.151 32.004 338.799 31.868C338.455 31.732 338.187 31.5 337.995 31.172C337.811 30.836 337.719 30.384 337.719 29.816V23.648H338.823V29.96C338.823 30.304 338.915 30.572 339.099 30.764C339.291 30.948 339.559 31.04 339.903 31.04H341.031V32.072H340.047ZM336.615 26.456V25.592H341.031V26.456H336.615ZM317.708 48V39.24H318.86V44.472H318.572C318.572 43.84 318.652 43.296 318.812 42.84C318.98 42.376 319.236 42.02 319.58 41.772C319.924 41.524 320.364 41.4 320.9 41.4H320.948C321.716 41.4 322.296 41.656 322.688 42.168C323.08 42.672 323.276 43.396 323.276 44.34V48H322.124V44.1C322.124 43.58 321.976 43.176 321.68 42.888C321.392 42.6 321.016 42.456 320.552 42.456C320.04 42.456 319.628 42.628 319.316 42.972C319.012 43.308 318.86 43.752 318.86 44.304V48H317.708ZM325.516 48V39.24H326.668V48H325.516ZM324.628 40.152V39.24H326.668V40.152H324.628ZM328.505 50.496V49.464H329.429C329.701 49.464 329.929 49.428 330.113 49.356C330.305 49.292 330.461 49.18 330.581 49.02C330.709 48.86 330.813 48.648 330.893 48.384L332.909 41.592H334.037L331.901 48.684C331.773 49.108 331.593 49.452 331.361 49.716C331.129 49.988 330.845 50.184 330.509 50.304C330.181 50.432 329.797 50.496 329.357 50.496H328.505ZM330.461 47.856V46.896H331.853V47.856H330.461ZM330.341 47.856L328.049 41.592H329.225L331.421 47.856H330.341Z" fill="#0E0637"/>
<path d="M360 34L364 38L368 34" stroke="#9C9CAB" stroke-width="1.5" stroke-linecap="round" stroke-linejoin="round"/>
<path d="M36.55 31C35.7473 31 35.066 30.8693 34.506 30.608C33.946 30.3373 33.5167 29.9593 33.218 29.474C32.9287 28.9793 32.784 28.4007 32.784 27.738H34.044C34.044 28.0553 34.1187 28.3773 34.268 28.704C34.4267 29.0307 34.688 29.306 35.052 29.53C35.416 29.7447 35.9153 29.852 36.55 29.852C37.39 29.852 38.0107 29.6747 38.412 29.32C38.8227 28.9653 39.028 28.5593 39.028 28.102C39.028 27.654 38.846 27.2807 38.482 26.982C38.118 26.6833 37.5907 26.5013 36.9 26.436L35.976 26.352C35.08 26.268 34.366 25.9973 33.834 25.54C33.302 25.0827 33.036 24.4293 33.036 23.58C33.036 22.992 33.176 22.4927 33.456 22.082C33.7453 21.662 34.1467 21.34 34.66 21.116C35.1827 20.892 35.794 20.78 36.494 20.78C37.194 20.78 37.796 20.906 38.3 21.158C38.8133 21.4007 39.21 21.76 39.49 22.236C39.77 22.7027 39.91 23.2673 39.91 23.93H38.65C38.65 23.594 38.5753 23.2767 38.426 22.978C38.2767 22.67 38.0433 22.418 37.726 22.222C37.418 22.026 37.0073 21.928 36.494 21.928C36.0367 21.928 35.6447 22.0027 35.318 22.152C35.0007 22.292 34.7533 22.488 34.576 22.74C34.408 22.992 34.324 23.272 34.324 23.58C34.324 23.9813 34.4687 24.3313 34.758 24.63C35.0473 24.9193 35.4907 25.092 36.088 25.148L37.012 25.232C38.0107 25.3253 38.8087 25.6193 39.406 26.114C40.0127 26.5993 40.316 27.262 40.316 28.102C40.316 28.6807 40.162 29.1893 39.854 29.628C39.546 30.0573 39.112 30.3933 38.552 30.636C37.992 30.8787 37.3247 31 36.55 31ZM35.948 32.806V30.762H37.152V32.806H35.948ZM35.892 21.466V19.422H37.096V21.466H35.892ZM46.0188 31.28C45.2721 31.28 44.6468 31.1493 44.1428 30.888C43.6481 30.6267 43.2515 30.272 42.9528 29.824C42.6635 29.3667 42.4535 28.844 42.3228 28.256C42.2015 27.668 42.1408 27.052 42.1408 26.408V25.736C42.1408 24.1213 42.5421 22.88 43.3448 22.012C44.1475 21.1347 45.3095 20.696 46.8308 20.696C47.1948 20.696 47.5028 20.7053 47.7548 20.724C48.0068 20.7427 48.2821 20.7707 48.5808 20.808V21.956C48.2728 21.9187 47.9881 21.8907 47.7268 21.872C47.4655 21.8533 47.1481 21.844 46.7748 21.844C45.9255 21.844 45.2535 22.0027 44.7588 22.32C44.2641 22.6373 43.9095 23.0947 43.6948 23.692C43.4801 24.28 43.3728 24.994 43.3728 25.834V26.464L43.0368 27.71C43.0461 26.9727 43.1861 26.3613 43.4568 25.876C43.7368 25.3907 44.1148 25.0267 44.5908 24.784C45.0761 24.5413 45.6315 24.42 46.2568 24.42C46.9848 24.42 47.6008 24.5693 48.1048 24.868C48.6088 25.1573 48.9868 25.5587 49.2388 26.072C49.5001 26.5853 49.6308 27.1687 49.6308 27.822C49.6308 28.4847 49.4955 29.0773 49.2248 29.6C48.9541 30.1227 48.5481 30.5333 48.0068 30.832C47.4748 31.1307 46.8121 31.28 46.0188 31.28ZM46.0188 30.104C46.5321 30.104 46.9615 30.006 47.3068 29.81C47.6521 29.614 47.9088 29.348 48.0768 29.012C48.2541 28.6667 48.3428 28.27 48.3428 27.822C48.3428 27.374 48.2588 26.9773 48.0908 26.632C47.9228 26.2867 47.6708 26.0207 47.3348 25.834C47.0081 25.638 46.6021 25.54 46.1168 25.54C45.6408 25.54 45.2115 25.6287 44.8288 25.806C44.4555 25.9833 44.1615 26.2447 43.9468 26.59C43.7321 26.926 43.6248 27.3413 43.6248 27.836C43.6248 28.2467 43.7088 28.6247 43.8768 28.97C44.0448 29.3153 44.3061 29.5907 44.6608 29.796C45.0155 30.0013 45.4681 30.104 46.0188 30.104ZM51.4253 31V29.32C51.4253 28.9093 51.4813 28.5593 51.5933 28.27C51.7147 27.9807 51.92 27.7193 52.2093 27.486C52.4987 27.2433 52.8907 27.01 53.3853 26.786L55.3033 25.904C55.77 25.6893 56.1387 25.414 56.4093 25.078C56.68 24.7327 56.8153 24.2893 56.8153 23.748C56.8153 23.0947 56.6333 22.586 56.2693 22.222C55.9053 21.858 55.392 21.676 54.7293 21.676C54.076 21.676 53.5627 21.858 53.1893 22.222C52.816 22.586 52.6293 23.0947 52.6293 23.748H51.3133C51.3133 23.16 51.4347 22.6187 51.6773 22.124C51.9293 21.6293 52.3073 21.2373 52.8113 20.948C53.3153 20.6493 53.9547 20.5 54.7293 20.5C55.504 20.5 56.1387 20.6493 56.6333 20.948C57.1373 21.2373 57.5107 21.62 57.7533 22.096C58.0053 22.572 58.1313 23.09 58.1313 23.65V23.846C58.1313 24.5833 57.9167 25.204 57.4873 25.708C57.0673 26.212 56.498 26.6273 55.7793 26.954L53.8613 27.836C53.432 28.032 53.1427 28.228 52.9933 28.424C52.844 28.62 52.7693 28.8813 52.7693 29.208V30.496L52.4053 29.852H58.2573V31H51.4253ZM61.0316 31L65.3576 22.054L65.2736 21.928H59.6876V20.78H66.5476V22.404L62.4316 31H61.0316ZM59.6876 23.552V20.78H60.8076V23.552H59.6876ZM71.5067 31.252C70.7787 31.252 70.13 31.1213 69.5607 30.86C69.0007 30.5987 68.5574 30.2347 68.2307 29.768C67.9134 29.3013 67.7547 28.76 67.7547 28.144C67.7547 27.7333 67.834 27.3647 67.9927 27.038C68.1514 26.702 68.3707 26.4127 68.6507 26.17C68.9307 25.9273 69.248 25.7407 69.6027 25.61V25.47C69.3227 25.3487 69.066 25.1853 68.8327 24.98C68.6087 24.7747 68.4267 24.532 68.2867 24.252C68.156 23.972 68.0907 23.6547 68.0907 23.3C68.0907 22.712 68.2447 22.2127 68.5527 21.802C68.87 21.3913 69.2854 21.0787 69.7987 20.864C70.3214 20.64 70.8907 20.528 71.5067 20.528C72.132 20.528 72.7014 20.64 73.2147 20.864C73.7374 21.0787 74.1527 21.3913 74.4607 21.802C74.7687 22.2127 74.9227 22.712 74.9227 23.3C74.9227 23.6547 74.8574 23.972 74.7267 24.252C74.596 24.532 74.414 24.7747 74.1807 24.98C73.9567 25.1853 73.7 25.3487 73.4107 25.47V25.61C73.7747 25.7407 74.0967 25.932 74.3767 26.184C74.6567 26.4267 74.876 26.716 75.0347 27.052C75.1934 27.3787 75.2727 27.7427 75.2727 28.144C75.2727 28.76 75.1094 29.3013 74.7827 29.768C74.4654 30.2347 74.022 30.5987 73.4527 30.86C72.8927 31.1213 72.244 31.252 71.5067 31.252ZM71.5067 30.104C72.02 30.104 72.4587 30.0247 72.8227 29.866C73.1867 29.698 73.4667 29.4647 73.6627 29.166C73.8587 28.858 73.9567 28.4987 73.9567 28.088C73.9567 27.6773 73.8587 27.3227 73.6627 27.024C73.476 26.7253 73.2007 26.4967 72.8367 26.338C72.4727 26.17 72.0294 26.086 71.5067 26.086C70.9934 26.086 70.5547 26.17 70.1907 26.338C69.8267 26.4967 69.5467 26.7253 69.3507 27.024C69.164 27.3227 69.0707 27.6773 69.0707 28.088C69.0707 28.4987 69.164 28.858 69.3507 29.166C69.5467 29.4647 69.8267 29.698 70.1907 29.866C70.5547 30.0247 70.9934 30.104 71.5067 30.104ZM71.5067 25.022C72.1414 25.022 72.65 24.8867 73.0327 24.616C73.4154 24.336 73.6067 23.9113 73.6067 23.342C73.6067 22.7633 73.4107 22.3433 73.0187 22.082C72.636 21.8113 72.132 21.676 71.5067 21.676C70.8814 21.676 70.3727 21.8113 69.9807 22.082C69.598 22.3527 69.4067 22.7727 69.4067 23.342C69.4067 23.9113 69.598 24.336 69.9807 24.616C70.3727 24.8867 70.8814 25.022 71.5067 25.022ZM76.9908 31V29.292H78.6148V31H76.9908ZM82.4888 31V21.452L83.1048 21.928H80.2208V20.78H83.8328V31H82.4888ZM89.6977 31.252C88.9324 31.252 88.2837 31.1027 87.7517 30.804C87.2197 30.5053 86.8137 30.1087 86.5337 29.614C86.2631 29.1193 86.1277 28.5827 86.1277 28.004H87.4437C87.4437 28.6387 87.6444 29.1427 88.0457 29.516C88.4564 29.8893 89.0071 30.076 89.6977 30.076C90.1551 30.076 90.5517 29.992 90.8877 29.824C91.2237 29.656 91.4851 29.418 91.6717 29.11C91.8584 28.7927 91.9517 28.424 91.9517 28.004C91.9517 27.3693 91.7464 26.856 91.3357 26.464C90.9344 26.072 90.3931 25.876 89.7117 25.876C89.4224 25.876 89.1704 25.9133 88.9557 25.988C88.7504 26.0533 88.5684 26.1373 88.4097 26.24L87.7377 25.036L91.6437 22.18L91.5037 21.928H86.5337V20.78H92.7637V22.642L89.5297 24.994L88.5497 25.036C88.7084 24.98 88.8811 24.9333 89.0677 24.896C89.2637 24.8587 89.4924 24.84 89.7537 24.84C90.5004 24.84 91.1351 24.98 91.6577 25.26C92.1804 25.54 92.5771 25.9133 92.8477 26.38C93.1277 26.8467 93.2677 27.3553 93.2677 27.906V28.102C93.2677 28.6433 93.1277 29.1567 92.8477 29.642C92.5771 30.118 92.1757 30.5053 91.6437 30.804C91.1211 31.1027 90.4724 31.252 89.6977 31.252Z" fill="white"/>
<path d="M33.272 44V35.24H34.448V44H33.272ZM34.208 44V42.944H38.216V44H34.208ZM43.5673 44V42.08H43.3753V39.86C43.3753 39.42 43.2593 39.088 43.0273 38.864C42.8033 38.64 42.4713 38.528 42.0313 38.528C41.7833 38.528 41.5273 38.532 41.2633 38.54C40.9993 38.548 40.7473 38.556 40.5073 38.564C40.2673 38.572 40.0593 38.584 39.8833 38.6V37.592C40.0593 37.576 40.2433 37.564 40.4353 37.556C40.6353 37.54 40.8393 37.532 41.0473 37.532C41.2553 37.524 41.4553 37.52 41.6473 37.52C42.3033 37.52 42.8393 37.6 43.2553 37.76C43.6713 37.912 43.9793 38.164 44.1793 38.516C44.3793 38.868 44.4793 39.344 44.4793 39.944V44H43.5673ZM41.4673 44.168C40.9873 44.168 40.5713 44.088 40.2193 43.928C39.8753 43.76 39.6073 43.52 39.4153 43.208C39.2313 42.896 39.1393 42.52 39.1393 42.08C39.1393 41.624 39.2393 41.244 39.4393 40.94C39.6473 40.636 39.9473 40.408 40.3393 40.256C40.7313 40.096 41.2033 40.016 41.7553 40.016H43.4953V40.88H41.7073C41.2433 40.88 40.8873 40.992 40.6393 41.216C40.3913 41.44 40.2673 41.728 40.2673 42.08C40.2673 42.432 40.3913 42.716 40.6393 42.932C40.8873 43.148 41.2433 43.256 41.7073 43.256C41.9793 43.256 42.2393 43.208 42.4873 43.112C42.7353 43.008 42.9393 42.84 43.0993 42.608C43.2673 42.368 43.3593 42.04 43.3753 41.624L43.6873 42.08C43.6473 42.536 43.5353 42.92 43.3513 43.232C43.1753 43.536 42.9273 43.768 42.6073 43.928C42.2953 44.088 41.9153 44.168 41.4673 44.168ZM48.7537 44.192C47.9137 44.192 47.2617 44.012 46.7977 43.652C46.3417 43.292 46.1057 42.8 46.0897 42.176H47.1697C47.1857 42.424 47.3097 42.66 47.5417 42.884C47.7817 43.1 48.1857 43.208 48.7537 43.208C49.2657 43.208 49.6577 43.108 49.9297 42.908C50.2017 42.7 50.3377 42.448 50.3377 42.152C50.3377 41.888 50.2377 41.684 50.0377 41.54C49.8377 41.388 49.5137 41.288 49.0657 41.24L48.3697 41.168C47.7617 41.104 47.2657 40.924 46.8817 40.628C46.4977 40.324 46.3057 39.9 46.3057 39.356C46.3057 38.948 46.4097 38.6 46.6177 38.312C46.8257 38.016 47.1137 37.792 47.4817 37.64C47.8497 37.48 48.2737 37.4 48.7537 37.4C49.4737 37.4 50.0577 37.56 50.5057 37.88C50.9537 38.2 51.1857 38.676 51.2017 39.308H50.1217C50.1137 39.052 49.9937 38.836 49.7617 38.66C49.5377 38.476 49.2017 38.384 48.7537 38.384C48.3057 38.384 47.9657 38.476 47.7337 38.66C47.5017 38.844 47.3857 39.076 47.3857 39.356C47.3857 39.596 47.4657 39.788 47.6257 39.932C47.7937 40.076 48.0657 40.168 48.4417 40.208L49.1377 40.28C49.8257 40.352 50.3777 40.544 50.7937 40.856C51.2097 41.16 51.4177 41.592 51.4177 42.152C51.4177 42.552 51.3017 42.908 51.0697 43.22C50.8457 43.524 50.5337 43.764 50.1337 43.94C49.7337 44.108 49.2737 44.192 48.7537 44.192ZM55.6433 44.072C55.1633 44.072 54.7473 44.004 54.3953 43.868C54.0513 43.732 53.7833 43.5 53.5913 43.172C53.4073 42.836 53.3153 42.384 53.3153 41.816V35.648H54.4193V41.96C54.4193 42.304 54.5113 42.572 54.6953 42.764C54.8873 42.948 55.1553 43.04 55.4993 43.04H56.6273V44.072H55.6433ZM52.2113 38.456V37.592H56.6273V38.456H52.2113ZM33.104 62.4V53.592H34.016V56.364L33.8 56.34C33.84 55.652 33.984 55.092 34.232 54.66C34.488 54.22 34.82 53.896 35.228 53.688C35.636 53.48 36.08 53.376 36.56 53.376C37.024 53.376 37.444 53.464 37.82 53.64C38.204 53.816 38.532 54.056 38.804 54.36C39.076 54.664 39.284 55.016 39.428 55.416C39.572 55.816 39.644 56.24 39.644 56.688V56.904C39.644 57.352 39.568 57.776 39.416 58.176C39.264 58.576 39.048 58.928 38.768 59.232C38.496 59.536 38.168 59.776 37.784 59.952C37.408 60.128 36.992 60.216 36.536 60.216C36.08 60.216 35.644 60.116 35.228 59.916C34.812 59.716 34.468 59.392 34.196 58.944C33.924 58.496 33.768 57.908 33.728 57.18L34.256 58.14V62.4H33.104ZM36.356 59.208C36.788 59.208 37.164 59.108 37.484 58.908C37.804 58.7 38.052 58.416 38.228 58.056C38.404 57.688 38.492 57.268 38.492 56.796C38.492 56.316 38.404 55.896 38.228 55.536C38.052 55.176 37.804 54.896 37.484 54.696C37.164 54.488 36.788 54.384 36.356 54.384C35.972 54.384 35.616 54.472 35.288 54.648C34.96 54.816 34.696 55.064 34.496 55.392C34.304 55.712 34.208 56.1 34.208 56.556V57.108C34.208 57.548 34.308 57.924 34.508 58.236C34.708 58.548 34.972 58.788 35.3 58.956C35.628 59.124 35.98 59.208 36.356 59.208ZM41.4374 60V53.592H42.3494V56.232H42.3014C42.3014 55.296 42.5054 54.612 42.9134 54.18C43.3294 53.74 43.9494 53.52 44.7734 53.52H44.9894V54.552H44.5814C43.9414 54.552 43.4494 54.724 43.1054 55.068C42.7614 55.404 42.5894 55.892 42.5894 56.532V60H41.4374ZM46.7313 60V53.592H47.8833V60H46.7313ZM45.7473 54.504V53.592H47.8833V54.504H45.7473ZM47.0553 52.56C46.7993 52.56 46.6073 52.492 46.4793 52.356C46.3593 52.22 46.2993 52.048 46.2993 51.84C46.2993 51.632 46.3593 51.46 46.4793 51.324C46.6073 51.188 46.7993 51.12 47.0553 51.12C47.3113 51.12 47.4993 51.188 47.6193 51.324C47.7473 51.46 47.8113 51.632 47.8113 51.84C47.8113 52.048 47.7473 52.22 47.6193 52.356C47.4993 52.492 47.3113 52.56 47.0553 52.56ZM52.9187 60.216C52.3667 60.216 51.8867 60.12 51.4787 59.928C51.0787 59.736 50.7467 59.48 50.4827 59.16C50.2187 58.832 50.0187 58.472 49.8827 58.08C49.7547 57.688 49.6907 57.296 49.6907 56.904V56.688C49.6907 56.28 49.7547 55.88 49.8827 55.488C50.0187 55.096 50.2187 54.744 50.4827 54.432C50.7547 54.112 51.0907 53.856 51.4907 53.664C51.8907 53.472 52.3587 53.376 52.8947 53.376C53.4307 53.376 53.9107 53.476 54.3347 53.676C54.7667 53.876 55.1107 54.16 55.3667 54.528C55.6307 54.888 55.7787 55.316 55.8107 55.812H54.7067C54.6507 55.412 54.4667 55.08 54.1547 54.816C53.8427 54.544 53.4227 54.408 52.8947 54.408C52.4387 54.408 52.0587 54.512 51.7547 54.72C51.4507 54.928 51.2227 55.212 51.0707 55.572C50.9187 55.932 50.8427 56.34 50.8427 56.796C50.8427 57.236 50.9187 57.64 51.0707 58.008C51.2227 58.368 51.4507 58.656 51.7547 58.872C52.0667 59.08 52.4547 59.184 52.9187 59.184C53.2787 59.184 53.5907 59.12 53.8547 58.992C54.1187 58.864 54.3307 58.692 54.4907 58.476C54.6507 58.26 54.7467 58.016 54.7787 57.744H55.8827C55.8587 58.248 55.7107 58.684 55.4387 59.052C55.1747 59.42 54.8227 59.708 54.3827 59.916C53.9507 60.116 53.4627 60.216 52.9187 60.216ZM60.2321 60.216C59.6721 60.216 59.1881 60.12 58.7801 59.928C58.3721 59.736 58.0401 59.484 57.7841 59.172C57.5281 58.852 57.3361 58.496 57.2081 58.104C57.0881 57.712 57.0281 57.312 57.0281 56.904V56.688C57.0281 56.272 57.0881 55.868 57.2081 55.476C57.3361 55.084 57.5281 54.732 57.7841 54.42C58.0401 54.1 58.3641 53.848 58.7561 53.664C59.1561 53.472 59.6241 53.376 60.1601 53.376C60.8561 53.376 61.4281 53.528 61.8761 53.832C62.3321 54.128 62.6681 54.512 62.8841 54.984C63.1081 55.456 63.2201 55.96 63.2201 56.496V57.012H57.5321V56.148H62.3801L62.1161 56.616C62.1161 56.16 62.0441 55.768 61.9001 55.44C61.7561 55.104 61.5401 54.844 61.2521 54.66C60.9641 54.476 60.6001 54.384 60.1601 54.384C59.7041 54.384 59.3241 54.488 59.0201 54.696C58.7241 54.904 58.5001 55.188 58.3481 55.548C58.2041 55.908 58.1321 56.324 58.1321 56.796C58.1321 57.252 58.2041 57.664 58.3481 58.032C58.5001 58.392 58.7321 58.68 59.0441 58.896C59.3561 59.104 59.7521 59.208 60.2321 59.208C60.7361 59.208 61.1441 59.096 61.4561 58.872C61.7761 58.648 61.9681 58.388 62.0321 58.092H63.1121C63.0241 58.532 62.8481 58.912 62.5841 59.232C62.3201 59.552 61.9881 59.796 61.5881 59.964C61.1881 60.132 60.7361 60.216 60.2321 60.216Z" fill="#9C9CAB"/>
<path d="M141.186 31.252C140.421 31.252 139.772 31.1027 139.24 30.804C138.708 30.5053 138.302 30.1087 138.022 29.614C137.751 29.1193 137.616 28.5827 137.616 28.004H138.932C138.932 28.6387 139.133 29.1427 139.534 29.516C139.945 29.8893 140.495 30.076 141.186 30.076C141.643 30.076 142.04 29.992 142.376 29.824C142.712 29.656 142.973 29.418 143.16 29.11C143.347 28.7927 143.44 28.424 143.44 28.004C143.44 27.3693 143.235 26.856 142.824 26.464C142.423 26.072 141.881 25.876 141.2 25.876C140.911 25.876 140.659 25.9133 140.444 25.988C140.239 26.0533 140.057 26.1373 139.898 26.24L139.226 25.036L143.132 22.18L142.992 21.928H138.022V20.78H144.252V22.642L141.018 24.994L140.038 25.036C140.197 24.98 140.369 24.9333 140.556 24.896C140.752 24.8587 140.981 24.84 141.242 24.84C141.989 24.84 142.623 24.98 143.146 25.26C143.669 25.54 144.065 25.9133 144.336 26.38C144.616 26.8467 144.756 27.3553 144.756 27.906V28.102C144.756 28.6433 144.616 29.1567 144.336 29.642C144.065 30.118 143.664 30.5053 143.132 30.804C142.609 31.1027 141.961 31.252 141.186 31.252ZM150.052 31.252C149.324 31.252 148.675 31.1213 148.106 30.86C147.546 30.5987 147.102 30.2347 146.776 29.768C146.458 29.3013 146.3 28.76 146.3 28.144C146.3 27.7333 146.379 27.3647 146.538 27.038C146.696 26.702 146.916 26.4127 147.196 26.17C147.476 25.9273 147.793 25.7407 148.148 25.61V25.47C147.868 25.3487 147.611 25.1853 147.378 24.98C147.154 24.7747 146.972 24.532 146.832 24.252C146.701 23.972 146.636 23.6547 146.636 23.3C146.636 22.712 146.79 22.2127 147.098 21.802C147.415 21.3913 147.83 21.0787 148.344 20.864C148.866 20.64 149.436 20.528 150.052 20.528C150.677 20.528 151.246 20.64 151.76 20.864C152.282 21.0787 152.698 21.3913 153.006 21.802C153.314 22.2127 153.468 22.712 153.468 23.3C153.468 23.6547 153.402 23.972 153.272 24.252C153.141 24.532 152.959 24.7747 152.726 24.98C152.502 25.1853 152.245 25.3487 151.956 25.47V25.61C152.32 25.7407 152.642 25.932 152.922 26.184C153.202 26.4267 153.421 26.716 153.58 27.052C153.738 27.3787 153.818 27.7427 153.818 28.144C153.818 28.76 153.654 29.3013 153.328 29.768C153.01 30.2347 152.567 30.5987 151.998 30.86C151.438 31.1213 150.789 31.252 150.052 31.252ZM150.052 30.104C150.565 30.104 151.004 30.0247 151.368 29.866C151.732 29.698 152.012 29.4647 152.208 29.166C152.404 28.858 152.502 28.4987 152.502 28.088C152.502 27.6773 152.404 27.3227 152.208 27.024C152.021 26.7253 151.746 26.4967 151.382 26.338C151.018 26.17 150.574 26.086 150.052 26.086C149.538 26.086 149.1 26.17 148.736 26.338C148.372 26.4967 148.092 26.7253 147.896 27.024C147.709 27.3227 147.616 27.6773 147.616 28.088C147.616 28.4987 147.709 28.858 147.896 29.166C148.092 29.4647 148.372 29.698 148.736 29.866C149.1 30.0247 149.538 30.104 150.052 30.104ZM150.052 25.022C150.686 25.022 151.195 24.8867 151.578 24.616C151.96 24.336 152.152 23.9113 152.152 23.342C152.152 22.7633 151.956 22.3433 151.564 22.082C151.181 21.8113 150.677 21.676 150.052 21.676C149.426 21.676 148.918 21.8113 148.526 22.082C148.143 22.3527 147.952 22.7727 147.952 23.342C147.952 23.9113 148.143 24.336 148.526 24.616C148.918 24.8867 149.426 25.022 150.052 25.022ZM155.536 31V29.292H157.16V31H155.536ZM159.242 31V29.32C159.242 28.9093 159.298 28.5593 159.41 28.27C159.531 27.9807 159.736 27.7193 160.026 27.486C160.315 27.2433 160.707 27.01 161.202 26.786L163.12 25.904C163.586 25.6893 163.955 25.414 164.226 25.078C164.496 24.7327 164.632 24.2893 164.632 23.748C164.632 23.0947 164.45 22.586 164.086 22.222C163.722 21.858 163.208 21.676 162.546 21.676C161.892 21.676 161.379 21.858 161.006 22.222C160.632 22.586 160.446 23.0947 160.446 23.748H159.13C159.13 23.16 159.251 22.6187 159.494 22.124C159.746 21.6293 160.124 21.2373 160.628 20.948C161.132 20.6493 161.771 20.5 162.546 20.5C163.32 20.5 163.955 20.6493 164.45 20.948C164.954 21.2373 165.327 21.62 165.57 22.096C165.822 22.572 165.948 23.09 165.948 23.65V23.846C165.948 24.5833 165.733 25.204 165.304 25.708C164.884 26.212 164.314 26.6273 163.596 26.954L161.678 27.836C161.248 28.032 160.959 28.228 160.81 28.424C160.66 28.62 160.586 28.8813 160.586 29.208V30.496L160.222 29.852H166.074V31H159.242ZM171.256 31.252C170.472 31.252 169.809 31.0933 169.268 30.776C168.727 30.4493 168.316 30.0247 168.036 29.502C167.756 28.9793 167.616 28.424 167.616 27.836H168.932C168.932 28.2653 169.025 28.648 169.212 28.984C169.408 29.32 169.679 29.586 170.024 29.782C170.369 29.978 170.78 30.076 171.256 30.076C171.723 30.076 172.129 29.9827 172.474 29.796C172.829 29.6 173.104 29.334 173.3 28.998C173.496 28.6527 173.594 28.2653 173.594 27.836C173.594 27.4067 173.496 27.0193 173.3 26.674C173.113 26.3287 172.843 26.0533 172.488 25.848C172.143 25.6427 171.732 25.54 171.256 25.54C170.911 25.54 170.561 25.6007 170.206 25.722C169.851 25.834 169.567 25.9973 169.352 26.212H168.12L168.638 20.78H174V21.928H169.422L169.758 21.466L169.366 25.428L169.002 25.302C169.273 25.0313 169.599 24.8167 169.982 24.658C170.374 24.4993 170.817 24.42 171.312 24.42C172.096 24.42 172.754 24.5833 173.286 24.91C173.818 25.2273 174.219 25.6427 174.49 26.156C174.77 26.66 174.91 27.1873 174.91 27.738V27.934C174.91 28.4847 174.77 29.0167 174.49 29.53C174.21 30.034 173.795 30.4493 173.244 30.776C172.703 31.0933 172.04 31.252 171.256 31.252ZM181.316 31.056V29.852H184.172C184.723 29.852 185.148 29.698 185.446 29.39C185.754 29.0727 185.908 28.6527 185.908 28.13C185.908 27.598 185.759 27.1827 185.46 26.884C185.162 26.576 184.732 26.422 184.172 26.422H181.316V25.526H183.976C184.63 25.526 185.204 25.6053 185.698 25.764C186.202 25.9227 186.594 26.1887 186.874 26.562C187.164 26.926 187.308 27.4253 187.308 28.06V28.256C187.308 28.8533 187.187 29.362 186.944 29.782C186.702 30.1927 186.333 30.51 185.838 30.734C185.344 30.9487 184.723 31.056 183.976 31.056H181.316ZM180.224 31.056V20.724H181.596V31.056H180.224ZM181.316 26.17V25.274H183.794C184.373 25.274 184.798 25.12 185.068 24.812C185.348 24.4947 185.488 24.0933 185.488 23.608C185.488 23.1133 185.348 22.712 185.068 22.404C184.798 22.0867 184.373 21.928 183.794 21.928H181.316V20.724H183.556C184.676 20.724 185.512 20.962 186.062 21.438C186.613 21.9047 186.888 22.5813 186.888 23.468V23.664C186.888 24.2893 186.748 24.7887 186.468 25.162C186.188 25.526 185.796 25.7873 185.292 25.946C184.798 26.0953 184.219 26.17 183.556 26.17H181.316ZM191.536 31V21.732H192.908V31H191.536ZM188.428 22.012V20.78H196.016V22.012H188.428ZM201.985 31.252C201.051 31.252 200.253 31.0887 199.591 30.762C198.937 30.4353 198.41 30.0107 198.009 29.488C197.607 28.9653 197.313 28.4007 197.127 27.794C196.94 27.178 196.847 26.5853 196.847 26.016V25.708C196.847 25.092 196.94 24.476 197.127 23.86C197.323 23.244 197.621 22.684 198.023 22.18C198.424 21.676 198.947 21.27 199.591 20.962C200.235 20.654 201.005 20.5 201.901 20.5C202.815 20.5 203.599 20.6587 204.253 20.976C204.906 21.2933 205.424 21.7367 205.807 22.306C206.189 22.8753 206.423 23.5473 206.507 24.322H205.107C205.032 23.7433 204.845 23.2673 204.547 22.894C204.248 22.5113 203.87 22.2267 203.413 22.04C202.965 21.8533 202.461 21.76 201.901 21.76C201.294 21.76 200.762 21.8673 200.305 22.082C199.847 22.2873 199.465 22.5813 199.157 22.964C198.858 23.3373 198.629 23.7713 198.471 24.266C198.321 24.7607 198.247 25.2973 198.247 25.876C198.247 26.4267 198.321 26.9493 198.471 27.444C198.629 27.9387 198.863 28.3773 199.171 28.76C199.488 29.1427 199.88 29.446 200.347 29.67C200.813 29.8847 201.359 29.992 201.985 29.992C202.862 29.992 203.599 29.7727 204.197 29.334C204.794 28.8953 205.158 28.2607 205.289 27.43H206.689C206.595 28.13 206.357 28.7693 205.975 29.348C205.601 29.9267 205.079 30.3887 204.407 30.734C203.744 31.0793 202.937 31.252 201.985 31.252Z" fill="white"/>
<path d="M140.3 44L137.264 35.24H138.476L141.2 43.232L140.624 42.944H142.064L141.452 43.232L143.96 35.24H145.136L142.316 44H140.3ZM149.132 44.216C148.572 44.216 148.08 44.12 147.656 43.928C147.232 43.736 146.872 43.484 146.576 43.172C146.288 42.852 146.068 42.496 145.916 42.104C145.772 41.712 145.7 41.312 145.7 40.904V40.688C145.7 40.28 145.776 39.88 145.928 39.488C146.08 39.088 146.304 38.732 146.6 38.42C146.896 38.1 147.256 37.848 147.68 37.664C148.104 37.472 148.588 37.376 149.132 37.376C149.676 37.376 150.16 37.472 150.584 37.664C151.008 37.848 151.368 38.1 151.664 38.42C151.96 38.732 152.184 39.088 152.336 39.488C152.488 39.88 152.564 40.28 152.564 40.688V40.904C152.564 41.312 152.488 41.712 152.336 42.104C152.192 42.496 151.972 42.852 151.676 43.172C151.388 43.484 151.032 43.736 150.608 43.928C150.184 44.12 149.692 44.216 149.132 44.216ZM149.132 43.184C149.612 43.184 150.02 43.08 150.356 42.872C150.7 42.656 150.96 42.368 151.136 42.008C151.32 41.648 151.412 41.244 151.412 40.796C151.412 40.34 151.32 39.932 151.136 39.572C150.952 39.212 150.688 38.928 150.344 38.72C150.008 38.512 149.604 38.408 149.132 38.408C148.668 38.408 148.264 38.512 147.92 38.72C147.576 38.928 147.312 39.212 147.128 39.572C146.944 39.932 146.852 40.34 146.852 40.796C146.852 41.244 146.94 41.648 147.116 42.008C147.3 42.368 147.56 42.656 147.896 42.872C148.24 43.08 148.652 43.184 149.132 43.184ZM154.421 44V35.24H155.573V44H154.421ZM153.533 36.152V35.24H155.573V36.152H153.533ZM160.063 44.192C159.303 44.192 158.719 43.944 158.311 43.448C157.903 42.952 157.699 42.236 157.699 41.3V37.58H158.851V41.528C158.851 42.032 158.987 42.428 159.259 42.716C159.531 42.996 159.899 43.136 160.363 43.136C160.843 43.136 161.235 42.984 161.539 42.68C161.843 42.368 161.995 41.944 161.995 41.408V37.58H163.147V44H162.235V41.252H162.379C162.379 41.884 162.295 42.42 162.127 42.86C161.959 43.292 161.707 43.624 161.371 43.856C161.043 44.08 160.623 44.192 160.111 44.192H160.063ZM165.438 44V37.592H166.35V40.34H166.206C166.206 39.716 166.286 39.188 166.446 38.756C166.614 38.316 166.862 37.98 167.19 37.748C167.518 37.516 167.934 37.4 168.438 37.4H168.486C168.99 37.4 169.406 37.516 169.734 37.748C170.07 37.98 170.318 38.316 170.478 38.756C170.638 39.188 170.718 39.716 170.718 40.34H170.382C170.382 39.716 170.466 39.188 170.634 38.756C170.802 38.316 171.05 37.98 171.378 37.748C171.714 37.516 172.134 37.4 172.638 37.4H172.686C173.19 37.4 173.61 37.516 173.946 37.748C174.282 37.98 174.53 38.316 174.69 38.756C174.858 39.188 174.942 39.716 174.942 40.34V44H173.79V40.088C173.79 39.568 173.662 39.168 173.406 38.888C173.15 38.6 172.794 38.456 172.338 38.456C171.866 38.456 171.486 38.608 171.198 38.912C170.91 39.208 170.766 39.624 170.766 40.16V44H169.614V40.088C169.614 39.568 169.486 39.168 169.23 38.888C168.974 38.6 168.618 38.456 168.162 38.456C167.69 38.456 167.31 38.608 167.022 38.912C166.734 39.208 166.59 39.624 166.59 40.16V44H165.438ZM179.835 44.216C179.275 44.216 178.791 44.12 178.383 43.928C177.975 43.736 177.643 43.484 177.387 43.172C177.131 42.852 176.939 42.496 176.811 42.104C176.691 41.712 176.631 41.312 176.631 40.904V40.688C176.631 40.272 176.691 39.868 176.811 39.476C176.939 39.084 177.131 38.732 177.387 38.42C177.643 38.1 177.967 37.848 178.359 37.664C178.759 37.472 179.227 37.376 179.763 37.376C180.459 37.376 181.031 37.528 181.479 37.832C181.935 38.128 182.271 38.512 182.487 38.984C182.711 39.456 182.823 39.96 182.823 40.496V41.012H177.135V40.148H181.983L181.719 40.616C181.719 40.16 181.647 39.768 181.503 39.44C181.359 39.104 181.143 38.844 180.855 38.66C180.567 38.476 180.203 38.384 179.763 38.384C179.307 38.384 178.927 38.488 178.623 38.696C178.327 38.904 178.103 39.188 177.951 39.548C177.807 39.908 177.735 40.324 177.735 40.796C177.735 41.252 177.807 41.664 177.951 42.032C178.103 42.392 178.335 42.68 178.647 42.896C178.959 43.104 179.355 43.208 179.835 43.208C180.339 43.208 180.747 43.096 181.059 42.872C181.379 42.648 181.571 42.388 181.635 42.092H182.715C182.627 42.532 182.451 42.912 182.187 43.232C181.923 43.552 181.591 43.796 181.191 43.964C180.791 44.132 180.339 44.216 179.835 44.216ZM140 62.184C139.576 61.696 139.2 61.164 138.872 60.588C138.552 60.02 138.304 59.392 138.128 58.704C137.952 58.008 137.864 57.236 137.864 56.388C137.864 55.54 137.952 54.772 138.128 54.084C138.312 53.396 138.564 52.772 138.884 52.212C139.212 51.652 139.584 51.144 140 50.688H141.32C140.824 51.224 140.4 51.78 140.048 52.356C139.704 52.932 139.44 53.552 139.256 54.216C139.08 54.872 138.992 55.596 138.992 56.388C138.992 57.18 139.08 57.912 139.256 58.584C139.432 59.248 139.692 59.872 140.036 60.456C140.388 61.048 140.816 61.624 141.32 62.184H140ZM142.484 60V58.56C142.484 58.208 142.532 57.908 142.628 57.66C142.732 57.412 142.908 57.188 143.156 56.988C143.404 56.78 143.74 56.58 144.164 56.388L145.808 55.632C146.208 55.448 146.524 55.212 146.756 54.924C146.988 54.628 147.104 54.248 147.104 53.784C147.104 53.224 146.948 52.788 146.636 52.476C146.324 52.164 145.884 52.008 145.316 52.008C144.756 52.008 144.316 52.164 143.996 52.476C143.676 52.788 143.516 53.224 143.516 53.784H142.388C142.388 53.28 142.492 52.816 142.7 52.392C142.916 51.968 143.24 51.632 143.672 51.384C144.104 51.128 144.652 51 145.316 51C145.98 51 146.524 51.128 146.948 51.384C147.38 51.632 147.7 51.96 147.908 52.368C148.124 52.776 148.232 53.22 148.232 53.7V53.868C148.232 54.5 148.048 55.032 147.68 55.464C147.32 55.896 146.832 56.252 146.216 56.532L144.572 57.288C144.204 57.456 143.956 57.624 143.828 57.792C143.7 57.96 143.636 58.184 143.636 58.464V59.568L143.324 59.016H148.34V60H142.484ZM149.626 57.924V56.508L153.262 51.024L154.066 51.66L150.67 56.796L150.778 57.012H156.442V57.924H149.626ZM154.198 60V53.796H155.278V60H154.198ZM157.913 60V51.24H159.065V56.472H158.777C158.777 55.84 158.857 55.296 159.017 54.84C159.185 54.376 159.441 54.02 159.785 53.772C160.129 53.524 160.569 53.4 161.105 53.4H161.153C161.921 53.4 162.501 53.656 162.893 54.168C163.285 54.672 163.481 55.396 163.481 56.34V60H162.329V56.1C162.329 55.58 162.181 55.176 161.885 54.888C161.597 54.6 161.221 54.456 160.757 54.456C160.245 54.456 159.833 54.628 159.521 54.972C159.217 55.308 159.065 55.752 159.065 56.304V60H157.913ZM165.822 62.184H164.502C165.006 61.624 165.43 61.048 165.774 60.456C166.126 59.872 166.39 59.248 166.566 58.584C166.742 57.912 166.83 57.18 166.83 56.388C166.83 55.596 166.738 54.872 166.554 54.216C166.378 53.552 166.114 52.932 165.762 52.356C165.418 51.78 164.998 51.224 164.502 50.688H165.822C166.238 51.144 166.606 51.652 166.926 52.212C167.254 52.772 167.506 53.396 167.682 54.084C167.866 54.772 167.958 55.54 167.958 56.388C167.958 57.236 167.87 58.008 167.694 58.704C167.518 59.392 167.266 60.02 166.938 60.588C166.618 61.164 166.246 61.696 165.822 62.184Z" fill="#9C9CAB"/>
<g clip-path="url(#clip0_407_10327)">
<rect y="112" width="416" height="290" rx="16" fill="#5235E8"/>
<g filter="url(#filter0_f_407_10327)">
<path d="M215.18 931.646L-241.293 392.19L29.4609 180.994L429.152 778.2L215.18 931.646Z" fill="url(#paint0_linear_407_10327)" fill-opacity="0.7"/>
</g>
<g filter="url(#filter1_b_407_10327)">
<path d="M333.269 161.92L328.13 0.30835L478.215 260.263L340.825 175.007C336.275 172.183 333.439 167.272 333.269 161.92Z" fill="url(#paint1_linear_407_10327)" fill-opacity="0.1"/>
<path d="M333.269 161.92L328.13 0.30835L478.215 260.263L340.825 175.007C336.275 172.183 333.439 167.272 333.269 161.92Z" stroke="url(#paint2_linear_407_10327)"/>
</g>
<g filter="url(#filter2_b_407_10327)">
<path d="M351.838 151.199L346.698 -10.4121L496.783 249.543L359.393 164.286C354.844 161.463 352.008 156.551 351.838 151.199Z" fill="url(#paint3_linear_407_10327)" fill-opacity="0.2"/>
<path d="M351.838 151.199L346.698 -10.4121L496.783 249.543L359.393 164.286C354.844 161.463 352.008 156.551 351.838 151.199Z" stroke="url(#paint4_linear_407_10327)"/>
</g>
<path d="M33.696 162V150.32H35.776L39.232 158.112H39.488L42.928 150.32H45.024V162H43.456V152.032L43.568 152.064L40.256 159.584H38.336L35.008 152.064L35.136 152.032V162H33.696ZM47.6947 165.328V163.952H48.9267C49.2894 163.952 49.5934 163.904 49.8388 163.808C50.0948 163.723 50.3028 163.573 50.4628 163.36C50.6334 163.147 50.7721 162.864 50.8788 162.512L53.5668 153.456H55.0708L52.2228 162.912C52.0521 163.477 51.8121 163.936 51.5027 164.288C51.1934 164.651 50.8148 164.912 50.3668 165.072C49.9294 165.243 49.4174 165.328 48.8307 165.328H47.6947ZM50.3028 161.808V160.528H52.1588V161.808H50.3028ZM50.1428 161.808L47.0867 153.456H48.6547L51.5828 161.808H50.1428ZM62.9814 162L59.8294 150.32H61.4454L64.1814 160.976L63.4294 160.592H65.3334L64.5014 160.976L66.7254 150.8H68.1974L65.6534 162H62.9814ZM70.0054 162L67.2054 150.8H68.7254L71.2374 160.976L70.4374 160.592H72.3574L71.5414 160.976L73.9894 150.32H75.5574L72.6934 162H70.0054ZM82.5694 162V159.44H82.3134V156.48C82.3134 155.893 82.1587 155.451 81.8494 155.152C81.5507 154.853 81.108 154.704 80.5214 154.704C80.1907 154.704 79.8494 154.709 79.4974 154.72C79.1454 154.731 78.8094 154.741 78.4894 154.752C78.1694 154.763 77.892 154.779 77.6574 154.8V153.456C77.892 153.435 78.1374 153.419 78.3934 153.408C78.66 153.387 78.932 153.376 79.2094 153.376C79.4867 153.365 79.7534 153.36 80.0094 153.36C80.884 153.36 81.5987 153.467 82.1534 153.68C82.708 153.883 83.1187 154.219 83.3854 154.688C83.652 155.157 83.7854 155.792 83.7854 156.592V162H82.5694ZM79.7694 162.224C79.1294 162.224 78.5747 162.117 78.1054 161.904C77.6467 161.68 77.2894 161.36 77.0334 160.944C76.788 160.528 76.6654 160.027 76.6654 159.44C76.6654 158.832 76.7987 158.325 77.0654 157.92C77.3427 157.515 77.7427 157.211 78.2654 157.008C78.788 156.795 79.4174 156.688 80.1534 156.688H82.4734V157.84H80.0894C79.4707 157.84 78.996 157.989 78.6654 158.288C78.3347 158.587 78.1694 158.971 78.1694 159.44C78.1694 159.909 78.3347 160.288 78.6654 160.576C78.996 160.864 79.4707 161.008 80.0894 161.008C80.452 161.008 80.7987 160.944 81.1294 160.816C81.46 160.677 81.732 160.453 81.9454 160.144C82.1694 159.824 82.292 159.387 82.3134 158.832L82.7294 159.44C82.676 160.048 82.5267 160.56 82.2814 160.976C82.0467 161.381 81.716 161.691 81.2894 161.904C80.8734 162.117 80.3667 162.224 79.7694 162.224ZM90.0125 162.096C89.3725 162.096 88.8178 162.005 88.3485 161.824C87.8898 161.643 87.5325 161.333 87.2765 160.896C87.0312 160.448 86.9085 159.845 86.9085 159.088V150.864H88.3805V159.28C88.3805 159.739 88.5032 160.096 88.7485 160.352C89.0045 160.597 89.3618 160.72 89.8205 160.72H91.3245V162.096H90.0125ZM85.4365 154.608V153.456H91.3245V154.608H85.4365ZM97.1785 162.288C96.4425 162.288 95.8025 162.16 95.2585 161.904C94.7252 161.648 94.2825 161.307 93.9305 160.88C93.5785 160.443 93.3118 159.963 93.1305 159.44C92.9598 158.917 92.8745 158.395 92.8745 157.872V157.584C92.8745 157.04 92.9598 156.507 93.1305 155.984C93.3118 155.461 93.5785 154.992 93.9305 154.576C94.2932 154.149 94.7412 153.808 95.2745 153.552C95.8078 153.296 96.4318 153.168 97.1465 153.168C97.8612 153.168 98.5012 153.301 99.0665 153.568C99.6425 153.835 100.101 154.213 100.443 154.704C100.795 155.184 100.992 155.755 101.035 156.416H99.5625C99.4878 155.883 99.2425 155.44 98.8265 155.088C98.4105 154.725 97.8505 154.544 97.1465 154.544C96.5385 154.544 96.0318 154.683 95.6265 154.96C95.2212 155.237 94.9172 155.616 94.7145 156.096C94.5118 156.576 94.4105 157.12 94.4105 157.728C94.4105 158.315 94.5118 158.853 94.7145 159.344C94.9172 159.824 95.2212 160.208 95.6265 160.496C96.0425 160.773 96.5598 160.912 97.1785 160.912C97.6585 160.912 98.0745 160.827 98.4265 160.656C98.7785 160.485 99.0612 160.256 99.2745 159.968C99.4878 159.68 99.6158 159.355 99.6585 158.992H101.13C101.098 159.664 100.901 160.245 100.538 160.736C100.186 161.227 99.7172 161.611 99.1305 161.888C98.5545 162.155 97.9038 162.288 97.1785 162.288ZM103.298 162V150.32H104.834V157.296H104.45C104.45 156.453 104.556 155.728 104.77 155.12C104.994 154.501 105.335 154.027 105.794 153.696C106.252 153.365 106.839 153.2 107.554 153.2H107.618C108.642 153.2 109.415 153.541 109.938 154.224C110.46 154.896 110.722 155.861 110.722 157.12V162H109.186V156.8C109.186 156.107 108.988 155.568 108.594 155.184C108.21 154.8 107.708 154.608 107.09 154.608C106.407 154.608 105.858 154.837 105.442 155.296C105.036 155.744 104.834 156.336 104.834 157.072V162H103.298ZM113.708 162V150.32H115.244V162H113.708ZM112.524 151.536V150.32H115.244V151.536H112.524ZM118.686 162V153.456H120.222V162H118.686ZM117.374 154.672V153.456H120.222V154.672H117.374ZM119.118 152.08C118.777 152.08 118.521 151.989 118.35 151.808C118.19 151.627 118.11 151.397 118.11 151.12C118.11 150.843 118.19 150.613 118.35 150.432C118.521 150.251 118.777 150.16 119.118 150.16C119.459 150.16 119.71 150.251 119.87 150.432C120.041 150.613 120.126 150.843 120.126 151.12C120.126 151.397 120.041 151.627 119.87 151.808C119.71 151.989 119.459 152.08 119.118 152.08ZM126.072 162.256C124.952 162.256 124.083 162.016 123.464 161.536C122.856 161.056 122.541 160.4 122.52 159.568H123.96C123.981 159.899 124.147 160.213 124.456 160.512C124.776 160.8 125.315 160.944 126.072 160.944C126.755 160.944 127.277 160.811 127.64 160.544C128.003 160.267 128.184 159.931 128.184 159.536C128.184 159.184 128.051 158.912 127.784 158.72C127.517 158.517 127.085 158.384 126.488 158.32L125.56 158.224C124.749 158.139 124.088 157.899 123.576 157.504C123.064 157.099 122.808 156.533 122.808 155.808C122.808 155.264 122.947 154.8 123.224 154.416C123.501 154.021 123.885 153.723 124.376 153.52C124.867 153.307 125.432 153.2 126.072 153.2C127.032 153.2 127.811 153.413 128.408 153.84C129.005 154.267 129.315 154.901 129.336 155.744H127.896C127.885 155.403 127.725 155.115 127.416 154.88C127.117 154.635 126.669 154.512 126.072 154.512C125.475 154.512 125.021 154.635 124.712 154.88C124.403 155.125 124.248 155.435 124.248 155.808C124.248 156.128 124.355 156.384 124.568 156.576C124.792 156.768 125.155 156.891 125.656 156.944L126.584 157.04C127.501 157.136 128.237 157.392 128.792 157.808C129.347 158.213 129.624 158.789 129.624 159.536C129.624 160.069 129.469 160.544 129.16 160.96C128.861 161.365 128.445 161.685 127.912 161.92C127.379 162.144 126.765 162.256 126.072 162.256ZM135.258 162.096C134.618 162.096 134.063 162.005 133.594 161.824C133.135 161.643 132.778 161.333 132.522 160.896C132.277 160.448 132.154 159.845 132.154 159.088V150.864H133.626V159.28C133.626 159.739 133.749 160.096 133.994 160.352C134.25 160.597 134.607 160.72 135.066 160.72H136.57V162.096H135.258ZM130.682 154.608V153.456H136.57V154.608H130.682Z" fill="white"/>
<g clip-path="url(#clip1_407_10327)">
<path d="M71.9641 205.993C71.9641 216.984 63.0546 225.894 52.0636 225.894C41.0729 225.894 32.1631 216.984 32.1631 205.993C32.1631 195.002 41.0729 186.093 52.0636 186.093C63.0546 186.093 71.9641 195.002 71.9641 205.993Z" fill="#1BA27A"/>
<path d="M61.4033 196.128H42.5596V200.677H49.7068V207.364H54.2561V200.677H61.4033V196.128Z" fill="white"/>
<path d="M52.025 208.076C46.1126 208.076 41.3191 207.14 41.3191 205.986C41.3191 204.832 46.1124 203.896 52.025 203.896C57.9374 203.896 62.7307 204.832 62.7307 205.986C62.7307 207.14 57.9374 208.076 52.025 208.076ZM64.0459 206.334C64.0459 204.846 58.664 203.639 52.025 203.639C45.3862 203.639 40.0039 204.846 40.0039 206.334C40.0039 207.645 44.1772 208.737 49.7074 208.979V218.578H54.2562V208.983C59.829 208.749 64.0459 207.652 64.0459 206.334Z" fill="white"/>
</g>
<path d="M87.472 201V191.732H88.844V201H87.472ZM84.364 192.012V190.78H91.952V192.012H84.364ZM95.8762 201.252C95.2228 201.252 94.6582 201.14 94.1822 200.916C93.7062 200.692 93.3188 200.398 93.0202 200.034C92.7215 199.661 92.4975 199.245 92.3482 198.788C92.2082 198.331 92.1382 197.864 92.1382 197.388V197.136C92.1382 196.651 92.2082 196.179 92.3482 195.722C92.4975 195.265 92.7215 194.854 93.0202 194.49C93.3188 194.117 93.6968 193.823 94.1542 193.608C94.6208 193.384 95.1668 193.272 95.7922 193.272C96.6042 193.272 97.2715 193.449 97.7942 193.804C98.3262 194.149 98.7182 194.597 98.9702 195.148C99.2315 195.699 99.3622 196.287 99.3622 196.912V197.514H92.7262V196.506H98.3822L98.0742 197.052C98.0742 196.52 97.9902 196.063 97.8222 195.68C97.6542 195.288 97.4022 194.985 97.0662 194.77C96.7302 194.555 96.3055 194.448 95.7922 194.448C95.2602 194.448 94.8168 194.569 94.4622 194.812C94.1168 195.055 93.8555 195.386 93.6782 195.806C93.5102 196.226 93.4262 196.711 93.4262 197.262C93.4262 197.794 93.5102 198.275 93.6782 198.704C93.8555 199.124 94.1262 199.46 94.4902 199.712C94.8542 199.955 95.3162 200.076 95.8762 200.076C96.4642 200.076 96.9402 199.945 97.3042 199.684C97.6775 199.423 97.9015 199.119 97.9762 198.774H99.2362C99.1335 199.287 98.9282 199.731 98.6202 200.104C98.3122 200.477 97.9248 200.762 97.4582 200.958C96.9915 201.154 96.4642 201.252 95.8762 201.252ZM104.182 201.084C103.622 201.084 103.137 201.005 102.726 200.846C102.325 200.687 102.012 200.417 101.788 200.034C101.574 199.642 101.466 199.115 101.466 198.452V191.256H102.754V198.62C102.754 199.021 102.862 199.334 103.076 199.558C103.3 199.773 103.613 199.88 104.014 199.88H105.33V201.084H104.182ZM100.178 194.532V193.524H105.33V194.532H100.178ZM107.231 201V190.78H108.575V196.884H108.239C108.239 196.147 108.333 195.512 108.519 194.98C108.715 194.439 109.014 194.023 109.415 193.734C109.817 193.445 110.33 193.3 110.955 193.3H111.011C111.907 193.3 112.584 193.599 113.041 194.196C113.499 194.784 113.727 195.629 113.727 196.73V201H112.383V196.45C112.383 195.843 112.211 195.372 111.865 195.036C111.529 194.7 111.091 194.532 110.549 194.532C109.952 194.532 109.471 194.733 109.107 195.134C108.753 195.526 108.575 196.044 108.575 196.688V201H107.231ZM119.364 201.252C118.711 201.252 118.146 201.14 117.67 200.916C117.194 200.692 116.807 200.398 116.508 200.034C116.21 199.661 115.986 199.245 115.836 198.788C115.696 198.331 115.626 197.864 115.626 197.388V197.136C115.626 196.651 115.696 196.179 115.836 195.722C115.986 195.265 116.21 194.854 116.508 194.49C116.807 194.117 117.185 193.823 117.642 193.608C118.109 193.384 118.655 193.272 119.28 193.272C120.092 193.272 120.76 193.449 121.282 193.804C121.814 194.149 122.206 194.597 122.458 195.148C122.72 195.699 122.85 196.287 122.85 196.912V197.514H116.214V196.506H121.87L121.562 197.052C121.562 196.52 121.478 196.063 121.31 195.68C121.142 195.288 120.89 194.985 120.554 194.77C120.218 194.555 119.794 194.448 119.28 194.448C118.748 194.448 118.305 194.569 117.95 194.812C117.605 195.055 117.344 195.386 117.166 195.806C116.998 196.226 116.914 196.711 116.914 197.262C116.914 197.794 116.998 198.275 117.166 198.704C117.344 199.124 117.614 199.46 117.978 199.712C118.342 199.955 118.804 200.076 119.364 200.076C119.952 200.076 120.428 199.945 120.792 199.684C121.166 199.423 121.39 199.119 121.464 198.774H122.724C122.622 199.287 122.416 199.731 122.108 200.104C121.8 200.477 121.413 200.762 120.946 200.958C120.48 201.154 119.952 201.252 119.364 201.252ZM124.759 201V193.524H125.823V196.604H125.767C125.767 195.512 126.005 194.714 126.481 194.21C126.966 193.697 127.689 193.44 128.651 193.44H128.903V194.644H128.427C127.68 194.644 127.106 194.845 126.705 195.246C126.303 195.638 126.103 196.207 126.103 196.954V201H124.759Z" fill="white"/>
<path d="M88.74 220.216C87.948 220.216 87.28 220.064 86.736 219.76C86.2 219.448 85.792 219.016 85.512 218.464C85.24 217.904 85.104 217.256 85.104 216.52V211.24H86.28V216.664C86.28 217.152 86.372 217.584 86.556 217.96C86.748 218.328 87.028 218.616 87.396 218.824C87.764 219.032 88.212 219.136 88.74 219.136C89.268 219.136 89.712 219.036 90.072 218.836C90.44 218.628 90.716 218.34 90.9 217.972C91.092 217.596 91.188 217.16 91.188 216.664V211.24H92.364V216.52C92.364 217.256 92.228 217.904 91.956 218.464C91.684 219.016 91.28 219.448 90.744 219.76C90.208 220.064 89.54 220.216 88.74 220.216ZM97.6448 220.216C96.9168 220.216 96.2968 220.096 95.7848 219.856C95.2728 219.616 94.8808 219.284 94.6088 218.86C94.3368 218.436 94.2008 217.956 94.2008 217.42H95.3768C95.3768 217.684 95.4448 217.948 95.5808 218.212C95.7248 218.476 95.9608 218.696 96.2888 218.872C96.6248 219.048 97.0768 219.136 97.6448 219.136C98.1728 219.136 98.6048 219.06 98.9408 218.908C99.2768 218.748 99.5248 218.544 99.6848 218.296C99.8448 218.04 99.9248 217.764 99.9248 217.468C99.9248 217.108 99.7688 216.812 99.4568 216.58C99.1448 216.34 98.6888 216.192 98.0888 216.136L97.1168 216.052C96.3408 215.988 95.7208 215.748 95.2568 215.332C94.7928 214.916 94.5608 214.368 94.5608 213.688C94.5608 213.152 94.6888 212.684 94.9448 212.284C95.2088 211.884 95.5728 211.572 96.0368 211.348C96.5008 211.116 97.0408 211 97.6568 211C98.2648 211 98.8008 211.112 99.2648 211.336C99.7288 211.56 100.089 211.876 100.345 212.284C100.609 212.684 100.741 213.164 100.741 213.724H99.5648C99.5648 213.444 99.4968 213.18 99.3608 212.932C99.2328 212.684 99.0288 212.48 98.7488 212.32C98.4688 212.16 98.1048 212.08 97.6568 212.08C97.2248 212.08 96.8648 212.156 96.5768 212.308C96.2968 212.46 96.0848 212.66 95.9408 212.908C95.8048 213.148 95.7368 213.408 95.7368 213.688C95.7368 214.008 95.8608 214.292 96.1088 214.54C96.3568 214.788 96.7248 214.932 97.2128 214.972L98.1848 215.056C98.7848 215.104 99.3008 215.232 99.7328 215.44C100.173 215.64 100.509 215.912 100.741 216.256C100.981 216.592 101.101 216.996 101.101 217.468C101.101 218.004 100.957 218.48 100.669 218.896C100.381 219.312 99.9768 219.636 99.4568 219.868C98.9368 220.1 98.3328 220.216 97.6448 220.216ZM104.07 220.048V218.968H106.254C106.782 218.968 107.25 218.884 107.658 218.716C108.074 218.54 108.426 218.3 108.714 217.996C109.01 217.692 109.234 217.336 109.386 216.928C109.538 216.52 109.614 216.08 109.614 215.608C109.614 215.112 109.538 214.664 109.386 214.264C109.234 213.856 109.01 213.504 108.714 213.208C108.426 212.904 108.074 212.672 107.658 212.512C107.25 212.352 106.782 212.272 106.254 212.272H104.07V211.192H106.134C106.926 211.192 107.614 211.316 108.198 211.564C108.782 211.804 109.266 212.132 109.65 212.548C110.042 212.956 110.334 213.416 110.526 213.928C110.718 214.432 110.814 214.948 110.814 215.476V215.74C110.814 216.252 110.718 216.764 110.526 217.276C110.334 217.788 110.042 218.252 109.65 218.668C109.266 219.084 108.782 219.42 108.198 219.676C107.614 219.924 106.926 220.048 106.134 220.048H104.07ZM103.134 220.048V211.192H104.31V220.048H103.134ZM114.121 220V212.056H115.297V220H114.121ZM111.457 212.296V211.24H117.961V212.296H111.457Z" fill="#DAF727"/>
<path d="M185.55 203C184.747 203 184.066 202.869 183.506 202.608C182.946 202.337 182.517 201.959 182.218 201.474C181.929 200.979 181.784 200.401 181.784 199.738H183.044C183.044 200.055 183.119 200.377 183.268 200.704C183.427 201.031 183.688 201.306 184.052 201.53C184.416 201.745 184.915 201.852 185.55 201.852C186.39 201.852 187.011 201.675 187.412 201.32C187.823 200.965 188.028 200.559 188.028 200.102C188.028 199.654 187.846 199.281 187.482 198.982C187.118 198.683 186.591 198.501 185.9 198.436L184.976 198.352C184.08 198.268 183.366 197.997 182.834 197.54C182.302 197.083 182.036 196.429 182.036 195.58C182.036 194.992 182.176 194.493 182.456 194.082C182.745 193.662 183.147 193.34 183.66 193.116C184.183 192.892 184.794 192.78 185.494 192.78C186.194 192.78 186.796 192.906 187.3 193.158C187.813 193.401 188.21 193.76 188.49 194.236C188.77 194.703 188.91 195.267 188.91 195.93H187.65C187.65 195.594 187.575 195.277 187.426 194.978C187.277 194.67 187.043 194.418 186.726 194.222C186.418 194.026 186.007 193.928 185.494 193.928C185.037 193.928 184.645 194.003 184.318 194.152C184.001 194.292 183.753 194.488 183.576 194.74C183.408 194.992 183.324 195.272 183.324 195.58C183.324 195.981 183.469 196.331 183.758 196.63C184.047 196.919 184.491 197.092 185.088 197.148L186.012 197.232C187.011 197.325 187.809 197.619 188.406 198.114C189.013 198.599 189.316 199.262 189.316 200.102C189.316 200.681 189.162 201.189 188.854 201.628C188.546 202.057 188.112 202.393 187.552 202.636C186.992 202.879 186.325 203 185.55 203ZM184.948 204.806V202.762H186.152V204.806H184.948ZM184.892 193.466V191.422H186.096V193.466H184.892ZM192.989 203V193.452L193.605 193.928H190.721V192.78H194.333V203H192.989ZM200.898 203.28C200.151 203.28 199.526 203.149 199.022 202.888C198.527 202.627 198.13 202.272 197.832 201.824C197.542 201.367 197.332 200.844 197.202 200.256C197.08 199.668 197.02 199.052 197.02 198.408V197.736C197.02 196.121 197.421 194.88 198.224 194.012C199.026 193.135 200.188 192.696 201.71 192.696C202.074 192.696 202.382 192.705 202.634 192.724C202.886 192.743 203.161 192.771 203.46 192.808V193.956C203.152 193.919 202.867 193.891 202.606 193.872C202.344 193.853 202.027 193.844 201.654 193.844C200.804 193.844 200.132 194.003 199.638 194.32C199.143 194.637 198.788 195.095 198.574 195.692C198.359 196.28 198.252 196.994 198.252 197.834V198.464L197.916 199.71C197.925 198.973 198.065 198.361 198.336 197.876C198.616 197.391 198.994 197.027 199.47 196.784C199.955 196.541 200.51 196.42 201.136 196.42C201.864 196.42 202.48 196.569 202.984 196.868C203.488 197.157 203.866 197.559 204.118 198.072C204.379 198.585 204.51 199.169 204.51 199.822C204.51 200.485 204.374 201.077 204.104 201.6C203.833 202.123 203.427 202.533 202.886 202.832C202.354 203.131 201.691 203.28 200.898 203.28ZM200.898 202.104C201.411 202.104 201.84 202.006 202.186 201.81C202.531 201.614 202.788 201.348 202.956 201.012C203.133 200.667 203.222 200.27 203.222 199.822C203.222 199.374 203.138 198.977 202.97 198.632C202.802 198.287 202.55 198.021 202.214 197.834C201.887 197.638 201.481 197.54 200.996 197.54C200.52 197.54 200.09 197.629 199.708 197.806C199.334 197.983 199.04 198.245 198.826 198.59C198.611 198.926 198.504 199.341 198.504 199.836C198.504 200.247 198.588 200.625 198.756 200.97C198.924 201.315 199.185 201.591 199.54 201.796C199.894 202.001 200.347 202.104 200.898 202.104ZM209.664 203.252C208.88 203.252 208.218 203.093 207.676 202.776C207.135 202.449 206.724 202.025 206.444 201.502C206.164 200.979 206.024 200.424 206.024 199.836H207.34C207.34 200.265 207.434 200.648 207.62 200.984C207.816 201.32 208.087 201.586 208.432 201.782C208.778 201.978 209.188 202.076 209.664 202.076C210.131 202.076 210.537 201.983 210.882 201.796C211.237 201.6 211.512 201.334 211.708 200.998C211.904 200.653 212.002 200.265 212.002 199.836C212.002 199.407 211.904 199.019 211.708 198.674C211.522 198.329 211.251 198.053 210.896 197.848C210.551 197.643 210.14 197.54 209.664 197.54C209.319 197.54 208.969 197.601 208.614 197.722C208.26 197.834 207.975 197.997 207.76 198.212H206.528L207.046 192.78H212.408V193.928H207.83L208.166 193.466L207.774 197.428L207.41 197.302C207.681 197.031 208.008 196.817 208.39 196.658C208.782 196.499 209.226 196.42 209.72 196.42C210.504 196.42 211.162 196.583 211.694 196.91C212.226 197.227 212.628 197.643 212.898 198.156C213.178 198.66 213.318 199.187 213.318 199.738V199.934C213.318 200.485 213.178 201.017 212.898 201.53C212.618 202.034 212.203 202.449 211.652 202.776C211.111 203.093 210.448 203.252 209.664 203.252ZM215.405 205.198L214.327 204.792L215.629 201.18L216.735 201.6L215.405 205.198ZM222.079 203.252C221.351 203.252 220.702 203.121 220.133 202.86C219.573 202.599 219.13 202.235 218.803 201.768C218.486 201.301 218.327 200.76 218.327 200.144C218.327 199.733 218.406 199.365 218.565 199.038C218.724 198.702 218.943 198.413 219.223 198.17C219.503 197.927 219.82 197.741 220.175 197.61V197.47C219.895 197.349 219.638 197.185 219.405 196.98C219.181 196.775 218.999 196.532 218.859 196.252C218.728 195.972 218.663 195.655 218.663 195.3C218.663 194.712 218.817 194.213 219.125 193.802C219.442 193.391 219.858 193.079 220.371 192.864C220.894 192.64 221.463 192.528 222.079 192.528C222.704 192.528 223.274 192.64 223.787 192.864C224.31 193.079 224.725 193.391 225.033 193.802C225.341 194.213 225.495 194.712 225.495 195.3C225.495 195.655 225.43 195.972 225.299 196.252C225.168 196.532 224.986 196.775 224.753 196.98C224.529 197.185 224.272 197.349 223.983 197.47V197.61C224.347 197.741 224.669 197.932 224.949 198.184C225.229 198.427 225.448 198.716 225.607 199.052C225.766 199.379 225.845 199.743 225.845 200.144C225.845 200.76 225.682 201.301 225.355 201.768C225.038 202.235 224.594 202.599 224.025 202.86C223.465 203.121 222.816 203.252 222.079 203.252ZM222.079 202.104C222.592 202.104 223.031 202.025 223.395 201.866C223.759 201.698 224.039 201.465 224.235 201.166C224.431 200.858 224.529 200.499 224.529 200.088C224.529 199.677 224.431 199.323 224.235 199.024C224.048 198.725 223.773 198.497 223.409 198.338C223.045 198.17 222.602 198.086 222.079 198.086C221.566 198.086 221.127 198.17 220.763 198.338C220.399 198.497 220.119 198.725 219.923 199.024C219.736 199.323 219.643 199.677 219.643 200.088C219.643 200.499 219.736 200.858 219.923 201.166C220.119 201.465 220.399 201.698 220.763 201.866C221.127 202.025 221.566 202.104 222.079 202.104ZM222.079 197.022C222.714 197.022 223.222 196.887 223.605 196.616C223.988 196.336 224.179 195.911 224.179 195.342C224.179 194.763 223.983 194.343 223.591 194.082C223.208 193.811 222.704 193.676 222.079 193.676C221.454 193.676 220.945 193.811 220.553 194.082C220.17 194.353 219.979 194.773 219.979 195.342C219.979 195.911 220.17 196.336 220.553 196.616C220.945 196.887 221.454 197.022 222.079 197.022Z" fill="white"/>
<rect x="181" y="217" width="66" height="6" rx="2" fill="#DAF727"/>
<rect x="324.5" y="193.5" width="59" height="23" rx="11.5" fill="#ECFDF7"/>
<rect x="324.5" y="193.5" width="59" height="23" rx="11.5" stroke="#DAFBEF"/>
<g clip-path="url(#clip2_407_10327)">
<path d="M339 206.5L336 203.5L333 206.5H339Z" fill="#11CF8B" stroke="#11CF8B" stroke-width="1.5" stroke-linecap="round" stroke-linejoin="round"/>
</g>
<path d="M348.448 201V192.816L348.976 193.224H346.504V192.24H349.6V201H348.448ZM351.975 201V199.536H353.367V201H351.975ZM357.888 201.216C357.232 201.216 356.676 201.088 356.22 200.832C355.764 200.576 355.416 200.236 355.176 199.812C354.944 199.388 354.828 198.928 354.828 198.432H355.956C355.956 198.976 356.128 199.408 356.472 199.728C356.824 200.048 357.296 200.208 357.888 200.208C358.28 200.208 358.62 200.136 358.908 199.992C359.196 199.848 359.42 199.644 359.58 199.38C359.74 199.108 359.82 198.792 359.82 198.432C359.82 197.888 359.644 197.448 359.292 197.112C358.948 196.776 358.484 196.608 357.9 196.608C357.652 196.608 357.436 196.64 357.252 196.704C357.076 196.76 356.92 196.832 356.784 196.92L356.208 195.888L359.556 193.44L359.436 193.224H355.176V192.24H360.516V193.836L357.744 195.852L356.904 195.888C357.04 195.84 357.188 195.8 357.348 195.768C357.516 195.736 357.712 195.72 357.936 195.72C358.576 195.72 359.12 195.84 359.568 196.08C360.016 196.32 360.356 196.64 360.588 197.04C360.828 197.44 360.948 197.876 360.948 198.348V198.516C360.948 198.98 360.828 199.42 360.588 199.836C360.356 200.244 360.012 200.576 359.556 200.832C359.108 201.088 358.552 201.216 357.888 201.216ZM363.459 201L367.167 193.332L367.095 193.224H362.307V192.24H368.187V193.632L364.659 201H363.459ZM362.307 194.616V192.24H363.267V194.616H362.307ZM349.012 217L352.324 208.24H353.236L349.924 217H349.012ZM348.364 212.944C347.908 212.944 347.536 212.84 347.248 212.632C346.968 212.424 346.76 212.148 346.624 211.804C346.496 211.46 346.432 211.088 346.432 210.688V210.376C346.432 209.944 346.5 209.56 346.636 209.224C346.772 208.88 346.984 208.612 347.272 208.42C347.56 208.22 347.924 208.12 348.364 208.12C348.812 208.12 349.176 208.22 349.456 208.42C349.744 208.612 349.956 208.88 350.092 209.224C350.228 209.56 350.296 209.944 350.296 210.376V210.688C350.296 211.088 350.228 211.46 350.092 211.804C349.964 212.148 349.76 212.424 349.48 212.632C349.2 212.84 348.828 212.944 348.364 212.944ZM348.364 212.152C348.732 212.152 349.004 212.02 349.18 211.756C349.364 211.484 349.456 211.08 349.456 210.544C349.456 209.976 349.364 209.564 349.18 209.308C348.996 209.044 348.724 208.912 348.364 208.912C348.004 208.912 347.732 209.044 347.548 209.308C347.364 209.564 347.272 209.972 347.272 210.532C347.272 211.068 347.36 211.472 347.536 211.744C347.72 212.016 347.996 212.152 348.364 212.152ZM353.836 217.12C353.38 217.12 353.008 217.016 352.72 216.808C352.44 216.6 352.232 216.324 352.096 215.98C351.968 215.636 351.904 215.264 351.904 214.864V214.552C351.904 214.12 351.972 213.736 352.108 213.4C352.244 213.056 352.456 212.788 352.744 212.596C353.032 212.396 353.396 212.296 353.836 212.296C354.284 212.296 354.648 212.396 354.928 212.596C355.216 212.788 355.428 213.056 355.564 213.4C355.7 213.736 355.768 214.12 355.768 214.552V214.864C355.768 215.264 355.7 215.636 355.564 215.98C355.436 216.324 355.232 216.6 354.952 216.808C354.672 217.016 354.3 217.12 353.836 217.12ZM353.836 216.328C354.204 216.328 354.476 216.196 354.652 215.932C354.836 215.66 354.928 215.256 354.928 214.72C354.928 214.152 354.836 213.74 354.652 213.484C354.468 213.22 354.196 213.088 353.836 213.088C353.476 213.088 353.204 213.22 353.02 213.484C352.836 213.74 352.744 214.148 352.744 214.708C352.744 215.244 352.832 215.648 353.008 215.92C353.192 216.192 353.468 216.328 353.836 216.328Z" fill="#11CF8B"/>
<line opacity="0.2" x1="32" y1="241.5" x2="268" y2="241.5" stroke="#D6D1FA"/>
<g clip-path="url(#clip3_407_10327)">
<path d="M71.4017 282.837C68.7295 293.557 57.8684 300.073 47.1637 297.401C36.4434 294.729 29.9269 283.868 32.5992 273.163C35.2714 262.443 46.1167 255.927 56.837 258.599C67.5417 261.256 74.074 272.116 71.4017 282.837Z" fill="url(#paint5_linear_407_10327)"/>
<path d="M61.5225 275.508C61.9131 272.852 59.8975 271.414 57.1162 270.461L58.0225 266.852L55.835 266.305L54.96 269.82C54.3818 269.68 53.7881 269.539 53.1943 269.414L54.0693 265.883L51.8818 265.336L50.9912 268.93C50.5068 268.82 50.0381 268.711 49.585 268.602V268.586L46.5537 267.836L45.9756 270.18C45.9756 270.18 47.6006 270.555 47.5693 270.57C48.46 270.789 48.6162 271.383 48.585 271.852L47.5537 275.961C47.6162 275.977 47.6943 275.992 47.7881 276.039C47.71 276.023 47.6318 276.008 47.5537 275.977L46.1162 281.727C46.0068 281.992 45.7256 282.398 45.1162 282.242C45.1318 282.273 43.5225 281.852 43.5225 281.852L42.4287 284.367L45.2881 285.086C45.8193 285.227 46.335 285.352 46.8506 285.492L45.9443 289.133L48.1318 289.68L49.0381 286.07C49.6318 286.227 50.2256 286.383 50.7881 286.523L49.8975 290.117L52.085 290.664L52.9912 287.023C56.7412 287.727 59.5537 287.445 60.7256 284.055C61.6787 281.336 60.6787 279.758 58.71 278.727C60.1631 278.398 61.2412 277.445 61.5225 275.508ZM56.5068 282.539C55.835 285.258 51.2412 283.789 49.7568 283.414L50.96 278.586C52.4443 278.961 57.2256 279.695 56.5068 282.539ZM57.1943 275.461C56.5693 277.945 52.7568 276.68 51.5225 276.367L52.6162 271.992C53.8506 272.305 57.835 272.883 57.1943 275.461Z" fill="white"/>
</g>
<path d="M86.576 273.056V271.852H89.432C89.9827 271.852 90.4073 271.698 90.706 271.39C91.014 271.073 91.168 270.653 91.168 270.13C91.168 269.598 91.0187 269.183 90.72 268.884C90.4213 268.576 89.992 268.422 89.432 268.422H86.576V267.526H89.236C89.8893 267.526 90.4633 267.605 90.958 267.764C91.462 267.923 91.854 268.189 92.134 268.562C92.4233 268.926 92.568 269.425 92.568 270.06V270.256C92.568 270.853 92.4467 271.362 92.204 271.782C91.9613 272.193 91.5927 272.51 91.098 272.734C90.6033 272.949 89.9827 273.056 89.236 273.056H86.576ZM85.484 273.056V262.724H86.856V273.056H85.484ZM86.576 268.17V267.274H89.054C89.6327 267.274 90.0573 267.12 90.328 266.812C90.608 266.495 90.748 266.093 90.748 265.608C90.748 265.113 90.608 264.712 90.328 264.404C90.0573 264.087 89.6327 263.928 89.054 263.928H86.576V262.724H88.816C89.936 262.724 90.7713 262.962 91.322 263.438C91.8727 263.905 92.148 264.581 92.148 265.468V265.664C92.148 266.289 92.008 266.789 91.728 267.162C91.448 267.526 91.056 267.787 90.552 267.946C90.0573 268.095 89.4787 268.17 88.816 268.17H86.576ZM95.1676 273V265.524H96.5116V273H95.1676ZM94.0196 266.588V265.524H96.5116V266.588H94.0196ZM95.5456 264.32C95.247 264.32 95.023 264.241 94.8736 264.082C94.7336 263.923 94.6636 263.723 94.6636 263.48C94.6636 263.237 94.7336 263.037 94.8736 262.878C95.023 262.719 95.247 262.64 95.5456 262.64C95.8443 262.64 96.0636 262.719 96.2036 262.878C96.353 263.037 96.4276 263.237 96.4276 263.48C96.4276 263.723 96.353 263.923 96.2036 264.082C96.0636 264.241 95.8443 264.32 95.5456 264.32ZM102.022 273.084C101.462 273.084 100.977 273.005 100.566 272.846C100.165 272.687 99.8523 272.417 99.6283 272.034C99.4136 271.642 99.3063 271.115 99.3063 270.452V263.256H100.594V270.62C100.594 271.021 100.702 271.334 100.916 271.558C101.14 271.773 101.453 271.88 101.854 271.88H103.17V273.084H102.022ZM98.0183 266.532V265.524H103.17V266.532H98.0183ZM108.223 273.252C107.579 273.252 107.019 273.14 106.543 272.916C106.076 272.692 105.689 272.393 105.381 272.02C105.073 271.637 104.839 271.217 104.681 270.76C104.531 270.303 104.457 269.845 104.457 269.388V269.136C104.457 268.66 104.531 268.193 104.681 267.736C104.839 267.279 105.073 266.868 105.381 266.504C105.698 266.131 106.09 265.832 106.557 265.608C107.023 265.384 107.569 265.272 108.195 265.272C108.82 265.272 109.38 265.389 109.875 265.622C110.379 265.855 110.78 266.187 111.079 266.616C111.387 267.036 111.559 267.535 111.597 268.114H110.309C110.243 267.647 110.029 267.26 109.665 266.952C109.301 266.635 108.811 266.476 108.195 266.476C107.663 266.476 107.219 266.597 106.865 266.84C106.51 267.083 106.244 267.414 106.067 267.834C105.889 268.254 105.801 268.73 105.801 269.262C105.801 269.775 105.889 270.247 106.067 270.676C106.244 271.096 106.51 271.432 106.865 271.684C107.229 271.927 107.681 272.048 108.223 272.048C108.643 272.048 109.007 271.973 109.315 271.824C109.623 271.675 109.87 271.474 110.057 271.222C110.243 270.97 110.355 270.685 110.393 270.368H111.681C111.653 270.956 111.48 271.465 111.163 271.894C110.855 272.323 110.444 272.659 109.931 272.902C109.427 273.135 108.857 273.252 108.223 273.252ZM116.951 273.252C116.297 273.252 115.723 273.14 115.229 272.916C114.734 272.692 114.314 272.398 113.969 272.034C113.633 271.661 113.376 271.245 113.199 270.788C113.031 270.331 112.947 269.864 112.947 269.388V269.136C112.947 268.66 113.035 268.193 113.213 267.736C113.39 267.269 113.651 266.854 113.997 266.49C114.342 266.117 114.762 265.823 115.257 265.608C115.751 265.384 116.316 265.272 116.951 265.272C117.585 265.272 118.15 265.384 118.645 265.608C119.139 265.823 119.559 266.117 119.905 266.49C120.25 266.854 120.511 267.269 120.689 267.736C120.866 268.193 120.955 268.66 120.955 269.136V269.388C120.955 269.864 120.866 270.331 120.689 270.788C120.521 271.245 120.264 271.661 119.919 272.034C119.583 272.398 119.167 272.692 118.673 272.916C118.178 273.14 117.604 273.252 116.951 273.252ZM116.951 272.048C117.511 272.048 117.987 271.927 118.379 271.684C118.78 271.432 119.083 271.096 119.289 270.676C119.503 270.256 119.611 269.785 119.611 269.262C119.611 268.73 119.503 268.254 119.289 267.834C119.074 267.414 118.766 267.083 118.365 266.84C117.973 266.597 117.501 266.476 116.951 266.476C116.409 266.476 115.938 266.597 115.537 266.84C115.135 267.083 114.827 267.414 114.613 267.834C114.398 268.254 114.291 268.73 114.291 269.262C114.291 269.785 114.393 270.256 114.599 270.676C114.813 271.096 115.117 271.432 115.509 271.684C115.91 271.927 116.391 272.048 116.951 272.048ZM123.332 273V265.524H124.676V273H123.332ZM122.184 266.588V265.524H124.676V266.588H122.184ZM123.71 264.32C123.411 264.32 123.187 264.241 123.038 264.082C122.898 263.923 122.828 263.723 122.828 263.48C122.828 263.237 122.898 263.037 123.038 262.878C123.187 262.719 123.411 262.64 123.71 262.64C124.008 262.64 124.228 262.719 124.368 262.878C124.517 263.037 124.592 263.237 124.592 263.48C124.592 263.723 124.517 263.923 124.368 264.082C124.228 264.241 124.008 264.32 123.71 264.32ZM127.274 273V265.524H128.338V268.73H128.17C128.17 267.993 128.268 267.372 128.464 266.868C128.67 266.355 128.978 265.967 129.388 265.706C129.799 265.435 130.317 265.3 130.942 265.3H130.998C131.941 265.3 132.636 265.594 133.084 266.182C133.542 266.77 133.77 267.619 133.77 268.73V273H132.426V268.45C132.426 267.871 132.263 267.409 131.936 267.064C131.61 266.709 131.162 266.532 130.592 266.532C130.004 266.532 129.528 266.714 129.164 267.078C128.8 267.442 128.618 267.927 128.618 268.534V273H127.274Z" fill="white"/>
<path d="M86.208 292.048V291.016H88.656C89.128 291.016 89.492 290.884 89.748 290.62C90.012 290.348 90.144 289.988 90.144 289.54C90.144 289.084 90.016 288.728 89.76 288.472C89.504 288.208 89.136 288.076 88.656 288.076H86.208V287.308H88.488C89.048 287.308 89.54 287.376 89.964 287.512C90.396 287.648 90.732 287.876 90.972 288.196C91.22 288.508 91.344 288.936 91.344 289.48V289.648C91.344 290.16 91.24 290.596 91.032 290.956C90.824 291.308 90.508 291.58 90.084 291.772C89.66 291.956 89.128 292.048 88.488 292.048H86.208ZM85.272 292.048V283.192H86.448V292.048H85.272ZM86.208 287.86V287.092H88.332C88.828 287.092 89.192 286.96 89.424 286.696C89.664 286.424 89.784 286.08 89.784 285.664C89.784 285.24 89.664 284.896 89.424 284.632C89.192 284.36 88.828 284.224 88.332 284.224H86.208V283.192H88.128C89.088 283.192 89.804 283.396 90.276 283.804C90.748 284.204 90.984 284.784 90.984 285.544V285.712C90.984 286.248 90.864 286.676 90.624 286.996C90.384 287.308 90.048 287.532 89.616 287.668C89.192 287.796 88.696 287.86 88.128 287.86H86.208ZM95.0282 292V284.056H96.2042V292H95.0282ZM92.3642 284.296V283.24H98.8682V284.296H92.3642ZM104.044 292.216C103.244 292.216 102.56 292.076 101.992 291.796C101.432 291.516 100.98 291.152 100.636 290.704C100.292 290.256 100.04 289.772 99.8797 289.252C99.7197 288.724 99.6397 288.216 99.6397 287.728V287.464C99.6397 286.936 99.7197 286.408 99.8797 285.88C100.048 285.352 100.304 284.872 100.648 284.44C100.992 284.008 101.44 283.66 101.992 283.396C102.544 283.132 103.204 283 103.972 283C104.756 283 105.428 283.136 105.988 283.408C106.548 283.68 106.992 284.06 107.32 284.548C107.648 285.036 107.848 285.612 107.92 286.276H106.72C106.656 285.78 106.496 285.372 106.24 285.052C105.984 284.724 105.66 284.48 105.268 284.32C104.884 284.16 104.452 284.08 103.972 284.08C103.452 284.08 102.996 284.172 102.604 284.356C102.212 284.532 101.884 284.784 101.62 285.112C101.364 285.432 101.168 285.804 101.032 286.228C100.904 286.652 100.84 287.112 100.84 287.608C100.84 288.08 100.904 288.528 101.032 288.952C101.168 289.376 101.368 289.752 101.632 290.08C101.904 290.408 102.24 290.668 102.64 290.86C103.04 291.044 103.508 291.136 104.044 291.136C104.796 291.136 105.428 290.948 105.94 290.572C106.452 290.196 106.764 289.652 106.876 288.94H108.076C107.996 289.54 107.792 290.088 107.464 290.584C107.144 291.08 106.696 291.476 106.12 291.772C105.552 292.068 104.86 292.216 104.044 292.216Z" fill="#DAF727"/>
<path d="M185.55 273C184.747 273 184.066 272.869 183.506 272.608C182.946 272.337 182.517 271.959 182.218 271.474C181.929 270.979 181.784 270.401 181.784 269.738H183.044C183.044 270.055 183.119 270.377 183.268 270.704C183.427 271.031 183.688 271.306 184.052 271.53C184.416 271.745 184.915 271.852 185.55 271.852C186.39 271.852 187.011 271.675 187.412 271.32C187.823 270.965 188.028 270.559 188.028 270.102C188.028 269.654 187.846 269.281 187.482 268.982C187.118 268.683 186.591 268.501 185.9 268.436L184.976 268.352C184.08 268.268 183.366 267.997 182.834 267.54C182.302 267.083 182.036 266.429 182.036 265.58C182.036 264.992 182.176 264.493 182.456 264.082C182.745 263.662 183.147 263.34 183.66 263.116C184.183 262.892 184.794 262.78 185.494 262.78C186.194 262.78 186.796 262.906 187.3 263.158C187.813 263.401 188.21 263.76 188.49 264.236C188.77 264.703 188.91 265.267 188.91 265.93H187.65C187.65 265.594 187.575 265.277 187.426 264.978C187.277 264.67 187.043 264.418 186.726 264.222C186.418 264.026 186.007 263.928 185.494 263.928C185.037 263.928 184.645 264.003 184.318 264.152C184.001 264.292 183.753 264.488 183.576 264.74C183.408 264.992 183.324 265.272 183.324 265.58C183.324 265.981 183.469 266.331 183.758 266.63C184.047 266.919 184.491 267.092 185.088 267.148L186.012 267.232C187.011 267.325 187.809 267.619 188.406 268.114C189.013 268.599 189.316 269.262 189.316 270.102C189.316 270.681 189.162 271.189 188.854 271.628C188.546 272.057 188.112 272.393 187.552 272.636C186.992 272.879 186.325 273 185.55 273ZM184.948 274.806V272.762H186.152V274.806H184.948ZM184.892 263.466V261.422H186.096V263.466H184.892ZM192.989 273V263.452L193.605 263.928H190.721V262.78H194.333V273H192.989ZM197.454 275.198L196.376 274.792L197.678 271.18L198.784 271.6L197.454 275.198ZM200.74 273V271.32C200.74 270.909 200.796 270.559 200.908 270.27C201.029 269.981 201.234 269.719 201.524 269.486C201.813 269.243 202.205 269.01 202.7 268.786L204.618 267.904C205.084 267.689 205.453 267.414 205.724 267.078C205.994 266.733 206.13 266.289 206.13 265.748C206.13 265.095 205.948 264.586 205.584 264.222C205.22 263.858 204.706 263.676 204.044 263.676C203.39 263.676 202.877 263.858 202.504 264.222C202.13 264.586 201.944 265.095 201.944 265.748H200.628C200.628 265.16 200.749 264.619 200.992 264.124C201.244 263.629 201.622 263.237 202.126 262.948C202.63 262.649 203.269 262.5 204.044 262.5C204.818 262.5 205.453 262.649 205.948 262.948C206.452 263.237 206.825 263.62 207.068 264.096C207.32 264.572 207.446 265.09 207.446 265.65V265.846C207.446 266.583 207.231 267.204 206.802 267.708C206.382 268.212 205.812 268.627 205.094 268.954L203.176 269.836C202.746 270.032 202.457 270.228 202.308 270.424C202.158 270.62 202.084 270.881 202.084 271.208V272.496L201.72 271.852H207.572V273H200.74ZM212.516 273.252C211.751 273.252 211.102 273.103 210.57 272.804C210.038 272.505 209.632 272.109 209.352 271.614C209.081 271.119 208.946 270.583 208.946 270.004H210.262C210.262 270.639 210.463 271.143 210.864 271.516C211.275 271.889 211.825 272.076 212.516 272.076C212.973 272.076 213.37 271.992 213.706 271.824C214.042 271.656 214.303 271.418 214.49 271.11C214.677 270.793 214.77 270.424 214.77 270.004C214.77 269.369 214.565 268.856 214.154 268.464C213.753 268.072 213.211 267.876 212.53 267.876C212.241 267.876 211.989 267.913 211.774 267.988C211.569 268.053 211.387 268.137 211.228 268.24L210.556 267.036L214.462 264.18L214.322 263.928H209.352V262.78H215.582V264.642L212.348 266.994L211.368 267.036C211.527 266.98 211.699 266.933 211.886 266.896C212.082 266.859 212.311 266.84 212.572 266.84C213.319 266.84 213.953 266.98 214.476 267.26C214.999 267.54 215.395 267.913 215.666 268.38C215.946 268.847 216.086 269.355 216.086 269.906V270.102C216.086 270.643 215.946 271.157 215.666 271.642C215.395 272.118 214.994 272.505 214.462 272.804C213.939 273.103 213.291 273.252 212.516 273.252ZM221.816 273.28C221.069 273.28 220.444 273.149 219.94 272.888C219.445 272.627 219.048 272.272 218.75 271.824C218.46 271.367 218.25 270.844 218.12 270.256C217.998 269.668 217.938 269.052 217.938 268.408V267.736C217.938 266.121 218.339 264.88 219.142 264.012C219.944 263.135 221.106 262.696 222.628 262.696C222.992 262.696 223.3 262.705 223.552 262.724C223.804 262.743 224.079 262.771 224.378 262.808V263.956C224.07 263.919 223.785 263.891 223.524 263.872C223.262 263.853 222.945 263.844 222.572 263.844C221.722 263.844 221.05 264.003 220.556 264.32C220.061 264.637 219.706 265.095 219.492 265.692C219.277 266.28 219.17 266.994 219.17 267.834V268.464L218.834 269.71C218.843 268.973 218.983 268.361 219.254 267.876C219.534 267.391 219.912 267.027 220.388 266.784C220.873 266.541 221.428 266.42 222.054 266.42C222.782 266.42 223.398 266.569 223.902 266.868C224.406 267.157 224.784 267.559 225.036 268.072C225.297 268.585 225.428 269.169 225.428 269.822C225.428 270.485 225.292 271.077 225.022 271.6C224.751 272.123 224.345 272.533 223.804 272.832C223.272 273.131 222.609 273.28 221.816 273.28ZM221.816 272.104C222.329 272.104 222.758 272.006 223.104 271.81C223.449 271.614 223.706 271.348 223.874 271.012C224.051 270.667 224.14 270.27 224.14 269.822C224.14 269.374 224.056 268.977 223.888 268.632C223.72 268.287 223.468 268.021 223.132 267.834C222.805 267.638 222.399 267.54 221.914 267.54C221.438 267.54 221.008 267.629 220.626 267.806C220.252 267.983 219.958 268.245 219.744 268.59C219.529 268.926 219.422 269.341 219.422 269.836C219.422 270.247 219.506 270.625 219.674 270.97C219.842 271.315 220.103 271.591 220.458 271.796C220.812 272.001 221.265 272.104 221.816 272.104ZM227.18 273V271.292H228.804V273H227.18ZM230.886 273V271.32C230.886 270.909 230.942 270.559 231.054 270.27C231.176 269.981 231.381 269.719 231.67 269.486C231.96 269.243 232.352 269.01 232.846 268.786L234.764 267.904C235.231 267.689 235.6 267.414 235.87 267.078C236.141 266.733 236.276 266.289 236.276 265.748C236.276 265.095 236.094 264.586 235.73 264.222C235.366 263.858 234.853 263.676 234.19 263.676C233.537 263.676 233.024 263.858 232.65 264.222C232.277 264.586 232.09 265.095 232.09 265.748H230.774C230.774 265.16 230.896 264.619 231.138 264.124C231.39 263.629 231.768 263.237 232.272 262.948C232.776 262.649 233.416 262.5 234.19 262.5C234.965 262.5 235.6 262.649 236.094 262.948C236.598 263.237 236.972 263.62 237.214 264.096C237.466 264.572 237.592 265.09 237.592 265.65V265.846C237.592 266.583 237.378 267.204 236.948 267.708C236.528 268.212 235.959 268.627 235.24 268.954L233.322 269.836C232.893 270.032 232.604 270.228 232.454 270.424C232.305 270.62 232.23 270.881 232.23 271.208V272.496L231.866 271.852H237.718V273H230.886ZM241.333 273V263.452L241.949 263.928H239.065V262.78H242.677V273H241.333Z" fill="white"/>
<rect x="181" y="287" width="74" height="6" rx="2" fill="#DAF727"/>
<rect x="324.5" y="266.5" width="59" height="23" rx="11.5" fill="#ECFDF7"/>
<rect x="324.5" y="266.5" width="59" height="23" rx="11.5" stroke="#DAFBEF"/>
<g clip-path="url(#clip4_407_10327)">
<path d="M339 279.5L336 276.5L333 279.5H339Z" fill="#11CF8B" stroke="#11CF8B" stroke-width="1.5" stroke-linecap="round" stroke-linejoin="round"/>
</g>
<path d="M348.448 274V265.816L348.976 266.224H346.504V265.24H349.6V274H348.448ZM351.975 274V272.536H353.367V274H351.975ZM357.888 274.216C357.232 274.216 356.676 274.088 356.22 273.832C355.764 273.576 355.416 273.236 355.176 272.812C354.944 272.388 354.828 271.928 354.828 271.432H355.956C355.956 271.976 356.128 272.408 356.472 272.728C356.824 273.048 357.296 273.208 357.888 273.208C358.28 273.208 358.62 273.136 358.908 272.992C359.196 272.848 359.42 272.644 359.58 272.38C359.74 272.108 359.82 271.792 359.82 271.432C359.82 270.888 359.644 270.448 359.292 270.112C358.948 269.776 358.484 269.608 357.9 269.608C357.652 269.608 357.436 269.64 357.252 269.704C357.076 269.76 356.92 269.832 356.784 269.92L356.208 268.888L359.556 266.44L359.436 266.224H355.176V265.24H360.516V266.836L357.744 268.852L356.904 268.888C357.04 268.84 357.188 268.8 357.348 268.768C357.516 268.736 357.712 268.72 357.936 268.72C358.576 268.72 359.12 268.84 359.568 269.08C360.016 269.32 360.356 269.64 360.588 270.04C360.828 270.44 360.948 270.876 360.948 271.348V271.516C360.948 271.98 360.828 272.42 360.588 272.836C360.356 273.244 360.012 273.576 359.556 273.832C359.108 274.088 358.552 274.216 357.888 274.216ZM363.459 274L367.167 266.332L367.095 266.224H362.307V265.24H368.187V266.632L364.659 274H363.459ZM362.307 267.616V265.24H363.267V267.616H362.307ZM349.012 290L352.324 281.24H353.236L349.924 290H349.012ZM348.364 285.944C347.908 285.944 347.536 285.84 347.248 285.632C346.968 285.424 346.76 285.148 346.624 284.804C346.496 284.46 346.432 284.088 346.432 283.688V283.376C346.432 282.944 346.5 282.56 346.636 282.224C346.772 281.88 346.984 281.612 347.272 281.42C347.56 281.22 347.924 281.12 348.364 281.12C348.812 281.12 349.176 281.22 349.456 281.42C349.744 281.612 349.956 281.88 350.092 282.224C350.228 282.56 350.296 282.944 350.296 283.376V283.688C350.296 284.088 350.228 284.46 350.092 284.804C349.964 285.148 349.76 285.424 349.48 285.632C349.2 285.84 348.828 285.944 348.364 285.944ZM348.364 285.152C348.732 285.152 349.004 285.02 349.18 284.756C349.364 284.484 349.456 284.08 349.456 283.544C349.456 282.976 349.364 282.564 349.18 282.308C348.996 282.044 348.724 281.912 348.364 281.912C348.004 281.912 347.732 282.044 347.548 282.308C347.364 282.564 347.272 282.972 347.272 283.532C347.272 284.068 347.36 284.472 347.536 284.744C347.72 285.016 347.996 285.152 348.364 285.152ZM353.836 290.12C353.38 290.12 353.008 290.016 352.72 289.808C352.44 289.6 352.232 289.324 352.096 288.98C351.968 288.636 351.904 288.264 351.904 287.864V287.552C351.904 287.12 351.972 286.736 352.108 286.4C352.244 286.056 352.456 285.788 352.744 285.596C353.032 285.396 353.396 285.296 353.836 285.296C354.284 285.296 354.648 285.396 354.928 285.596C355.216 285.788 355.428 286.056 355.564 286.4C355.7 286.736 355.768 287.12 355.768 287.552V287.864C355.768 288.264 355.7 288.636 355.564 288.98C355.436 289.324 355.232 289.6 354.952 289.808C354.672 290.016 354.3 290.12 353.836 290.12ZM353.836 289.328C354.204 289.328 354.476 289.196 354.652 288.932C354.836 288.66 354.928 288.256 354.928 287.72C354.928 287.152 354.836 286.74 354.652 286.484C354.468 286.22 354.196 286.088 353.836 286.088C353.476 286.088 353.204 286.22 353.02 286.484C352.836 286.74 352.744 287.148 352.744 287.708C352.744 288.244 352.832 288.648 353.008 288.92C353.192 289.192 353.468 289.328 353.836 289.328Z" fill="#11CF8B"/>
<line opacity="0.2" x1="32" y1="313.5" x2="268" y2="313.5" stroke="#D6D1FA"/>
<g clip-path="url(#clip5_407_10327)">
<path d="M52 370C63.0457 370 72 361.046 72 350C72 338.954 63.0457 330 52 330C40.9543 330 32 338.954 32 350C32 361.046 40.9543 370 52 370Z" fill="#767DFF"/>
<path fill-rule="evenodd" clip-rule="evenodd" d="M49.212 338.125H54.787C54.9802 338.125 55.1699 338.176 55.3367 338.274C55.5034 338.371 55.6412 338.512 55.7358 338.68L64.3683 354.079C64.4592 354.241 64.5069 354.424 64.5069 354.61C64.5069 354.796 64.4592 354.979 64.3683 355.141L61.6058 360.069C61.5114 360.237 61.374 360.378 61.2074 360.475C61.0409 360.573 60.8514 360.625 60.6583 360.625H43.3408C43.1475 360.625 42.9577 360.573 42.7909 360.476C42.6241 360.378 42.4865 360.237 42.392 360.069L39.6308 355.141C39.5399 354.979 39.4922 354.796 39.4922 354.61C39.4922 354.424 39.5399 354.241 39.6308 354.079L48.2633 338.68C48.3579 338.512 48.4956 338.371 48.6624 338.274C48.8291 338.176 49.0188 338.125 49.212 338.125ZM51.9995 344.251L46.1833 354.61H57.8158L51.9995 344.251Z" fill="white"/>
</g>
<path d="M84.392 345L88.074 334.78H90.398L94.192 345H92.778L89.348 335.676L90.02 336.012H88.368L89.082 335.676L85.764 345H84.392ZM86.59 341.948L87.052 340.716H91.462L91.924 341.948H86.59ZM98.994 345.252C98.35 345.252 97.79 345.14 97.314 344.916C96.8473 344.692 96.46 344.393 96.152 344.02C95.844 343.637 95.6107 343.217 95.452 342.76C95.3027 342.303 95.228 341.845 95.228 341.388V341.136C95.228 340.66 95.3027 340.193 95.452 339.736C95.6107 339.279 95.844 338.868 96.152 338.504C96.4693 338.131 96.8613 337.832 97.328 337.608C97.7947 337.384 98.3407 337.272 98.966 337.272C99.5913 337.272 100.151 337.389 100.646 337.622C101.15 337.855 101.551 338.187 101.85 338.616C102.158 339.036 102.331 339.535 102.368 340.114H101.08C101.015 339.647 100.8 339.26 100.436 338.952C100.072 338.635 99.582 338.476 98.966 338.476C98.434 338.476 97.9907 338.597 97.636 338.84C97.2813 339.083 97.0153 339.414 96.838 339.834C96.6607 340.254 96.572 340.73 96.572 341.262C96.572 341.775 96.6607 342.247 96.838 342.676C97.0153 343.096 97.2813 343.432 97.636 343.684C98 343.927 98.4527 344.048 98.994 344.048C99.414 344.048 99.778 343.973 100.086 343.824C100.394 343.675 100.641 343.474 100.828 343.222C101.015 342.97 101.127 342.685 101.164 342.368H102.452C102.424 342.956 102.251 343.465 101.934 343.894C101.626 344.323 101.215 344.659 100.702 344.902C100.198 345.135 99.6287 345.252 98.994 345.252ZM104.278 345V334.78H105.622V340.884H105.286C105.286 340.147 105.38 339.512 105.566 338.98C105.762 338.439 106.061 338.023 106.462 337.734C106.864 337.445 107.377 337.3 108.002 337.3H108.058C108.954 337.3 109.631 337.599 110.088 338.196C110.546 338.784 110.774 339.629 110.774 340.73V345H109.43V340.45C109.43 339.843 109.258 339.372 108.912 339.036C108.576 338.7 108.138 338.532 107.596 338.532C106.999 338.532 106.518 338.733 106.154 339.134C105.8 339.526 105.622 340.044 105.622 340.688V345H104.278ZM117.755 345V342.76H117.531V340.17C117.531 339.657 117.396 339.269 117.125 339.008C116.864 338.747 116.477 338.616 115.963 338.616C115.674 338.616 115.375 338.621 115.067 338.63C114.759 338.639 114.465 338.649 114.185 338.658C113.905 338.667 113.663 338.681 113.457 338.7V337.524C113.663 337.505 113.877 337.491 114.101 337.482C114.335 337.463 114.573 337.454 114.815 337.454C115.058 337.445 115.291 337.44 115.515 337.44C116.281 337.44 116.906 337.533 117.391 337.72C117.877 337.897 118.236 338.191 118.469 338.602C118.703 339.013 118.819 339.568 118.819 340.268V345H117.755ZM115.305 345.196C114.745 345.196 114.26 345.103 113.849 344.916C113.448 344.72 113.135 344.44 112.911 344.076C112.697 343.712 112.589 343.273 112.589 342.76C112.589 342.228 112.706 341.785 112.939 341.43C113.182 341.075 113.532 340.809 113.989 340.632C114.447 340.445 114.997 340.352 115.641 340.352H117.671V341.36H115.585C115.044 341.36 114.629 341.491 114.339 341.752C114.05 342.013 113.905 342.349 113.905 342.76C113.905 343.171 114.05 343.502 114.339 343.754C114.629 344.006 115.044 344.132 115.585 344.132C115.903 344.132 116.206 344.076 116.495 343.964C116.785 343.843 117.023 343.647 117.209 343.376C117.405 343.096 117.513 342.713 117.531 342.228L117.895 342.76C117.849 343.292 117.718 343.74 117.503 344.104C117.298 344.459 117.009 344.729 116.635 344.916C116.271 345.103 115.828 345.196 115.305 345.196ZM121.65 345V337.524H122.994V345H121.65ZM120.502 338.588V337.524H122.994V338.588H120.502ZM122.028 336.32C121.729 336.32 121.505 336.241 121.356 336.082C121.216 335.923 121.146 335.723 121.146 335.48C121.146 335.237 121.216 335.037 121.356 334.878C121.505 334.719 121.729 334.64 122.028 334.64C122.327 334.64 122.546 334.719 122.686 334.878C122.835 335.037 122.91 335.237 122.91 335.48C122.91 335.723 122.835 335.923 122.686 336.082C122.546 336.241 122.327 336.32 122.028 336.32ZM125.593 345V337.524H126.657V340.73H126.489C126.489 339.993 126.587 339.372 126.783 338.868C126.988 338.355 127.296 337.967 127.707 337.706C128.117 337.435 128.635 337.3 129.261 337.3H129.317C130.259 337.3 130.955 337.594 131.403 338.182C131.86 338.77 132.089 339.619 132.089 340.73V345H130.745V340.45C130.745 339.871 130.581 339.409 130.255 339.064C129.928 338.709 129.48 338.532 128.911 338.532C128.323 338.532 127.847 338.714 127.483 339.078C127.119 339.442 126.937 339.927 126.937 340.534V345H125.593Z" fill="white"/>
<path d="M84.336 366L87.492 357.24H89.484L92.736 366H91.524L88.584 358.008L89.16 358.296H87.744L88.356 358.008L85.512 366H84.336ZM86.22 363.384L86.616 362.328H90.396L90.792 363.384H86.22ZM97.9251 366.216C97.1251 366.216 96.4411 366.076 95.8731 365.796C95.3131 365.516 94.8611 365.152 94.5171 364.704C94.1731 364.256 93.9211 363.772 93.7611 363.252C93.6011 362.724 93.5211 362.216 93.5211 361.728V361.464C93.5211 360.936 93.6011 360.408 93.7611 359.88C93.9291 359.352 94.1851 358.872 94.5291 358.44C94.8731 358.008 95.3211 357.66 95.8731 357.396C96.4251 357.132 97.0851 357 97.8531 357C98.6371 357 99.3091 357.136 99.8691 357.408C100.429 357.68 100.873 358.06 101.201 358.548C101.529 359.036 101.729 359.612 101.801 360.276H100.601C100.537 359.78 100.377 359.372 100.121 359.052C99.8651 358.724 99.5411 358.48 99.1491 358.32C98.7651 358.16 98.3331 358.08 97.8531 358.08C97.3331 358.08 96.8771 358.172 96.4851 358.356C96.0931 358.532 95.7651 358.784 95.5011 359.112C95.2451 359.432 95.0491 359.804 94.9131 360.228C94.7851 360.652 94.7211 361.112 94.7211 361.608C94.7211 362.08 94.7851 362.528 94.9131 362.952C95.0491 363.376 95.2491 363.752 95.5131 364.08C95.7851 364.408 96.1211 364.668 96.5211 364.86C96.9211 365.044 97.3891 365.136 97.9251 365.136C98.6771 365.136 99.3091 364.948 99.8211 364.572C100.333 364.196 100.645 363.652 100.757 362.94H101.957C101.877 363.54 101.673 364.088 101.345 364.584C101.025 365.08 100.577 365.476 100.001 365.772C99.4331 366.068 98.7411 366.216 97.9251 366.216ZM103.72 366V357.24H105.64L110.092 364.944H110.476L110.236 365.16V357.24H111.364V366H109.42L104.968 358.296H104.584L104.824 358.08V366H103.72Z" fill="#DAF727"/>
<path d="M185.55 345C184.747 345 184.066 344.869 183.506 344.608C182.946 344.337 182.517 343.959 182.218 343.474C181.929 342.979 181.784 342.401 181.784 341.738H183.044C183.044 342.055 183.119 342.377 183.268 342.704C183.427 343.031 183.688 343.306 184.052 343.53C184.416 343.745 184.915 343.852 185.55 343.852C186.39 343.852 187.011 343.675 187.412 343.32C187.823 342.965 188.028 342.559 188.028 342.102C188.028 341.654 187.846 341.281 187.482 340.982C187.118 340.683 186.591 340.501 185.9 340.436L184.976 340.352C184.08 340.268 183.366 339.997 182.834 339.54C182.302 339.083 182.036 338.429 182.036 337.58C182.036 336.992 182.176 336.493 182.456 336.082C182.745 335.662 183.147 335.34 183.66 335.116C184.183 334.892 184.794 334.78 185.494 334.78C186.194 334.78 186.796 334.906 187.3 335.158C187.813 335.401 188.21 335.76 188.49 336.236C188.77 336.703 188.91 337.267 188.91 337.93H187.65C187.65 337.594 187.575 337.277 187.426 336.978C187.277 336.67 187.043 336.418 186.726 336.222C186.418 336.026 186.007 335.928 185.494 335.928C185.037 335.928 184.645 336.003 184.318 336.152C184.001 336.292 183.753 336.488 183.576 336.74C183.408 336.992 183.324 337.272 183.324 337.58C183.324 337.981 183.469 338.331 183.758 338.63C184.047 338.919 184.491 339.092 185.088 339.148L186.012 339.232C187.011 339.325 187.809 339.619 188.406 340.114C189.013 340.599 189.316 341.262 189.316 342.102C189.316 342.681 189.162 343.189 188.854 343.628C188.546 344.057 188.112 344.393 187.552 344.636C186.992 344.879 186.325 345 185.55 345ZM184.948 346.806V344.762H186.152V346.806H184.948ZM184.892 335.466V333.422H186.096V335.466H184.892ZM192.989 345V335.452L193.605 335.928H190.721V334.78H194.333V345H192.989ZM200.898 345.28C200.151 345.28 199.526 345.149 199.022 344.888C198.527 344.627 198.13 344.272 197.832 343.824C197.542 343.367 197.332 342.844 197.202 342.256C197.08 341.668 197.02 341.052 197.02 340.408V339.736C197.02 338.121 197.421 336.88 198.224 336.012C199.026 335.135 200.188 334.696 201.71 334.696C202.074 334.696 202.382 334.705 202.634 334.724C202.886 334.743 203.161 334.771 203.46 334.808V335.956C203.152 335.919 202.867 335.891 202.606 335.872C202.344 335.853 202.027 335.844 201.654 335.844C200.804 335.844 200.132 336.003 199.638 336.32C199.143 336.637 198.788 337.095 198.574 337.692C198.359 338.28 198.252 338.994 198.252 339.834V340.464L197.916 341.71C197.925 340.973 198.065 340.361 198.336 339.876C198.616 339.391 198.994 339.027 199.47 338.784C199.955 338.541 200.51 338.42 201.136 338.42C201.864 338.42 202.48 338.569 202.984 338.868C203.488 339.157 203.866 339.559 204.118 340.072C204.379 340.585 204.51 341.169 204.51 341.822C204.51 342.485 204.374 343.077 204.104 343.6C203.833 344.123 203.427 344.533 202.886 344.832C202.354 345.131 201.691 345.28 200.898 345.28ZM200.898 344.104C201.411 344.104 201.84 344.006 202.186 343.81C202.531 343.614 202.788 343.348 202.956 343.012C203.133 342.667 203.222 342.27 203.222 341.822C203.222 341.374 203.138 340.977 202.97 340.632C202.802 340.287 202.55 340.021 202.214 339.834C201.887 339.638 201.481 339.54 200.996 339.54C200.52 339.54 200.09 339.629 199.708 339.806C199.334 339.983 199.04 340.245 198.826 340.59C198.611 340.926 198.504 341.341 198.504 341.836C198.504 342.247 198.588 342.625 198.756 342.97C198.924 343.315 199.185 343.591 199.54 343.796C199.894 344.001 200.347 344.104 200.898 344.104ZM209.664 345.252C208.88 345.252 208.218 345.093 207.676 344.776C207.135 344.449 206.724 344.025 206.444 343.502C206.164 342.979 206.024 342.424 206.024 341.836H207.34C207.34 342.265 207.434 342.648 207.62 342.984C207.816 343.32 208.087 343.586 208.432 343.782C208.778 343.978 209.188 344.076 209.664 344.076C210.131 344.076 210.537 343.983 210.882 343.796C211.237 343.6 211.512 343.334 211.708 342.998C211.904 342.653 212.002 342.265 212.002 341.836C212.002 341.407 211.904 341.019 211.708 340.674C211.522 340.329 211.251 340.053 210.896 339.848C210.551 339.643 210.14 339.54 209.664 339.54C209.319 339.54 208.969 339.601 208.614 339.722C208.26 339.834 207.975 339.997 207.76 340.212H206.528L207.046 334.78H212.408V335.928H207.83L208.166 335.466L207.774 339.428L207.41 339.302C207.681 339.031 208.008 338.817 208.39 338.658C208.782 338.499 209.226 338.42 209.72 338.42C210.504 338.42 211.162 338.583 211.694 338.91C212.226 339.227 212.628 339.643 212.898 340.156C213.178 340.66 213.318 341.187 213.318 341.738V341.934C213.318 342.485 213.178 343.017 212.898 343.53C212.618 344.034 212.203 344.449 211.652 344.776C211.111 345.093 210.448 345.252 209.664 345.252ZM215.405 347.198L214.327 346.792L215.629 343.18L216.735 343.6L215.405 347.198ZM222.079 345.252C221.351 345.252 220.702 345.121 220.133 344.86C219.573 344.599 219.13 344.235 218.803 343.768C218.486 343.301 218.327 342.76 218.327 342.144C218.327 341.733 218.406 341.365 218.565 341.038C218.724 340.702 218.943 340.413 219.223 340.17C219.503 339.927 219.82 339.741 220.175 339.61V339.47C219.895 339.349 219.638 339.185 219.405 338.98C219.181 338.775 218.999 338.532 218.859 338.252C218.728 337.972 218.663 337.655 218.663 337.3C218.663 336.712 218.817 336.213 219.125 335.802C219.442 335.391 219.858 335.079 220.371 334.864C220.894 334.64 221.463 334.528 222.079 334.528C222.704 334.528 223.274 334.64 223.787 334.864C224.31 335.079 224.725 335.391 225.033 335.802C225.341 336.213 225.495 336.712 225.495 337.3C225.495 337.655 225.43 337.972 225.299 338.252C225.168 338.532 224.986 338.775 224.753 338.98C224.529 339.185 224.272 339.349 223.983 339.47V339.61C224.347 339.741 224.669 339.932 224.949 340.184C225.229 340.427 225.448 340.716 225.607 341.052C225.766 341.379 225.845 341.743 225.845 342.144C225.845 342.76 225.682 343.301 225.355 343.768C225.038 344.235 224.594 344.599 224.025 344.86C223.465 345.121 222.816 345.252 222.079 345.252ZM222.079 344.104C222.592 344.104 223.031 344.025 223.395 343.866C223.759 343.698 224.039 343.465 224.235 343.166C224.431 342.858 224.529 342.499 224.529 342.088C224.529 341.677 224.431 341.323 224.235 341.024C224.048 340.725 223.773 340.497 223.409 340.338C223.045 340.17 222.602 340.086 222.079 340.086C221.566 340.086 221.127 340.17 220.763 340.338C220.399 340.497 220.119 340.725 219.923 341.024C219.736 341.323 219.643 341.677 219.643 342.088C219.643 342.499 219.736 342.858 219.923 343.166C220.119 343.465 220.399 343.698 220.763 343.866C221.127 344.025 221.566 344.104 222.079 344.104ZM222.079 339.022C222.714 339.022 223.222 338.887 223.605 338.616C223.988 338.336 224.179 337.911 224.179 337.342C224.179 336.763 223.983 336.343 223.591 336.082C223.208 335.811 222.704 335.676 222.079 335.676C221.454 335.676 220.945 335.811 220.553 336.082C220.17 336.353 219.979 336.773 219.979 337.342C219.979 337.911 220.17 338.336 220.553 338.616C220.945 338.887 221.454 339.022 222.079 339.022Z" fill="white"/>
<rect x="181" y="354" width="50" height="6" rx="2" fill="#DAF727"/>
<rect x="324.5" y="338.5" width="59" height="23" rx="11.5" fill="#ECFDF7"/>
<rect x="324.5" y="338.5" width="59" height="23" rx="11.5" stroke="#DAFBEF"/>
<g clip-path="url(#clip6_407_10327)">
<path d="M339 351.5L336 348.5L333 351.5H339Z" fill="#11CF8B" stroke="#11CF8B" stroke-width="1.5" stroke-linecap="round" stroke-linejoin="round"/>
</g>
<path d="M348.448 346V337.816L348.976 338.224H346.504V337.24H349.6V346H348.448ZM351.975 346V344.536H353.367V346H351.975ZM357.888 346.216C357.232 346.216 356.676 346.088 356.22 345.832C355.764 345.576 355.416 345.236 355.176 344.812C354.944 344.388 354.828 343.928 354.828 343.432H355.956C355.956 343.976 356.128 344.408 356.472 344.728C356.824 345.048 357.296 345.208 357.888 345.208C358.28 345.208 358.62 345.136 358.908 344.992C359.196 344.848 359.42 344.644 359.58 344.38C359.74 344.108 359.82 343.792 359.82 343.432C359.82 342.888 359.644 342.448 359.292 342.112C358.948 341.776 358.484 341.608 357.9 341.608C357.652 341.608 357.436 341.64 357.252 341.704C357.076 341.76 356.92 341.832 356.784 341.92L356.208 340.888L359.556 338.44L359.436 338.224H355.176V337.24H360.516V338.836L357.744 340.852L356.904 340.888C357.04 340.84 357.188 340.8 357.348 340.768C357.516 340.736 357.712 340.72 357.936 340.72C358.576 340.72 359.12 340.84 359.568 341.08C360.016 341.32 360.356 341.64 360.588 342.04C360.828 342.44 360.948 342.876 360.948 343.348V343.516C360.948 343.98 360.828 344.42 360.588 344.836C360.356 345.244 360.012 345.576 359.556 345.832C359.108 346.088 358.552 346.216 357.888 346.216ZM363.459 346L367.167 338.332L367.095 338.224H362.307V337.24H368.187V338.632L364.659 346H363.459ZM362.307 339.616V337.24H363.267V339.616H362.307ZM349.012 362L352.324 353.24H353.236L349.924 362H349.012ZM348.364 357.944C347.908 357.944 347.536 357.84 347.248 357.632C346.968 357.424 346.76 357.148 346.624 356.804C346.496 356.46 346.432 356.088 346.432 355.688V355.376C346.432 354.944 346.5 354.56 346.636 354.224C346.772 353.88 346.984 353.612 347.272 353.42C347.56 353.22 347.924 353.12 348.364 353.12C348.812 353.12 349.176 353.22 349.456 353.42C349.744 353.612 349.956 353.88 350.092 354.224C350.228 354.56 350.296 354.944 350.296 355.376V355.688C350.296 356.088 350.228 356.46 350.092 356.804C349.964 357.148 349.76 357.424 349.48 357.632C349.2 357.84 348.828 357.944 348.364 357.944ZM348.364 357.152C348.732 357.152 349.004 357.02 349.18 356.756C349.364 356.484 349.456 356.08 349.456 355.544C349.456 354.976 349.364 354.564 349.18 354.308C348.996 354.044 348.724 353.912 348.364 353.912C348.004 353.912 347.732 354.044 347.548 354.308C347.364 354.564 347.272 354.972 347.272 355.532C347.272 356.068 347.36 356.472 347.536 356.744C347.72 357.016 347.996 357.152 348.364 357.152ZM353.836 362.12C353.38 362.12 353.008 362.016 352.72 361.808C352.44 361.6 352.232 361.324 352.096 360.98C351.968 360.636 351.904 360.264 351.904 359.864V359.552C351.904 359.12 351.972 358.736 352.108 358.4C352.244 358.056 352.456 357.788 352.744 357.596C353.032 357.396 353.396 357.296 353.836 357.296C354.284 357.296 354.648 357.396 354.928 357.596C355.216 357.788 355.428 358.056 355.564 358.4C355.7 358.736 355.768 359.12 355.768 359.552V359.864C355.768 360.264 355.7 360.636 355.564 360.98C355.436 361.324 355.232 361.6 354.952 361.808C354.672 362.016 354.3 362.12 353.836 362.12ZM353.836 361.328C354.204 361.328 354.476 361.196 354.652 360.932C354.836 360.66 354.928 360.256 354.928 359.72C354.928 359.152 354.836 358.74 354.652 358.484C354.468 358.22 354.196 358.088 353.836 358.088C353.476 358.088 353.204 358.22 353.02 358.484C352.836 358.74 352.744 359.148 352.744 359.708C352.744 360.244 352.832 360.648 353.008 360.92C353.192 361.192 353.468 361.328 353.836 361.328Z" fill="#11CF8B"/>
</g>
<defs>
<filter id="filter0_f_407_10327" x="-341.293" y="80.9946" width="870.445" height="950.652" filterUnits="userSpaceOnUse" color-interpolation-filters="sRGB">
<feFlood flood-opacity="0" result="BackgroundImageFix"/>
<feBlend mode="normal" in="SourceGraphic" in2="BackgroundImageFix" result="shape"/>
<feGaussianBlur stdDeviation="50" result="effect1_foregroundBlur_407_10327"/>
</filter>
<filter id="filter1_b_407_10327" x="227.63" y="-99.9417" width="351.018" height="460.63" filterUnits="userSpaceOnUse" color-interpolation-filters="sRGB">
<feFlood flood-opacity="0" result="BackgroundImageFix"/>
<feGaussianBlur in="BackgroundImageFix" stdDeviation="50"/>
<feComposite in2="SourceAlpha" operator="in" result="effect1_backgroundBlur_407_10327"/>
<feBlend mode="normal" in="SourceGraphic" in2="effect1_backgroundBlur_407_10327" result="shape"/>
</filter>
<filter id="filter2_b_407_10327" x="246.198" y="-110.662" width="351.018" height="460.629" filterUnits="userSpaceOnUse" color-interpolation-filters="sRGB">
<feFlood flood-opacity="0" result="BackgroundImageFix"/>
<feGaussianBlur in="BackgroundImageFix" stdDeviation="50"/>
<feComposite in2="SourceAlpha" operator="in" result="effect1_backgroundBlur_407_10327"/>
<feBlend mode="normal" in="SourceGraphic" in2="effect1_backgroundBlur_407_10327" result="shape"/>
</filter>
<linearGradient id="paint0_linear_407_10327" x1="339.014" y1="856.994" x2="-127.818" y2="317.879" gradientUnits="userSpaceOnUse">
<stop stop-color="white"/>
<stop offset="1" stop-color="white" stop-opacity="0"/>
</linearGradient>
<linearGradient id="paint1_linear_407_10327" x1="403.172" y1="130.286" x2="333.542" y2="170.487" gradientUnits="userSpaceOnUse">
<stop stop-color="white" stop-opacity="0.2"/>
<stop offset="1" stop-color="white"/>
</linearGradient>
<linearGradient id="paint2_linear_407_10327" x1="405" y1="214" x2="336" y2="170" gradientUnits="userSpaceOnUse">
<stop stop-color="white" stop-opacity="0.3"/>
<stop offset="1" stop-color="white" stop-opacity="0"/>
</linearGradient>
<linearGradient id="paint3_linear_407_10327" x1="421.741" y1="119.565" x2="352.11" y2="159.767" gradientUnits="userSpaceOnUse">
<stop stop-color="white" stop-opacity="0.2"/>
<stop offset="1" stop-color="white"/>
</linearGradient>
<linearGradient id="paint4_linear_407_10327" x1="353" y1="102.5" x2="354.615" y2="153.005" gradientUnits="userSpaceOnUse">
<stop stop-color="white" stop-opacity="0.3"/>
<stop offset="1" stop-color="white" stop-opacity="0"/>
</linearGradient>
<linearGradient id="paint5_linear_407_10327" x1="51.9892" y1="257.99" x2="51.9892" y2="297.996" gradientUnits="userSpaceOnUse">
<stop stop-color="#F9AA4B"/>
<stop offset="1" stop-color="#F7931A"/>
</linearGradient>
<clipPath id="clip0_407_10327">
<rect y="112" width="416" height="290" rx="16" fill="white"/>
</clipPath>
<clipPath id="clip1_407_10327">
<rect width="40" height="40" fill="white" transform="translate(32 186)"/>
</clipPath>
<clipPath id="clip2_407_10327">
<rect width="12" height="12" fill="white" transform="translate(330 199)"/>
</clipPath>
<clipPath id="clip3_407_10327">
<rect width="40" height="40" fill="white" transform="translate(32 258)"/>
</clipPath>
<clipPath id="clip4_407_10327">
<rect width="12" height="12" fill="white" transform="translate(330 272)"/>
</clipPath>
<clipPath id="clip5_407_10327">
<rect width="40" height="40" fill="white" transform="translate(32 330)"/>
</clipPath>
<clipPath id="clip6_407_10327">
<rect width="12" height="12" fill="white" transform="translate(330 344)"/>
</clipPath>
</defs>
</svg>
