<svg width="568" height="330" viewBox="0 0 568 330" fill="none" xmlns="http://www.w3.org/2000/svg">
<path d="M6.32 18.288C5.264 18.288 4.37333 18.0853 3.648 17.68C2.93333 17.264 2.38933 16.688 2.016 15.952C1.65333 15.2053 1.472 14.3413 1.472 13.36V6.32H3.04V13.552C3.04 14.2027 3.16267 14.7787 3.408 15.28C3.664 15.7707 4.03733 16.1547 4.528 16.432C5.01867 16.7093 5.616 16.848 6.32 16.848C7.024 16.848 7.616 16.7147 8.096 16.448C8.58667 16.1707 8.95467 15.7867 9.2 15.296C9.456 14.7947 9.584 14.2133 9.584 13.552V6.32H11.152V13.36C11.152 14.3413 10.9707 15.2053 10.608 15.952C10.2453 16.688 9.70667 17.264 8.992 17.68C8.27733 18.0853 7.38667 18.288 6.32 18.288ZM18.193 18.288C17.2223 18.288 16.3957 18.128 15.713 17.808C15.0303 17.488 14.5077 17.0453 14.145 16.48C13.7823 15.9147 13.601 15.2747 13.601 14.56H15.169C15.169 14.912 15.2597 15.264 15.441 15.616C15.633 15.968 15.9477 16.2613 16.385 16.496C16.833 16.7307 17.4357 16.848 18.193 16.848C18.897 16.848 19.473 16.7467 19.921 16.544C20.369 16.3307 20.6997 16.0587 20.913 15.728C21.1263 15.3867 21.233 15.0187 21.233 14.624C21.233 14.144 21.025 13.7493 20.609 13.44C20.193 13.12 19.585 12.9227 18.785 12.848L17.489 12.736C16.4543 12.6507 15.6277 12.3307 15.009 11.776C14.3903 11.2213 14.081 10.4907 14.081 9.584C14.081 8.86933 14.2517 8.24533 14.593 7.712C14.945 7.17867 15.4303 6.76267 16.049 6.464C16.6677 6.15467 17.3877 6 18.209 6C19.0197 6 19.7343 6.14933 20.353 6.448C20.9717 6.74667 21.4517 7.168 21.793 7.712C22.145 8.24533 22.321 8.88533 22.321 9.632H20.753C20.753 9.25867 20.6623 8.90667 20.481 8.576C20.3103 8.24533 20.0383 7.97333 19.665 7.76C19.2917 7.54667 18.8063 7.44 18.209 7.44C17.633 7.44 17.153 7.54133 16.769 7.744C16.3957 7.94667 16.113 8.21333 15.921 8.544C15.7397 8.864 15.649 9.21067 15.649 9.584C15.649 10.0107 15.8143 10.3893 16.145 10.72C16.4757 11.0507 16.9663 11.2427 17.617 11.296L18.913 11.408C19.713 11.472 20.401 11.6427 20.977 11.92C21.5637 12.1867 22.0117 12.5493 22.321 13.008C22.641 13.456 22.801 13.9947 22.801 14.624C22.801 15.3387 22.609 15.9733 22.225 16.528C21.841 17.0827 21.3023 17.5147 20.609 17.824C19.9157 18.1333 19.1103 18.288 18.193 18.288ZM26.7603 18.064V16.624H29.6723C30.3763 16.624 31.0003 16.512 31.5443 16.288C32.0989 16.0533 32.5683 15.7333 32.9523 15.328C33.3469 14.9227 33.6456 14.448 33.8483 13.904C34.0509 13.36 34.1523 12.7733 34.1523 12.144C34.1523 11.4827 34.0509 10.8853 33.8483 10.352C33.6456 9.808 33.3469 9.33867 32.9523 8.944C32.5683 8.53867 32.0989 8.22933 31.5443 8.016C31.0003 7.80267 30.3763 7.696 29.6723 7.696H26.7603V6.256H29.5122C30.5683 6.256 31.4856 6.42133 32.2642 6.752C33.0429 7.072 33.6883 7.50933 34.2003 8.064C34.7229 8.608 35.1123 9.22133 35.3683 9.904C35.6243 10.576 35.7523 11.264 35.7523 11.968V12.32C35.7523 13.0027 35.6243 13.6853 35.3683 14.368C35.1123 15.0507 34.7229 15.6693 34.2003 16.224C33.6883 16.7787 33.0429 17.2267 32.2642 17.568C31.4856 17.8987 30.5683 18.064 29.5122 18.064H26.7603ZM25.5122 18.064V6.256H27.0803V18.064H25.5122ZM36.9525 18.96L40.2165 5.52H41.6565L38.3925 18.96H36.9525ZM45.0765 18.064V16.688H48.3405C48.9698 16.688 49.4552 16.512 49.7965 16.16C50.1485 15.7973 50.3245 15.3173 50.3245 14.72C50.3245 14.112 50.1538 13.6373 49.8125 13.296C49.4712 12.944 48.9805 12.768 48.3405 12.768H45.0765V11.744H48.1165C48.8632 11.744 49.5192 11.8347 50.0845 12.016C50.6605 12.1973 51.1085 12.5013 51.4285 12.928C51.7592 13.344 51.9245 13.9147 51.9245 14.64V14.864C51.9245 15.5467 51.7858 16.128 51.5085 16.608C51.2312 17.0773 50.8098 17.44 50.2445 17.696C49.6792 17.9413 48.9698 18.064 48.1165 18.064H45.0765ZM43.8285 18.064V6.256H45.3965V18.064H43.8285ZM45.0765 12.48V11.456H47.9085C48.5698 11.456 49.0552 11.28 49.3645 10.928C49.6845 10.5653 49.8445 10.1067 49.8445 9.552C49.8445 8.98667 49.6845 8.528 49.3645 8.176C49.0552 7.81333 48.5698 7.632 47.9085 7.632H45.0765V6.256H47.6365C48.9165 6.256 49.8712 6.528 50.5005 7.072C51.1298 7.60533 51.4445 8.37867 51.4445 9.392V9.616C51.4445 10.3307 51.2845 10.9013 50.9645 11.328C50.6445 11.744 50.1965 12.0427 49.6205 12.224C49.0552 12.3947 48.3938 12.48 47.6365 12.48H45.0765ZM56.8368 18V7.408H58.4048V18H56.8368ZM53.2848 7.728V6.32H61.9568V7.728H53.2848ZM68.8574 18.288C67.7907 18.288 66.8787 18.1013 66.1214 17.728C65.3747 17.3547 64.772 16.8693 64.3134 16.272C63.8547 15.6747 63.5187 15.0293 63.3054 14.336C63.092 13.632 62.9854 12.9547 62.9854 12.304V11.952C62.9854 11.248 63.092 10.544 63.3054 9.84C63.5294 9.136 63.8707 8.496 64.3294 7.92C64.788 7.344 65.3854 6.88 66.1214 6.528C66.8574 6.176 67.7374 6 68.7614 6C69.8067 6 70.7027 6.18133 71.4494 6.544C72.196 6.90667 72.788 7.41333 73.2254 8.064C73.6627 8.71467 73.9294 9.48267 74.0254 10.368H72.4254C72.34 9.70667 72.1267 9.16267 71.7854 8.736C71.444 8.29867 71.012 7.97333 70.4894 7.76C69.9774 7.54667 69.4014 7.44 68.7614 7.44C68.068 7.44 67.46 7.56267 66.9374 7.808C66.4147 8.04267 65.9774 8.37867 65.6254 8.816C65.284 9.24267 65.0227 9.73867 64.8414 10.304C64.6707 10.8693 64.5854 11.4827 64.5854 12.144C64.5854 12.7733 64.6707 13.3707 64.8414 13.936C65.0227 14.5013 65.2894 15.0027 65.6414 15.44C66.004 15.8773 66.452 16.224 66.9854 16.48C67.5187 16.7253 68.1427 16.848 68.8574 16.848C69.86 16.848 70.7027 16.5973 71.3854 16.096C72.068 15.5947 72.484 14.8693 72.6334 13.92H74.2334C74.1267 14.72 73.8547 15.4507 73.4174 16.112C72.9907 16.7733 72.3934 17.3013 71.6254 17.696C70.868 18.0907 69.9454 18.288 68.8574 18.288Z" fill="#131316"/>
<circle opacity="0.1" cx="99" cy="13" r="8" transform="rotate(180 99 13)" fill="#131316"/>
<path d="M95.6122 11.2712L98.8192 14.99C98.911 15.0964 99.0878 15.0964 99.1805 14.99L102.388 11.2712C102.507 11.1326 102.399 10.9294 102.207 10.9294L95.7928 10.9294C95.6004 10.9294 95.493 11.1326 95.6122 11.2712Z" fill="#131316"/>
<rect y="66" width="1" height="216" fill="#F4F4F6"/>
<rect x="101" y="66" width="1" height="216" fill="#F4F4F6"/>
<rect x="202" y="66" width="1" height="216" fill="#F4F4F6"/>
<rect x="303" y="66" width="1" height="216" fill="#F4F4F6"/>
<rect x="404" y="66" width="1" height="216" fill="#F4F4F6"/>
<rect x="505" y="66" width="1" height="216" fill="#F4F4F6"/>
<rect x="506" y="66" width="1.00001" height="505" transform="rotate(90 506 66)" fill="#F4F4F6"/>
<rect x="506" y="113" width="1.00001" height="505" transform="rotate(90 506 113)" fill="#F4F4F6"/>
<rect x="506" y="160" width="1.00001" height="505" transform="rotate(90 506 160)" fill="#F4F4F6"/>
<rect x="506" y="207" width="1.00001" height="505" transform="rotate(90 506 207)" fill="#F4F4F6"/>
<rect x="506" y="254" width="1.00001" height="505" transform="rotate(90 506 254)" fill="#F4F4F6"/>
<rect x="506" y="301" width="1.00001" height="505" transform="rotate(90 506 301)" fill="#F4F4F6"/>
<rect x="528" y="66" width="40" height="6" rx="2" fill="#E3E3E8"/>
<rect x="528" y="108" width="40" height="6" rx="2" fill="#E3E3E8"/>
<rect x="528" y="150" width="40" height="6" rx="2" fill="#E3E3E8"/>
<rect x="528" y="192" width="40" height="6" rx="2" fill="#E3E3E8"/>
<rect x="528" y="234" width="40" height="6" rx="2" fill="#E3E3E8"/>
<rect x="528" y="276" width="40" height="6" rx="2" fill="#E3E3E8"/>
<path d="M3.504 325.216C2.936 325.216 2.42 325.096 1.956 324.856C1.492 324.616 1.124 324.26 0.852 323.788C0.588 323.316 0.456 322.728 0.456 322.024V321.724H1.632V322.24C1.632 322.84 1.808 323.308 2.16 323.644C2.512 323.972 2.96 324.136 3.504 324.136C4.048 324.136 4.496 323.972 4.848 323.644C5.2 323.308 5.376 322.84 5.376 322.24V317.056H6.552V322.024C6.552 322.728 6.416 323.316 6.144 323.788C5.88 324.26 5.516 324.616 5.052 324.856C4.596 325.096 4.08 325.216 3.504 325.216ZM1.608 317.296V316.24H6.552V317.296H1.608ZM12.7158 325V323.08H12.5238V320.86C12.5238 320.42 12.4078 320.088 12.1758 319.864C11.9518 319.64 11.6198 319.528 11.1798 319.528C10.9318 319.528 10.6758 319.532 10.4118 319.54C10.1478 319.548 9.89578 319.556 9.65578 319.564C9.41578 319.572 9.20778 319.584 9.03178 319.6V318.592C9.20778 318.576 9.39178 318.564 9.58378 318.556C9.78378 318.54 9.98778 318.532 10.1958 318.532C10.4038 318.524 10.6038 318.52 10.7958 318.52C11.4518 318.52 11.9878 318.6 12.4038 318.76C12.8198 318.912 13.1278 319.164 13.3278 319.516C13.5278 319.868 13.6278 320.344 13.6278 320.944V325H12.7158ZM10.6158 325.168C10.1358 325.168 9.71978 325.088 9.36778 324.928C9.02378 324.76 8.75578 324.52 8.56378 324.208C8.37978 323.896 8.28778 323.52 8.28778 323.08C8.28778 322.624 8.38778 322.244 8.58778 321.94C8.79578 321.636 9.09578 321.408 9.48778 321.256C9.87978 321.096 10.3518 321.016 10.9038 321.016H12.6438V321.88H10.8558C10.3918 321.88 10.0358 321.992 9.78778 322.216C9.53978 322.44 9.41578 322.728 9.41578 323.08C9.41578 323.432 9.53978 323.716 9.78778 323.932C10.0358 324.148 10.3918 324.256 10.8558 324.256C11.1278 324.256 11.3878 324.208 11.6358 324.112C11.8838 324.008 12.0878 323.84 12.2478 323.608C12.4158 323.368 12.5078 323.04 12.5238 322.624L12.8358 323.08C12.7958 323.536 12.6838 323.92 12.4998 324.232C12.3238 324.536 12.0758 324.768 11.7558 324.928C11.4438 325.088 11.0638 325.168 10.6158 325.168ZM15.8021 325V318.592H16.7141V321.34H16.5701C16.5701 320.708 16.6541 320.176 16.8221 319.744C16.9981 319.304 17.2621 318.972 17.6141 318.748C17.9661 318.516 18.4101 318.4 18.9461 318.4H18.9941C19.8021 318.4 20.3981 318.652 20.7821 319.156C21.1741 319.66 21.3701 320.388 21.3701 321.34V325H20.2181V321.1C20.2181 320.604 20.0781 320.208 19.7981 319.912C19.5181 319.608 19.1341 319.456 18.6461 319.456C18.1421 319.456 17.7341 319.612 17.4221 319.924C17.1101 320.236 16.9541 320.652 16.9541 321.172V325H15.8021Z" fill="#9C9CAB"/>
<path d="M48.272 325V316.24H49.448V325H48.272ZM49.208 321.1V320.044L52.964 320.032V321.088L49.208 321.1ZM49.208 317.296V316.24H53.168V317.296H49.208ZM57.4857 325.216C56.9257 325.216 56.4417 325.12 56.0337 324.928C55.6257 324.736 55.2937 324.484 55.0377 324.172C54.7817 323.852 54.5897 323.496 54.4617 323.104C54.3417 322.712 54.2817 322.312 54.2817 321.904V321.688C54.2817 321.272 54.3417 320.868 54.4617 320.476C54.5897 320.084 54.7817 319.732 55.0377 319.42C55.2937 319.1 55.6177 318.848 56.0097 318.664C56.4097 318.472 56.8777 318.376 57.4137 318.376C58.1097 318.376 58.6817 318.528 59.1297 318.832C59.5857 319.128 59.9217 319.512 60.1377 319.984C60.3617 320.456 60.4737 320.96 60.4737 321.496V322.012H54.7857V321.148H59.6337L59.3697 321.616C59.3697 321.16 59.2977 320.768 59.1537 320.44C59.0097 320.104 58.7937 319.844 58.5057 319.66C58.2177 319.476 57.8537 319.384 57.4137 319.384C56.9577 319.384 56.5777 319.488 56.2737 319.696C55.9777 319.904 55.7537 320.188 55.6017 320.548C55.4577 320.908 55.3857 321.324 55.3857 321.796C55.3857 322.252 55.4577 322.664 55.6017 323.032C55.7537 323.392 55.9857 323.68 56.2977 323.896C56.6097 324.104 57.0057 324.208 57.4857 324.208C57.9897 324.208 58.3977 324.096 58.7097 323.872C59.0297 323.648 59.2217 323.388 59.2857 323.092H60.3657C60.2777 323.532 60.1017 323.912 59.8377 324.232C59.5737 324.552 59.2417 324.796 58.8417 324.964C58.4417 325.132 57.9897 325.216 57.4857 325.216ZM65.5533 325.216C65.0253 325.216 64.5533 325.1 64.1373 324.868C63.7293 324.636 63.4053 324.3 63.1653 323.86C62.9253 323.412 62.7933 322.876 62.7693 322.252H63.0813V325H62.1693V316.24H63.3213V320.5L62.9133 321.376C62.9453 320.68 63.0853 320.112 63.3333 319.672C63.5813 319.232 63.9053 318.908 64.3053 318.7C64.7133 318.484 65.1613 318.376 65.6493 318.376C66.1053 318.376 66.5213 318.464 66.8973 318.64C67.2733 318.808 67.5973 319.044 67.8693 319.348C68.1413 319.644 68.3493 319.992 68.4933 320.392C68.6373 320.784 68.7093 321.208 68.7093 321.664V321.88C68.7093 322.336 68.6333 322.764 68.4813 323.164C68.3373 323.564 68.1253 323.92 67.8453 324.232C67.5653 324.536 67.2293 324.776 66.8373 324.952C66.4533 325.128 66.0253 325.216 65.5533 325.216ZM65.4213 324.208C65.8533 324.208 66.2293 324.104 66.5493 323.896C66.8693 323.688 67.1173 323.404 67.2933 323.044C67.4693 322.676 67.5573 322.252 67.5573 321.772C67.5573 321.292 67.4653 320.872 67.2813 320.512C67.1053 320.152 66.8573 319.876 66.5373 319.684C66.2173 319.484 65.8453 319.384 65.4213 319.384C65.0373 319.384 64.6813 319.472 64.3533 319.648C64.0253 319.816 63.7613 320.064 63.5613 320.392C63.3693 320.712 63.2733 321.1 63.2733 321.556V322.108C63.2733 322.548 63.3733 322.924 63.5733 323.236C63.7733 323.548 64.0373 323.788 64.3653 323.956C64.6933 324.124 65.0453 324.208 65.4213 324.208Z" fill="#9C9CAB"/>
<path d="M95.272 325V316.24H96.832L99.424 322.084H99.616L102.196 316.24H103.768V325H102.592V317.524L102.676 317.548L100.192 323.188H98.752L96.256 317.548L96.352 317.524V325H95.272ZM110.079 325V323.08H109.887V320.86C109.887 320.42 109.771 320.088 109.539 319.864C109.315 319.64 108.983 319.528 108.543 319.528C108.295 319.528 108.039 319.532 107.775 319.54C107.511 319.548 107.259 319.556 107.019 319.564C106.779 319.572 106.571 319.584 106.395 319.6V318.592C106.571 318.576 106.755 318.564 106.947 318.556C107.147 318.54 107.351 318.532 107.559 318.532C107.767 318.524 107.967 318.52 108.159 318.52C108.815 318.52 109.351 318.6 109.767 318.76C110.183 318.912 110.491 319.164 110.691 319.516C110.891 319.868 110.991 320.344 110.991 320.944V325H110.079ZM107.979 325.168C107.499 325.168 107.083 325.088 106.731 324.928C106.387 324.76 106.119 324.52 105.927 324.208C105.743 323.896 105.651 323.52 105.651 323.08C105.651 322.624 105.751 322.244 105.951 321.94C106.159 321.636 106.459 321.408 106.851 321.256C107.243 321.096 107.715 321.016 108.267 321.016H110.007V321.88H108.219C107.755 321.88 107.399 321.992 107.151 322.216C106.903 322.44 106.779 322.728 106.779 323.08C106.779 323.432 106.903 323.716 107.151 323.932C107.399 324.148 107.755 324.256 108.219 324.256C108.491 324.256 108.751 324.208 108.999 324.112C109.247 324.008 109.451 323.84 109.611 323.608C109.779 323.368 109.871 323.04 109.887 322.624L110.199 323.08C110.159 323.536 110.047 323.92 109.863 324.232C109.687 324.536 109.439 324.768 109.119 324.928C108.807 325.088 108.427 325.168 107.979 325.168ZM113.165 325V318.592H114.077V321.232H114.029C114.029 320.296 114.233 319.612 114.641 319.18C115.057 318.74 115.677 318.52 116.501 318.52H116.717V319.552H116.309C115.669 319.552 115.177 319.724 114.833 320.068C114.489 320.404 114.317 320.892 114.317 321.532V325H113.165Z" fill="#9C9CAB"/>
<path d="M142.336 325L145.492 316.24H147.484L150.736 325H149.524L146.584 317.008L147.16 317.296H145.744L146.356 317.008L143.512 325H142.336ZM144.22 322.384L144.616 321.328H148.396L148.792 322.384H144.22ZM152.234 327.4V318.592H153.146V321.364L152.93 321.34C152.97 320.652 153.114 320.092 153.362 319.66C153.618 319.22 153.95 318.896 154.358 318.688C154.766 318.48 155.21 318.376 155.69 318.376C156.154 318.376 156.574 318.464 156.95 318.64C157.334 318.816 157.662 319.056 157.934 319.36C158.206 319.664 158.414 320.016 158.558 320.416C158.702 320.816 158.774 321.24 158.774 321.688V321.904C158.774 322.352 158.698 322.776 158.546 323.176C158.394 323.576 158.178 323.928 157.898 324.232C157.626 324.536 157.298 324.776 156.914 324.952C156.538 325.128 156.122 325.216 155.666 325.216C155.21 325.216 154.774 325.116 154.358 324.916C153.942 324.716 153.598 324.392 153.326 323.944C153.054 323.496 152.898 322.908 152.858 322.18L153.386 323.14V327.4H152.234ZM155.486 324.208C155.918 324.208 156.294 324.108 156.614 323.908C156.934 323.7 157.182 323.416 157.358 323.056C157.534 322.688 157.622 322.268 157.622 321.796C157.622 321.316 157.534 320.896 157.358 320.536C157.182 320.176 156.934 319.896 156.614 319.696C156.294 319.488 155.918 319.384 155.486 319.384C155.102 319.384 154.746 319.472 154.418 319.648C154.09 319.816 153.826 320.064 153.626 320.392C153.434 320.712 153.338 321.1 153.338 321.556V322.108C153.338 322.548 153.438 322.924 153.638 323.236C153.838 323.548 154.102 323.788 154.43 323.956C154.758 324.124 155.11 324.208 155.486 324.208ZM160.568 325V318.592H161.48V321.232H161.432C161.432 320.296 161.636 319.612 162.044 319.18C162.46 318.74 163.08 318.52 163.904 318.52H164.12V319.552H163.712C163.072 319.552 162.58 319.724 162.236 320.068C161.892 320.404 161.72 320.892 161.72 321.532V325H160.568Z" fill="#9C9CAB"/>
<path d="M190.272 325V316.24H191.832L194.424 322.084H194.616L197.196 316.24H198.768V325H197.592V317.524L197.676 317.548L195.192 323.188H193.752L191.256 317.548L191.352 317.524V325H190.272ZM205.079 325V323.08H204.887V320.86C204.887 320.42 204.771 320.088 204.539 319.864C204.315 319.64 203.983 319.528 203.543 319.528C203.295 319.528 203.039 319.532 202.775 319.54C202.511 319.548 202.259 319.556 202.019 319.564C201.779 319.572 201.571 319.584 201.395 319.6V318.592C201.571 318.576 201.755 318.564 201.947 318.556C202.147 318.54 202.351 318.532 202.559 318.532C202.767 318.524 202.967 318.52 203.159 318.52C203.815 318.52 204.351 318.6 204.767 318.76C205.183 318.912 205.491 319.164 205.691 319.516C205.891 319.868 205.991 320.344 205.991 320.944V325H205.079ZM202.979 325.168C202.499 325.168 202.083 325.088 201.731 324.928C201.387 324.76 201.119 324.52 200.927 324.208C200.743 323.896 200.651 323.52 200.651 323.08C200.651 322.624 200.751 322.244 200.951 321.94C201.159 321.636 201.459 321.408 201.851 321.256C202.243 321.096 202.715 321.016 203.267 321.016H205.007V321.88H203.219C202.755 321.88 202.399 321.992 202.151 322.216C201.903 322.44 201.779 322.728 201.779 323.08C201.779 323.432 201.903 323.716 202.151 323.932C202.399 324.148 202.755 324.256 203.219 324.256C203.491 324.256 203.751 324.208 203.999 324.112C204.247 324.008 204.451 323.84 204.611 323.608C204.779 323.368 204.871 323.04 204.887 322.624L205.199 323.08C205.159 323.536 205.047 323.92 204.863 324.232C204.687 324.536 204.439 324.768 204.119 324.928C203.807 325.088 203.427 325.168 202.979 325.168ZM207.71 327.496V326.464H208.634C208.906 326.464 209.134 326.428 209.318 326.356C209.51 326.292 209.666 326.18 209.786 326.02C209.914 325.86 210.018 325.648 210.098 325.384L212.114 318.592H213.242L211.106 325.684C210.978 326.108 210.798 326.452 210.566 326.716C210.334 326.988 210.05 327.184 209.714 327.304C209.386 327.432 209.002 327.496 208.562 327.496H207.71ZM209.666 324.856V323.896H211.058V324.856H209.666ZM209.546 324.856L207.254 318.592H208.43L210.626 324.856H209.546Z" fill="#9C9CAB"/>
<path d="M241.504 325.216C240.936 325.216 240.42 325.096 239.956 324.856C239.492 324.616 239.124 324.26 238.852 323.788C238.588 323.316 238.456 322.728 238.456 322.024V321.724H239.632V322.24C239.632 322.84 239.808 323.308 240.16 323.644C240.512 323.972 240.96 324.136 241.504 324.136C242.048 324.136 242.496 323.972 242.848 323.644C243.2 323.308 243.376 322.84 243.376 322.24V317.056H244.552V322.024C244.552 322.728 244.416 323.316 244.144 323.788C243.88 324.26 243.516 324.616 243.052 324.856C242.596 325.096 242.08 325.216 241.504 325.216ZM239.608 317.296V316.24H244.552V317.296H239.608ZM249.06 325.192C248.3 325.192 247.716 324.944 247.308 324.448C246.9 323.952 246.696 323.236 246.696 322.3V318.58H247.848V322.528C247.848 323.032 247.984 323.428 248.256 323.716C248.528 323.996 248.896 324.136 249.36 324.136C249.84 324.136 250.232 323.984 250.536 323.68C250.84 323.368 250.992 322.944 250.992 322.408V318.58H252.144V325H251.232V322.252H251.376C251.376 322.884 251.292 323.42 251.124 323.86C250.956 324.292 250.704 324.624 250.368 324.856C250.04 325.08 249.62 325.192 249.108 325.192H249.06ZM254.435 325V318.592H255.347V321.34H255.203C255.203 320.708 255.287 320.176 255.455 319.744C255.631 319.304 255.895 318.972 256.247 318.748C256.599 318.516 257.043 318.4 257.579 318.4H257.627C258.435 318.4 259.031 318.652 259.415 319.156C259.807 319.66 260.003 320.388 260.003 321.34V325H258.851V321.1C258.851 320.604 258.711 320.208 258.431 319.912C258.151 319.608 257.767 319.456 257.279 319.456C256.775 319.456 256.367 319.612 256.055 319.924C255.743 320.236 255.587 320.652 255.587 321.172V325H254.435Z" fill="#9C9CAB"/>
<path d="M289.504 325.216C288.936 325.216 288.42 325.096 287.956 324.856C287.492 324.616 287.124 324.26 286.852 323.788C286.588 323.316 286.456 322.728 286.456 322.024V321.724H287.632V322.24C287.632 322.84 287.808 323.308 288.16 323.644C288.512 323.972 288.96 324.136 289.504 324.136C290.048 324.136 290.496 323.972 290.848 323.644C291.2 323.308 291.376 322.84 291.376 322.24V317.056H292.552V322.024C292.552 322.728 292.416 323.316 292.144 323.788C291.88 324.26 291.516 324.616 291.052 324.856C290.596 325.096 290.08 325.216 289.504 325.216ZM287.608 317.296V316.24H292.552V317.296H287.608ZM297.06 325.192C296.3 325.192 295.716 324.944 295.308 324.448C294.9 323.952 294.696 323.236 294.696 322.3V318.58H295.848V322.528C295.848 323.032 295.984 323.428 296.256 323.716C296.528 323.996 296.896 324.136 297.36 324.136C297.84 324.136 298.232 323.984 298.536 323.68C298.84 323.368 298.992 322.944 298.992 322.408V318.58H300.144V325H299.232V322.252H299.376C299.376 322.884 299.292 323.42 299.124 323.86C298.956 324.292 298.704 324.624 298.368 324.856C298.04 325.08 297.62 325.192 297.108 325.192H297.06ZM302.507 325V316.24H303.659V325H302.507ZM301.619 317.152V316.24H303.659V317.152H301.619Z" fill="#9C9CAB"/>
<path d="M329.336 325L332.492 316.24H334.484L337.736 325H336.524L333.584 317.008L334.16 317.296H332.744L333.356 317.008L330.512 325H329.336ZM331.22 322.384L331.616 321.328H335.396L335.792 322.384H331.22ZM341.384 325.192C340.624 325.192 340.04 324.944 339.632 324.448C339.224 323.952 339.02 323.236 339.02 322.3V318.58H340.172V322.528C340.172 323.032 340.308 323.428 340.58 323.716C340.852 323.996 341.22 324.136 341.684 324.136C342.164 324.136 342.556 323.984 342.86 323.68C343.164 323.368 343.316 322.944 343.316 322.408V318.58H344.468V325H343.556V322.252H343.7C343.7 322.884 343.616 323.42 343.448 323.86C343.28 324.292 343.028 324.624 342.692 324.856C342.364 325.08 341.944 325.192 341.432 325.192H341.384ZM349.183 327.496C348.887 327.496 348.587 327.484 348.283 327.46C347.987 327.436 347.703 327.404 347.431 327.364V326.392C347.719 326.432 348.019 326.464 348.331 326.488C348.651 326.52 348.951 326.536 349.231 326.536C349.815 326.536 350.279 326.456 350.623 326.296C350.975 326.144 351.227 325.9 351.379 325.564C351.539 325.236 351.619 324.812 351.619 324.292V323.068L352.003 322.156C351.979 322.804 351.843 323.344 351.595 323.776C351.347 324.2 351.023 324.52 350.623 324.736C350.231 324.944 349.795 325.048 349.315 325.048C348.867 325.048 348.455 324.964 348.079 324.796C347.711 324.62 347.391 324.38 347.119 324.076C346.855 323.772 346.647 323.424 346.495 323.032C346.351 322.632 346.279 322.212 346.279 321.772V321.556C346.279 321.108 346.355 320.692 346.507 320.308C346.659 319.916 346.871 319.576 347.143 319.288C347.415 319 347.739 318.776 348.115 318.616C348.499 318.456 348.919 318.376 349.375 318.376C349.911 318.376 350.383 318.492 350.791 318.724C351.199 318.948 351.519 319.28 351.751 319.72C351.991 320.152 352.123 320.684 352.147 321.316L351.811 321.328V318.592H352.723V324.244C352.723 325.012 352.603 325.632 352.363 326.104C352.131 326.584 351.755 326.936 351.235 327.16C350.723 327.384 350.039 327.496 349.183 327.496ZM349.531 323.992C349.915 323.992 350.263 323.908 350.575 323.74C350.895 323.572 351.147 323.332 351.331 323.02C351.523 322.7 351.619 322.32 351.619 321.88V321.328C351.619 320.896 351.519 320.532 351.319 320.236C351.127 319.94 350.875 319.716 350.563 319.564C350.251 319.412 349.911 319.336 349.543 319.336C349.127 319.336 348.759 319.432 348.439 319.624C348.119 319.816 347.871 320.088 347.695 320.44C347.519 320.784 347.431 321.192 347.431 321.664C347.431 322.136 347.519 322.548 347.695 322.9C347.879 323.252 348.127 323.524 348.439 323.716C348.759 323.9 349.123 323.992 349.531 323.992Z" fill="#9C9CAB"/>
<path d="M382.116 325.216C381.388 325.216 380.768 325.096 380.256 324.856C379.744 324.616 379.352 324.284 379.08 323.86C378.808 323.436 378.672 322.956 378.672 322.42H379.848C379.848 322.684 379.916 322.948 380.052 323.212C380.196 323.476 380.432 323.696 380.76 323.872C381.096 324.048 381.548 324.136 382.116 324.136C382.644 324.136 383.076 324.06 383.412 323.908C383.748 323.748 383.996 323.544 384.156 323.296C384.316 323.04 384.396 322.764 384.396 322.468C384.396 322.108 384.24 321.812 383.928 321.58C383.616 321.34 383.16 321.192 382.56 321.136L381.588 321.052C380.812 320.988 380.192 320.748 379.728 320.332C379.264 319.916 379.032 319.368 379.032 318.688C379.032 318.152 379.16 317.684 379.416 317.284C379.68 316.884 380.044 316.572 380.508 316.348C380.972 316.116 381.512 316 382.128 316C382.736 316 383.272 316.112 383.736 316.336C384.2 316.56 384.56 316.876 384.816 317.284C385.08 317.684 385.212 318.164 385.212 318.724H384.036C384.036 318.444 383.968 318.18 383.832 317.932C383.704 317.684 383.5 317.48 383.22 317.32C382.94 317.16 382.576 317.08 382.128 317.08C381.696 317.08 381.336 317.156 381.048 317.308C380.768 317.46 380.556 317.66 380.412 317.908C380.276 318.148 380.208 318.408 380.208 318.688C380.208 319.008 380.332 319.292 380.58 319.54C380.828 319.788 381.196 319.932 381.684 319.972L382.656 320.056C383.256 320.104 383.772 320.232 384.204 320.44C384.644 320.64 384.98 320.912 385.212 321.256C385.452 321.592 385.572 321.996 385.572 322.468C385.572 323.004 385.428 323.48 385.14 323.896C384.852 324.312 384.448 324.636 383.928 324.868C383.408 325.1 382.804 325.216 382.116 325.216ZM390.161 325.216C389.601 325.216 389.117 325.12 388.709 324.928C388.301 324.736 387.969 324.484 387.713 324.172C387.457 323.852 387.265 323.496 387.137 323.104C387.017 322.712 386.957 322.312 386.957 321.904V321.688C386.957 321.272 387.017 320.868 387.137 320.476C387.265 320.084 387.457 319.732 387.713 319.42C387.969 319.1 388.293 318.848 388.685 318.664C389.085 318.472 389.553 318.376 390.089 318.376C390.785 318.376 391.357 318.528 391.805 318.832C392.261 319.128 392.597 319.512 392.813 319.984C393.037 320.456 393.149 320.96 393.149 321.496V322.012H387.461V321.148H392.309L392.045 321.616C392.045 321.16 391.973 320.768 391.829 320.44C391.685 320.104 391.469 319.844 391.181 319.66C390.893 319.476 390.529 319.384 390.089 319.384C389.633 319.384 389.253 319.488 388.949 319.696C388.653 319.904 388.429 320.188 388.277 320.548C388.133 320.908 388.061 321.324 388.061 321.796C388.061 322.252 388.133 322.664 388.277 323.032C388.429 323.392 388.661 323.68 388.973 323.896C389.285 324.104 389.681 324.208 390.161 324.208C390.665 324.208 391.073 324.096 391.385 323.872C391.705 323.648 391.897 323.388 391.961 323.092H393.041C392.953 323.532 392.777 323.912 392.513 324.232C392.249 324.552 391.917 324.796 391.517 324.964C391.117 325.132 390.665 325.216 390.161 325.216ZM394.845 327.4V318.592H395.757V321.364L395.541 321.34C395.581 320.652 395.725 320.092 395.973 319.66C396.229 319.22 396.561 318.896 396.969 318.688C397.377 318.48 397.821 318.376 398.301 318.376C398.765 318.376 399.185 318.464 399.561 318.64C399.945 318.816 400.273 319.056 400.545 319.36C400.817 319.664 401.025 320.016 401.169 320.416C401.313 320.816 401.385 321.24 401.385 321.688V321.904C401.385 322.352 401.309 322.776 401.157 323.176C401.005 323.576 400.789 323.928 400.509 324.232C400.237 324.536 399.909 324.776 399.525 324.952C399.149 325.128 398.733 325.216 398.277 325.216C397.821 325.216 397.385 325.116 396.969 324.916C396.553 324.716 396.209 324.392 395.937 323.944C395.665 323.496 395.509 322.908 395.469 322.18L395.997 323.14V327.4H394.845ZM398.097 324.208C398.529 324.208 398.905 324.108 399.225 323.908C399.545 323.7 399.793 323.416 399.969 323.056C400.145 322.688 400.233 322.268 400.233 321.796C400.233 321.316 400.145 320.896 399.969 320.536C399.793 320.176 399.545 319.896 399.225 319.696C398.905 319.488 398.529 319.384 398.097 319.384C397.713 319.384 397.357 319.472 397.029 319.648C396.701 319.816 396.437 320.064 396.237 320.392C396.045 320.712 395.949 321.1 395.949 321.556V322.108C395.949 322.548 396.049 322.924 396.249 323.236C396.449 323.548 396.713 323.788 397.041 323.956C397.369 324.124 397.721 324.208 398.097 324.208Z" fill="#9C9CAB"/>
<path d="M432.196 325.216C431.412 325.216 430.736 325.076 430.168 324.796C429.6 324.516 429.132 324.148 428.764 323.692C428.396 323.236 428.12 322.748 427.936 322.228C427.76 321.708 427.672 321.208 427.672 320.728V320.464C427.672 319.944 427.764 319.42 427.948 318.892C428.132 318.364 428.412 317.884 428.788 317.452C429.164 317.012 429.632 316.66 430.192 316.396C430.76 316.132 431.428 316 432.196 316C432.964 316 433.628 316.132 434.188 316.396C434.756 316.66 435.228 317.012 435.604 317.452C435.98 317.884 436.26 318.364 436.444 318.892C436.628 319.42 436.72 319.944 436.72 320.464V320.728C436.72 321.208 436.628 321.708 436.444 322.228C436.268 322.748 435.996 323.236 435.628 323.692C435.26 324.148 434.792 324.516 434.224 324.796C433.656 325.076 432.98 325.216 432.196 325.216ZM432.196 324.136C432.708 324.136 433.168 324.04 433.576 323.848C433.992 323.656 434.344 323.396 434.632 323.068C434.92 322.732 435.14 322.356 435.292 321.94C435.444 321.516 435.52 321.072 435.52 320.608C435.52 320.12 435.444 319.664 435.292 319.24C435.14 318.816 434.92 318.444 434.632 318.124C434.344 317.796 433.992 317.54 433.576 317.356C433.168 317.172 432.708 317.08 432.196 317.08C431.684 317.08 431.22 317.172 430.804 317.356C430.396 317.54 430.048 317.796 429.76 318.124C429.472 318.444 429.252 318.816 429.1 319.24C428.948 319.664 428.872 320.12 428.872 320.608C428.872 321.072 428.948 321.516 429.1 321.94C429.252 322.356 429.472 322.732 429.76 323.068C430.048 323.396 430.396 323.656 430.804 323.848C431.22 324.04 431.684 324.136 432.196 324.136ZM441.295 325.216C440.743 325.216 440.263 325.12 439.855 324.928C439.455 324.736 439.123 324.48 438.859 324.16C438.595 323.832 438.395 323.472 438.259 323.08C438.131 322.688 438.067 322.296 438.067 321.904V321.688C438.067 321.28 438.131 320.88 438.259 320.488C438.395 320.096 438.595 319.744 438.859 319.432C439.131 319.112 439.467 318.856 439.867 318.664C440.267 318.472 440.735 318.376 441.271 318.376C441.807 318.376 442.287 318.476 442.711 318.676C443.143 318.876 443.487 319.16 443.743 319.528C444.007 319.888 444.155 320.316 444.187 320.812H443.083C443.027 320.412 442.843 320.08 442.531 319.816C442.219 319.544 441.799 319.408 441.271 319.408C440.815 319.408 440.435 319.512 440.131 319.72C439.827 319.928 439.599 320.212 439.447 320.572C439.295 320.932 439.219 321.34 439.219 321.796C439.219 322.236 439.295 322.64 439.447 323.008C439.599 323.368 439.827 323.656 440.131 323.872C440.443 324.08 440.831 324.184 441.295 324.184C441.655 324.184 441.967 324.12 442.231 323.992C442.495 323.864 442.707 323.692 442.867 323.476C443.027 323.26 443.123 323.016 443.155 322.744H444.259C444.235 323.248 444.087 323.684 443.815 324.052C443.551 324.42 443.199 324.708 442.759 324.916C442.327 325.116 441.839 325.216 441.295 325.216ZM448.38 325.072C447.9 325.072 447.484 325.004 447.132 324.868C446.788 324.732 446.52 324.5 446.328 324.172C446.144 323.836 446.052 323.384 446.052 322.816V316.648H447.156V322.96C447.156 323.304 447.248 323.572 447.432 323.764C447.624 323.948 447.892 324.04 448.236 324.04H449.364V325.072H448.38ZM444.948 319.456V318.592H449.364V319.456H444.948Z" fill="#9C9CAB"/>
<path d="M475.272 325V316.24H477.192L481.644 323.944H482.028L481.788 324.16V316.24H482.916V325H480.972L476.52 317.296H476.136L476.376 317.08V325H475.272ZM488.3 325.216C487.74 325.216 487.248 325.12 486.824 324.928C486.4 324.736 486.04 324.484 485.744 324.172C485.456 323.852 485.236 323.496 485.084 323.104C484.94 322.712 484.868 322.312 484.868 321.904V321.688C484.868 321.28 484.944 320.88 485.096 320.488C485.248 320.088 485.472 319.732 485.768 319.42C486.064 319.1 486.424 318.848 486.848 318.664C487.272 318.472 487.756 318.376 488.3 318.376C488.844 318.376 489.328 318.472 489.752 318.664C490.176 318.848 490.536 319.1 490.832 319.42C491.128 319.732 491.352 320.088 491.504 320.488C491.656 320.88 491.732 321.28 491.732 321.688V321.904C491.732 322.312 491.656 322.712 491.504 323.104C491.36 323.496 491.14 323.852 490.844 324.172C490.556 324.484 490.2 324.736 489.776 324.928C489.352 325.12 488.86 325.216 488.3 325.216ZM488.3 324.184C488.78 324.184 489.188 324.08 489.524 323.872C489.868 323.656 490.128 323.368 490.304 323.008C490.488 322.648 490.58 322.244 490.58 321.796C490.58 321.34 490.488 320.932 490.304 320.572C490.12 320.212 489.856 319.928 489.512 319.72C489.176 319.512 488.772 319.408 488.3 319.408C487.836 319.408 487.432 319.512 487.088 319.72C486.744 319.928 486.48 320.212 486.296 320.572C486.112 320.932 486.02 321.34 486.02 321.796C486.02 322.244 486.108 322.648 486.284 323.008C486.468 323.368 486.728 323.656 487.064 323.872C487.408 324.08 487.82 324.184 488.3 324.184ZM494.768 325L492.584 318.592H493.784L495.92 325H494.768ZM495.056 325V324.088H496.448V325H495.056ZM495.608 325L497.468 318.592H498.596L496.7 325H495.608Z" fill="#9C9CAB"/>
<path d="M526.208 325.048V323.968H528.392C528.92 323.968 529.388 323.884 529.796 323.716C530.212 323.54 530.564 323.3 530.852 322.996C531.148 322.692 531.372 322.336 531.524 321.928C531.676 321.52 531.752 321.08 531.752 320.608C531.752 320.112 531.676 319.664 531.524 319.264C531.372 318.856 531.148 318.504 530.852 318.208C530.564 317.904 530.212 317.672 529.796 317.512C529.388 317.352 528.92 317.272 528.392 317.272H526.208V316.192H528.272C529.064 316.192 529.752 316.316 530.336 316.564C530.92 316.804 531.404 317.132 531.788 317.548C532.18 317.956 532.472 318.416 532.664 318.928C532.856 319.432 532.952 319.948 532.952 320.476V320.74C532.952 321.252 532.856 321.764 532.664 322.276C532.472 322.788 532.18 323.252 531.788 323.668C531.404 324.084 530.92 324.42 530.336 324.676C529.752 324.924 529.064 325.048 528.272 325.048H526.208ZM525.272 325.048V316.192H526.448V325.048H525.272ZM537.38 325.216C536.82 325.216 536.336 325.12 535.928 324.928C535.52 324.736 535.188 324.484 534.932 324.172C534.676 323.852 534.484 323.496 534.356 323.104C534.236 322.712 534.176 322.312 534.176 321.904V321.688C534.176 321.272 534.236 320.868 534.356 320.476C534.484 320.084 534.676 319.732 534.932 319.42C535.188 319.1 535.512 318.848 535.904 318.664C536.304 318.472 536.772 318.376 537.308 318.376C538.004 318.376 538.576 318.528 539.024 318.832C539.48 319.128 539.816 319.512 540.032 319.984C540.256 320.456 540.368 320.96 540.368 321.496V322.012H534.68V321.148H539.528L539.264 321.616C539.264 321.16 539.192 320.768 539.048 320.44C538.904 320.104 538.688 319.844 538.4 319.66C538.112 319.476 537.748 319.384 537.308 319.384C536.852 319.384 536.472 319.488 536.168 319.696C535.872 319.904 535.648 320.188 535.496 320.548C535.352 320.908 535.28 321.324 535.28 321.796C535.28 322.252 535.352 322.664 535.496 323.032C535.648 323.392 535.88 323.68 536.192 323.896C536.504 324.104 536.9 324.208 537.38 324.208C537.884 324.208 538.292 324.096 538.604 323.872C538.924 323.648 539.116 323.388 539.18 323.092H540.26C540.172 323.532 539.996 323.912 539.732 324.232C539.468 324.552 539.136 324.796 538.736 324.964C538.336 325.132 537.884 325.216 537.38 325.216ZM544.812 325.216C544.26 325.216 543.78 325.12 543.372 324.928C542.972 324.736 542.64 324.48 542.376 324.16C542.112 323.832 541.912 323.472 541.776 323.08C541.648 322.688 541.584 322.296 541.584 321.904V321.688C541.584 321.28 541.648 320.88 541.776 320.488C541.912 320.096 542.112 319.744 542.376 319.432C542.648 319.112 542.984 318.856 543.384 318.664C543.784 318.472 544.252 318.376 544.788 318.376C545.324 318.376 545.804 318.476 546.228 318.676C546.66 318.876 547.004 319.16 547.26 319.528C547.524 319.888 547.672 320.316 547.704 320.812H546.6C546.544 320.412 546.36 320.08 546.048 319.816C545.736 319.544 545.316 319.408 544.788 319.408C544.332 319.408 543.952 319.512 543.648 319.72C543.344 319.928 543.116 320.212 542.964 320.572C542.812 320.932 542.736 321.34 542.736 321.796C542.736 322.236 542.812 322.64 542.964 323.008C543.116 323.368 543.344 323.656 543.648 323.872C543.96 324.08 544.348 324.184 544.812 324.184C545.172 324.184 545.484 324.12 545.748 323.992C546.012 323.864 546.224 323.692 546.384 323.476C546.544 323.26 546.64 323.016 546.672 322.744H547.776C547.752 323.248 547.604 323.684 547.332 324.052C547.068 324.42 546.716 324.708 546.276 324.916C545.844 325.116 545.356 325.216 544.812 325.216Z" fill="#9C9CAB"/>
<rect x="456" y="109" width="8" height="54" rx="4" fill="#FB3766"/>
<rect x="459" y="101" width="2" height="80" rx="1" fill="#FB3766"/>
<rect x="144" y="125" width="8" height="54" rx="4" fill="#FB3766"/>
<rect x="147" y="117" width="2" height="80" rx="1" fill="#FB3766"/>
<rect x="96" y="106" width="8" height="54" rx="4" fill="#11CF8B"/>
<rect x="99" y="98" width="2" height="80" rx="1" fill="#11CF8B"/>
<rect x="120" y="91" width="8" height="54" rx="4" fill="#11CF8B"/>
<rect x="123" y="83" width="2" height="124" rx="1" fill="#11CF8B"/>
<rect x="24" y="127" width="8" height="54" rx="4" fill="#FB3766"/>
<rect x="27" y="119" width="2" height="103" rx="1" fill="#FB3766"/>
<rect x="288" y="146" width="8" height="54" rx="4" fill="#11CF8B"/>
<rect x="291" y="138" width="2" height="80" rx="1" fill="#11CF8B"/>
<rect x="384" y="111" width="8" height="40" rx="4" fill="#11CF8B"/>
<rect x="387" y="91" width="2" height="80" rx="1" fill="#11CF8B"/>
<rect x="360" y="126" width="8" height="32" rx="4" fill="#11CF8B"/>
<rect x="363" y="66" width="2" height="120" rx="1" fill="#11CF8B"/>
<rect x="264" y="154" width="8" height="27" rx="4" fill="#11CF8B"/>
<rect x="267" y="150" width="2" height="55" rx="1" fill="#11CF8B"/>
<rect x="432" y="103" width="8" height="27" rx="4" fill="#11CF8B"/>
<rect x="435" y="99" width="2" height="55" rx="1" fill="#11CF8B"/>
<rect x="72" y="154" width="8" height="27" rx="4" fill="#FB3766"/>
<rect x="75" y="133" width="2" height="55" rx="1" fill="#FB3766"/>
<rect x="480" y="146" width="8" height="20" rx="4" fill="#11CF8B"/>
<rect x="483" y="139" width="2" height="46" rx="1" fill="#11CF8B"/>
<rect x="168" y="138" width="8" height="20" rx="4" fill="#11CF8B"/>
<rect x="171" y="131" width="2" height="46" rx="1" fill="#11CF8B"/>
<rect x="408" y="104" width="8" height="20" rx="4" fill="#11CF8B"/>
<rect x="411" y="97" width="2" height="46" rx="1" fill="#11CF8B"/>
<rect x="336" y="122" width="8" height="16" rx="4" fill="#FB3766"/>
<rect x="339" y="116" width="2" height="55" rx="1" fill="#FB3766"/>
<rect x="240" y="166" width="8" height="16" rx="4" fill="#FB3766"/>
<rect x="243" y="160" width="2" height="55" rx="1" fill="#FB3766"/>
<rect x="216" y="177" width="8" height="16" rx="4" fill="#FB3766"/>
<rect x="219" y="168" width="2" height="70" rx="1" fill="#FB3766"/>
<rect y="166" width="8" height="16" rx="4" fill="#11CF8B"/>
<rect x="3" y="144" width="2" height="98" rx="1" fill="#11CF8B"/>
<rect x="312" y="130" width="8" height="16" rx="4" fill="#FB3766"/>
<rect x="315" y="124" width="2" height="40" rx="1" fill="#FB3766"/>
<rect x="48" y="132" width="8" height="16" rx="4" fill="#11CF8B"/>
<rect x="51" y="126" width="2" height="40" rx="1" fill="#11CF8B"/>
<rect x="192" y="183" width="8" height="16" rx="4" fill="#11CF8B"/>
<rect x="195" y="177" width="2" height="40" rx="1" fill="#11CF8B"/>
</svg>
