<svg width="416" height="290" viewBox="0 0 416 290" fill="none" xmlns="http://www.w3.org/2000/svg">
<g clip-path="url(#clip0_407_10342)">
<rect width="416" height="290" rx="16" fill="#5235E8"/>
<g filter="url(#filter0_f_407_10342)">
<path d="M215.18 819.646L-241.293 280.19L29.4609 68.9945L429.152 666.2L215.18 819.646Z" fill="url(#paint0_linear_407_10342)" fill-opacity="0.7"/>
</g>
<g filter="url(#filter1_b_407_10342)">
<path d="M333.269 49.9199L328.13 -111.692L478.215 148.263L340.825 63.0065C336.275 60.1833 333.439 55.2716 333.269 49.9199Z" fill="url(#paint1_linear_407_10342)" fill-opacity="0.1"/>
<path d="M333.269 49.9199L328.13 -111.692L478.215 148.263L340.825 63.0065C336.275 60.1833 333.439 55.2716 333.269 49.9199Z" stroke="url(#paint2_linear_407_10342)"/>
</g>
<g filter="url(#filter2_b_407_10342)">
<path d="M351.838 39.1995L346.698 -122.412L496.783 137.543L359.393 52.2861C354.844 49.4629 352.008 44.5511 351.838 39.1995Z" fill="url(#paint3_linear_407_10342)" fill-opacity="0.2"/>
<path d="M351.838 39.1995L346.698 -122.412L496.783 137.543L359.393 52.2861C354.844 49.4629 352.008 44.5511 351.838 39.1995Z" stroke="url(#paint4_linear_407_10342)"/>
</g>
<path d="M33.696 50V38.32H35.776L39.232 46.112H39.488L42.928 38.32H45.024V50H43.456V40.032L43.568 40.064L40.256 47.584H38.336L35.008 40.064L35.136 40.032V50H33.696ZM47.6947 53.328V51.952H48.9267C49.2894 51.952 49.5934 51.904 49.8388 51.808C50.0948 51.7227 50.3028 51.5733 50.4628 51.36C50.6334 51.1467 50.7721 50.864 50.8788 50.512L53.5668 41.456H55.0708L52.2228 50.912C52.0521 51.4773 51.8121 51.936 51.5027 52.288C51.1934 52.6507 50.8148 52.912 50.3668 53.072C49.9294 53.2427 49.4174 53.328 48.8307 53.328H47.6947ZM50.3028 49.808V48.528H52.1588V49.808H50.3028ZM50.1428 49.808L47.0867 41.456H48.6547L51.5828 49.808H50.1428ZM62.9814 50L59.8294 38.32H61.4454L64.1814 48.976L63.4294 48.592H65.3334L64.5014 48.976L66.7254 38.8H68.1974L65.6534 50H62.9814ZM70.0054 50L67.2054 38.8H68.7254L71.2374 48.976L70.4374 48.592H72.3574L71.5414 48.976L73.9894 38.32H75.5574L72.6934 50H70.0054ZM82.5694 50V47.44H82.3134V44.48C82.3134 43.8933 82.1587 43.4507 81.8494 43.152C81.5507 42.8533 81.108 42.704 80.5214 42.704C80.1907 42.704 79.8494 42.7093 79.4974 42.72C79.1454 42.7307 78.8094 42.7413 78.4894 42.752C78.1694 42.7627 77.892 42.7787 77.6574 42.8V41.456C77.892 41.4347 78.1374 41.4187 78.3934 41.408C78.66 41.3867 78.932 41.376 79.2094 41.376C79.4867 41.3653 79.7534 41.36 80.0094 41.36C80.884 41.36 81.5987 41.4667 82.1534 41.68C82.708 41.8827 83.1187 42.2187 83.3854 42.688C83.652 43.1573 83.7854 43.792 83.7854 44.592V50H82.5694ZM79.7694 50.224C79.1294 50.224 78.5747 50.1173 78.1054 49.904C77.6467 49.68 77.2894 49.36 77.0334 48.944C76.788 48.528 76.6654 48.0267 76.6654 47.44C76.6654 46.832 76.7987 46.3253 77.0654 45.92C77.3427 45.5147 77.7427 45.2107 78.2654 45.008C78.788 44.7947 79.4174 44.688 80.1534 44.688H82.4734V45.84H80.0894C79.4707 45.84 78.996 45.9893 78.6654 46.288C78.3347 46.5867 78.1694 46.9707 78.1694 47.44C78.1694 47.9093 78.3347 48.288 78.6654 48.576C78.996 48.864 79.4707 49.008 80.0894 49.008C80.452 49.008 80.7987 48.944 81.1294 48.816C81.46 48.6773 81.732 48.4533 81.9454 48.144C82.1694 47.824 82.292 47.3867 82.3134 46.832L82.7294 47.44C82.676 48.048 82.5267 48.56 82.2814 48.976C82.0467 49.3813 81.716 49.6907 81.2894 49.904C80.8734 50.1173 80.3667 50.224 79.7694 50.224ZM90.0125 50.096C89.3725 50.096 88.8178 50.0053 88.3485 49.824C87.8898 49.6427 87.5325 49.3333 87.2765 48.896C87.0312 48.448 86.9085 47.8453 86.9085 47.088V38.864H88.3805V47.28C88.3805 47.7387 88.5032 48.096 88.7485 48.352C89.0045 48.5973 89.3618 48.72 89.8205 48.72H91.3245V50.096H90.0125ZM85.4365 42.608V41.456H91.3245V42.608H85.4365ZM97.1785 50.288C96.4425 50.288 95.8025 50.16 95.2585 49.904C94.7252 49.648 94.2825 49.3067 93.9305 48.88C93.5785 48.4427 93.3118 47.9627 93.1305 47.44C92.9598 46.9173 92.8745 46.3947 92.8745 45.872V45.584C92.8745 45.04 92.9598 44.5067 93.1305 43.984C93.3118 43.4613 93.5785 42.992 93.9305 42.576C94.2932 42.1493 94.7412 41.808 95.2745 41.552C95.8078 41.296 96.4318 41.168 97.1465 41.168C97.8612 41.168 98.5012 41.3013 99.0665 41.568C99.6425 41.8347 100.101 42.2133 100.443 42.704C100.795 43.184 100.992 43.7547 101.035 44.416H99.5625C99.4878 43.8827 99.2425 43.44 98.8265 43.088C98.4105 42.7253 97.8505 42.544 97.1465 42.544C96.5385 42.544 96.0318 42.6827 95.6265 42.96C95.2212 43.2373 94.9172 43.616 94.7145 44.096C94.5118 44.576 94.4105 45.12 94.4105 45.728C94.4105 46.3147 94.5118 46.8533 94.7145 47.344C94.9172 47.824 95.2212 48.208 95.6265 48.496C96.0425 48.7733 96.5598 48.912 97.1785 48.912C97.6585 48.912 98.0745 48.8267 98.4265 48.656C98.7785 48.4853 99.0612 48.256 99.2745 47.968C99.4878 47.68 99.6158 47.3547 99.6585 46.992H101.13C101.098 47.664 100.901 48.2453 100.538 48.736C100.186 49.2267 99.7172 49.6107 99.1305 49.888C98.5545 50.1547 97.9038 50.288 97.1785 50.288ZM103.298 50V38.32H104.834V45.296H104.45C104.45 44.4533 104.556 43.728 104.77 43.12C104.994 42.5013 105.335 42.0267 105.794 41.696C106.252 41.3653 106.839 41.2 107.554 41.2H107.618C108.642 41.2 109.415 41.5413 109.938 42.224C110.46 42.896 110.722 43.8613 110.722 45.12V50H109.186V44.8C109.186 44.1067 108.988 43.568 108.594 43.184C108.21 42.8 107.708 42.608 107.09 42.608C106.407 42.608 105.858 42.8373 105.442 43.296C105.036 43.744 104.834 44.336 104.834 45.072V50H103.298ZM113.708 50V38.32H115.244V50H113.708ZM112.524 39.536V38.32H115.244V39.536H112.524ZM118.686 50V41.456H120.222V50H118.686ZM117.374 42.672V41.456H120.222V42.672H117.374ZM119.118 40.08C118.777 40.08 118.521 39.9893 118.35 39.808C118.19 39.6267 118.11 39.3973 118.11 39.12C118.11 38.8427 118.19 38.6133 118.35 38.432C118.521 38.2507 118.777 38.16 119.118 38.16C119.459 38.16 119.71 38.2507 119.87 38.432C120.041 38.6133 120.126 38.8427 120.126 39.12C120.126 39.3973 120.041 39.6267 119.87 39.808C119.71 39.9893 119.459 40.08 119.118 40.08ZM126.072 50.256C124.952 50.256 124.083 50.016 123.464 49.536C122.856 49.056 122.541 48.4 122.52 47.568H123.96C123.981 47.8987 124.147 48.2133 124.456 48.512C124.776 48.8 125.315 48.944 126.072 48.944C126.755 48.944 127.277 48.8107 127.64 48.544C128.003 48.2667 128.184 47.9307 128.184 47.536C128.184 47.184 128.051 46.912 127.784 46.72C127.517 46.5173 127.085 46.384 126.488 46.32L125.56 46.224C124.749 46.1387 124.088 45.8987 123.576 45.504C123.064 45.0987 122.808 44.5333 122.808 43.808C122.808 43.264 122.947 42.8 123.224 42.416C123.501 42.0213 123.885 41.7227 124.376 41.52C124.867 41.3067 125.432 41.2 126.072 41.2C127.032 41.2 127.811 41.4133 128.408 41.84C129.005 42.2667 129.315 42.9013 129.336 43.744H127.896C127.885 43.4027 127.725 43.1147 127.416 42.88C127.117 42.6347 126.669 42.512 126.072 42.512C125.475 42.512 125.021 42.6347 124.712 42.88C124.403 43.1253 124.248 43.4347 124.248 43.808C124.248 44.128 124.355 44.384 124.568 44.576C124.792 44.768 125.155 44.8907 125.656 44.944L126.584 45.04C127.501 45.136 128.237 45.392 128.792 45.808C129.347 46.2133 129.624 46.7893 129.624 47.536C129.624 48.0693 129.469 48.544 129.16 48.96C128.861 49.3653 128.445 49.6853 127.912 49.92C127.379 50.144 126.765 50.256 126.072 50.256ZM135.258 50.096C134.618 50.096 134.063 50.0053 133.594 49.824C133.135 49.6427 132.778 49.3333 132.522 48.896C132.277 48.448 132.154 47.8453 132.154 47.088V38.864H133.626V47.28C133.626 47.7387 133.749 48.096 133.994 48.352C134.25 48.5973 134.607 48.72 135.066 48.72H136.57V50.096H135.258ZM130.682 42.608V41.456H136.57V42.608H130.682Z" fill="white"/>
<g clip-path="url(#clip1_407_10342)">
<path d="M71.9641 93.9933C71.9641 104.984 63.0546 113.894 52.0636 113.894C41.0729 113.894 32.1631 104.984 32.1631 93.9933C32.1631 83.0024 41.0729 74.0928 52.0636 74.0928C63.0546 74.0928 71.9641 83.0024 71.9641 93.9933Z" fill="#1BA27A"/>
<path d="M61.4033 84.1279H42.5596V88.6772H49.7068V95.3637H54.2561V88.6772H61.4033V84.1279Z" fill="white"/>
<path d="M52.025 96.076C46.1126 96.076 41.3191 95.1403 41.3191 93.9858C41.3191 92.8316 46.1124 91.8957 52.025 91.8957C57.9374 91.8957 62.7307 92.8316 62.7307 93.9858C62.7307 95.1403 57.9374 96.076 52.025 96.076ZM64.0459 94.3343C64.0459 92.8457 58.664 91.6392 52.025 91.6392C45.3862 91.6392 40.0039 92.8457 40.0039 94.3343C40.0039 95.6451 44.1772 96.7373 49.7074 96.9793V106.578H54.2562V96.983C59.829 96.7486 64.0459 95.6519 64.0459 94.3343Z" fill="white"/>
</g>
<path d="M87.472 89V79.732H88.844V89H87.472ZM84.364 80.012V78.78H91.952V80.012H84.364ZM95.8762 89.252C95.2228 89.252 94.6582 89.14 94.1822 88.916C93.7062 88.692 93.3188 88.398 93.0202 88.034C92.7215 87.6607 92.4975 87.2453 92.3482 86.788C92.2082 86.3307 92.1382 85.864 92.1382 85.388V85.136C92.1382 84.6507 92.2082 84.1793 92.3482 83.722C92.4975 83.2647 92.7215 82.854 93.0202 82.49C93.3188 82.1167 93.6968 81.8227 94.1542 81.608C94.6208 81.384 95.1668 81.272 95.7922 81.272C96.6042 81.272 97.2715 81.4493 97.7942 81.804C98.3262 82.1493 98.7182 82.5973 98.9702 83.148C99.2315 83.6987 99.3622 84.2867 99.3622 84.912V85.514H92.7262V84.506H98.3822L98.0742 85.052C98.0742 84.52 97.9902 84.0627 97.8222 83.68C97.6542 83.288 97.4022 82.9847 97.0662 82.77C96.7302 82.5553 96.3055 82.448 95.7922 82.448C95.2602 82.448 94.8168 82.5693 94.4622 82.812C94.1168 83.0547 93.8555 83.386 93.6782 83.806C93.5102 84.226 93.4262 84.7113 93.4262 85.262C93.4262 85.794 93.5102 86.2747 93.6782 86.704C93.8555 87.124 94.1262 87.46 94.4902 87.712C94.8542 87.9547 95.3162 88.076 95.8762 88.076C96.4642 88.076 96.9402 87.9453 97.3042 87.684C97.6775 87.4227 97.9015 87.1193 97.9762 86.774H99.2362C99.1335 87.2873 98.9282 87.7307 98.6202 88.104C98.3122 88.4773 97.9248 88.762 97.4582 88.958C96.9915 89.154 96.4642 89.252 95.8762 89.252ZM104.182 89.084C103.622 89.084 103.137 89.0047 102.726 88.846C102.325 88.6873 102.012 88.4167 101.788 88.034C101.574 87.642 101.466 87.1147 101.466 86.452V79.256H102.754V86.62C102.754 87.0213 102.862 87.334 103.076 87.558C103.3 87.7727 103.613 87.88 104.014 87.88H105.33V89.084H104.182ZM100.178 82.532V81.524H105.33V82.532H100.178ZM107.231 89V78.78H108.575V84.884H108.239C108.239 84.1467 108.333 83.512 108.519 82.98C108.715 82.4387 109.014 82.0233 109.415 81.734C109.817 81.4447 110.33 81.3 110.955 81.3H111.011C111.907 81.3 112.584 81.5987 113.041 82.196C113.499 82.784 113.727 83.6287 113.727 84.73V89H112.383V84.45C112.383 83.8433 112.211 83.372 111.865 83.036C111.529 82.7 111.091 82.532 110.549 82.532C109.952 82.532 109.471 82.7327 109.107 83.134C108.753 83.526 108.575 84.044 108.575 84.688V89H107.231ZM119.364 89.252C118.711 89.252 118.146 89.14 117.67 88.916C117.194 88.692 116.807 88.398 116.508 88.034C116.21 87.6607 115.986 87.2453 115.836 86.788C115.696 86.3307 115.626 85.864 115.626 85.388V85.136C115.626 84.6507 115.696 84.1793 115.836 83.722C115.986 83.2647 116.21 82.854 116.508 82.49C116.807 82.1167 117.185 81.8227 117.642 81.608C118.109 81.384 118.655 81.272 119.28 81.272C120.092 81.272 120.76 81.4493 121.282 81.804C121.814 82.1493 122.206 82.5973 122.458 83.148C122.72 83.6987 122.85 84.2867 122.85 84.912V85.514H116.214V84.506H121.87L121.562 85.052C121.562 84.52 121.478 84.0627 121.31 83.68C121.142 83.288 120.89 82.9847 120.554 82.77C120.218 82.5553 119.794 82.448 119.28 82.448C118.748 82.448 118.305 82.5693 117.95 82.812C117.605 83.0547 117.344 83.386 117.166 83.806C116.998 84.226 116.914 84.7113 116.914 85.262C116.914 85.794 116.998 86.2747 117.166 86.704C117.344 87.124 117.614 87.46 117.978 87.712C118.342 87.9547 118.804 88.076 119.364 88.076C119.952 88.076 120.428 87.9453 120.792 87.684C121.166 87.4227 121.39 87.1193 121.464 86.774H122.724C122.622 87.2873 122.416 87.7307 122.108 88.104C121.8 88.4773 121.413 88.762 120.946 88.958C120.48 89.154 119.952 89.252 119.364 89.252ZM124.759 89V81.524H125.823V84.604H125.767C125.767 83.512 126.005 82.714 126.481 82.21C126.966 81.6967 127.689 81.44 128.651 81.44H128.903V82.644H128.427C127.68 82.644 127.106 82.8447 126.705 83.246C126.303 83.638 126.103 84.2073 126.103 84.954V89H124.759Z" fill="white"/>
<path d="M88.74 108.216C87.948 108.216 87.28 108.064 86.736 107.76C86.2 107.448 85.792 107.016 85.512 106.464C85.24 105.904 85.104 105.256 85.104 104.52V99.24H86.28V104.664C86.28 105.152 86.372 105.584 86.556 105.96C86.748 106.328 87.028 106.616 87.396 106.824C87.764 107.032 88.212 107.136 88.74 107.136C89.268 107.136 89.712 107.036 90.072 106.836C90.44 106.628 90.716 106.34 90.9 105.972C91.092 105.596 91.188 105.16 91.188 104.664V99.24H92.364V104.52C92.364 105.256 92.228 105.904 91.956 106.464C91.684 107.016 91.28 107.448 90.744 107.76C90.208 108.064 89.54 108.216 88.74 108.216ZM97.6448 108.216C96.9168 108.216 96.2968 108.096 95.7848 107.856C95.2728 107.616 94.8808 107.284 94.6088 106.86C94.3368 106.436 94.2008 105.956 94.2008 105.42H95.3768C95.3768 105.684 95.4448 105.948 95.5808 106.212C95.7248 106.476 95.9608 106.696 96.2888 106.872C96.6248 107.048 97.0768 107.136 97.6448 107.136C98.1728 107.136 98.6048 107.06 98.9408 106.908C99.2768 106.748 99.5248 106.544 99.6848 106.296C99.8448 106.04 99.9248 105.764 99.9248 105.468C99.9248 105.108 99.7688 104.812 99.4568 104.58C99.1448 104.34 98.6888 104.192 98.0888 104.136L97.1168 104.052C96.3408 103.988 95.7208 103.748 95.2568 103.332C94.7928 102.916 94.5608 102.368 94.5608 101.688C94.5608 101.152 94.6888 100.684 94.9448 100.284C95.2088 99.884 95.5728 99.572 96.0368 99.348C96.5008 99.116 97.0408 99 97.6568 99C98.2648 99 98.8008 99.112 99.2648 99.336C99.7288 99.56 100.089 99.876 100.345 100.284C100.609 100.684 100.741 101.164 100.741 101.724H99.5648C99.5648 101.444 99.4968 101.18 99.3608 100.932C99.2328 100.684 99.0288 100.48 98.7488 100.32C98.4688 100.16 98.1048 100.08 97.6568 100.08C97.2248 100.08 96.8648 100.156 96.5768 100.308C96.2968 100.46 96.0848 100.66 95.9408 100.908C95.8048 101.148 95.7368 101.408 95.7368 101.688C95.7368 102.008 95.8608 102.292 96.1088 102.54C96.3568 102.788 96.7248 102.932 97.2128 102.972L98.1848 103.056C98.7848 103.104 99.3008 103.232 99.7328 103.44C100.173 103.64 100.509 103.912 100.741 104.256C100.981 104.592 101.101 104.996 101.101 105.468C101.101 106.004 100.957 106.48 100.669 106.896C100.381 107.312 99.9768 107.636 99.4568 107.868C98.9368 108.1 98.3328 108.216 97.6448 108.216ZM104.07 108.048V106.968H106.254C106.782 106.968 107.25 106.884 107.658 106.716C108.074 106.54 108.426 106.3 108.714 105.996C109.01 105.692 109.234 105.336 109.386 104.928C109.538 104.52 109.614 104.08 109.614 103.608C109.614 103.112 109.538 102.664 109.386 102.264C109.234 101.856 109.01 101.504 108.714 101.208C108.426 100.904 108.074 100.672 107.658 100.512C107.25 100.352 106.782 100.272 106.254 100.272H104.07V99.192H106.134C106.926 99.192 107.614 99.316 108.198 99.564C108.782 99.804 109.266 100.132 109.65 100.548C110.042 100.956 110.334 101.416 110.526 101.928C110.718 102.432 110.814 102.948 110.814 103.476V103.74C110.814 104.252 110.718 104.764 110.526 105.276C110.334 105.788 110.042 106.252 109.65 106.668C109.266 107.084 108.782 107.42 108.198 107.676C107.614 107.924 106.926 108.048 106.134 108.048H104.07ZM103.134 108.048V99.192H104.31V108.048H103.134ZM114.121 108V100.056H115.297V108H114.121ZM111.457 100.296V99.24H117.961V100.296H111.457Z" fill="#DAF727"/>
<path d="M185.55 91C184.747 91 184.066 90.8693 183.506 90.608C182.946 90.3373 182.517 89.9593 182.218 89.474C181.929 88.9793 181.784 88.4007 181.784 87.738H183.044C183.044 88.0553 183.119 88.3773 183.268 88.704C183.427 89.0307 183.688 89.306 184.052 89.53C184.416 89.7447 184.915 89.852 185.55 89.852C186.39 89.852 187.011 89.6747 187.412 89.32C187.823 88.9653 188.028 88.5593 188.028 88.102C188.028 87.654 187.846 87.2807 187.482 86.982C187.118 86.6833 186.591 86.5013 185.9 86.436L184.976 86.352C184.08 86.268 183.366 85.9973 182.834 85.54C182.302 85.0827 182.036 84.4293 182.036 83.58C182.036 82.992 182.176 82.4927 182.456 82.082C182.745 81.662 183.147 81.34 183.66 81.116C184.183 80.892 184.794 80.78 185.494 80.78C186.194 80.78 186.796 80.906 187.3 81.158C187.813 81.4007 188.21 81.76 188.49 82.236C188.77 82.7027 188.91 83.2673 188.91 83.93H187.65C187.65 83.594 187.575 83.2767 187.426 82.978C187.277 82.67 187.043 82.418 186.726 82.222C186.418 82.026 186.007 81.928 185.494 81.928C185.037 81.928 184.645 82.0027 184.318 82.152C184.001 82.292 183.753 82.488 183.576 82.74C183.408 82.992 183.324 83.272 183.324 83.58C183.324 83.9813 183.469 84.3313 183.758 84.63C184.047 84.9193 184.491 85.092 185.088 85.148L186.012 85.232C187.011 85.3253 187.809 85.6193 188.406 86.114C189.013 86.5993 189.316 87.262 189.316 88.102C189.316 88.6807 189.162 89.1893 188.854 89.628C188.546 90.0573 188.112 90.3933 187.552 90.636C186.992 90.8787 186.325 91 185.55 91ZM184.948 92.806V90.762H186.152V92.806H184.948ZM184.892 81.466V79.422H186.096V81.466H184.892ZM192.989 91V81.452L193.605 81.928H190.721V80.78H194.333V91H192.989ZM200.898 91.28C200.151 91.28 199.526 91.1493 199.022 90.888C198.527 90.6267 198.13 90.272 197.832 89.824C197.542 89.3667 197.332 88.844 197.202 88.256C197.08 87.668 197.02 87.052 197.02 86.408V85.736C197.02 84.1213 197.421 82.88 198.224 82.012C199.026 81.1347 200.188 80.696 201.71 80.696C202.074 80.696 202.382 80.7053 202.634 80.724C202.886 80.7427 203.161 80.7707 203.46 80.808V81.956C203.152 81.9187 202.867 81.8907 202.606 81.872C202.344 81.8533 202.027 81.844 201.654 81.844C200.804 81.844 200.132 82.0027 199.638 82.32C199.143 82.6373 198.788 83.0947 198.574 83.692C198.359 84.28 198.252 84.994 198.252 85.834V86.464L197.916 87.71C197.925 86.9727 198.065 86.3613 198.336 85.876C198.616 85.3907 198.994 85.0267 199.47 84.784C199.955 84.5413 200.51 84.42 201.136 84.42C201.864 84.42 202.48 84.5693 202.984 84.868C203.488 85.1573 203.866 85.5587 204.118 86.072C204.379 86.5853 204.51 87.1687 204.51 87.822C204.51 88.4847 204.374 89.0773 204.104 89.6C203.833 90.1227 203.427 90.5333 202.886 90.832C202.354 91.1307 201.691 91.28 200.898 91.28ZM200.898 90.104C201.411 90.104 201.84 90.006 202.186 89.81C202.531 89.614 202.788 89.348 202.956 89.012C203.133 88.6667 203.222 88.27 203.222 87.822C203.222 87.374 203.138 86.9773 202.97 86.632C202.802 86.2867 202.55 86.0207 202.214 85.834C201.887 85.638 201.481 85.54 200.996 85.54C200.52 85.54 200.09 85.6287 199.708 85.806C199.334 85.9833 199.04 86.2447 198.826 86.59C198.611 86.926 198.504 87.3413 198.504 87.836C198.504 88.2467 198.588 88.6247 198.756 88.97C198.924 89.3153 199.185 89.5907 199.54 89.796C199.894 90.0013 200.347 90.104 200.898 90.104ZM209.664 91.252C208.88 91.252 208.218 91.0933 207.676 90.776C207.135 90.4493 206.724 90.0247 206.444 89.502C206.164 88.9793 206.024 88.424 206.024 87.836H207.34C207.34 88.2653 207.434 88.648 207.62 88.984C207.816 89.32 208.087 89.586 208.432 89.782C208.778 89.978 209.188 90.076 209.664 90.076C210.131 90.076 210.537 89.9827 210.882 89.796C211.237 89.6 211.512 89.334 211.708 88.998C211.904 88.6527 212.002 88.2653 212.002 87.836C212.002 87.4067 211.904 87.0193 211.708 86.674C211.522 86.3287 211.251 86.0533 210.896 85.848C210.551 85.6427 210.14 85.54 209.664 85.54C209.319 85.54 208.969 85.6007 208.614 85.722C208.26 85.834 207.975 85.9973 207.76 86.212H206.528L207.046 80.78H212.408V81.928H207.83L208.166 81.466L207.774 85.428L207.41 85.302C207.681 85.0313 208.008 84.8167 208.39 84.658C208.782 84.4993 209.226 84.42 209.72 84.42C210.504 84.42 211.162 84.5833 211.694 84.91C212.226 85.2273 212.628 85.6427 212.898 86.156C213.178 86.66 213.318 87.1873 213.318 87.738V87.934C213.318 88.4847 213.178 89.0167 212.898 89.53C212.618 90.034 212.203 90.4493 211.652 90.776C211.111 91.0933 210.448 91.252 209.664 91.252ZM215.405 93.198L214.327 92.792L215.629 89.18L216.735 89.6L215.405 93.198ZM222.079 91.252C221.351 91.252 220.702 91.1213 220.133 90.86C219.573 90.5987 219.13 90.2347 218.803 89.768C218.486 89.3013 218.327 88.76 218.327 88.144C218.327 87.7333 218.406 87.3647 218.565 87.038C218.724 86.702 218.943 86.4127 219.223 86.17C219.503 85.9273 219.82 85.7407 220.175 85.61V85.47C219.895 85.3487 219.638 85.1853 219.405 84.98C219.181 84.7747 218.999 84.532 218.859 84.252C218.728 83.972 218.663 83.6547 218.663 83.3C218.663 82.712 218.817 82.2127 219.125 81.802C219.442 81.3913 219.858 81.0787 220.371 80.864C220.894 80.64 221.463 80.528 222.079 80.528C222.704 80.528 223.274 80.64 223.787 80.864C224.31 81.0787 224.725 81.3913 225.033 81.802C225.341 82.2127 225.495 82.712 225.495 83.3C225.495 83.6547 225.43 83.972 225.299 84.252C225.168 84.532 224.986 84.7747 224.753 84.98C224.529 85.1853 224.272 85.3487 223.983 85.47V85.61C224.347 85.7407 224.669 85.932 224.949 86.184C225.229 86.4267 225.448 86.716 225.607 87.052C225.766 87.3787 225.845 87.7427 225.845 88.144C225.845 88.76 225.682 89.3013 225.355 89.768C225.038 90.2347 224.594 90.5987 224.025 90.86C223.465 91.1213 222.816 91.252 222.079 91.252ZM222.079 90.104C222.592 90.104 223.031 90.0247 223.395 89.866C223.759 89.698 224.039 89.4647 224.235 89.166C224.431 88.858 224.529 88.4987 224.529 88.088C224.529 87.6773 224.431 87.3227 224.235 87.024C224.048 86.7253 223.773 86.4967 223.409 86.338C223.045 86.17 222.602 86.086 222.079 86.086C221.566 86.086 221.127 86.17 220.763 86.338C220.399 86.4967 220.119 86.7253 219.923 87.024C219.736 87.3227 219.643 87.6773 219.643 88.088C219.643 88.4987 219.736 88.858 219.923 89.166C220.119 89.4647 220.399 89.698 220.763 89.866C221.127 90.0247 221.566 90.104 222.079 90.104ZM222.079 85.022C222.714 85.022 223.222 84.8867 223.605 84.616C223.988 84.336 224.179 83.9113 224.179 83.342C224.179 82.7633 223.983 82.3433 223.591 82.082C223.208 81.8113 222.704 81.676 222.079 81.676C221.454 81.676 220.945 81.8113 220.553 82.082C220.17 82.3527 219.979 82.7727 219.979 83.342C219.979 83.9113 220.17 84.336 220.553 84.616C220.945 84.8867 221.454 85.022 222.079 85.022Z" fill="white"/>
<rect x="181" y="105" width="66" height="6" rx="2" fill="#DAF727"/>
<rect x="324.5" y="81.5" width="59" height="23" rx="11.5" fill="#ECFDF7"/>
<rect x="324.5" y="81.5" width="59" height="23" rx="11.5" stroke="#DAFBEF"/>
<g clip-path="url(#clip2_407_10342)">
<path d="M339 94.5L336 91.5L333 94.5H339Z" fill="#11CF8B" stroke="#11CF8B" stroke-width="1.5" stroke-linecap="round" stroke-linejoin="round"/>
</g>
<path d="M348.448 89V80.816L348.976 81.224H346.504V80.24H349.6V89H348.448ZM351.975 89V87.536H353.367V89H351.975ZM357.888 89.216C357.232 89.216 356.676 89.088 356.22 88.832C355.764 88.576 355.416 88.236 355.176 87.812C354.944 87.388 354.828 86.928 354.828 86.432H355.956C355.956 86.976 356.128 87.408 356.472 87.728C356.824 88.048 357.296 88.208 357.888 88.208C358.28 88.208 358.62 88.136 358.908 87.992C359.196 87.848 359.42 87.644 359.58 87.38C359.74 87.108 359.82 86.792 359.82 86.432C359.82 85.888 359.644 85.448 359.292 85.112C358.948 84.776 358.484 84.608 357.9 84.608C357.652 84.608 357.436 84.64 357.252 84.704C357.076 84.76 356.92 84.832 356.784 84.92L356.208 83.888L359.556 81.44L359.436 81.224H355.176V80.24H360.516V81.836L357.744 83.852L356.904 83.888C357.04 83.84 357.188 83.8 357.348 83.768C357.516 83.736 357.712 83.72 357.936 83.72C358.576 83.72 359.12 83.84 359.568 84.08C360.016 84.32 360.356 84.64 360.588 85.04C360.828 85.44 360.948 85.876 360.948 86.348V86.516C360.948 86.98 360.828 87.42 360.588 87.836C360.356 88.244 360.012 88.576 359.556 88.832C359.108 89.088 358.552 89.216 357.888 89.216ZM363.459 89L367.167 81.332L367.095 81.224H362.307V80.24H368.187V81.632L364.659 89H363.459ZM362.307 82.616V80.24H363.267V82.616H362.307ZM349.012 105L352.324 96.24H353.236L349.924 105H349.012ZM348.364 100.944C347.908 100.944 347.536 100.84 347.248 100.632C346.968 100.424 346.76 100.148 346.624 99.804C346.496 99.46 346.432 99.088 346.432 98.688V98.376C346.432 97.944 346.5 97.56 346.636 97.224C346.772 96.88 346.984 96.612 347.272 96.42C347.56 96.22 347.924 96.12 348.364 96.12C348.812 96.12 349.176 96.22 349.456 96.42C349.744 96.612 349.956 96.88 350.092 97.224C350.228 97.56 350.296 97.944 350.296 98.376V98.688C350.296 99.088 350.228 99.46 350.092 99.804C349.964 100.148 349.76 100.424 349.48 100.632C349.2 100.84 348.828 100.944 348.364 100.944ZM348.364 100.152C348.732 100.152 349.004 100.02 349.18 99.756C349.364 99.484 349.456 99.08 349.456 98.544C349.456 97.976 349.364 97.564 349.18 97.308C348.996 97.044 348.724 96.912 348.364 96.912C348.004 96.912 347.732 97.044 347.548 97.308C347.364 97.564 347.272 97.972 347.272 98.532C347.272 99.068 347.36 99.472 347.536 99.744C347.72 100.016 347.996 100.152 348.364 100.152ZM353.836 105.12C353.38 105.12 353.008 105.016 352.72 104.808C352.44 104.6 352.232 104.324 352.096 103.98C351.968 103.636 351.904 103.264 351.904 102.864V102.552C351.904 102.12 351.972 101.736 352.108 101.4C352.244 101.056 352.456 100.788 352.744 100.596C353.032 100.396 353.396 100.296 353.836 100.296C354.284 100.296 354.648 100.396 354.928 100.596C355.216 100.788 355.428 101.056 355.564 101.4C355.7 101.736 355.768 102.12 355.768 102.552V102.864C355.768 103.264 355.7 103.636 355.564 103.98C355.436 104.324 355.232 104.6 354.952 104.808C354.672 105.016 354.3 105.12 353.836 105.12ZM353.836 104.328C354.204 104.328 354.476 104.196 354.652 103.932C354.836 103.66 354.928 103.256 354.928 102.72C354.928 102.152 354.836 101.74 354.652 101.484C354.468 101.22 354.196 101.088 353.836 101.088C353.476 101.088 353.204 101.22 353.02 101.484C352.836 101.74 352.744 102.148 352.744 102.708C352.744 103.244 352.832 103.648 353.008 103.92C353.192 104.192 353.468 104.328 353.836 104.328Z" fill="#11CF8B"/>
<line opacity="0.2" x1="32" y1="129.5" x2="268" y2="129.5" stroke="#D6D1FA"/>
<g clip-path="url(#clip3_407_10342)">
<path d="M71.4017 170.837C68.7295 181.557 57.8684 188.073 47.1637 185.401C36.4434 182.729 29.9269 171.868 32.5992 161.163C35.2714 150.443 46.1167 143.927 56.837 146.599C67.5417 149.256 74.074 160.116 71.4017 170.837Z" fill="url(#paint5_linear_407_10342)"/>
<path d="M61.5225 163.508C61.9131 160.852 59.8975 159.414 57.1162 158.461L58.0225 154.852L55.835 154.305L54.96 157.82C54.3818 157.68 53.7881 157.539 53.1943 157.414L54.0693 153.883L51.8818 153.336L50.9912 156.93C50.5068 156.82 50.0381 156.711 49.585 156.602V156.586L46.5537 155.836L45.9756 158.18C45.9756 158.18 47.6006 158.555 47.5693 158.57C48.46 158.789 48.6162 159.383 48.585 159.852L47.5537 163.961C47.6162 163.977 47.6943 163.992 47.7881 164.039C47.71 164.023 47.6318 164.008 47.5537 163.977L46.1162 169.727C46.0068 169.992 45.7256 170.398 45.1162 170.242C45.1318 170.273 43.5225 169.852 43.5225 169.852L42.4287 172.367L45.2881 173.086C45.8193 173.227 46.335 173.352 46.8506 173.492L45.9443 177.133L48.1318 177.68L49.0381 174.07C49.6318 174.227 50.2256 174.383 50.7881 174.523L49.8975 178.117L52.085 178.664L52.9912 175.023C56.7412 175.727 59.5537 175.445 60.7256 172.055C61.6787 169.336 60.6787 167.758 58.71 166.727C60.1631 166.398 61.2412 165.445 61.5225 163.508ZM56.5068 170.539C55.835 173.258 51.2412 171.789 49.7568 171.414L50.96 166.586C52.4443 166.961 57.2256 167.695 56.5068 170.539ZM57.1943 163.461C56.5693 165.945 52.7568 164.68 51.5225 164.367L52.6162 159.992C53.8506 160.305 57.835 160.883 57.1943 163.461Z" fill="white"/>
</g>
<path d="M86.576 161.056V159.852H89.432C89.9827 159.852 90.4073 159.698 90.706 159.39C91.014 159.073 91.168 158.653 91.168 158.13C91.168 157.598 91.0187 157.183 90.72 156.884C90.4213 156.576 89.992 156.422 89.432 156.422H86.576V155.526H89.236C89.8893 155.526 90.4633 155.605 90.958 155.764C91.462 155.923 91.854 156.189 92.134 156.562C92.4233 156.926 92.568 157.425 92.568 158.06V158.256C92.568 158.853 92.4467 159.362 92.204 159.782C91.9613 160.193 91.5927 160.51 91.098 160.734C90.6033 160.949 89.9827 161.056 89.236 161.056H86.576ZM85.484 161.056V150.724H86.856V161.056H85.484ZM86.576 156.17V155.274H89.054C89.6327 155.274 90.0573 155.12 90.328 154.812C90.608 154.495 90.748 154.093 90.748 153.608C90.748 153.113 90.608 152.712 90.328 152.404C90.0573 152.087 89.6327 151.928 89.054 151.928H86.576V150.724H88.816C89.936 150.724 90.7713 150.962 91.322 151.438C91.8727 151.905 92.148 152.581 92.148 153.468V153.664C92.148 154.289 92.008 154.789 91.728 155.162C91.448 155.526 91.056 155.787 90.552 155.946C90.0573 156.095 89.4787 156.17 88.816 156.17H86.576ZM95.1676 161V153.524H96.5116V161H95.1676ZM94.0196 154.588V153.524H96.5116V154.588H94.0196ZM95.5456 152.32C95.247 152.32 95.023 152.241 94.8736 152.082C94.7336 151.923 94.6636 151.723 94.6636 151.48C94.6636 151.237 94.7336 151.037 94.8736 150.878C95.023 150.719 95.247 150.64 95.5456 150.64C95.8443 150.64 96.0636 150.719 96.2036 150.878C96.353 151.037 96.4276 151.237 96.4276 151.48C96.4276 151.723 96.353 151.923 96.2036 152.082C96.0636 152.241 95.8443 152.32 95.5456 152.32ZM102.022 161.084C101.462 161.084 100.977 161.005 100.566 160.846C100.165 160.687 99.8523 160.417 99.6283 160.034C99.4136 159.642 99.3063 159.115 99.3063 158.452V151.256H100.594V158.62C100.594 159.021 100.702 159.334 100.916 159.558C101.14 159.773 101.453 159.88 101.854 159.88H103.17V161.084H102.022ZM98.0183 154.532V153.524H103.17V154.532H98.0183ZM108.223 161.252C107.579 161.252 107.019 161.14 106.543 160.916C106.076 160.692 105.689 160.393 105.381 160.02C105.073 159.637 104.839 159.217 104.681 158.76C104.531 158.303 104.457 157.845 104.457 157.388V157.136C104.457 156.66 104.531 156.193 104.681 155.736C104.839 155.279 105.073 154.868 105.381 154.504C105.698 154.131 106.09 153.832 106.557 153.608C107.023 153.384 107.569 153.272 108.195 153.272C108.82 153.272 109.38 153.389 109.875 153.622C110.379 153.855 110.78 154.187 111.079 154.616C111.387 155.036 111.559 155.535 111.597 156.114H110.309C110.243 155.647 110.029 155.26 109.665 154.952C109.301 154.635 108.811 154.476 108.195 154.476C107.663 154.476 107.219 154.597 106.865 154.84C106.51 155.083 106.244 155.414 106.067 155.834C105.889 156.254 105.801 156.73 105.801 157.262C105.801 157.775 105.889 158.247 106.067 158.676C106.244 159.096 106.51 159.432 106.865 159.684C107.229 159.927 107.681 160.048 108.223 160.048C108.643 160.048 109.007 159.973 109.315 159.824C109.623 159.675 109.87 159.474 110.057 159.222C110.243 158.97 110.355 158.685 110.393 158.368H111.681C111.653 158.956 111.48 159.465 111.163 159.894C110.855 160.323 110.444 160.659 109.931 160.902C109.427 161.135 108.857 161.252 108.223 161.252ZM116.951 161.252C116.297 161.252 115.723 161.14 115.229 160.916C114.734 160.692 114.314 160.398 113.969 160.034C113.633 159.661 113.376 159.245 113.199 158.788C113.031 158.331 112.947 157.864 112.947 157.388V157.136C112.947 156.66 113.035 156.193 113.213 155.736C113.39 155.269 113.651 154.854 113.997 154.49C114.342 154.117 114.762 153.823 115.257 153.608C115.751 153.384 116.316 153.272 116.951 153.272C117.585 153.272 118.15 153.384 118.645 153.608C119.139 153.823 119.559 154.117 119.905 154.49C120.25 154.854 120.511 155.269 120.689 155.736C120.866 156.193 120.955 156.66 120.955 157.136V157.388C120.955 157.864 120.866 158.331 120.689 158.788C120.521 159.245 120.264 159.661 119.919 160.034C119.583 160.398 119.167 160.692 118.673 160.916C118.178 161.14 117.604 161.252 116.951 161.252ZM116.951 160.048C117.511 160.048 117.987 159.927 118.379 159.684C118.78 159.432 119.083 159.096 119.289 158.676C119.503 158.256 119.611 157.785 119.611 157.262C119.611 156.73 119.503 156.254 119.289 155.834C119.074 155.414 118.766 155.083 118.365 154.84C117.973 154.597 117.501 154.476 116.951 154.476C116.409 154.476 115.938 154.597 115.537 154.84C115.135 155.083 114.827 155.414 114.613 155.834C114.398 156.254 114.291 156.73 114.291 157.262C114.291 157.785 114.393 158.256 114.599 158.676C114.813 159.096 115.117 159.432 115.509 159.684C115.91 159.927 116.391 160.048 116.951 160.048ZM123.332 161V153.524H124.676V161H123.332ZM122.184 154.588V153.524H124.676V154.588H122.184ZM123.71 152.32C123.411 152.32 123.187 152.241 123.038 152.082C122.898 151.923 122.828 151.723 122.828 151.48C122.828 151.237 122.898 151.037 123.038 150.878C123.187 150.719 123.411 150.64 123.71 150.64C124.008 150.64 124.228 150.719 124.368 150.878C124.517 151.037 124.592 151.237 124.592 151.48C124.592 151.723 124.517 151.923 124.368 152.082C124.228 152.241 124.008 152.32 123.71 152.32ZM127.274 161V153.524H128.338V156.73H128.17C128.17 155.993 128.268 155.372 128.464 154.868C128.67 154.355 128.978 153.967 129.388 153.706C129.799 153.435 130.317 153.3 130.942 153.3H130.998C131.941 153.3 132.636 153.594 133.084 154.182C133.542 154.77 133.77 155.619 133.77 156.73V161H132.426V156.45C132.426 155.871 132.263 155.409 131.936 155.064C131.61 154.709 131.162 154.532 130.592 154.532C130.004 154.532 129.528 154.714 129.164 155.078C128.8 155.442 128.618 155.927 128.618 156.534V161H127.274Z" fill="white"/>
<path d="M86.208 180.048V179.016H88.656C89.128 179.016 89.492 178.884 89.748 178.62C90.012 178.348 90.144 177.988 90.144 177.54C90.144 177.084 90.016 176.728 89.76 176.472C89.504 176.208 89.136 176.076 88.656 176.076H86.208V175.308H88.488C89.048 175.308 89.54 175.376 89.964 175.512C90.396 175.648 90.732 175.876 90.972 176.196C91.22 176.508 91.344 176.936 91.344 177.48V177.648C91.344 178.16 91.24 178.596 91.032 178.956C90.824 179.308 90.508 179.58 90.084 179.772C89.66 179.956 89.128 180.048 88.488 180.048H86.208ZM85.272 180.048V171.192H86.448V180.048H85.272ZM86.208 175.86V175.092H88.332C88.828 175.092 89.192 174.96 89.424 174.696C89.664 174.424 89.784 174.08 89.784 173.664C89.784 173.24 89.664 172.896 89.424 172.632C89.192 172.36 88.828 172.224 88.332 172.224H86.208V171.192H88.128C89.088 171.192 89.804 171.396 90.276 171.804C90.748 172.204 90.984 172.784 90.984 173.544V173.712C90.984 174.248 90.864 174.676 90.624 174.996C90.384 175.308 90.048 175.532 89.616 175.668C89.192 175.796 88.696 175.86 88.128 175.86H86.208ZM95.0282 180V172.056H96.2042V180H95.0282ZM92.3642 172.296V171.24H98.8682V172.296H92.3642ZM104.044 180.216C103.244 180.216 102.56 180.076 101.992 179.796C101.432 179.516 100.98 179.152 100.636 178.704C100.292 178.256 100.04 177.772 99.8797 177.252C99.7197 176.724 99.6397 176.216 99.6397 175.728V175.464C99.6397 174.936 99.7197 174.408 99.8797 173.88C100.048 173.352 100.304 172.872 100.648 172.44C100.992 172.008 101.44 171.66 101.992 171.396C102.544 171.132 103.204 171 103.972 171C104.756 171 105.428 171.136 105.988 171.408C106.548 171.68 106.992 172.06 107.32 172.548C107.648 173.036 107.848 173.612 107.92 174.276H106.72C106.656 173.78 106.496 173.372 106.24 173.052C105.984 172.724 105.66 172.48 105.268 172.32C104.884 172.16 104.452 172.08 103.972 172.08C103.452 172.08 102.996 172.172 102.604 172.356C102.212 172.532 101.884 172.784 101.62 173.112C101.364 173.432 101.168 173.804 101.032 174.228C100.904 174.652 100.84 175.112 100.84 175.608C100.84 176.08 100.904 176.528 101.032 176.952C101.168 177.376 101.368 177.752 101.632 178.08C101.904 178.408 102.24 178.668 102.64 178.86C103.04 179.044 103.508 179.136 104.044 179.136C104.796 179.136 105.428 178.948 105.94 178.572C106.452 178.196 106.764 177.652 106.876 176.94H108.076C107.996 177.54 107.792 178.088 107.464 178.584C107.144 179.08 106.696 179.476 106.12 179.772C105.552 180.068 104.86 180.216 104.044 180.216Z" fill="#DAF727"/>
<path d="M185.55 161C184.747 161 184.066 160.869 183.506 160.608C182.946 160.337 182.517 159.959 182.218 159.474C181.929 158.979 181.784 158.401 181.784 157.738H183.044C183.044 158.055 183.119 158.377 183.268 158.704C183.427 159.031 183.688 159.306 184.052 159.53C184.416 159.745 184.915 159.852 185.55 159.852C186.39 159.852 187.011 159.675 187.412 159.32C187.823 158.965 188.028 158.559 188.028 158.102C188.028 157.654 187.846 157.281 187.482 156.982C187.118 156.683 186.591 156.501 185.9 156.436L184.976 156.352C184.08 156.268 183.366 155.997 182.834 155.54C182.302 155.083 182.036 154.429 182.036 153.58C182.036 152.992 182.176 152.493 182.456 152.082C182.745 151.662 183.147 151.34 183.66 151.116C184.183 150.892 184.794 150.78 185.494 150.78C186.194 150.78 186.796 150.906 187.3 151.158C187.813 151.401 188.21 151.76 188.49 152.236C188.77 152.703 188.91 153.267 188.91 153.93H187.65C187.65 153.594 187.575 153.277 187.426 152.978C187.277 152.67 187.043 152.418 186.726 152.222C186.418 152.026 186.007 151.928 185.494 151.928C185.037 151.928 184.645 152.003 184.318 152.152C184.001 152.292 183.753 152.488 183.576 152.74C183.408 152.992 183.324 153.272 183.324 153.58C183.324 153.981 183.469 154.331 183.758 154.63C184.047 154.919 184.491 155.092 185.088 155.148L186.012 155.232C187.011 155.325 187.809 155.619 188.406 156.114C189.013 156.599 189.316 157.262 189.316 158.102C189.316 158.681 189.162 159.189 188.854 159.628C188.546 160.057 188.112 160.393 187.552 160.636C186.992 160.879 186.325 161 185.55 161ZM184.948 162.806V160.762H186.152V162.806H184.948ZM184.892 151.466V149.422H186.096V151.466H184.892ZM192.989 161V151.452L193.605 151.928H190.721V150.78H194.333V161H192.989ZM197.454 163.198L196.376 162.792L197.678 159.18L198.784 159.6L197.454 163.198ZM200.74 161V159.32C200.74 158.909 200.796 158.559 200.908 158.27C201.029 157.981 201.234 157.719 201.524 157.486C201.813 157.243 202.205 157.01 202.7 156.786L204.618 155.904C205.084 155.689 205.453 155.414 205.724 155.078C205.994 154.733 206.13 154.289 206.13 153.748C206.13 153.095 205.948 152.586 205.584 152.222C205.22 151.858 204.706 151.676 204.044 151.676C203.39 151.676 202.877 151.858 202.504 152.222C202.13 152.586 201.944 153.095 201.944 153.748H200.628C200.628 153.16 200.749 152.619 200.992 152.124C201.244 151.629 201.622 151.237 202.126 150.948C202.63 150.649 203.269 150.5 204.044 150.5C204.818 150.5 205.453 150.649 205.948 150.948C206.452 151.237 206.825 151.62 207.068 152.096C207.32 152.572 207.446 153.09 207.446 153.65V153.846C207.446 154.583 207.231 155.204 206.802 155.708C206.382 156.212 205.812 156.627 205.094 156.954L203.176 157.836C202.746 158.032 202.457 158.228 202.308 158.424C202.158 158.62 202.084 158.881 202.084 159.208V160.496L201.72 159.852H207.572V161H200.74ZM212.516 161.252C211.751 161.252 211.102 161.103 210.57 160.804C210.038 160.505 209.632 160.109 209.352 159.614C209.081 159.119 208.946 158.583 208.946 158.004H210.262C210.262 158.639 210.463 159.143 210.864 159.516C211.275 159.889 211.825 160.076 212.516 160.076C212.973 160.076 213.37 159.992 213.706 159.824C214.042 159.656 214.303 159.418 214.49 159.11C214.677 158.793 214.77 158.424 214.77 158.004C214.77 157.369 214.565 156.856 214.154 156.464C213.753 156.072 213.211 155.876 212.53 155.876C212.241 155.876 211.989 155.913 211.774 155.988C211.569 156.053 211.387 156.137 211.228 156.24L210.556 155.036L214.462 152.18L214.322 151.928H209.352V150.78H215.582V152.642L212.348 154.994L211.368 155.036C211.527 154.98 211.699 154.933 211.886 154.896C212.082 154.859 212.311 154.84 212.572 154.84C213.319 154.84 213.953 154.98 214.476 155.26C214.999 155.54 215.395 155.913 215.666 156.38C215.946 156.847 216.086 157.355 216.086 157.906V158.102C216.086 158.643 215.946 159.157 215.666 159.642C215.395 160.118 214.994 160.505 214.462 160.804C213.939 161.103 213.291 161.252 212.516 161.252ZM221.816 161.28C221.069 161.28 220.444 161.149 219.94 160.888C219.445 160.627 219.048 160.272 218.75 159.824C218.46 159.367 218.25 158.844 218.12 158.256C217.998 157.668 217.938 157.052 217.938 156.408V155.736C217.938 154.121 218.339 152.88 219.142 152.012C219.944 151.135 221.106 150.696 222.628 150.696C222.992 150.696 223.3 150.705 223.552 150.724C223.804 150.743 224.079 150.771 224.378 150.808V151.956C224.07 151.919 223.785 151.891 223.524 151.872C223.262 151.853 222.945 151.844 222.572 151.844C221.722 151.844 221.05 152.003 220.556 152.32C220.061 152.637 219.706 153.095 219.492 153.692C219.277 154.28 219.17 154.994 219.17 155.834V156.464L218.834 157.71C218.843 156.973 218.983 156.361 219.254 155.876C219.534 155.391 219.912 155.027 220.388 154.784C220.873 154.541 221.428 154.42 222.054 154.42C222.782 154.42 223.398 154.569 223.902 154.868C224.406 155.157 224.784 155.559 225.036 156.072C225.297 156.585 225.428 157.169 225.428 157.822C225.428 158.485 225.292 159.077 225.022 159.6C224.751 160.123 224.345 160.533 223.804 160.832C223.272 161.131 222.609 161.28 221.816 161.28ZM221.816 160.104C222.329 160.104 222.758 160.006 223.104 159.81C223.449 159.614 223.706 159.348 223.874 159.012C224.051 158.667 224.14 158.27 224.14 157.822C224.14 157.374 224.056 156.977 223.888 156.632C223.72 156.287 223.468 156.021 223.132 155.834C222.805 155.638 222.399 155.54 221.914 155.54C221.438 155.54 221.008 155.629 220.626 155.806C220.252 155.983 219.958 156.245 219.744 156.59C219.529 156.926 219.422 157.341 219.422 157.836C219.422 158.247 219.506 158.625 219.674 158.97C219.842 159.315 220.103 159.591 220.458 159.796C220.812 160.001 221.265 160.104 221.816 160.104ZM227.18 161V159.292H228.804V161H227.18ZM230.886 161V159.32C230.886 158.909 230.942 158.559 231.054 158.27C231.176 157.981 231.381 157.719 231.67 157.486C231.96 157.243 232.352 157.01 232.846 156.786L234.764 155.904C235.231 155.689 235.6 155.414 235.87 155.078C236.141 154.733 236.276 154.289 236.276 153.748C236.276 153.095 236.094 152.586 235.73 152.222C235.366 151.858 234.853 151.676 234.19 151.676C233.537 151.676 233.024 151.858 232.65 152.222C232.277 152.586 232.09 153.095 232.09 153.748H230.774C230.774 153.16 230.896 152.619 231.138 152.124C231.39 151.629 231.768 151.237 232.272 150.948C232.776 150.649 233.416 150.5 234.19 150.5C234.965 150.5 235.6 150.649 236.094 150.948C236.598 151.237 236.972 151.62 237.214 152.096C237.466 152.572 237.592 153.09 237.592 153.65V153.846C237.592 154.583 237.378 155.204 236.948 155.708C236.528 156.212 235.959 156.627 235.24 156.954L233.322 157.836C232.893 158.032 232.604 158.228 232.454 158.424C232.305 158.62 232.23 158.881 232.23 159.208V160.496L231.866 159.852H237.718V161H230.886ZM241.333 161V151.452L241.949 151.928H239.065V150.78H242.677V161H241.333Z" fill="white"/>
<rect x="181" y="175" width="74" height="6" rx="2" fill="#DAF727"/>
<rect x="324.5" y="154.5" width="59" height="23" rx="11.5" fill="#ECFDF7"/>
<rect x="324.5" y="154.5" width="59" height="23" rx="11.5" stroke="#DAFBEF"/>
<g clip-path="url(#clip4_407_10342)">
<path d="M339 167.5L336 164.5L333 167.5H339Z" fill="#11CF8B" stroke="#11CF8B" stroke-width="1.5" stroke-linecap="round" stroke-linejoin="round"/>
</g>
<path d="M348.448 162V153.816L348.976 154.224H346.504V153.24H349.6V162H348.448ZM351.975 162V160.536H353.367V162H351.975ZM357.888 162.216C357.232 162.216 356.676 162.088 356.22 161.832C355.764 161.576 355.416 161.236 355.176 160.812C354.944 160.388 354.828 159.928 354.828 159.432H355.956C355.956 159.976 356.128 160.408 356.472 160.728C356.824 161.048 357.296 161.208 357.888 161.208C358.28 161.208 358.62 161.136 358.908 160.992C359.196 160.848 359.42 160.644 359.58 160.38C359.74 160.108 359.82 159.792 359.82 159.432C359.82 158.888 359.644 158.448 359.292 158.112C358.948 157.776 358.484 157.608 357.9 157.608C357.652 157.608 357.436 157.64 357.252 157.704C357.076 157.76 356.92 157.832 356.784 157.92L356.208 156.888L359.556 154.44L359.436 154.224H355.176V153.24H360.516V154.836L357.744 156.852L356.904 156.888C357.04 156.84 357.188 156.8 357.348 156.768C357.516 156.736 357.712 156.72 357.936 156.72C358.576 156.72 359.12 156.84 359.568 157.08C360.016 157.32 360.356 157.64 360.588 158.04C360.828 158.44 360.948 158.876 360.948 159.348V159.516C360.948 159.98 360.828 160.42 360.588 160.836C360.356 161.244 360.012 161.576 359.556 161.832C359.108 162.088 358.552 162.216 357.888 162.216ZM363.459 162L367.167 154.332L367.095 154.224H362.307V153.24H368.187V154.632L364.659 162H363.459ZM362.307 155.616V153.24H363.267V155.616H362.307ZM349.012 178L352.324 169.24H353.236L349.924 178H349.012ZM348.364 173.944C347.908 173.944 347.536 173.84 347.248 173.632C346.968 173.424 346.76 173.148 346.624 172.804C346.496 172.46 346.432 172.088 346.432 171.688V171.376C346.432 170.944 346.5 170.56 346.636 170.224C346.772 169.88 346.984 169.612 347.272 169.42C347.56 169.22 347.924 169.12 348.364 169.12C348.812 169.12 349.176 169.22 349.456 169.42C349.744 169.612 349.956 169.88 350.092 170.224C350.228 170.56 350.296 170.944 350.296 171.376V171.688C350.296 172.088 350.228 172.46 350.092 172.804C349.964 173.148 349.76 173.424 349.48 173.632C349.2 173.84 348.828 173.944 348.364 173.944ZM348.364 173.152C348.732 173.152 349.004 173.02 349.18 172.756C349.364 172.484 349.456 172.08 349.456 171.544C349.456 170.976 349.364 170.564 349.18 170.308C348.996 170.044 348.724 169.912 348.364 169.912C348.004 169.912 347.732 170.044 347.548 170.308C347.364 170.564 347.272 170.972 347.272 171.532C347.272 172.068 347.36 172.472 347.536 172.744C347.72 173.016 347.996 173.152 348.364 173.152ZM353.836 178.12C353.38 178.12 353.008 178.016 352.72 177.808C352.44 177.6 352.232 177.324 352.096 176.98C351.968 176.636 351.904 176.264 351.904 175.864V175.552C351.904 175.12 351.972 174.736 352.108 174.4C352.244 174.056 352.456 173.788 352.744 173.596C353.032 173.396 353.396 173.296 353.836 173.296C354.284 173.296 354.648 173.396 354.928 173.596C355.216 173.788 355.428 174.056 355.564 174.4C355.7 174.736 355.768 175.12 355.768 175.552V175.864C355.768 176.264 355.7 176.636 355.564 176.98C355.436 177.324 355.232 177.6 354.952 177.808C354.672 178.016 354.3 178.12 353.836 178.12ZM353.836 177.328C354.204 177.328 354.476 177.196 354.652 176.932C354.836 176.66 354.928 176.256 354.928 175.72C354.928 175.152 354.836 174.74 354.652 174.484C354.468 174.22 354.196 174.088 353.836 174.088C353.476 174.088 353.204 174.22 353.02 174.484C352.836 174.74 352.744 175.148 352.744 175.708C352.744 176.244 352.832 176.648 353.008 176.92C353.192 177.192 353.468 177.328 353.836 177.328Z" fill="#11CF8B"/>
<line opacity="0.2" x1="32" y1="201.5" x2="268" y2="201.5" stroke="#D6D1FA"/>
<g clip-path="url(#clip5_407_10342)">
<path d="M52 258C63.0457 258 72 249.046 72 238C72 226.954 63.0457 218 52 218C40.9543 218 32 226.954 32 238C32 249.046 40.9543 258 52 258Z" fill="#767DFF"/>
<path fill-rule="evenodd" clip-rule="evenodd" d="M49.212 226.125H54.787C54.9802 226.125 55.1699 226.176 55.3367 226.274C55.5034 226.371 55.6412 226.512 55.7358 226.68L64.3683 242.079C64.4592 242.241 64.5069 242.424 64.5069 242.61C64.5069 242.796 64.4592 242.979 64.3683 243.141L61.6058 248.069C61.5114 248.237 61.374 248.378 61.2074 248.475C61.0409 248.573 60.8514 248.625 60.6583 248.625H43.3408C43.1475 248.625 42.9577 248.573 42.7909 248.476C42.6241 248.378 42.4865 248.237 42.392 248.069L39.6308 243.141C39.5399 242.979 39.4922 242.796 39.4922 242.61C39.4922 242.424 39.5399 242.241 39.6308 242.079L48.2633 226.68C48.3579 226.512 48.4956 226.371 48.6624 226.274C48.8291 226.176 49.0188 226.125 49.212 226.125ZM51.9995 232.251L46.1833 242.61H57.8158L51.9995 232.251Z" fill="white"/>
</g>
<path d="M84.392 233L88.074 222.78H90.398L94.192 233H92.778L89.348 223.676L90.02 224.012H88.368L89.082 223.676L85.764 233H84.392ZM86.59 229.948L87.052 228.716H91.462L91.924 229.948H86.59ZM98.994 233.252C98.35 233.252 97.79 233.14 97.314 232.916C96.8473 232.692 96.46 232.393 96.152 232.02C95.844 231.637 95.6107 231.217 95.452 230.76C95.3027 230.303 95.228 229.845 95.228 229.388V229.136C95.228 228.66 95.3027 228.193 95.452 227.736C95.6107 227.279 95.844 226.868 96.152 226.504C96.4693 226.131 96.8613 225.832 97.328 225.608C97.7947 225.384 98.3407 225.272 98.966 225.272C99.5913 225.272 100.151 225.389 100.646 225.622C101.15 225.855 101.551 226.187 101.85 226.616C102.158 227.036 102.331 227.535 102.368 228.114H101.08C101.015 227.647 100.8 227.26 100.436 226.952C100.072 226.635 99.582 226.476 98.966 226.476C98.434 226.476 97.9907 226.597 97.636 226.84C97.2813 227.083 97.0153 227.414 96.838 227.834C96.6607 228.254 96.572 228.73 96.572 229.262C96.572 229.775 96.6607 230.247 96.838 230.676C97.0153 231.096 97.2813 231.432 97.636 231.684C98 231.927 98.4527 232.048 98.994 232.048C99.414 232.048 99.778 231.973 100.086 231.824C100.394 231.675 100.641 231.474 100.828 231.222C101.015 230.97 101.127 230.685 101.164 230.368H102.452C102.424 230.956 102.251 231.465 101.934 231.894C101.626 232.323 101.215 232.659 100.702 232.902C100.198 233.135 99.6287 233.252 98.994 233.252ZM104.278 233V222.78H105.622V228.884H105.286C105.286 228.147 105.38 227.512 105.566 226.98C105.762 226.439 106.061 226.023 106.462 225.734C106.864 225.445 107.377 225.3 108.002 225.3H108.058C108.954 225.3 109.631 225.599 110.088 226.196C110.546 226.784 110.774 227.629 110.774 228.73V233H109.43V228.45C109.43 227.843 109.258 227.372 108.912 227.036C108.576 226.7 108.138 226.532 107.596 226.532C106.999 226.532 106.518 226.733 106.154 227.134C105.8 227.526 105.622 228.044 105.622 228.688V233H104.278ZM117.755 233V230.76H117.531V228.17C117.531 227.657 117.396 227.269 117.125 227.008C116.864 226.747 116.477 226.616 115.963 226.616C115.674 226.616 115.375 226.621 115.067 226.63C114.759 226.639 114.465 226.649 114.185 226.658C113.905 226.667 113.663 226.681 113.457 226.7V225.524C113.663 225.505 113.877 225.491 114.101 225.482C114.335 225.463 114.573 225.454 114.815 225.454C115.058 225.445 115.291 225.44 115.515 225.44C116.281 225.44 116.906 225.533 117.391 225.72C117.877 225.897 118.236 226.191 118.469 226.602C118.703 227.013 118.819 227.568 118.819 228.268V233H117.755ZM115.305 233.196C114.745 233.196 114.26 233.103 113.849 232.916C113.448 232.72 113.135 232.44 112.911 232.076C112.697 231.712 112.589 231.273 112.589 230.76C112.589 230.228 112.706 229.785 112.939 229.43C113.182 229.075 113.532 228.809 113.989 228.632C114.447 228.445 114.997 228.352 115.641 228.352H117.671V229.36H115.585C115.044 229.36 114.629 229.491 114.339 229.752C114.05 230.013 113.905 230.349 113.905 230.76C113.905 231.171 114.05 231.502 114.339 231.754C114.629 232.006 115.044 232.132 115.585 232.132C115.903 232.132 116.206 232.076 116.495 231.964C116.785 231.843 117.023 231.647 117.209 231.376C117.405 231.096 117.513 230.713 117.531 230.228L117.895 230.76C117.849 231.292 117.718 231.74 117.503 232.104C117.298 232.459 117.009 232.729 116.635 232.916C116.271 233.103 115.828 233.196 115.305 233.196ZM121.65 233V225.524H122.994V233H121.65ZM120.502 226.588V225.524H122.994V226.588H120.502ZM122.028 224.32C121.729 224.32 121.505 224.241 121.356 224.082C121.216 223.923 121.146 223.723 121.146 223.48C121.146 223.237 121.216 223.037 121.356 222.878C121.505 222.719 121.729 222.64 122.028 222.64C122.327 222.64 122.546 222.719 122.686 222.878C122.835 223.037 122.91 223.237 122.91 223.48C122.91 223.723 122.835 223.923 122.686 224.082C122.546 224.241 122.327 224.32 122.028 224.32ZM125.593 233V225.524H126.657V228.73H126.489C126.489 227.993 126.587 227.372 126.783 226.868C126.988 226.355 127.296 225.967 127.707 225.706C128.117 225.435 128.635 225.3 129.261 225.3H129.317C130.259 225.3 130.955 225.594 131.403 226.182C131.86 226.77 132.089 227.619 132.089 228.73V233H130.745V228.45C130.745 227.871 130.581 227.409 130.255 227.064C129.928 226.709 129.48 226.532 128.911 226.532C128.323 226.532 127.847 226.714 127.483 227.078C127.119 227.442 126.937 227.927 126.937 228.534V233H125.593Z" fill="white"/>
<path d="M84.336 254L87.492 245.24H89.484L92.736 254H91.524L88.584 246.008L89.16 246.296H87.744L88.356 246.008L85.512 254H84.336ZM86.22 251.384L86.616 250.328H90.396L90.792 251.384H86.22ZM97.9251 254.216C97.1251 254.216 96.4411 254.076 95.8731 253.796C95.3131 253.516 94.8611 253.152 94.5171 252.704C94.1731 252.256 93.9211 251.772 93.7611 251.252C93.6011 250.724 93.5211 250.216 93.5211 249.728V249.464C93.5211 248.936 93.6011 248.408 93.7611 247.88C93.9291 247.352 94.1851 246.872 94.5291 246.44C94.8731 246.008 95.3211 245.66 95.8731 245.396C96.4251 245.132 97.0851 245 97.8531 245C98.6371 245 99.3091 245.136 99.8691 245.408C100.429 245.68 100.873 246.06 101.201 246.548C101.529 247.036 101.729 247.612 101.801 248.276H100.601C100.537 247.78 100.377 247.372 100.121 247.052C99.8651 246.724 99.5411 246.48 99.1491 246.32C98.7651 246.16 98.3331 246.08 97.8531 246.08C97.3331 246.08 96.8771 246.172 96.4851 246.356C96.0931 246.532 95.7651 246.784 95.5011 247.112C95.2451 247.432 95.0491 247.804 94.9131 248.228C94.7851 248.652 94.7211 249.112 94.7211 249.608C94.7211 250.08 94.7851 250.528 94.9131 250.952C95.0491 251.376 95.2491 251.752 95.5131 252.08C95.7851 252.408 96.1211 252.668 96.5211 252.86C96.9211 253.044 97.3891 253.136 97.9251 253.136C98.6771 253.136 99.3091 252.948 99.8211 252.572C100.333 252.196 100.645 251.652 100.757 250.94H101.957C101.877 251.54 101.673 252.088 101.345 252.584C101.025 253.08 100.577 253.476 100.001 253.772C99.4331 254.068 98.7411 254.216 97.9251 254.216ZM103.72 254V245.24H105.64L110.092 252.944H110.476L110.236 253.16V245.24H111.364V254H109.42L104.968 246.296H104.584L104.824 246.08V254H103.72Z" fill="#DAF727"/>
<path d="M185.55 233C184.747 233 184.066 232.869 183.506 232.608C182.946 232.337 182.517 231.959 182.218 231.474C181.929 230.979 181.784 230.401 181.784 229.738H183.044C183.044 230.055 183.119 230.377 183.268 230.704C183.427 231.031 183.688 231.306 184.052 231.53C184.416 231.745 184.915 231.852 185.55 231.852C186.39 231.852 187.011 231.675 187.412 231.32C187.823 230.965 188.028 230.559 188.028 230.102C188.028 229.654 187.846 229.281 187.482 228.982C187.118 228.683 186.591 228.501 185.9 228.436L184.976 228.352C184.08 228.268 183.366 227.997 182.834 227.54C182.302 227.083 182.036 226.429 182.036 225.58C182.036 224.992 182.176 224.493 182.456 224.082C182.745 223.662 183.147 223.34 183.66 223.116C184.183 222.892 184.794 222.78 185.494 222.78C186.194 222.78 186.796 222.906 187.3 223.158C187.813 223.401 188.21 223.76 188.49 224.236C188.77 224.703 188.91 225.267 188.91 225.93H187.65C187.65 225.594 187.575 225.277 187.426 224.978C187.277 224.67 187.043 224.418 186.726 224.222C186.418 224.026 186.007 223.928 185.494 223.928C185.037 223.928 184.645 224.003 184.318 224.152C184.001 224.292 183.753 224.488 183.576 224.74C183.408 224.992 183.324 225.272 183.324 225.58C183.324 225.981 183.469 226.331 183.758 226.63C184.047 226.919 184.491 227.092 185.088 227.148L186.012 227.232C187.011 227.325 187.809 227.619 188.406 228.114C189.013 228.599 189.316 229.262 189.316 230.102C189.316 230.681 189.162 231.189 188.854 231.628C188.546 232.057 188.112 232.393 187.552 232.636C186.992 232.879 186.325 233 185.55 233ZM184.948 234.806V232.762H186.152V234.806H184.948ZM184.892 223.466V221.422H186.096V223.466H184.892ZM192.989 233V223.452L193.605 223.928H190.721V222.78H194.333V233H192.989ZM200.898 233.28C200.151 233.28 199.526 233.149 199.022 232.888C198.527 232.627 198.13 232.272 197.832 231.824C197.542 231.367 197.332 230.844 197.202 230.256C197.08 229.668 197.02 229.052 197.02 228.408V227.736C197.02 226.121 197.421 224.88 198.224 224.012C199.026 223.135 200.188 222.696 201.71 222.696C202.074 222.696 202.382 222.705 202.634 222.724C202.886 222.743 203.161 222.771 203.46 222.808V223.956C203.152 223.919 202.867 223.891 202.606 223.872C202.344 223.853 202.027 223.844 201.654 223.844C200.804 223.844 200.132 224.003 199.638 224.32C199.143 224.637 198.788 225.095 198.574 225.692C198.359 226.28 198.252 226.994 198.252 227.834V228.464L197.916 229.71C197.925 228.973 198.065 228.361 198.336 227.876C198.616 227.391 198.994 227.027 199.47 226.784C199.955 226.541 200.51 226.42 201.136 226.42C201.864 226.42 202.48 226.569 202.984 226.868C203.488 227.157 203.866 227.559 204.118 228.072C204.379 228.585 204.51 229.169 204.51 229.822C204.51 230.485 204.374 231.077 204.104 231.6C203.833 232.123 203.427 232.533 202.886 232.832C202.354 233.131 201.691 233.28 200.898 233.28ZM200.898 232.104C201.411 232.104 201.84 232.006 202.186 231.81C202.531 231.614 202.788 231.348 202.956 231.012C203.133 230.667 203.222 230.27 203.222 229.822C203.222 229.374 203.138 228.977 202.97 228.632C202.802 228.287 202.55 228.021 202.214 227.834C201.887 227.638 201.481 227.54 200.996 227.54C200.52 227.54 200.09 227.629 199.708 227.806C199.334 227.983 199.04 228.245 198.826 228.59C198.611 228.926 198.504 229.341 198.504 229.836C198.504 230.247 198.588 230.625 198.756 230.97C198.924 231.315 199.185 231.591 199.54 231.796C199.894 232.001 200.347 232.104 200.898 232.104ZM209.664 233.252C208.88 233.252 208.218 233.093 207.676 232.776C207.135 232.449 206.724 232.025 206.444 231.502C206.164 230.979 206.024 230.424 206.024 229.836H207.34C207.34 230.265 207.434 230.648 207.62 230.984C207.816 231.32 208.087 231.586 208.432 231.782C208.778 231.978 209.188 232.076 209.664 232.076C210.131 232.076 210.537 231.983 210.882 231.796C211.237 231.6 211.512 231.334 211.708 230.998C211.904 230.653 212.002 230.265 212.002 229.836C212.002 229.407 211.904 229.019 211.708 228.674C211.522 228.329 211.251 228.053 210.896 227.848C210.551 227.643 210.14 227.54 209.664 227.54C209.319 227.54 208.969 227.601 208.614 227.722C208.26 227.834 207.975 227.997 207.76 228.212H206.528L207.046 222.78H212.408V223.928H207.83L208.166 223.466L207.774 227.428L207.41 227.302C207.681 227.031 208.008 226.817 208.39 226.658C208.782 226.499 209.226 226.42 209.72 226.42C210.504 226.42 211.162 226.583 211.694 226.91C212.226 227.227 212.628 227.643 212.898 228.156C213.178 228.66 213.318 229.187 213.318 229.738V229.934C213.318 230.485 213.178 231.017 212.898 231.53C212.618 232.034 212.203 232.449 211.652 232.776C211.111 233.093 210.448 233.252 209.664 233.252ZM215.405 235.198L214.327 234.792L215.629 231.18L216.735 231.6L215.405 235.198ZM222.079 233.252C221.351 233.252 220.702 233.121 220.133 232.86C219.573 232.599 219.13 232.235 218.803 231.768C218.486 231.301 218.327 230.76 218.327 230.144C218.327 229.733 218.406 229.365 218.565 229.038C218.724 228.702 218.943 228.413 219.223 228.17C219.503 227.927 219.82 227.741 220.175 227.61V227.47C219.895 227.349 219.638 227.185 219.405 226.98C219.181 226.775 218.999 226.532 218.859 226.252C218.728 225.972 218.663 225.655 218.663 225.3C218.663 224.712 218.817 224.213 219.125 223.802C219.442 223.391 219.858 223.079 220.371 222.864C220.894 222.64 221.463 222.528 222.079 222.528C222.704 222.528 223.274 222.64 223.787 222.864C224.31 223.079 224.725 223.391 225.033 223.802C225.341 224.213 225.495 224.712 225.495 225.3C225.495 225.655 225.43 225.972 225.299 226.252C225.168 226.532 224.986 226.775 224.753 226.98C224.529 227.185 224.272 227.349 223.983 227.47V227.61C224.347 227.741 224.669 227.932 224.949 228.184C225.229 228.427 225.448 228.716 225.607 229.052C225.766 229.379 225.845 229.743 225.845 230.144C225.845 230.76 225.682 231.301 225.355 231.768C225.038 232.235 224.594 232.599 224.025 232.86C223.465 233.121 222.816 233.252 222.079 233.252ZM222.079 232.104C222.592 232.104 223.031 232.025 223.395 231.866C223.759 231.698 224.039 231.465 224.235 231.166C224.431 230.858 224.529 230.499 224.529 230.088C224.529 229.677 224.431 229.323 224.235 229.024C224.048 228.725 223.773 228.497 223.409 228.338C223.045 228.17 222.602 228.086 222.079 228.086C221.566 228.086 221.127 228.17 220.763 228.338C220.399 228.497 220.119 228.725 219.923 229.024C219.736 229.323 219.643 229.677 219.643 230.088C219.643 230.499 219.736 230.858 219.923 231.166C220.119 231.465 220.399 231.698 220.763 231.866C221.127 232.025 221.566 232.104 222.079 232.104ZM222.079 227.022C222.714 227.022 223.222 226.887 223.605 226.616C223.988 226.336 224.179 225.911 224.179 225.342C224.179 224.763 223.983 224.343 223.591 224.082C223.208 223.811 222.704 223.676 222.079 223.676C221.454 223.676 220.945 223.811 220.553 224.082C220.17 224.353 219.979 224.773 219.979 225.342C219.979 225.911 220.17 226.336 220.553 226.616C220.945 226.887 221.454 227.022 222.079 227.022Z" fill="white"/>
<rect x="181" y="242" width="50" height="6" rx="2" fill="#DAF727"/>
<rect x="324.5" y="226.5" width="59" height="23" rx="11.5" fill="#ECFDF7"/>
<rect x="324.5" y="226.5" width="59" height="23" rx="11.5" stroke="#DAFBEF"/>
<g clip-path="url(#clip6_407_10342)">
<path d="M339 239.5L336 236.5L333 239.5H339Z" fill="#11CF8B" stroke="#11CF8B" stroke-width="1.5" stroke-linecap="round" stroke-linejoin="round"/>
</g>
<path d="M348.448 234V225.816L348.976 226.224H346.504V225.24H349.6V234H348.448ZM351.975 234V232.536H353.367V234H351.975ZM357.888 234.216C357.232 234.216 356.676 234.088 356.22 233.832C355.764 233.576 355.416 233.236 355.176 232.812C354.944 232.388 354.828 231.928 354.828 231.432H355.956C355.956 231.976 356.128 232.408 356.472 232.728C356.824 233.048 357.296 233.208 357.888 233.208C358.28 233.208 358.62 233.136 358.908 232.992C359.196 232.848 359.42 232.644 359.58 232.38C359.74 232.108 359.82 231.792 359.82 231.432C359.82 230.888 359.644 230.448 359.292 230.112C358.948 229.776 358.484 229.608 357.9 229.608C357.652 229.608 357.436 229.64 357.252 229.704C357.076 229.76 356.92 229.832 356.784 229.92L356.208 228.888L359.556 226.44L359.436 226.224H355.176V225.24H360.516V226.836L357.744 228.852L356.904 228.888C357.04 228.84 357.188 228.8 357.348 228.768C357.516 228.736 357.712 228.72 357.936 228.72C358.576 228.72 359.12 228.84 359.568 229.08C360.016 229.32 360.356 229.64 360.588 230.04C360.828 230.44 360.948 230.876 360.948 231.348V231.516C360.948 231.98 360.828 232.42 360.588 232.836C360.356 233.244 360.012 233.576 359.556 233.832C359.108 234.088 358.552 234.216 357.888 234.216ZM363.459 234L367.167 226.332L367.095 226.224H362.307V225.24H368.187V226.632L364.659 234H363.459ZM362.307 227.616V225.24H363.267V227.616H362.307ZM349.012 250L352.324 241.24H353.236L349.924 250H349.012ZM348.364 245.944C347.908 245.944 347.536 245.84 347.248 245.632C346.968 245.424 346.76 245.148 346.624 244.804C346.496 244.46 346.432 244.088 346.432 243.688V243.376C346.432 242.944 346.5 242.56 346.636 242.224C346.772 241.88 346.984 241.612 347.272 241.42C347.56 241.22 347.924 241.12 348.364 241.12C348.812 241.12 349.176 241.22 349.456 241.42C349.744 241.612 349.956 241.88 350.092 242.224C350.228 242.56 350.296 242.944 350.296 243.376V243.688C350.296 244.088 350.228 244.46 350.092 244.804C349.964 245.148 349.76 245.424 349.48 245.632C349.2 245.84 348.828 245.944 348.364 245.944ZM348.364 245.152C348.732 245.152 349.004 245.02 349.18 244.756C349.364 244.484 349.456 244.08 349.456 243.544C349.456 242.976 349.364 242.564 349.18 242.308C348.996 242.044 348.724 241.912 348.364 241.912C348.004 241.912 347.732 242.044 347.548 242.308C347.364 242.564 347.272 242.972 347.272 243.532C347.272 244.068 347.36 244.472 347.536 244.744C347.72 245.016 347.996 245.152 348.364 245.152ZM353.836 250.12C353.38 250.12 353.008 250.016 352.72 249.808C352.44 249.6 352.232 249.324 352.096 248.98C351.968 248.636 351.904 248.264 351.904 247.864V247.552C351.904 247.12 351.972 246.736 352.108 246.4C352.244 246.056 352.456 245.788 352.744 245.596C353.032 245.396 353.396 245.296 353.836 245.296C354.284 245.296 354.648 245.396 354.928 245.596C355.216 245.788 355.428 246.056 355.564 246.4C355.7 246.736 355.768 247.12 355.768 247.552V247.864C355.768 248.264 355.7 248.636 355.564 248.98C355.436 249.324 355.232 249.6 354.952 249.808C354.672 250.016 354.3 250.12 353.836 250.12ZM353.836 249.328C354.204 249.328 354.476 249.196 354.652 248.932C354.836 248.66 354.928 248.256 354.928 247.72C354.928 247.152 354.836 246.74 354.652 246.484C354.468 246.22 354.196 246.088 353.836 246.088C353.476 246.088 353.204 246.22 353.02 246.484C352.836 246.74 352.744 247.148 352.744 247.708C352.744 248.244 352.832 248.648 353.008 248.92C353.192 249.192 353.468 249.328 353.836 249.328Z" fill="#11CF8B"/>
</g>
<defs>
<filter id="filter0_f_407_10342" x="-341.293" y="-31.0054" width="870.445" height="950.652" filterUnits="userSpaceOnUse" color-interpolation-filters="sRGB">
<feFlood flood-opacity="0" result="BackgroundImageFix"/>
<feBlend mode="normal" in="SourceGraphic" in2="BackgroundImageFix" result="shape"/>
<feGaussianBlur stdDeviation="50" result="effect1_foregroundBlur_407_10342"/>
</filter>
<filter id="filter1_b_407_10342" x="227.63" y="-211.942" width="351.018" height="460.63" filterUnits="userSpaceOnUse" color-interpolation-filters="sRGB">
<feFlood flood-opacity="0" result="BackgroundImageFix"/>
<feGaussianBlur in="BackgroundImageFix" stdDeviation="50"/>
<feComposite in2="SourceAlpha" operator="in" result="effect1_backgroundBlur_407_10342"/>
<feBlend mode="normal" in="SourceGraphic" in2="effect1_backgroundBlur_407_10342" result="shape"/>
</filter>
<filter id="filter2_b_407_10342" x="246.198" y="-222.662" width="351.018" height="460.629" filterUnits="userSpaceOnUse" color-interpolation-filters="sRGB">
<feFlood flood-opacity="0" result="BackgroundImageFix"/>
<feGaussianBlur in="BackgroundImageFix" stdDeviation="50"/>
<feComposite in2="SourceAlpha" operator="in" result="effect1_backgroundBlur_407_10342"/>
<feBlend mode="normal" in="SourceGraphic" in2="effect1_backgroundBlur_407_10342" result="shape"/>
</filter>
<linearGradient id="paint0_linear_407_10342" x1="339.014" y1="744.994" x2="-127.818" y2="205.879" gradientUnits="userSpaceOnUse">
<stop stop-color="white"/>
<stop offset="1" stop-color="white" stop-opacity="0"/>
</linearGradient>
<linearGradient id="paint1_linear_407_10342" x1="403.172" y1="18.2857" x2="333.542" y2="58.487" gradientUnits="userSpaceOnUse">
<stop stop-color="white" stop-opacity="0.2"/>
<stop offset="1" stop-color="white"/>
</linearGradient>
<linearGradient id="paint2_linear_407_10342" x1="405" y1="102" x2="336" y2="57.9999" gradientUnits="userSpaceOnUse">
<stop stop-color="white" stop-opacity="0.3"/>
<stop offset="1" stop-color="white" stop-opacity="0"/>
</linearGradient>
<linearGradient id="paint3_linear_407_10342" x1="421.741" y1="7.56526" x2="352.11" y2="47.7666" gradientUnits="userSpaceOnUse">
<stop stop-color="white" stop-opacity="0.2"/>
<stop offset="1" stop-color="white"/>
</linearGradient>
<linearGradient id="paint4_linear_407_10342" x1="353" y1="-9.50012" x2="354.615" y2="41.0047" gradientUnits="userSpaceOnUse">
<stop stop-color="white" stop-opacity="0.3"/>
<stop offset="1" stop-color="white" stop-opacity="0"/>
</linearGradient>
<linearGradient id="paint5_linear_407_10342" x1="51.9892" y1="145.99" x2="51.9892" y2="185.996" gradientUnits="userSpaceOnUse">
<stop stop-color="#F9AA4B"/>
<stop offset="1" stop-color="#F7931A"/>
</linearGradient>
<clipPath id="clip0_407_10342">
<rect width="416" height="290" rx="16" fill="white"/>
</clipPath>
<clipPath id="clip1_407_10342">
<rect width="40" height="40" fill="white" transform="translate(32 74)"/>
</clipPath>
<clipPath id="clip2_407_10342">
<rect width="12" height="12" fill="white" transform="translate(330 87)"/>
</clipPath>
<clipPath id="clip3_407_10342">
<rect width="40" height="40" fill="white" transform="translate(32 146)"/>
</clipPath>
<clipPath id="clip4_407_10342">
<rect width="12" height="12" fill="white" transform="translate(330 160)"/>
</clipPath>
<clipPath id="clip5_407_10342">
<rect width="40" height="40" fill="white" transform="translate(32 218)"/>
</clipPath>
<clipPath id="clip6_407_10342">
<rect width="12" height="12" fill="white" transform="translate(330 232)"/>
</clipPath>
</defs>
</svg>
